<svg width="210" height="148" viewBox="0 0 210 148" fill="none" xmlns="http://www.w3.org/2000/svg">
<path d="M178.528 133.529C178.528 134.53 145.608 135.339 105 135.339C64.3916 135.339 31.472 134.524 31.472 133.529C31.472 132.534 64.4 131.719 105 131.719C145.6 131.719 178.528 132.531 178.528 133.529Z" fill="#F5F5F5"/>
<path d="M17.3264 21.9756H44.9428C45.9186 21.9756 46.8544 22.3843 47.5444 23.1119C48.2344 23.8394 48.622 24.8261 48.622 25.855V88.2274C48.622 89.5586 48.1205 90.8352 47.2278 91.7765C46.3352 92.7177 45.1244 93.2465 43.862 93.2465H18.4156C17.1532 93.2465 15.9425 92.7177 15.0498 91.7765C14.1571 90.8352 13.6556 89.5586 13.6556 88.2274V25.855C13.6556 24.8277 14.0421 23.8423 14.7303 23.115C15.4184 22.3877 16.3521 21.9779 17.3264 21.9756Z" fill="#263238"/>
<path d="M38.3852 23.5757L37.8252 24.7567H24.1388L23.3268 23.5757H16.856C16.6115 23.5742 16.3691 23.6234 16.1426 23.7206C15.9161 23.8179 15.71 23.9612 15.5361 24.1424C15.3622 24.3236 15.2238 24.5392 15.1288 24.7768C15.0339 25.0144 14.9843 25.2694 14.9828 25.5273V88.4134C14.9873 89.2006 15.2879 89.9537 15.8187 90.5073C16.3495 91.0609 17.067 91.3697 17.8136 91.3658H44.4556C44.8254 91.3681 45.192 91.2936 45.5344 91.1464C45.8769 90.9993 46.1884 90.7824 46.4513 90.5082C46.7142 90.234 46.9233 89.9079 47.0666 89.5484C47.2099 89.189 47.2846 88.8033 47.2864 88.4134V25.5273C47.285 25.2694 47.2353 25.0144 47.1404 24.7768C47.0455 24.5392 46.9071 24.3236 46.7331 24.1424C46.5592 23.9612 46.3531 23.8179 46.1266 23.7206C45.9002 23.6234 45.6577 23.5742 45.4132 23.5757H38.3852Z" fill="black"/>
<path d="M30.5564 24.057C30.8672 24.057 31.1192 23.7913 31.1192 23.4636C31.1192 23.1358 30.8672 22.8701 30.5564 22.8701C30.2456 22.8701 29.9936 23.1358 29.9936 23.4636C29.9936 23.7913 30.2456 24.057 30.5564 24.057Z" fill="white"/>
<path d="M31.9508 23.4637C31.9508 23.5221 31.9344 23.5792 31.9036 23.6277C31.8729 23.6763 31.8291 23.7141 31.778 23.7365C31.7268 23.7588 31.6705 23.7647 31.6162 23.7533C31.5619 23.7419 31.512 23.7138 31.4728 23.6725C31.4337 23.6312 31.407 23.5786 31.3962 23.5213C31.3854 23.464 31.3909 23.4047 31.4121 23.3507C31.4333 23.2968 31.4692 23.2507 31.5152 23.2182C31.5613 23.1858 31.6154 23.1685 31.6708 23.1685C31.7451 23.1685 31.8163 23.1996 31.8688 23.2549C31.9213 23.3103 31.9508 23.3854 31.9508 23.4637Z" fill="white"/>
<path d="M45.4132 23.5757H38.3852L37.8252 24.7567H24.1388L23.3268 23.5757H16.856C16.6115 23.5742 16.3691 23.6234 16.1426 23.7206C15.9161 23.8179 15.71 23.9612 15.5361 24.1424C15.3622 24.3236 15.2238 24.5392 15.1288 24.7768C15.0339 25.0144 14.9843 25.2694 14.9828 25.5273V41.6149H47.2864V25.5273C47.285 25.2694 47.2353 25.0144 47.1404 24.7768C47.0455 24.5392 46.9071 24.3236 46.7331 24.1424C46.5592 23.9612 46.3531 23.8179 46.1266 23.7206C45.9002 23.6234 45.6577 23.5742 45.4132 23.5757Z" fill="black"/>
<path opacity="0.6" d="M43.1004 24.813H42.8484V25.4123H43.1004V24.813Z" fill="white"/>
<path opacity="0.6" d="M45.29 24.5945H43.274V25.6337H45.29V24.5945Z" fill="white"/>
<path opacity="0.4" d="M47.2752 38.9224H15.0192V89.2844H47.2752V38.9224Z" fill="white"/>
<path opacity="0.2" d="M47.2752 46.6695V44.1481L39.6872 51.5291L31.6736 48.7155L36.694 38.9253H34.6752L32.536 43.0882L17.01 38.9194H15.0248V40.2746L20.8684 41.8364L16.1252 50.6434L27.2496 53.401L25.928 55.9902L15.008 53.1057V54.9923L25.0628 57.6495L21.8204 63.9853L16.6796 62.4619L15.0192 63.5661V65.7538L16.9792 64.4518L20.9804 65.6328L15.0192 77.2475V81.1889L18.914 73.5954L24.2116 75.1808V82.1101L35 89.2844H38.528L26.0036 80.9587V75.7093L47.2836 82.0658V80.1645L40.936 78.2602L42.8764 67.3806L47.2948 68.5615V66.6779L35.364 63.4952L40.6532 53.1205L47.2752 46.6695ZM18.8188 49.43L22.6604 42.3236L31.6932 44.7504L28.1092 51.7358L18.8188 49.43ZM41.118 66.9141L39.2 77.7494L19.7596 71.9332L25.2028 61.3045L27.286 63.6665L33.8324 64.9685L41.118 66.9141ZM33.558 63.0583L28.238 61.9924L26.1044 59.5862L30.8448 50.3393L38.64 53.0821L33.558 63.0583Z" fill="black"/>
<path opacity="0.6" d="M41.6752 36.1089H22.96C22.6409 36.1089 22.3348 35.9756 22.1086 35.7383C21.8825 35.5009 21.7547 35.1787 21.7532 34.8423C21.7539 34.5058 21.881 34.1834 22.1067 33.9455C22.3323 33.7075 22.6381 33.5735 22.9572 33.5728H41.6752C41.8333 33.5735 41.9897 33.6071 42.1355 33.6716C42.2813 33.7362 42.4136 33.8303 42.5249 33.9488C42.6362 34.0672 42.7243 34.2076 42.7841 34.3619C42.8439 34.5162 42.8743 34.6815 42.8736 34.8482C42.8714 35.1823 42.7443 35.5021 42.52 35.7381C42.2956 35.9741 41.9921 36.1073 41.6752 36.1089Z" fill="white"/>
<path d="M20.2916 33.9418C20.206 33.8513 20.1043 33.7795 19.9924 33.7305C19.8804 33.6815 19.7604 33.6562 19.6392 33.6562C19.518 33.6562 19.398 33.6815 19.286 33.7305C19.174 33.7795 19.0724 33.8513 18.9868 33.9418C18.8175 34.1239 18.7227 34.3688 18.7227 34.6238C18.7227 34.8788 18.8175 35.1237 18.9868 35.3058L19.6336 35.9878L20.2804 35.3058C20.4512 35.1253 20.548 34.8813 20.5501 34.6262C20.5522 34.3712 20.4594 34.1255 20.2916 33.9418ZM19.9304 34.9368C19.8728 34.9974 19.7995 35.0387 19.7196 35.0554C19.6398 35.0721 19.5571 35.0635 19.4819 35.0306C19.4067 34.9978 19.3424 34.9422 19.2972 34.8708C19.252 34.7994 19.2279 34.7155 19.2279 34.6297C19.2279 34.5439 19.252 34.46 19.2972 34.3887C19.3424 34.3173 19.4067 34.2617 19.4819 34.2288C19.5571 34.1959 19.6398 34.1873 19.7196 34.204C19.7995 34.2207 19.8728 34.262 19.9304 34.3227C19.969 34.3628 19.9996 34.4106 20.0206 34.4633C20.0415 34.516 20.0523 34.5726 20.0523 34.6297C20.0523 34.6869 20.0415 34.7434 20.0206 34.7962C19.9996 34.8489 19.969 34.8967 19.9304 34.9368Z" fill="white"/>
<path d="M39.8636 77.3745C39.6335 77.3832 39.411 77.4631 39.2236 77.6042C39.0363 77.7453 38.8925 77.9414 38.8101 78.168C38.7277 78.3947 38.7104 78.6419 38.7603 78.8789C38.8102 79.1159 38.9251 79.3321 39.0907 79.5007C39.2564 79.6693 39.4654 79.7828 39.6917 79.8271C39.9181 79.8713 40.1518 79.8444 40.3637 79.7496C40.5757 79.6548 40.7565 79.4964 40.8836 79.294C41.0108 79.0916 41.0786 78.8543 41.0788 78.6115C41.0762 78.4461 41.0428 78.2829 40.9803 78.1311C40.9178 77.9793 40.8275 77.8421 40.7146 77.7272C40.6017 77.6122 40.4685 77.5219 40.3224 77.4614C40.1764 77.4009 40.0205 77.3714 39.8636 77.3745ZM39.8636 79.4146C39.7135 79.4094 39.5681 79.3576 39.4457 79.2658C39.3233 79.174 39.2293 79.0462 39.1753 78.8984C39.1214 78.7506 39.11 78.5892 39.1425 78.4346C39.175 78.28 39.25 78.1389 39.3581 78.0289C39.4662 77.9189 39.6027 77.845 39.7504 77.8164C39.8981 77.7877 40.0506 77.8055 40.1888 77.8677C40.3269 77.9298 40.4447 78.0335 40.5273 78.1658C40.6099 78.2981 40.6537 78.4532 40.6532 78.6115C40.6514 78.719 40.6295 78.8249 40.5888 78.9234C40.5482 79.0219 40.4895 79.111 40.4162 79.1855C40.3428 79.2601 40.2563 79.3187 40.1615 79.358C40.0667 79.3973 39.9654 79.4166 39.8636 79.4146Z" fill="white"/>
<path d="M40.3452 78.6115C40.3485 78.7126 40.3232 78.8125 40.2723 78.8983C40.2215 78.9841 40.1475 79.0519 40.0598 79.0931C39.9722 79.1342 39.8749 79.1469 39.7804 79.1293C39.6859 79.1118 39.5985 79.0649 39.5295 78.9946C39.4604 78.9243 39.4128 78.8339 39.3929 78.735C39.3729 78.636 39.3814 78.533 39.4173 78.4392C39.4532 78.3453 39.5149 78.265 39.5944 78.2083C39.6739 78.1517 39.7676 78.1214 39.8636 78.1214C39.9889 78.1198 40.1097 78.1704 40.1999 78.2621C40.29 78.3539 40.3423 78.4794 40.3452 78.6115Z" fill="white"/>
<path opacity="0.4" d="M35.7 43.2625L33.138 48.2963L39.69 50.3423L43.3076 46.5426C40.7125 45.6086 38.1722 44.5133 35.7 43.2625Z" fill="white"/>
<path opacity="0.4" d="M47.2752 38.9194V42.356L44.0692 45.7454C41.9132 44.963 39.7852 44.1186 37.7132 43.1384C37.1896 42.8934 36.6688 42.6365 36.1564 42.3708L37.9008 38.9194H47.2752Z" fill="white"/>
<path opacity="0.4" d="M31.1472 51.4553L37.2316 53.5427L34.188 60.0202L28.014 58.0008L31.1472 51.4553Z" fill="white"/>
<path opacity="0.4" d="M37.24 62.6065C37.2932 62.4324 40.2304 56.2471 40.2304 56.2471L44.5816 57.6258L45.3488 64.6201L37.24 62.6065Z" fill="white"/>
<path opacity="0.4" d="M41.2888 55.0071L45.8472 56.2471L46.214 50.98L42.098 53.271L41.2888 55.0071Z" fill="white"/>
<path opacity="0.4" d="M28.3248 72.199C28.4172 72.1222 30.4388 65.7834 30.4388 65.7834L39.8636 67.4722L38.2928 75.9338L28.3248 72.199Z" fill="white"/>
<path opacity="0.4" d="M23.254 68.5764L26.096 69.53L24.6736 72.1872C24.6736 72.1872 21.6804 71.4875 21.6804 71.2838C21.6804 71.0801 23.254 68.5764 23.254 68.5764Z" fill="white"/>
<path opacity="0.4" d="M23.4108 76.6011C23.3408 76.7753 21.6132 89.2964 21.6132 89.2964H15.0192L15.2152 85.0361L19.208 75.677L23.4108 76.6011Z" fill="white"/>
<path opacity="0.4" d="M47.2752 82.7774V88.0592L40.0652 88.3545L33.7988 83.604C33.7988 83.604 34.8768 80.445 35.1988 79.4412L47.2752 82.7774Z" fill="white"/>
<path opacity="0.4" d="M34.2356 79.1578L28.8232 77.658L28.0532 80.3653L32.9532 83.0608C32.9532 83.0608 34.2356 79.4146 34.2356 79.1578Z" fill="white"/>
<path opacity="0.4" d="M47.2752 71.9392V77.7082L42.294 76.6011L43.3076 71.1421L47.2752 71.9392Z" fill="white"/>
<path opacity="0.4" d="M17.472 60.8825L19.0512 57.2097L23.45 58.5294L21.6804 62.3676L17.472 60.8825Z" fill="white"/>
<path opacity="0.4" d="M21.4788 48.1045L23.6488 44.1069L29.5316 45.8429L27.5576 50.1121L21.4788 48.1045Z" fill="white"/>
<path opacity="0.4" d="M33.236 38.9194C32.676 40.0413 31.9872 41.4674 31.8752 41.5589C31.7632 41.6504 24.4888 39.7727 21.28 38.9194H33.236Z" fill="white"/>
<path opacity="0.4" d="M19.0484 42.9347L15.0192 51.5026V41.8689L19.0484 42.9347Z" fill="white"/>
<path d="M40.3452 77.1236H40.3004C40.2364 77.112 40.1792 77.0748 40.1406 77.0198C40.102 76.9648 40.085 76.8962 40.0932 76.8284L41.8432 66.5422C37.2873 65.1285 32.6589 63.989 27.9804 63.1292C27.925 63.1197 27.874 63.0918 27.8348 63.0495L24.8808 59.8019C24.8456 59.7633 24.8228 59.714 24.8158 59.661C24.8087 59.6079 24.8178 59.5539 24.8416 59.5066L28.28 52.7781L17.4412 50.2833C17.4088 50.2767 17.3779 50.2632 17.3505 50.2438C17.3231 50.2243 17.2997 50.1992 17.2817 50.17C17.2637 50.1408 17.2514 50.1081 17.2456 50.0738C17.2398 50.0395 17.2406 50.0044 17.248 49.9704C17.2535 49.9467 17.2619 49.9238 17.2732 49.9025L20.9132 43.1297C20.9509 43.0712 21.0072 43.0289 21.0719 43.0104C21.1367 42.992 21.2055 42.9987 21.266 43.0293C21.2953 43.0456 21.3213 43.0681 21.3422 43.0952C21.3631 43.1224 21.3786 43.1537 21.3878 43.1874C21.3969 43.221 21.3995 43.2563 21.3954 43.291C21.3914 43.3257 21.3807 43.3592 21.364 43.3895L17.8612 49.8612L28.6944 52.3559C28.7266 52.3629 28.7573 52.3766 28.7845 52.3962C28.8117 52.4158 28.8349 52.4408 28.8529 52.4699C28.8708 52.499 28.8832 52.5316 28.8891 52.5657C28.8951 52.5999 28.8946 52.6349 28.8876 52.6689C28.8839 52.6909 28.8763 52.7119 28.8652 52.7309L25.368 59.5775L28.14 62.6273C32.8868 63.5027 37.5818 64.6659 42.2016 66.1112C42.2605 66.1285 42.3112 66.1683 42.3438 66.2229C42.3764 66.2775 42.3886 66.3429 42.378 66.4064L40.6 76.9051C40.5888 76.9674 40.5571 77.0235 40.5104 77.0634C40.4638 77.1034 40.4053 77.1247 40.3452 77.1236Z" fill="white"/>
<path d="M22.2908 39.7521C22.0291 39.4816 21.6773 39.3301 21.3108 39.3301C20.9443 39.3301 20.5925 39.4816 20.3308 39.7521C20.0743 40.028 19.9306 40.399 19.9306 40.7854C19.9306 41.1718 20.0743 41.5428 20.3308 41.8187L21.3108 42.8521L22.2908 41.8187C22.5473 41.5428 22.691 41.1718 22.691 40.7854C22.691 40.399 22.5473 40.028 22.2908 39.7521ZM21.7308 41.2519C21.6435 41.3441 21.5323 41.407 21.4111 41.4325C21.29 41.458 21.1643 41.4451 21.0502 41.3953C20.936 41.3455 20.8384 41.2611 20.7697 41.1528C20.701 41.0445 20.6644 40.9172 20.6644 40.7869C20.6644 40.6566 20.701 40.5292 20.7697 40.4209C20.8384 40.3126 20.936 40.2282 21.0502 40.1785C21.1643 40.1287 21.29 40.1157 21.4111 40.1413C21.5323 40.1668 21.6435 40.2296 21.7308 40.3219C21.7906 40.3824 21.8384 40.4548 21.8714 40.535C21.9044 40.6151 21.922 40.7014 21.923 40.7888C21.9241 40.8762 21.9086 40.963 21.8775 41.044C21.8464 41.125 21.8004 41.1987 21.742 41.2607L21.7308 41.2519Z" fill="white"/>
<path d="M37.9008 40.239H26.138C25.555 40.239 25.0824 40.7373 25.0824 41.3521V45.5711C25.0824 46.1858 25.555 46.6841 26.138 46.6841H37.9008C38.4838 46.6841 38.9564 46.1858 38.9564 45.5711V41.3521C38.9564 40.7373 38.4838 40.239 37.9008 40.239Z" fill="white"/>
<path d="M28.3332 43.3599C28.7987 43.3599 29.176 42.962 29.176 42.4712C29.176 41.9804 28.7987 41.5825 28.3332 41.5825C27.8678 41.5825 27.4904 41.9804 27.4904 42.4712C27.4904 42.962 27.8678 43.3599 28.3332 43.3599Z" fill="black"/>
<path d="M28.3332 43.4631C27.9765 43.4639 27.6346 43.6139 27.3827 43.8801C27.1307 44.1464 26.9892 44.5071 26.9892 44.8832H29.68C29.68 44.6967 29.6452 44.5121 29.5775 44.3398C29.5098 44.1675 29.4106 44.0109 29.2855 43.8791C29.1605 43.7472 29.012 43.6426 28.8486 43.5712C28.6852 43.4999 28.5101 43.4631 28.3332 43.4631Z" fill="black"/>
<path d="M32.0992 43.3598C32.2654 43.3598 32.4278 43.3079 32.5659 43.2105C32.704 43.1132 32.8117 42.9749 32.8753 42.8131C32.9389 42.6512 32.9555 42.4731 32.9231 42.3013C32.8907 42.1295 32.8107 41.9717 32.6932 41.8478C32.5757 41.7239 32.426 41.6396 32.2631 41.6054C32.1001 41.5712 31.9313 41.5888 31.7778 41.6558C31.6243 41.7228 31.4931 41.8364 31.4008 41.982C31.3085 42.1277 31.2592 42.2989 31.2592 42.4741C31.2592 42.709 31.3477 42.9343 31.5052 43.1004C31.6628 43.2665 31.8764 43.3598 32.0992 43.3598Z" fill="black"/>
<path d="M32.0992 43.4631C31.7422 43.4639 31.4001 43.6138 31.1477 43.8799C30.8953 44.1461 30.7532 44.5068 30.7524 44.8832H33.446C33.446 44.5066 33.3041 44.1454 33.0515 43.8791C32.799 43.6128 32.4564 43.4631 32.0992 43.4631Z" fill="black"/>
<path d="M35.8652 43.4335C35.6847 43.4335 35.5082 43.3771 35.3581 43.2713C35.208 43.1655 35.091 43.0152 35.0219 42.8394C34.9528 42.6635 34.9347 42.47 34.9699 42.2833C35.0052 42.0966 35.0921 41.9251 35.2197 41.7905C35.3474 41.6558 35.51 41.5642 35.6871 41.527C35.8642 41.4899 36.0477 41.509 36.2145 41.5818C36.3813 41.6547 36.5239 41.778 36.6242 41.9363C36.7245 42.0946 36.778 42.2807 36.778 42.471C36.778 42.7263 36.6818 42.9711 36.5106 43.1516C36.3395 43.3321 36.1073 43.4335 35.8652 43.4335ZM35.8652 41.6621C35.7123 41.6621 35.5629 41.7099 35.4358 41.7994C35.3088 41.8889 35.2097 42.0162 35.1512 42.1651C35.0927 42.314 35.0774 42.4778 35.1072 42.6359C35.1371 42.794 35.2107 42.9392 35.3187 43.0531C35.4268 43.1671 35.5645 43.2447 35.7144 43.2761C35.8643 43.3076 36.0197 43.2914 36.1609 43.2298C36.3021 43.1681 36.4228 43.0636 36.5078 42.9296C36.5927 42.7956 36.638 42.6381 36.638 42.4769C36.6384 42.3695 36.6187 42.2631 36.58 42.1637C36.5414 42.0644 36.4846 41.974 36.4128 41.8978C36.341 41.8216 36.2558 41.761 36.1618 41.7195C36.0678 41.6781 35.967 41.6566 35.8652 41.6562V41.6621Z" fill="black"/>
<path d="M37.282 44.9571H34.44V44.8833C34.44 44.4871 34.5893 44.1071 34.855 43.827C35.1207 43.5468 35.481 43.3894 35.8568 43.3894C36.2326 43.3894 36.5929 43.5468 36.8586 43.827C37.1243 44.1071 37.2736 44.4871 37.2736 44.8833L37.282 44.9571ZM34.5912 44.8095H37.1392C37.1178 44.4686 36.9742 44.1491 36.7376 43.9156C36.5011 43.6822 36.1892 43.5523 35.8652 43.5523C35.5412 43.5523 35.2293 43.6822 34.9928 43.9156C34.7562 44.1491 34.6126 44.4686 34.5912 44.8095Z" fill="black"/>
<path d="M25.7264 40.239H23.3128C23.3128 40.239 25.3344 41.9514 25.382 41.9514C25.4296 41.9514 25.7264 40.239 25.7264 40.239Z" fill="white"/>
<path opacity="0.4" d="M23.4108 89.2844C23.2036 89.2844 25.046 85.1127 25.0348 85.033C24.9844 84.6994 31.8416 89.2844 31.8416 89.2844H23.4108Z" fill="white"/>
<path d="M104.345 31.0572C106.325 29.0324 108.981 27.9098 111.739 27.932C114.497 27.9541 117.136 29.1191 119.087 31.1754C121.037 33.2317 122.143 36.0144 122.164 38.9227C122.186 41.831 121.122 44.6315 119.202 46.7196L113.268 52.9787C112.873 53.3959 112.336 53.6303 111.776 53.6303C111.216 53.6303 110.679 53.3959 110.284 52.9787L104.345 46.7167C102.376 44.6395 101.271 41.8233 101.271 38.8869C101.271 35.9506 102.376 33.1343 104.345 31.0572ZM111.773 44.0477C112.738 44.0477 113.681 43.7461 114.483 43.181C115.285 42.6158 115.91 41.8126 116.28 40.8728C116.649 39.933 116.745 38.8989 116.557 37.9013C116.369 36.9036 115.904 35.9872 115.222 35.2679C114.54 34.5487 113.671 34.0588 112.725 33.8604C111.779 33.6619 110.798 33.7638 109.907 34.1531C109.015 34.5423 108.254 35.2015 107.718 36.0473C107.182 36.8931 106.896 37.8874 106.896 38.9046C106.899 40.2669 107.414 41.5723 108.328 42.5348C109.242 43.4972 110.481 44.0381 111.773 44.0389V44.0477Z" fill="black"/>
<path d="M167.04 52.2171H166.76V41.491H122.024V41.1958H167.04V52.2171Z" fill="black"/>
<path d="M166.9 52.7899C167.517 52.7899 168.017 52.2624 168.017 51.6118C168.017 50.9613 167.517 50.4338 166.9 50.4338C166.283 50.4338 165.782 50.9613 165.782 51.6118C165.782 52.2624 166.283 52.7899 166.9 52.7899Z" fill="black"/>
<path d="M199.018 45.8046C201.713 44.1757 202.646 40.5512 201.101 37.7091C199.556 34.867 196.119 33.8836 193.423 35.5126C190.728 37.1416 189.795 40.7661 191.34 43.6082C192.885 46.4502 196.323 47.4336 199.018 45.8046Z" fill="black"/>
<path d="M192.455 43.1178L191.016 42.9465L190.425 44.7711L192.217 44.6737L192.455 43.1178Z" fill="black"/>
<path d="M203.062 40.4427C203.044 40.4412 203.027 40.4324 203.015 40.4181C203.003 40.4038 202.996 40.3851 202.997 40.366C203.036 39.4123 202.851 38.4632 202.461 37.602C202.07 36.7408 201.485 35.9939 200.757 35.4266C200.748 35.4218 200.74 35.4149 200.734 35.4066C200.728 35.3982 200.723 35.3885 200.721 35.3781C200.719 35.3678 200.718 35.357 200.72 35.3465C200.722 35.3361 200.727 35.3262 200.732 35.3176C200.738 35.309 200.746 35.3018 200.755 35.2966C200.764 35.2914 200.773 35.2882 200.783 35.2874C200.794 35.2865 200.804 35.2879 200.813 35.2916C200.823 35.2952 200.831 35.301 200.838 35.3085C201.587 35.8894 202.188 36.6553 202.589 37.5387C202.99 38.4222 203.18 39.3961 203.14 40.3748C203.139 40.3848 203.137 40.3946 203.132 40.4034C203.128 40.4123 203.122 40.4202 203.115 40.4265C203.107 40.4329 203.099 40.4376 203.09 40.4404C203.081 40.4432 203.071 40.444 203.062 40.4427Z" fill="black"/>
<path d="M202.832 42.1847C202.823 42.1879 202.813 42.1879 202.804 42.1847C202.795 42.1815 202.788 42.1764 202.781 42.1698C202.774 42.1631 202.769 42.1551 202.766 42.1461C202.762 42.1372 202.761 42.1276 202.761 42.1179C202.761 42.1083 202.764 42.0989 202.768 42.0902C202.87 41.8261 202.92 41.5429 202.916 41.2577C202.915 41.248 202.916 41.2383 202.919 41.2291C202.923 41.22 202.927 41.2116 202.934 41.2046C202.94 41.1976 202.948 41.1922 202.956 41.1886C202.965 41.185 202.974 41.1834 202.983 41.1838C202.993 41.183 203.002 41.1842 203.011 41.1874C203.02 41.1906 203.028 41.1957 203.034 41.2024C203.041 41.209 203.047 41.2171 203.05 41.2261C203.054 41.2351 203.056 41.2449 203.056 41.2547C203.06 41.5583 203.006 41.8596 202.896 42.1404C202.891 42.1536 202.882 42.1648 202.871 42.1727C202.859 42.1806 202.846 42.1848 202.832 42.1847Z" fill="black"/>
<path d="M196.358 40.6791C196.58 40.6791 196.797 40.6098 196.981 40.48C197.165 40.3503 197.308 40.1658 197.393 39.95C197.478 39.7342 197.5 39.4968 197.457 39.2677C197.414 39.0386 197.307 38.8282 197.15 38.663C196.994 38.4979 196.794 38.3854 196.577 38.3398C196.36 38.2943 196.135 38.3177 195.93 38.407C195.725 38.4964 195.55 38.6478 195.427 38.842C195.304 39.0362 195.238 39.2645 195.238 39.4981C195.238 39.8113 195.356 40.1117 195.567 40.3332C195.777 40.5546 196.061 40.6791 196.358 40.6791Z" fill="white"/>
<path d="M196.358 40.8179C196.122 40.8179 195.887 40.8671 195.669 40.9627C195.45 41.0582 195.252 41.1983 195.084 41.3749C194.917 41.5515 194.785 41.7612 194.694 41.9918C194.604 42.2225 194.558 42.4697 194.558 42.7192H198.162C198.162 42.2149 197.972 41.7313 197.634 41.3748C197.295 41.0182 196.837 40.8179 196.358 40.8179Z" fill="white"/>
<path d="M83.172 53.7959C84.3187 50.7514 82.9076 47.3032 80.0202 46.0941C77.1329 44.885 73.8627 46.3729 72.716 49.4174C71.5693 52.4619 72.9804 55.9101 75.8677 57.1192C78.7551 58.3283 82.0253 56.8404 83.172 53.7959Z" fill="black"/>
<path d="M80.1556 55.6331L79.7664 57.1063L81.3792 58.0097L81.5752 56.1291L80.1556 55.6331Z" fill="black"/>
<path d="M84.7896 51.4023C84.7708 51.4007 84.7533 51.3916 84.7407 51.3767C84.7282 51.3618 84.7216 51.3424 84.7224 51.3225C84.7613 50.3692 84.5773 49.4203 84.1867 48.5595C83.7961 47.6987 83.2108 46.9524 82.4824 46.3861C82.4672 46.3748 82.4569 46.3575 82.4537 46.3381C82.4506 46.3187 82.4548 46.2988 82.4656 46.2828C82.4764 46.2667 82.4928 46.2559 82.5111 46.2525C82.5295 46.2492 82.5484 46.2537 82.5636 46.2651C83.3119 46.8458 83.9132 47.6116 84.3145 48.4951C84.7159 49.3786 84.905 50.3527 84.8652 51.3314C84.8638 51.3512 84.8551 51.3697 84.841 51.3829C84.8269 51.3961 84.8085 51.4031 84.7896 51.4023Z" fill="black"/>
<path d="M84.56 53.1442H84.532C84.5153 53.1358 84.5023 53.1211 84.4956 53.103C84.4888 53.0849 84.4888 53.0648 84.4956 53.0467C84.5987 52.7839 84.6492 52.5015 84.644 52.2171C84.644 52.1975 84.6514 52.1788 84.6645 52.1649C84.6776 52.1511 84.6954 52.1433 84.714 52.1433C84.7325 52.1433 84.7503 52.1511 84.7635 52.1649C84.7766 52.1788 84.784 52.1975 84.784 52.2171C84.7884 52.5207 84.7341 52.8221 84.6244 53.1028C84.6185 53.1155 84.6093 53.1261 84.5979 53.1334C84.5865 53.1408 84.5733 53.1445 84.56 53.1442Z" fill="black"/>
<path d="M77.9464 51.7832C78.5696 51.7832 79.0748 51.2505 79.0748 50.5934C79.0748 49.9363 78.5696 49.4036 77.9464 49.4036C77.3232 49.4036 76.818 49.9363 76.818 50.5934C76.818 51.2505 77.3232 51.7832 77.9464 51.7832Z" fill="white"/>
<path d="M77.9464 51.9219C77.4689 51.9219 77.011 52.1219 76.6733 52.4779C76.3357 52.8339 76.146 53.3168 76.146 53.8203H79.7496C79.7496 53.5707 79.7029 53.3236 79.6123 53.0931C79.5216 52.8626 79.3888 52.6532 79.2213 52.4769C79.0538 52.3005 78.855 52.1608 78.6362 52.0655C78.4175 51.9703 78.1831 51.9215 77.9464 51.9219Z" fill="white"/>
<path d="M197.624 116.326L200.379 114.037C202.138 116.148 203.557 118.251 204.627 119.505L203.963 121.15L202.16 120.772C200.732 119.197 199.218 117.712 197.624 116.326Z" fill="#B97964"/>
<path d="M200.264 119.358L201.337 118.637C202.434 119.228 202.653 118.755 202.787 117.716C203.067 117.468 203.386 117.79 203.473 117.873L205.408 119.718C205.486 119.792 205.534 119.895 205.54 120.006C205.547 120.117 205.511 120.225 205.442 120.308C205.415 120.339 205.385 120.366 205.352 120.388L202.779 122.124L199.172 124.545C198.19 125.206 197.355 124.3 197.702 123.931C199.268 122.284 200.222 120.855 200.441 119.916C200.48 119.739 200.334 119.736 200.264 119.358Z" fill="black"/>
<path d="M201.04 120.435C201.03 120.438 201.019 120.438 201.009 120.435C200.872 120.369 200.723 120.335 200.572 120.335C200.422 120.335 200.273 120.369 200.136 120.435C200.127 120.439 200.118 120.441 200.109 120.442C200.1 120.442 200.09 120.44 200.082 120.436C200.073 120.433 200.065 120.428 200.059 120.421C200.052 120.414 200.047 120.406 200.043 120.397C200.039 120.388 200.037 120.379 200.036 120.369C200.035 120.359 200.037 120.35 200.04 120.341C200.043 120.331 200.048 120.323 200.054 120.316C200.061 120.309 200.068 120.303 200.077 120.3C200.233 120.224 200.402 120.185 200.574 120.185C200.745 120.185 200.915 120.224 201.071 120.3C201.087 120.308 201.1 120.323 201.107 120.341C201.113 120.359 201.112 120.379 201.104 120.397C201.097 120.408 201.088 120.418 201.077 120.425C201.065 120.431 201.053 120.435 201.04 120.435Z" fill="#263238"/>
<path d="M200.788 121.144H200.757C200.62 121.078 200.471 121.043 200.32 121.043C200.17 121.043 200.021 121.078 199.884 121.144C199.875 121.148 199.866 121.151 199.857 121.151C199.848 121.152 199.839 121.151 199.83 121.147C199.821 121.144 199.814 121.139 199.807 121.132C199.8 121.125 199.795 121.117 199.791 121.108C199.787 121.1 199.785 121.09 199.784 121.081C199.783 121.071 199.785 121.061 199.788 121.052C199.791 121.043 199.796 121.035 199.802 121.027C199.809 121.02 199.816 121.015 199.825 121.011C199.981 120.935 200.15 120.896 200.322 120.896C200.493 120.896 200.663 120.935 200.819 121.011C200.835 121.019 200.848 121.034 200.855 121.052C200.861 121.071 200.86 121.091 200.852 121.108C200.845 121.12 200.836 121.129 200.825 121.135C200.813 121.141 200.801 121.144 200.788 121.144Z" fill="#263238"/>
<path d="M200.379 121.873C200.37 121.876 200.36 121.876 200.351 121.873C200.213 121.808 200.064 121.774 199.913 121.774C199.762 121.774 199.612 121.808 199.475 121.873C199.466 121.877 199.457 121.88 199.448 121.88C199.439 121.88 199.429 121.879 199.421 121.875C199.412 121.872 199.404 121.867 199.397 121.86C199.39 121.853 199.385 121.845 199.381 121.836C199.377 121.827 199.375 121.818 199.375 121.808C199.374 121.798 199.376 121.788 199.379 121.779C199.382 121.77 199.387 121.762 199.394 121.754C199.4 121.747 199.408 121.741 199.416 121.737C199.572 121.662 199.741 121.623 199.913 121.623C200.084 121.623 200.254 121.662 200.41 121.737C200.418 121.741 200.426 121.747 200.432 121.754C200.439 121.761 200.444 121.769 200.447 121.778C200.45 121.788 200.451 121.797 200.451 121.807C200.45 121.817 200.448 121.826 200.444 121.835C200.438 121.847 200.428 121.857 200.417 121.864C200.405 121.871 200.392 121.874 200.379 121.873Z" fill="#263238"/>
<path opacity="0.7" d="M205.442 120.305C205.415 120.336 205.385 120.363 205.352 120.385L202.779 122.124L199.172 124.545C198.986 124.692 198.76 124.774 198.527 124.779C198.294 124.784 198.066 124.713 197.873 124.575C198.024 124.474 205.223 119.721 205.296 119.623L205.436 119.765C205.499 119.839 205.534 119.935 205.535 120.034C205.536 120.134 205.503 120.23 205.442 120.305Z" fill="white"/>
<path d="M181.364 116.243L185.64 119.021C185.321 122.402 184.52 125.472 184.831 127.131L183.453 128.174L181.574 126.107C181.574 126.107 181.734 120.057 181.364 116.243Z" fill="#B97964"/>
<path d="M181.404 124.616L182.675 124.589C183.324 125.688 183.742 125.41 184.355 124.589C184.724 124.536 184.831 124.979 184.864 125.1L185.609 127.734C185.64 127.839 185.63 127.954 185.581 128.051C185.532 128.149 185.449 128.223 185.349 128.256C185.312 128.268 185.273 128.274 185.234 128.274L182.182 128.342L177.909 128.439C176.744 128.463 176.478 127.232 176.957 127.108C179.105 126.556 180.617 125.853 181.272 125.174C181.404 125.077 181.275 124.979 181.404 124.616Z" fill="black"/>
<path d="M181.572 125.962C181.56 125.963 181.548 125.96 181.538 125.954C181.528 125.948 181.519 125.94 181.513 125.93C181.429 125.797 181.319 125.686 181.191 125.603C181.062 125.519 180.918 125.467 180.768 125.448C180.759 125.447 180.75 125.444 180.742 125.44C180.734 125.435 180.726 125.428 180.721 125.421C180.715 125.413 180.711 125.404 180.708 125.395C180.706 125.385 180.705 125.375 180.706 125.366C180.707 125.356 180.71 125.346 180.714 125.338C180.718 125.329 180.724 125.321 180.732 125.315C180.739 125.309 180.748 125.304 180.757 125.302C180.766 125.3 180.776 125.299 180.785 125.301C180.954 125.323 181.117 125.384 181.262 125.479C181.406 125.574 181.53 125.7 181.625 125.85C181.634 125.866 181.638 125.886 181.634 125.904C181.631 125.923 181.62 125.94 181.605 125.95C181.595 125.958 181.584 125.962 181.572 125.962Z" fill="#263238"/>
<path d="M181.006 126.441C180.994 126.44 180.983 126.437 180.973 126.432C180.963 126.426 180.954 126.418 180.947 126.408C180.863 126.276 180.753 126.164 180.625 126.081C180.496 125.997 180.352 125.944 180.202 125.924C180.184 125.922 180.168 125.912 180.156 125.897C180.145 125.882 180.139 125.863 180.141 125.844C180.141 125.834 180.144 125.825 180.148 125.816C180.153 125.807 180.159 125.799 180.166 125.793C180.174 125.787 180.182 125.783 180.191 125.78C180.2 125.778 180.21 125.778 180.219 125.779C180.388 125.802 180.55 125.862 180.695 125.956C180.84 126.051 180.964 126.176 181.059 126.325C181.069 126.342 181.072 126.362 181.069 126.381C181.065 126.4 181.055 126.417 181.04 126.429C181.03 126.436 181.018 126.44 181.006 126.441Z" fill="#263238"/>
<path d="M180.3 126.848C180.288 126.849 180.276 126.846 180.266 126.84C180.255 126.833 180.247 126.824 180.242 126.813C180.158 126.68 180.048 126.569 179.919 126.486C179.791 126.403 179.647 126.35 179.497 126.331C179.488 126.33 179.479 126.327 179.471 126.322C179.462 126.318 179.455 126.311 179.45 126.304C179.444 126.296 179.44 126.287 179.437 126.278C179.435 126.268 179.434 126.258 179.435 126.249C179.435 126.239 179.438 126.229 179.442 126.221C179.446 126.212 179.452 126.204 179.459 126.198C179.466 126.192 179.474 126.187 179.483 126.185C179.492 126.182 179.502 126.182 179.511 126.184C179.68 126.206 179.843 126.267 179.988 126.362C180.133 126.456 180.256 126.583 180.351 126.733C180.357 126.744 180.36 126.757 180.361 126.769C180.361 126.782 180.358 126.795 180.353 126.807C180.347 126.818 180.339 126.828 180.329 126.835C180.319 126.842 180.307 126.847 180.295 126.848H180.3Z" fill="#263238"/>
<path opacity="0.7" d="M185.36 128.262C185.323 128.274 185.284 128.28 185.245 128.28L182.193 128.348L177.92 128.445C177.689 128.467 177.457 128.412 177.256 128.288C177.055 128.164 176.896 127.978 176.8 127.754C176.977 127.754 185.48 127.633 185.581 127.589L185.632 127.787C185.649 127.887 185.631 127.991 185.581 128.079C185.531 128.166 185.452 128.231 185.36 128.262Z" fill="white"/>
<path d="M187.138 51.7004C187.138 51.7004 186.659 50.0353 187.163 46.9293L187.004 46.8703C187.074 46.4363 187.152 46.0318 187.23 45.6893C187.231 45.6844 187.231 45.6795 187.23 45.6746L183.59 48.6831C183.786 49.6337 183.658 51.5321 183.548 52.3411C183.548 52.3411 183.207 53.8173 185.007 53.6697C186.334 53.5516 187.138 51.7004 187.138 51.7004Z" fill="#B97964"/>
<path opacity="0.2" d="M183.68 50.0384L185.87 49.2354C185.744 49.9971 185.22 50.9448 183.666 51.2017C183.7 50.8149 183.705 50.4259 183.68 50.0384Z" fill="black"/>
<path d="M187.04 43.667C187.057 46.3065 187.116 47.8004 185.94 49.2235C184.173 51.3699 181.087 50.4044 180.32 47.824C179.631 45.4916 179.718 41.5679 182.098 40.3692C182.625 40.1041 183.208 39.9844 183.791 40.0211C184.374 40.0579 184.939 40.2499 185.433 40.5794C185.926 40.9088 186.333 41.3648 186.614 41.9048C186.895 42.4447 187.041 43.0511 187.04 43.667Z" fill="#B97964"/>
<path d="M187.16 40.4814C186.724 39.0583 183.28 39.3004 182.367 40.0976C182.23 40.2186 184.327 41.1545 184.212 41.1162L185.195 41.3966C185.34 41.3524 185.643 41.5118 185.825 41.9871C185.825 41.9871 185.976 46.026 187.135 47.1154C187.975 46.6047 187.925 45.0015 188.138 44.0331C188.454 42.5835 188.812 40.4725 187.16 40.4814Z" fill="#263238"/>
<path d="M188.174 45.787C188.1 46.1054 187.966 46.4051 187.781 46.6687C187.596 46.9323 187.363 47.1544 187.096 47.3222C186.376 47.7651 186.043 46.9266 186.06 46.094C186.077 45.3441 186.225 44.42 187.034 44.3226C187.844 44.2251 188.353 44.9957 188.174 45.787Z" fill="#B97964"/>
<path d="M183.529 44.6826C183.546 44.9513 183.425 45.1756 183.249 45.1875C183.072 45.1993 182.932 44.9867 182.916 44.718C182.899 44.4494 183.019 44.222 183.196 44.2132C183.372 44.2043 183.512 44.4139 183.529 44.6826Z" fill="#263238"/>
<path d="M181.028 44.913C181.045 45.1817 180.925 45.409 180.748 45.4209C180.572 45.4327 180.432 45.2201 180.415 44.9514C180.398 44.6828 180.519 44.4554 180.695 44.4466C180.872 44.4377 181.012 44.6444 181.028 44.913Z" fill="#263238"/>
<path d="M181.835 44.7063C181.835 44.7063 181.112 46.0998 180.888 46.6637C181.266 46.9767 181.868 46.7759 181.868 46.7759L181.835 44.7063Z" fill="#A24E3F"/>
<path d="M184.069 43.3689C184.051 43.3804 184.03 43.3864 184.009 43.3864C183.988 43.3864 183.967 43.3804 183.949 43.3689C183.827 43.2761 183.685 43.2149 183.536 43.1903C183.388 43.1657 183.235 43.1783 183.092 43.2272C183.063 43.24 183.03 43.24 183 43.2273C182.971 43.2146 182.948 43.1901 182.935 43.1593C182.929 43.1442 182.925 43.1279 182.925 43.1114C182.924 43.0948 182.927 43.0783 182.933 43.0629C182.939 43.0475 182.947 43.0335 182.958 43.0216C182.969 43.0098 182.982 43.0004 182.997 42.994C183.178 42.9294 183.37 42.911 183.559 42.9403C183.748 42.9695 183.928 43.0456 184.083 43.1623C184.096 43.1712 184.108 43.1829 184.117 43.1965C184.126 43.2102 184.132 43.2256 184.135 43.2419C184.138 43.2581 184.138 43.2748 184.135 43.2911C184.132 43.3073 184.126 43.3228 184.117 43.3364C184.103 43.3509 184.087 43.362 184.069 43.3689Z" fill="#263238"/>
<path d="M182.759 47.6852C182.734 47.6809 182.711 47.6675 182.695 47.6472C182.679 47.6269 182.67 47.6011 182.67 47.5745C182.67 47.5479 182.679 47.5222 182.695 47.5019C182.711 47.4816 182.734 47.4681 182.759 47.4638C182.947 47.4392 183.128 47.3741 183.292 47.2726C183.455 47.171 183.597 47.0351 183.708 46.8733C183.718 46.8629 183.729 46.8546 183.742 46.8489C183.755 46.8433 183.768 46.8403 183.782 46.8403C183.796 46.8403 183.81 46.8433 183.822 46.8489C183.835 46.8546 183.847 46.8629 183.856 46.8733C183.876 46.8943 183.887 46.9224 183.887 46.9516C183.887 46.9808 183.876 47.0089 183.856 47.0298C183.725 47.2104 183.561 47.3612 183.373 47.4733C183.186 47.5854 182.979 47.6565 182.764 47.6823L182.759 47.6852Z" fill="#263238"/>
<path opacity="0.2" d="M186.48 46.0438C186.471 46.0438 186.461 46.0418 186.453 46.0379C186.444 46.034 186.437 46.0282 186.43 46.021C186.424 46.0138 186.419 46.0053 186.416 45.996C186.413 45.9867 186.412 45.9768 186.413 45.9671C186.421 45.7258 186.491 45.4913 186.614 45.288C186.715 45.1081 186.871 44.9697 187.057 44.8953C187.155 44.8611 187.26 44.858 187.359 44.8864C187.459 44.9147 187.548 44.9733 187.617 45.0548C187.63 45.0686 187.637 45.0871 187.637 45.1064C187.637 45.1257 187.63 45.1443 187.617 45.1581C187.61 45.1652 187.603 45.1708 187.594 45.1746C187.586 45.1785 187.577 45.1805 187.568 45.1805C187.559 45.1805 187.55 45.1785 187.541 45.1746C187.533 45.1708 187.525 45.1652 187.519 45.1581C187.468 45.0986 187.401 45.0565 187.327 45.037C187.254 45.0176 187.176 45.0217 187.104 45.0489C186.951 45.1107 186.822 45.2264 186.74 45.3766C186.629 45.5585 186.566 45.7685 186.558 45.9848C186.555 46.0033 186.545 46.0198 186.53 46.0308C186.516 46.0418 186.498 46.0464 186.48 46.0438Z" fill="black"/>
<path d="M179.852 43.859C179.829 43.8538 179.807 43.8426 179.788 43.8265C179.766 43.8028 179.754 43.771 179.754 43.738C179.754 43.7049 179.766 43.6731 179.788 43.6494C179.91 43.4972 180.065 43.3782 180.24 43.3027C180.415 43.2271 180.605 43.1972 180.793 43.2154C180.809 43.2175 180.824 43.223 180.838 43.2315C180.852 43.2401 180.864 43.2514 180.873 43.265C180.882 43.2785 180.889 43.2939 180.893 43.3102C180.896 43.3266 180.897 43.3435 180.894 43.3601C180.892 43.3763 180.887 43.392 180.879 43.4061C180.871 43.4202 180.86 43.4324 180.848 43.4421C180.835 43.4518 180.821 43.4586 180.806 43.4623C180.791 43.466 180.775 43.4663 180.76 43.4634C180.61 43.4502 180.46 43.4756 180.322 43.5373C180.184 43.599 180.062 43.6953 179.967 43.8177C179.953 43.8344 179.935 43.847 179.915 43.8543C179.895 43.8615 179.873 43.8631 179.852 43.859Z" fill="#263238"/>
<path d="M187.6 39.3034C187.368 38.7306 186.634 38.6656 186.096 38.8339C186.063 38.1136 185.142 37.777 184.584 37.8478C184.297 37.8521 184.023 37.9726 183.817 38.1844C183.862 38.1844 183.61 37.8449 183.462 37.712C183.191 37.4712 182.859 37.3214 182.507 37.282C182.155 37.2425 181.8 37.3152 181.488 37.4906C181.177 37.688 180.926 37.9736 180.763 38.3145C180.599 38.6555 180.53 39.0381 180.564 39.4185C180.466 39.3342 180.354 39.2712 180.233 39.2332C180.112 39.1952 179.985 39.183 179.86 39.1973C179.734 39.2116 179.613 39.2521 179.502 39.3165C179.392 39.3808 179.295 39.4677 179.217 39.572C179.07 39.8015 179.008 40.0793 179.042 40.3536C179.075 40.628 179.202 40.8801 179.399 41.063C179.182 41.1106 178.991 41.247 178.869 41.4422C178.747 41.6375 178.703 41.8758 178.746 42.1052C178.793 42.3319 178.922 42.5304 179.106 42.6579C179.289 42.7855 179.513 42.8319 179.729 42.7872C179.799 43.3157 179.906 43.9682 179.976 44.5055L180.488 42.489C180.824 42.3296 180.877 42.1554 180.914 41.7509C181.21 42.2292 181.608 42.1524 182.12 42.0845C182.382 42.0427 182.629 41.9255 182.832 41.7458C183.035 41.5661 183.187 41.3309 183.271 41.066C183.414 41.3195 183.62 41.5272 183.867 41.6666C184.114 41.806 184.392 41.8719 184.671 41.8572C184.948 41.8177 185.2 41.6708 185.379 41.4453C185.559 41.2198 185.652 40.9318 185.64 40.6379C185.818 40.8732 186.071 41.0326 186.352 41.0869C186.633 41.1411 186.923 41.0865 187.169 40.9331C187.403 40.7516 187.573 40.4923 187.651 40.1968C187.73 39.9013 187.712 39.5867 187.6 39.3034Z" fill="#263238"/>
<path d="M191.388 51.5322C191.388 51.5322 193.628 51.5972 194.51 54.216C195.35 56.6281 197.434 61.9483 197.434 61.9483L192.419 63.4954L190.422 57.1979L191.388 51.5322Z" fill="black"/>
<path d="M183.201 76.657L186.222 83.4476C186.222 83.4476 181.423 98.679 181.135 100.276C180.846 101.873 180.712 121.864 180.712 121.864H186.052L188.16 102.343C188.16 102.343 194.642 85.7741 195.118 84.4278C196.008 81.9064 195.076 78.523 195.076 78.523L193.424 76.0134L183.201 76.657Z" fill="#263238"/>
<path d="M180.267 80.0612C180.267 80.6782 182.35 101.776 182.692 101.853C183.033 101.93 198.125 119.331 198.125 119.331L202.409 115.363L191.338 99.5323L190.12 85.3076L189.68 76.3618L180.04 77.1206L180.267 80.0612Z" fill="#263238"/>
<path opacity="0.4" d="M187.592 107.356L187.858 102.399L190.96 95.1509L188.63 102.815L188.409 108.062L187.592 107.356Z" fill="black"/>
<path opacity="0.4" d="M181.997 97.0405L186.222 83.4506L184.75 82.0334L185.217 83.982L181.812 95.4285L181.997 97.0405Z" fill="black"/>
<path d="M167.392 58.1396L173.93 64.4666L176.977 58.4851C176.977 58.4851 180.303 61.9482 180.188 61.9984C180.074 62.0486 176.268 70.8232 173.533 69.2495C170.797 67.6759 166.158 59.7576 166.158 59.7576L167.392 58.1396Z" fill="#B97964"/>
<path opacity="0.2" d="M173.93 64.4666C173.93 64.4666 174.49 65.4232 174.426 66.3266C174.597 65.9682 174.658 65.563 174.602 65.1663C174.557 64.7331 174.417 64.3169 174.194 63.95L173.93 64.4666Z" fill="black"/>
<path d="M179.948 53.1028C181.734 54.0683 182.451 57.499 178.615 65.7716L174.034 62.0427C174.768 59.976 175.512 58.9073 176.688 56.4007C178.55 52.5124 179.948 53.1028 179.948 53.1028Z" fill="black"/>
<path d="M179.892 52.9788C181.152 52.6835 186.158 51.3018 191.512 51.538L194.342 72.5709C194.342 72.5709 194.902 75.3284 195.644 78.0594C190.543 81.1742 183.464 81.6761 179.668 79.9785C179.718 80.0611 179.598 77.7317 179.435 74.3187C179.155 68.3047 178.724 58.922 178.856 53.4453C178.861 53.3124 179.76 53.0083 179.892 52.9788Z" fill="black"/>
<path opacity="0.2" d="M179.029 64.8563L178.85 58.054L178.035 65.2991L178.615 65.7715L179.029 64.8563Z" fill="black"/>
<path opacity="0.2" d="M192.699 63.4096L192.419 63.4952L190.593 58.3374L191.962 64.2393L192.895 64.2452L192.699 63.4096Z" fill="black"/>
<path d="M168.022 59.2379C168.022 59.2379 168.524 58.4023 168.344 57.6081C168.165 56.8139 168.224 56.1319 168.064 55.5415C167.905 54.951 167.58 55.7127 167.504 56.1497C167.429 56.5866 167.311 57.0797 167.009 56.9586C166.706 56.8376 164.97 54.5613 164.536 54.4402C164.102 54.3192 164.273 54.7797 164.273 54.7797C164.273 54.7797 163.836 54.2395 163.587 54.3635C163.523 54.3959 163.422 54.5819 163.587 54.8595C163.951 55.4883 164.783 56.7638 164.783 56.7638C164.735 56.6899 163.604 55.1931 163.405 54.9923C163.148 54.7296 162.901 54.7443 162.761 54.9067C162.562 55.137 163.906 57.0442 163.909 57.1682C163.909 57.1682 163.17 56.0404 162.789 56.0847C162.408 56.129 162.84 56.8612 163.332 57.434C163.786 57.9595 164.545 59.1139 165.054 59.5981C165.684 60.1885 166.233 60.4513 166.961 60.1177C167.381 59.9254 167.746 59.6224 168.022 59.2379Z" fill="#B97964"/>
<path opacity="0.3" d="M165.281 56.2503C165.275 56.2504 165.27 56.2488 165.265 56.2456C165.26 56.2425 165.256 56.238 165.253 56.2326C164.954 55.7602 164.632 55.2996 164.296 54.8626C164.292 54.8593 164.289 54.8552 164.287 54.8506C164.285 54.8461 164.284 54.8411 164.284 54.8361C164.284 54.831 164.285 54.8261 164.287 54.8215C164.289 54.8169 164.292 54.8128 164.296 54.8095C164.299 54.8062 164.302 54.8036 164.306 54.8018C164.311 54.8 164.315 54.7991 164.319 54.7991C164.324 54.7991 164.328 54.8 164.332 54.8018C164.336 54.8036 164.34 54.8062 164.343 54.8095C164.682 55.2494 165.004 55.7129 165.306 56.1853C165.312 56.1928 165.316 56.2022 165.316 56.2119C165.316 56.2216 165.312 56.231 165.306 56.2385L165.281 56.2503Z" fill="black"/>
<path opacity="0.3" d="M164.156 57.6527C164.149 57.6549 164.142 57.6549 164.136 57.6527C164.133 57.6494 164.13 57.6454 164.129 57.6411C164.127 57.6368 164.126 57.6322 164.126 57.6276C164.126 57.6229 164.127 57.6183 164.129 57.614C164.13 57.6097 164.133 57.6058 164.136 57.6025C164.552 56.9971 165.128 56.5333 165.791 56.268C165.799 56.2672 165.807 56.2694 165.814 56.2741C165.821 56.2788 165.826 56.2859 165.829 56.2941C165.831 56.3023 165.831 56.3111 165.828 56.3193C165.825 56.3274 165.82 56.3343 165.813 56.3388C165.164 56.5986 164.601 57.0521 164.192 57.6438C164.188 57.6493 164.182 57.6531 164.175 57.6547C164.169 57.6563 164.162 57.6556 164.156 57.6527Z" fill="black"/>
<path opacity="0.3" d="M166.821 59.0048C166.816 59.0045 166.811 59.0031 166.806 59.0005C166.801 58.998 166.797 58.9944 166.793 58.9901C166.616 58.7409 166.527 58.4344 166.541 58.1234C166.556 57.8124 166.673 57.5165 166.872 57.2865C166.879 57.2803 166.888 57.2769 166.897 57.2769C166.906 57.2769 166.915 57.2803 166.922 57.2865C166.929 57.2937 166.932 57.3032 166.932 57.3131C166.932 57.323 166.929 57.3325 166.922 57.3397C166.733 57.5564 166.622 57.8359 166.609 58.1298C166.595 58.4237 166.679 58.7134 166.846 58.9487C166.85 58.952 166.852 58.9559 166.854 58.9602C166.855 58.9645 166.856 58.9692 166.856 58.9738C166.856 58.9785 166.855 58.9831 166.854 58.9874C166.852 58.9917 166.85 58.9956 166.846 58.9989C166.839 59.0041 166.83 59.0062 166.821 59.0048Z" fill="black"/>
<path d="M197.056 62.0635C197.056 62.0635 198.565 65.8307 199.203 69.2112C199.483 70.7465 198.33 71.7326 197.14 72.0337C193.388 72.9903 184.932 72.9933 184.932 72.9933L184.71 70.2741L194.449 68.0539L192.699 63.4098L197.056 62.0635Z" fill="#B97964"/>
<path d="M184.912 73.5748L181.72 73.9527C181.666 73.9588 181.611 73.9522 181.56 73.9333C181.509 73.9144 181.462 73.8837 181.423 73.8434L176.565 68.7801C176.52 68.7325 176.487 68.6731 176.47 68.6079C176.453 68.5427 176.453 68.4739 176.47 68.4086C176.486 68.3433 176.519 68.2838 176.564 68.236C176.609 68.1882 176.666 68.1538 176.728 68.1364L179.528 67.3747C179.588 67.3575 179.652 67.3575 179.712 67.3746C179.773 67.3917 179.828 67.4254 179.872 67.4721L185.116 72.9193C185.165 72.9695 185.2 73.0331 185.216 73.1029C185.232 73.1728 185.23 73.2461 185.208 73.3144C185.187 73.3827 185.148 73.4433 185.096 73.4894C185.043 73.5354 184.98 73.565 184.912 73.5748Z" fill="#263238"/>
<path d="M185.209 70.2889C185.209 70.2889 185.119 69.8933 183.708 69.4386C182.636 69.0932 181.569 68.0362 181.395 68.0717C181.222 68.1071 181.034 68.6858 181.479 69.1936C181.924 69.7014 182.386 69.9907 182.269 70.1856C181.989 70.655 178.494 70.2712 178.433 70.6727C178.371 71.0743 179.04 72.2257 180.908 72.9933C182.776 73.7609 185.34 72.9933 185.34 72.9933L185.209 70.2889Z" fill="#B97964"/>
<path d="M167.591 115.056L20.3532 118.693V92.1394H169.008L167.591 115.056Z" fill="#263238"/>
<path opacity="0.5" d="M167.591 115.056L20.3532 118.693V92.1394H169.008L167.591 115.056Z" fill="#616161"/>
<path d="M14.6888 98.9536V112.42C14.689 113.825 15.1159 115.193 15.9069 116.324C16.698 117.455 17.8116 118.29 19.0848 118.705L20.1264 119.039C20.7666 119.25 21.4353 119.35 22.106 119.334L28.9828 119.163C28.251 116.464 28.1154 113.625 28.5865 110.862C29.0575 108.1 30.1226 105.488 31.7 103.227C33.2774 100.966 35.3252 99.1164 37.6861 97.8199C40.047 96.5235 42.6583 95.8147 45.3194 95.748C47.9805 95.6814 50.6208 96.2586 53.0374 97.4354C55.454 98.6121 57.5828 100.357 59.2602 102.537C60.9377 104.716 62.1192 107.271 62.7141 110.007C63.309 112.743 63.3014 115.586 62.692 118.318L132.664 116.565C132.552 115.703 132.496 114.834 132.499 113.964C132.481 111.533 132.922 109.123 133.794 106.873C134.666 104.623 135.954 102.578 137.581 100.856C139.209 99.1345 141.144 97.7706 143.275 96.8434C145.406 95.9163 147.69 95.4443 149.996 95.4549C152.301 95.4654 154.581 95.9583 156.704 96.9049C158.828 97.8515 160.752 99.2331 162.365 100.97C163.978 102.706 165.249 104.763 166.102 107.021C166.956 109.278 167.377 111.693 167.339 114.123C167.339 114.48 167.314 114.832 167.314 115.186C167.409 115.149 167.503 115.106 167.594 115.059L169.988 113.934C171.144 113.384 172.124 112.493 172.812 111.37C173.5 110.247 173.866 108.938 173.866 107.601V80.1734C173.867 78.9078 173.539 77.6662 172.919 76.5828C172.298 75.4994 171.409 74.6154 170.346 74.0265L152.362 64.0533C152.201 63.9624 152.068 63.8244 151.979 63.6557C151.89 63.487 151.85 63.2948 151.862 63.1024C151.874 62.9099 151.939 62.7253 152.049 62.5709C152.158 62.4164 152.308 62.2986 152.48 62.2317L154.68 61.3991C154.79 61.3599 154.885 61.2826 154.947 61.1797C155.01 61.0768 155.038 60.9544 155.026 60.8326C155.015 60.7109 154.964 60.5969 154.883 60.5094C154.802 60.4219 154.695 60.366 154.58 60.351C146.031 59.0874 112.795 54.5141 95.3232 56.7579C75.1632 59.359 55.8572 77.7997 55.8572 77.7997C41.0172 77.2092 27.1824 82.6564 21.2212 85.3873C20.27 85.826 19.4163 86.4693 18.7147 87.2762C18.0132 88.0831 17.4792 89.0356 17.1472 90.0728L15.12 96.4382C14.8489 97.2467 14.7033 98.0961 14.6888 98.9536Z" fill="#616161"/>
<path d="M132.684 116.559C132.58 115.749 132.53 114.934 132.532 114.117C132.532 113.701 132.532 113.29 132.569 112.88L119.916 107.421C119.175 107.104 118.376 106.967 117.578 107.02L73.5672 110.066C72.848 110.111 72.1454 110.312 71.5036 110.657L63.1428 115.192C63.0837 116.243 62.9422 117.286 62.72 118.312L132.684 116.559Z" fill="#263238"/>
<path d="M173.88 107.595V106.896L166.723 109.204C167.141 110.805 167.352 112.457 167.35 114.117C167.35 114.474 167.325 114.826 167.325 115.18C167.421 115.143 167.514 115.1 167.605 115.053L170.005 113.928C171.16 113.377 172.14 112.487 172.827 111.364C173.515 110.24 173.88 108.932 173.88 107.595Z" fill="#263238"/>
<path d="M16.7216 117.253C17.4042 117.92 18.2206 118.416 19.11 118.705L20.16 119.039C20.8011 119.251 21.4708 119.35 22.1424 119.334L29.008 119.172C28.7591 118.256 28.5794 117.321 28.4704 116.376L16.7216 117.253Z" fill="#263238"/>
<path d="M149.965 94.0232C147.263 94.0203 144.591 94.6239 142.127 95.7939C139.663 96.964 137.464 98.6736 135.675 100.809C133.886 102.945 132.549 105.457 131.752 108.18C130.955 110.903 130.717 113.773 131.054 116.6L132.706 116.559C132.375 114.059 132.535 111.514 133.178 109.083C133.821 106.652 134.932 104.386 136.442 102.428C137.952 100.469 139.829 98.86 141.955 97.7002C144.081 96.5404 146.411 95.8551 148.799 95.6869C151.187 95.5187 153.583 95.8713 155.837 96.7227C158.09 97.5741 160.153 98.906 161.896 100.635C163.64 102.365 165.027 104.454 165.971 106.774C166.914 109.094 167.394 111.593 167.381 114.117C167.381 114.474 167.353 114.826 167.353 115.18C167.449 115.143 167.542 115.1 167.633 115.053L169.008 114.398V114.117C169.003 108.789 166.993 103.681 163.42 99.9136C159.846 96.1463 155.001 94.0279 149.948 94.0232H149.965Z" fill="#263238"/>
<path d="M45.7576 94.0232C42.8439 94.0222 39.9688 94.7257 37.3533 96.0796C34.7378 97.4336 32.4516 99.4018 30.6704 101.833C28.8892 104.264 27.6604 107.094 27.0786 110.105C26.4967 113.115 26.5772 116.226 27.314 119.198L28.994 119.157C28.2699 116.461 28.1406 113.625 28.6159 110.868C29.0912 108.111 30.1585 105.505 31.7362 103.25C33.3139 100.995 35.3601 99.15 37.7181 97.8572C40.0761 96.5644 42.6834 95.8576 45.3404 95.7911C47.9973 95.7246 50.6335 96.3 53.047 97.4734C55.4606 98.6467 57.5875 100.387 59.2649 102.561C60.9423 104.734 62.1258 107.284 62.7247 110.014C63.3235 112.744 63.3219 115.583 62.72 118.313L64.4 118.268C64.9866 115.342 64.9459 112.314 64.2812 109.406C63.6164 106.498 62.3442 103.783 60.5575 101.46C58.7708 99.1368 56.5146 97.2635 53.9537 95.9768C51.3927 94.6902 48.5916 94.0227 45.7548 94.0232H45.7576Z" fill="#263238"/>
<path d="M62.342 78.5702C62.1753 78.727 62.0493 78.9261 61.9759 79.1485C61.9026 79.371 61.8842 79.6095 61.9226 79.8415C61.961 80.0735 62.0549 80.2914 62.1954 80.4745C62.3359 80.6576 62.5184 80.7999 62.7256 80.8879L70.0056 83.0372C70.6469 83.229 71.3183 83.2822 71.9796 83.1937L125.908 76.1493C127.257 75.9484 128.487 75.2267 129.36 74.1239L136.441 65.438C136.682 65.1385 136.829 64.7686 136.864 64.378C136.962 63.389 136.371 62.4974 135.551 62.3852C122.64 60.5754 106.308 58.9427 95.998 60.2594C82.4852 61.9984 68.88 72.7097 62.342 78.5702Z" fill="#616161"/>
<path opacity="0.8" d="M62.5856 78.5701C62.4189 78.7269 62.2929 78.926 62.2195 79.1484C62.1462 79.3709 62.1278 79.6094 62.1662 79.8414C62.2046 80.0734 62.2985 80.2913 62.439 80.4744C62.5795 80.6575 62.762 80.7998 62.9692 80.8878L70.2492 83.0371C70.8905 83.2287 71.5619 83.2819 72.2232 83.1936L124.947 79.385C126.26 79.2078 128.288 76.6658 129.721 74.5992L136.682 65.4379C136.924 65.1394 137.073 64.7691 137.108 64.3779C137.203 63.3889 136.615 62.4973 135.794 62.3851C122.878 60.5812 106.551 58.9396 96.2416 60.2652C82.726 61.9983 69.1236 72.7096 62.5856 78.5701Z" fill="white"/>
<g opacity="0.3">
<path d="M97.8152 83.9908C97.6525 83.9267 97.5198 83.7986 97.4451 83.6333C97.3704 83.468 97.3595 83.2786 97.4148 83.105C97.4902 82.8846 97.626 82.6929 97.8049 82.5541C97.9839 82.4153 98.198 82.3357 98.42 82.3256L104.838 82.0304C104.924 82.0253 105.011 82.0383 105.092 82.0687C105.259 82.1328 105.395 82.2635 105.471 82.4326C105.547 82.6017 105.557 82.7956 105.498 82.9722C105.422 83.1929 105.285 83.3847 105.105 83.523C104.925 83.6614 104.71 83.7399 104.488 83.7487L98.07 84.0439C97.9826 84.0443 97.8959 84.0262 97.8152 83.9908Z" fill="#616161"/>
</g>
<path d="M145.544 64.5995C145.272 64.8561 145.108 65.2157 145.087 65.5996C145.066 65.9835 145.19 66.3606 145.432 66.6484L146.952 68.3933C147.128 68.5883 147.351 68.7301 147.596 68.8037L166.239 74.2568C166.564 74.3486 166.899 74.3952 167.236 74.3955H170.94C170.747 74.2597 170.548 74.1357 170.344 74.0206L152.359 64.0385C152.142 63.9249 151.976 63.7249 151.898 63.4824C151.82 63.2399 151.837 62.9748 151.945 62.7454L146.104 64.2865C145.897 64.3443 145.706 64.4514 145.544 64.5995Z" fill="#616161"/>
<path d="M29.4448 87.9558L23.0832 87.2236L19.4432 88.8002C19.0639 88.9631 18.7262 89.2175 18.4573 89.5432C18.1883 89.8688 17.9957 90.2565 17.8948 90.675C17.7741 91.1664 17.8415 91.6881 18.0824 92.1276L18.1468 92.2427C18.3465 92.6055 18.644 92.8975 19.0015 93.0816C19.359 93.2656 19.7603 93.3333 20.1544 93.2761L23.8224 92.7446C24.176 92.6858 24.51 92.5345 24.794 92.3047L29.0248 88.9183L29.4448 87.9558Z" fill="white"/>
<path d="M55.8712 77.7908L56.8848 78.0861C57.2725 78.2026 57.6814 78.2167 58.0755 78.1271C58.4696 78.0375 58.8367 77.847 59.1444 77.5724C65.0412 72.3141 75.292 64.2452 86.352 60.4868C86.3903 60.4736 86.4242 60.4489 86.4494 60.4158C86.4746 60.3826 86.49 60.3424 86.4939 60.3001C86.4978 60.2578 86.4898 60.2152 86.4711 60.1776C86.4524 60.14 86.4236 60.1089 86.3884 60.0882L85.0136 59.3442C69.0564 65.187 55.8712 77.7908 55.8712 77.7908Z" fill="#616161"/>
<path opacity="0.8" d="M55.8712 77.7908L56.8848 78.0861C57.2725 78.2026 57.6814 78.2167 58.0755 78.1271C58.4696 78.0375 58.8367 77.847 59.1444 77.5724C65.0412 72.3141 75.292 64.2452 86.352 60.4868C86.3903 60.4736 86.4242 60.4489 86.4494 60.4158C86.4746 60.3826 86.49 60.3424 86.4939 60.3001C86.4978 60.2578 86.4898 60.2152 86.4711 60.1776C86.4524 60.14 86.4236 60.1089 86.3884 60.0882L85.0136 59.3442C69.0564 65.187 55.8712 77.7908 55.8712 77.7908Z" fill="white"/>
<path opacity="0.2" d="M116.329 84.8914L62.72 88.9332L63.7308 95.9068C64.0394 98.0426 64.7898 100.081 65.9288 101.877L70.4088 108.939L116.166 102.414L137.802 84.8914H116.329Z" fill="white"/>
<path d="M149.948 129.419C157.965 129.419 164.464 122.567 164.464 114.114C164.464 105.661 157.965 98.8088 149.948 98.8088C141.932 98.8088 135.433 105.661 135.433 114.114C135.433 122.567 141.932 129.419 149.948 129.419Z" fill="#263238"/>
<path opacity="0.4" d="M149.948 123.497C154.863 123.497 158.847 119.296 158.847 114.114C158.847 108.932 154.863 104.731 149.948 104.731C145.034 104.731 141.05 108.932 141.05 114.114C141.05 119.296 145.034 123.497 149.948 123.497Z" fill="white"/>
<g opacity="0.3">
<path d="M149.951 105.676H149.948C149.556 105.676 149.237 106.012 149.237 106.426V111.236C149.237 111.65 149.556 111.986 149.948 111.986H149.951C150.344 111.986 150.662 111.65 150.662 111.236V106.426C150.662 106.012 150.344 105.676 149.951 105.676Z" fill="white"/>
</g>
<g opacity="0.3">
<path d="M149.951 116.249H149.948C149.556 116.249 149.237 116.585 149.237 116.999V121.808C149.237 122.222 149.556 122.558 149.948 122.558H149.951C150.344 122.558 150.662 122.222 150.662 121.808V116.999C150.662 116.585 150.344 116.249 149.951 116.249Z" fill="white"/>
</g>
<g opacity="0.3">
<path d="M152.667 113.329C152.503 113.427 152.309 113.452 152.128 113.4C151.946 113.347 151.792 113.221 151.698 113.048C151.605 112.876 151.58 112.672 151.629 112.481C151.677 112.29 151.796 112.126 151.959 112.027L155.907 109.609C156.071 109.509 156.267 109.483 156.45 109.535C156.633 109.587 156.789 109.713 156.884 109.886C156.977 110.059 157.001 110.264 156.952 110.455C156.902 110.647 156.784 110.811 156.621 110.911L152.676 113.326L152.667 113.329Z" fill="white"/>
</g>
<g opacity="0.3">
<path d="M143.984 118.581C143.821 118.68 143.628 118.706 143.446 118.655C143.265 118.603 143.11 118.478 143.016 118.307C142.969 118.222 142.939 118.128 142.927 118.03C142.914 117.933 142.921 117.834 142.945 117.739C142.969 117.644 143.011 117.555 143.068 117.477C143.124 117.399 143.195 117.334 143.276 117.285L147.224 114.867C147.305 114.817 147.394 114.785 147.486 114.772C147.579 114.758 147.673 114.764 147.763 114.79C147.854 114.815 147.938 114.859 148.013 114.919C148.087 114.979 148.149 115.053 148.196 115.139C148.243 115.224 148.274 115.318 148.286 115.416C148.299 115.514 148.293 115.613 148.269 115.709C148.245 115.804 148.204 115.894 148.147 115.972C148.09 116.051 148.019 116.117 147.938 116.166L143.987 118.581H143.984Z" fill="white"/>
</g>
<g opacity="0.3">
<path d="M155.907 118.611L151.959 116.196C151.795 116.095 151.676 115.93 151.627 115.737C151.578 115.544 151.604 115.338 151.698 115.165C151.795 114.994 151.951 114.869 152.134 114.818C152.317 114.767 152.512 114.794 152.676 114.894L156.621 117.312C156.784 117.412 156.902 117.575 156.952 117.767C157.001 117.959 156.977 118.163 156.884 118.336C156.837 118.422 156.774 118.497 156.7 118.557C156.625 118.618 156.54 118.662 156.449 118.687C156.359 118.713 156.264 118.719 156.171 118.706C156.078 118.693 155.988 118.661 155.907 118.611Z" fill="white"/>
</g>
<g opacity="0.3">
<path d="M148.196 113.051C148.101 113.223 147.945 113.348 147.763 113.399C147.581 113.45 147.387 113.423 147.224 113.323L143.276 110.905C143.195 110.856 143.124 110.791 143.068 110.713C143.011 110.635 142.969 110.546 142.945 110.451C142.921 110.356 142.914 110.257 142.927 110.16C142.939 110.062 142.969 109.968 143.016 109.883C143.11 109.712 143.266 109.586 143.448 109.535C143.63 109.484 143.824 109.51 143.987 109.609L147.938 112.027C148.019 112.076 148.089 112.142 148.146 112.22C148.202 112.299 148.244 112.388 148.267 112.483C148.291 112.578 148.297 112.678 148.284 112.775C148.271 112.873 148.24 112.966 148.193 113.051H148.196Z" fill="white"/>
</g>
<path d="M148.756 114.111C148.756 113.778 148.881 113.458 149.105 113.222C149.329 112.986 149.632 112.854 149.948 112.854C150.186 112.853 150.418 112.927 150.615 113.065C150.812 113.204 150.966 113.401 151.058 113.632C151.149 113.862 151.173 114.117 151.127 114.362C151.081 114.607 150.967 114.833 150.8 115.01C150.632 115.187 150.419 115.307 150.186 115.356C149.953 115.405 149.712 115.38 149.493 115.285C149.274 115.189 149.087 115.027 148.955 114.819C148.823 114.612 148.753 114.367 148.753 114.117L148.756 114.111Z" fill="#263238"/>
<path d="M45.7576 129.422C53.7741 129.422 60.2728 122.57 60.2728 114.117C60.2728 105.664 53.7741 98.812 45.7576 98.812C37.7411 98.812 31.2424 105.664 31.2424 114.117C31.2424 122.57 37.7411 129.422 45.7576 129.422Z" fill="#263238"/>
<path opacity="0.4" d="M45.7576 123.5C50.6721 123.5 54.656 119.299 54.656 114.117C54.656 108.935 50.6721 104.734 45.7576 104.734C40.8432 104.734 36.8592 108.935 36.8592 114.117C36.8592 119.299 40.8432 123.5 45.7576 123.5Z" fill="white"/>
<g opacity="0.3">
<path d="M45.7576 105.676H45.7548C45.362 105.676 45.0436 106.012 45.0436 106.426V111.236C45.0436 111.65 45.362 111.986 45.7548 111.986H45.7576C46.1504 111.986 46.4688 111.65 46.4688 111.236V106.426C46.4688 106.012 46.1504 105.676 45.7576 105.676Z" fill="white"/>
</g>
<g opacity="0.3">
<path d="M45.7576 116.249H45.7548C45.362 116.249 45.0436 116.585 45.0436 116.999V121.808C45.0436 122.222 45.362 122.558 45.7548 122.558H45.7576C46.1504 122.558 46.4688 122.222 46.4688 121.808V116.999C46.4688 116.585 46.1504 116.249 45.7576 116.249Z" fill="white"/>
</g>
<g opacity="0.3">
<path d="M48.4708 113.329C48.3903 113.377 48.3016 113.408 48.2097 113.42C48.1178 113.432 48.0246 113.425 47.9353 113.399C47.8461 113.373 47.7626 113.329 47.6897 113.268C47.6167 113.208 47.5558 113.133 47.5104 113.048C47.4631 112.964 47.4321 112.87 47.4193 112.772C47.4066 112.675 47.4122 112.575 47.4358 112.48C47.4595 112.385 47.5008 112.296 47.5573 112.217C47.6138 112.139 47.6845 112.073 47.7652 112.024L51.7188 109.606C51.7999 109.557 51.8893 109.525 51.982 109.512C52.0748 109.5 52.1689 109.506 52.2592 109.532C52.3494 109.558 52.434 109.602 52.5079 109.663C52.5819 109.723 52.6439 109.798 52.6904 109.883C52.737 109.969 52.7671 110.063 52.7791 110.161C52.7911 110.259 52.7847 110.358 52.7603 110.453C52.7358 110.548 52.6938 110.637 52.6367 110.715C52.5795 110.794 52.5083 110.859 52.4272 110.908L48.482 113.323L48.4708 113.329Z" fill="white"/>
</g>
<g opacity="0.3">
<path d="M38.822 118.318C38.7754 118.233 38.7451 118.139 38.7329 118.042C38.7208 117.945 38.727 117.846 38.7512 117.751C38.7754 117.656 38.8171 117.567 38.8739 117.489C38.9308 117.411 39.0016 117.346 39.0824 117.297L43.0304 114.879C43.1115 114.829 43.2011 114.796 43.2941 114.783C43.3871 114.77 43.4817 114.776 43.5724 114.801C43.6632 114.826 43.7483 114.87 43.823 114.93C43.8977 114.99 43.9604 115.065 44.0076 115.15C44.1018 115.324 44.127 115.529 44.0777 115.722C44.0283 115.914 43.9085 116.078 43.7444 116.178L39.7992 118.581C39.6363 118.682 39.4423 118.711 39.2594 118.662C39.0764 118.612 38.9192 118.489 38.822 118.318Z" fill="white"/>
</g>
<g opacity="0.3">
<path d="M52.6876 118.339C52.6412 118.424 52.5793 118.499 52.5054 118.559C52.4314 118.619 52.347 118.663 52.2569 118.688C52.1668 118.713 52.0729 118.719 51.9806 118.706C51.8882 118.693 51.7992 118.66 51.7188 118.611L47.7652 116.196C47.6024 116.094 47.4843 115.929 47.4365 115.736C47.3888 115.543 47.4154 115.338 47.5104 115.165C47.6052 114.993 47.7607 114.868 47.9429 114.817C48.1251 114.766 48.319 114.794 48.482 114.894L52.4272 117.312C52.5901 117.412 52.7088 117.575 52.7576 117.767C52.8063 117.959 52.7812 118.164 52.6876 118.336V118.339Z" fill="white"/>
</g>
<g opacity="0.3">
<path d="M44.002 113.057C43.9549 113.142 43.8923 113.216 43.818 113.276C43.7436 113.335 43.6588 113.378 43.5685 113.403C43.4783 113.428 43.3843 113.433 43.2919 113.419C43.1996 113.406 43.1107 113.373 43.0304 113.323L39.0824 110.905C39.0016 110.856 38.9308 110.791 38.8739 110.713C38.8171 110.635 38.7754 110.546 38.7512 110.451C38.727 110.356 38.7208 110.257 38.7329 110.16C38.7451 110.062 38.7754 109.968 38.822 109.883C38.9169 109.71 39.0731 109.584 39.2562 109.532C39.4394 109.48 39.6346 109.506 39.7992 109.606L43.7444 112.024C43.9072 112.124 44.026 112.288 44.0748 112.48C44.1235 112.671 44.0984 112.876 44.0048 113.048L44.002 113.057Z" fill="white"/>
</g>
<path d="M45.7576 112.854C45.9948 112.853 46.2267 112.927 46.4242 113.065C46.6216 113.204 46.7757 113.401 46.8668 113.632C46.9579 113.862 46.9821 114.117 46.9361 114.362C46.8902 114.607 46.7763 114.833 46.6088 115.01C46.4413 115.187 46.2278 115.307 45.9952 115.356C45.7627 115.405 45.5216 115.38 45.3025 115.285C45.0833 115.189 44.896 115.027 44.7642 114.819C44.6324 114.612 44.562 114.367 44.562 114.117C44.562 113.783 44.6879 113.462 44.912 113.225C45.1362 112.988 45.4403 112.854 45.7576 112.854Z" fill="#263238"/>
<path opacity="0.3" d="M172.346 85.2455C172.461 85.2078 172.567 85.1466 172.66 85.0653C172.752 84.9841 172.829 84.8844 172.885 84.7719C172.941 84.6595 172.975 84.5365 172.986 84.4101C172.997 84.2836 172.984 84.1562 172.948 84.035C172.78 80.811 172.13 77.9442 170.257 75.972C170.196 75.7615 170.068 75.5792 169.896 75.4552C169.723 75.3313 169.516 75.273 169.308 75.29L158.248 76.3913C158.054 76.4118 157.873 76.4978 157.73 76.6363C157.64 76.7212 157.567 76.8239 157.516 76.9385C157.464 77.0531 157.434 77.1774 157.428 77.3042C157.422 77.431 157.44 77.5577 157.481 77.6772C157.521 77.7967 157.584 77.9065 157.665 78.0003L160.832 81.6022C160.942 81.7265 161.081 81.8181 161.235 81.868L171.825 85.2514C171.995 85.3012 172.176 85.2991 172.346 85.2455Z" fill="#616161"/>
<path d="M61.9332 79.3142C61.8535 79.6339 61.8908 79.9735 62.0376 80.2656C62.1844 80.5576 62.43 80.7808 62.7256 80.8907L70.0056 83.0401C70.662 83.2523 71.3413 83.3754 72.0272 83.4062L74.3176 83.2438L72.156 70.9412C67.1692 74.3955 66.836 74.5549 62.356 78.5761C62.1403 78.7649 61.9914 79.025 61.9332 79.3142Z" fill="#263238"/>
<path d="M109.315 59.8638L104.745 80.873L110.723 80.4184L113.45 60.0468C112.054 59.972 110.676 59.911 109.315 59.8638Z" fill="#263238"/>
<path d="M128.279 76.4889L136.679 65.4321C136.927 65.1307 137.079 64.7548 137.113 64.3575C137.2 63.3714 136.612 62.4857 135.8 62.3676C134.081 62.1225 132.25 61.8863 130.421 61.6531" fill="#263238"/>
<path d="M68.5468 81.4399C68.2015 81.4442 67.8588 81.3767 67.5383 81.2414C67.2177 81.106 66.9256 80.9054 66.6786 80.651C66.4316 80.3965 66.2345 80.0933 66.0987 79.7586C65.9628 79.4238 65.8908 79.0642 65.8868 78.7001C65.8799 78.0674 66.0778 77.4511 66.4479 76.9529C66.818 76.4548 67.3381 76.1047 67.9224 75.9603L71.428 75.0952L72.3212 81.2952L68.6168 81.4458L68.5468 81.4399Z" fill="#616161"/>
<path opacity="0.3" d="M71.2936 81.3307L72.3212 81.2893L71.428 75.0952L70.4284 75.3432L71.2936 81.3307Z" fill="#616161"/>
<path opacity="0.6" d="M106.033 107.894H106.019C106.01 107.892 106.002 107.888 105.994 107.883C105.987 107.878 105.98 107.871 105.975 107.863C105.97 107.855 105.967 107.846 105.965 107.836C105.964 107.827 105.964 107.817 105.966 107.808C106.002 107.616 109.836 88.6498 110.326 86.0664C110.513 85.0744 110.583 83.179 110.527 80.4244C110.527 80.4048 110.535 80.386 110.548 80.3722C110.561 80.3584 110.579 80.3506 110.597 80.3506C110.615 80.3506 110.633 80.3579 110.646 80.3711C110.659 80.3844 110.666 80.4024 110.667 80.4214C110.723 83.1849 110.653 85.0951 110.463 86.096C109.973 88.6793 106.14 107.648 106.1 107.837C106.097 107.854 106.089 107.868 106.076 107.878C106.064 107.888 106.049 107.894 106.033 107.894Z" fill="#616161"/>
<path opacity="0.6" d="M71.5036 110.74C71.4921 110.739 71.4807 110.736 71.4705 110.731C71.4603 110.725 71.4515 110.717 71.4448 110.707C71.3972 110.63 66.4524 102.913 64.7528 99.6858C63 96.3644 61.88 80.448 61.8296 79.7719C61.8288 79.7524 61.835 79.7334 61.8469 79.7186C61.8589 79.7038 61.8757 79.6944 61.894 79.6921C61.9032 79.6913 61.9125 79.6925 61.9212 79.6954C61.93 79.6984 61.9382 79.7032 61.9452 79.7095C61.9522 79.7158 61.958 79.7235 61.9622 79.7322C61.9664 79.7409 61.9689 79.7504 61.9696 79.7601C61.9696 79.9254 63.1456 96.3201 64.876 99.6149C66.57 102.836 71.512 110.539 71.5624 110.624C71.5676 110.633 71.5713 110.642 71.5731 110.651C71.575 110.661 71.575 110.671 71.5732 110.68C71.5713 110.69 71.5677 110.699 71.5625 110.707C71.5573 110.715 71.5506 110.722 71.5428 110.728C71.5307 110.735 71.5173 110.739 71.5036 110.74Z" fill="#616161"/>
<path opacity="0.6" d="M23.0832 87.2856C23.0673 87.2851 23.052 87.2788 23.0399 87.2679C23.0277 87.257 23.0195 87.242 23.0166 87.2254C23.0136 87.2089 23.0161 87.1918 23.0237 87.177C23.0312 87.1621 23.0433 87.1505 23.058 87.1439C26.8492 85.5083 39.018 82.4201 41.8572 81.9447C45.4496 81.3365 57.7248 78.142 57.848 78.1066C57.857 78.1044 57.8664 78.1042 57.8755 78.1058C57.8846 78.1074 57.8933 78.111 57.9011 78.1162C57.9089 78.1214 57.9157 78.1282 57.921 78.1362C57.9263 78.1442 57.93 78.1532 57.932 78.1627C57.9345 78.172 57.9352 78.1818 57.934 78.1914C57.9328 78.201 57.9297 78.2102 57.925 78.2185C57.9203 78.2268 57.914 78.234 57.9065 78.2396C57.8991 78.2452 57.8906 78.2492 57.8816 78.2513C57.7584 78.2837 45.4776 81.4782 41.8768 82.0894C39.1076 82.5588 26.8072 85.6854 23.1168 87.2797C23.1065 87.2853 23.0947 87.2874 23.0832 87.2856Z" fill="#616161"/>
<path opacity="0.8" d="M145.544 64.5995C145.272 64.8561 145.108 65.2157 145.087 65.5996C145.066 65.9835 145.19 66.3606 145.432 66.6484L146.952 68.3933C147.128 68.5883 147.351 68.7301 147.596 68.8037L166.239 74.2568C166.564 74.3486 166.899 74.3952 167.236 74.3955H170.94C170.747 74.2597 170.548 74.1357 170.344 74.0206L152.359 64.0385C152.142 63.9249 151.976 63.7249 151.898 63.4824C151.82 63.2399 151.837 62.9748 151.945 62.7454L146.104 64.2865C145.897 64.3443 145.706 64.4514 145.544 64.5995Z" fill="white"/>
<path d="M75.5188 77.1648C75.3508 77.2711 73.3712 79.4293 73.3712 79.4293L73.7576 82.1042L76.2468 79.3939L75.5188 77.1648Z" fill="#263238"/>
<path d="M78.5008 82.742C78.2906 82.8514 78.0478 82.8684 77.8258 82.7893C77.6037 82.7101 77.4205 82.5413 77.3164 82.3198L73.36 73.8819C73.3087 73.7724 73.2783 73.6532 73.2707 73.5313C73.263 73.4094 73.2782 73.2872 73.3154 73.1715C73.3526 73.0558 73.411 72.9489 73.4874 72.857C73.5637 72.7651 73.6565 72.69 73.7604 72.636C73.8644 72.5814 73.9776 72.549 74.0935 72.5407C74.2094 72.5324 74.3258 72.5483 74.4358 72.5876C74.5459 72.6268 74.6475 72.6886 74.7348 72.7693C74.8222 72.8501 74.8935 72.9482 74.9448 73.0582L78.8928 81.4961C78.9971 81.7162 79.0143 81.9709 78.9409 82.2044C78.8674 82.438 78.7092 82.6313 78.5008 82.742Z" fill="#263238"/>
<path d="M82.81 72.5857C82.81 72.5857 84.77 80.8288 85.9152 81.1477C87.9984 81.7116 95.1552 81.0798 95.0152 80.8377L94.7128 77.0468C94.7128 77.0468 87.4972 78.3045 87.5532 78.1717L84.84 71.7561L82.81 72.5857Z" fill="#EBB373"/>
<path d="M84.6104 72.2551C84.6104 72.2551 85.2544 71.6233 85.2712 70.8557C85.288 70.0881 85.498 69.4828 85.4728 68.913C85.4476 68.3432 84.9968 68.9484 84.8176 69.3204C84.6384 69.6924 84.4312 70.1176 84.1876 69.9286C83.944 69.7397 82.88 67.242 82.5076 67.0235C82.1352 66.805 82.194 67.2656 82.194 67.2656C82.194 67.2656 81.914 66.6751 81.6648 66.7164C81.5976 66.7164 81.4632 66.8729 81.55 67.1652C81.7376 67.8265 82.2024 69.1935 82.2024 69.1935C82.1772 69.1138 81.4884 67.4722 81.3624 67.239C81.186 66.9438 80.9592 66.8877 80.8024 66.9999C80.57 67.1593 81.3624 69.226 81.3344 69.3382C81.3344 69.3382 80.9172 68.1336 80.5644 68.0745C80.2116 68.0155 80.4328 68.792 80.752 69.4356C81.032 70.0261 81.4716 71.2631 81.8244 71.8329C82.2584 72.5327 82.698 72.9017 83.4344 72.7836C83.863 72.717 84.268 72.5349 84.6104 72.2551Z" fill="#EBB373"/>
<path opacity="0.3" d="M82.81 68.8597C82.8027 68.8601 82.7955 68.8581 82.7895 68.8538C82.7834 68.8495 82.7788 68.8433 82.7764 68.8361C82.6112 68.3342 82.4236 67.8352 82.2164 67.3599C82.2141 67.3553 82.2128 67.3502 82.2126 67.3451C82.2124 67.3399 82.2132 67.3347 82.2151 67.33C82.217 67.3252 82.2198 67.3209 82.2234 67.3174C82.227 67.3139 82.2313 67.3112 82.236 67.3097C82.2401 67.3077 82.2444 67.3066 82.2489 67.3064C82.2533 67.3062 82.2578 67.307 82.2619 67.3087C82.2661 67.3103 82.2699 67.3128 82.2732 67.316C82.2764 67.3192 82.279 67.3231 82.2808 67.3274C82.488 67.8145 82.6784 68.3135 82.8408 68.8184C82.8426 68.8228 82.8435 68.8276 82.8435 68.8324C82.8435 68.8372 82.8425 68.842 82.8407 68.8464C82.8388 68.8509 82.8362 68.8548 82.8328 68.8581C82.8295 68.8614 82.8255 68.864 82.8212 68.8656L82.81 68.8597Z" fill="#616161"/>
<path opacity="0.3" d="M81.48 69.8489C81.4756 69.8509 81.4708 69.8519 81.466 69.8519C81.4612 69.8519 81.4564 69.8509 81.452 69.8489C81.4461 69.8415 81.4428 69.8321 81.4428 69.8224C81.4428 69.8126 81.4461 69.8032 81.452 69.7958C81.9663 69.3524 82.5919 69.0764 83.2524 69.0016C83.2572 69.0012 83.262 69.0018 83.2666 69.0033C83.2711 69.0049 83.2754 69.0074 83.279 69.0107C83.2826 69.014 83.2856 69.018 83.2878 69.0225C83.29 69.027 83.2913 69.032 83.2916 69.037C83.292 69.0417 83.2915 69.0464 83.2902 69.0508C83.2888 69.0553 83.2866 69.0594 83.2838 69.063C83.2809 69.0665 83.2774 69.0695 83.2735 69.0716C83.2695 69.0737 83.2652 69.075 83.2608 69.0754C82.6132 69.1479 81.9999 69.4188 81.4968 69.8548L81.48 69.8489Z" fill="#616161"/>
<path opacity="0.3" d="M83.5828 71.7472C83.5756 71.7472 83.5686 71.745 83.5626 71.7408C83.5566 71.7365 83.552 71.7306 83.5492 71.7236C83.4457 71.4525 83.4349 71.1519 83.5187 70.8734C83.6025 70.5948 83.7756 70.3557 84.0084 70.1972C84.0115 70.1939 84.0152 70.1913 84.0193 70.1895C84.0234 70.1877 84.0278 70.1868 84.0322 70.1868C84.0366 70.1868 84.041 70.1877 84.0451 70.1895C84.0492 70.1913 84.0529 70.1939 84.056 70.1972C84.0591 70.2005 84.0616 70.2044 84.0633 70.2087C84.065 70.213 84.0659 70.2176 84.0659 70.2223C84.0659 70.2269 84.065 70.2316 84.0633 70.2359C84.0616 70.2402 84.0591 70.2441 84.056 70.2474C83.8371 70.3963 83.6742 70.6211 83.5955 70.883C83.5168 71.1449 83.5272 71.4275 83.6248 71.6822C83.6287 71.6913 83.6291 71.7016 83.626 71.7109C83.6229 71.7203 83.6164 71.728 83.608 71.7324L83.5828 71.7472Z" fill="#616161"/>
<path d="M103.247 76.4681C101.937 74.6435 99.8564 74.8265 98.504 75.0775L95.8272 75.541C95.7416 75.555 95.6573 75.5767 95.5752 75.606L94.9648 75.8038L89.2332 77.7405L90.6164 81.6082L92.4896 81.3661L92.176 81.9005L94.0128 81.7765L104.04 81.2244V79.0809C104.052 78.1424 103.773 77.2252 103.247 76.4681Z" fill="#263238"/>
<path d="M102.704 79.512C102.704 79.512 101.447 88.4017 100.556 89.3435C98.434 91.5932 90.5744 85.405 90.5744 85.405L90.818 83.0165L97.6052 85.9689L98.8764 78.4285L102.704 79.512Z" fill="#EBB373"/>
<path d="M103.737 78.9068C103.676 79.1252 103.135 85.3282 103.135 85.3282L97.3784 84.7614C97.3784 84.7614 97.678 83.0401 98.112 80.0375C98.5684 76.8991 98.8316 75.3137 100.307 75.0598C103.099 74.5667 103.737 78.9068 103.737 78.9068Z" fill="#263238"/>
<path d="M101.808 64.8623C102.676 66.4684 102.978 67.428 103.057 68.9691C103.149 70.7671 103.071 72.3555 102.69 72.8072C102.192 73.3977 96.7932 73.9882 93.7664 73.8494C93.6572 73.8494 93.5676 72.8338 93.5676 72.8338C93.5676 72.8338 93.1392 73.8229 93.0076 73.814C92.1816 73.7756 91.6524 73.7431 91.6524 73.7431C91.6524 73.7431 92.3384 72.2669 93.1756 66.8995C93.5844 64.2836 96.082 63.2385 97.552 63.0407C99.9936 62.7218 101.808 64.8623 101.808 64.8623Z" fill="#263238"/>
<path d="M94.6148 69.9168C93.8224 68.4731 93.0356 64.5818 96.3368 63.3832C100.456 61.8833 102.298 64.6527 102.654 67.3984C103.009 70.1442 101.534 72.2167 98.8176 72.0101C96.1016 71.8034 95.1608 70.9177 94.6148 69.9168Z" fill="#263238"/>
<path d="M100.332 70.1116L97.8992 72.4735L97.44 72.999C97.5757 73.3588 97.6697 73.7345 97.72 74.118C97.7549 74.5227 97.6461 74.9267 97.4148 75.2517L96.8688 76.5626C98.0868 75.5558 100.862 75.0155 100.862 75.0155C100.399 73.4295 100.219 71.7667 100.332 70.1116Z" fill="#EBB373"/>
<path opacity="0.2" d="M97.72 74.2597C98.3752 73.8906 99.12 73.2322 99.0584 72.4351C99.0435 72.1428 98.9956 71.8534 98.9156 71.573L97.5352 73.3208C97.6284 73.6259 97.6903 73.9407 97.72 74.2597Z" fill="#616161"/>
<path d="M101.108 67.5047C100.778 70.0142 100.688 71.0801 99.3972 72.3407C97.4568 74.2362 94.6372 73.4272 94.2536 70.9088C93.9092 68.6384 94.5056 64.9184 96.8968 63.9766C97.4038 63.7567 97.9572 63.6835 98.5 63.7645C99.0428 63.8455 99.5553 64.0777 99.9845 64.4373C100.414 64.7969 100.744 65.2708 100.942 65.81C101.139 66.3492 101.197 66.9343 101.108 67.5047Z" fill="#EBB373"/>
<path d="M98.0728 68.2576C98.0476 68.5115 97.8908 68.7123 97.7228 68.7064C97.5548 68.7005 97.4428 68.4938 97.4596 68.2399C97.4764 67.986 97.6416 67.7852 97.8096 67.7911C97.9776 67.797 98.098 68.0037 98.0728 68.2576Z" fill="#263238"/>
<path d="M95.592 68.095C95.5668 68.3371 95.4128 68.529 95.2476 68.5261C95.0824 68.5231 94.9676 68.3194 94.99 68.0803C95.0124 67.8411 95.1692 67.6463 95.3344 67.6492C95.4996 67.6522 95.6144 67.847 95.592 68.095Z" fill="#263238"/>
<path d="M98.4508 67.3424C98.4347 67.346 98.418 67.3458 98.402 67.3417C98.386 67.3376 98.3711 67.3298 98.3584 67.3187C98.238 67.2197 98.0976 67.1511 97.9481 67.1184C97.7986 67.0856 97.6439 67.0895 97.496 67.1298C97.4814 67.1358 97.4657 67.1386 97.4499 67.1379C97.4342 67.1373 97.4188 67.1332 97.4046 67.126C97.3904 67.1188 97.3778 67.1086 97.3675 67.0961C97.3572 67.0835 97.3495 67.0689 97.3448 67.053C97.3378 67.0194 97.3432 66.9843 97.3598 66.9547C97.3765 66.9251 97.4031 66.9033 97.4344 66.8936C97.6206 66.8385 97.8164 66.8303 98.0062 66.8698C98.1959 66.9093 98.3741 66.9953 98.5264 67.1209C98.5383 67.1317 98.5478 67.1451 98.5543 67.1601C98.5608 67.1752 98.5642 67.1915 98.5642 67.208C98.5642 67.2246 98.5608 67.2409 98.5543 67.2559C98.5478 67.2709 98.5383 67.2843 98.5264 67.2951C98.5071 67.3195 98.4804 67.3362 98.4508 67.3424Z" fill="#263238"/>
<path d="M94.7996 66.8257C94.7741 66.8114 94.7549 66.7869 94.7464 66.7578C94.7387 66.726 94.7433 66.6924 94.759 66.6642C94.7747 66.636 94.8004 66.6155 94.8304 66.6072C95.0105 66.5453 95.2017 66.528 95.3891 66.5567C95.5766 66.5853 95.7552 66.6592 95.9112 66.7725C95.9225 66.783 95.9316 66.796 95.9378 66.8105C95.944 66.825 95.9472 66.8407 95.9472 66.8567C95.9472 66.8726 95.944 66.8883 95.9378 66.9028C95.9316 66.9173 95.9225 66.9303 95.9112 66.9408C95.8877 66.9628 95.8573 66.9749 95.8258 66.9749C95.7943 66.9749 95.764 66.9628 95.7404 66.9408C95.6155 66.8537 95.4736 66.7976 95.3252 66.7766C95.1768 66.7556 95.0258 66.7704 94.8836 66.8198C94.8571 66.8321 94.8274 66.8341 94.7996 66.8257Z" fill="#263238"/>
<path d="M99.2096 65.1428C98.4144 65.9459 98.6496 69.1433 100.766 69.663C103.25 69.1847 101.59 62.7543 99.2096 65.1428Z" fill="#263238"/>
<path d="M96.1184 70.4718C96.2684 70.7776 96.3975 71.0943 96.5048 71.4195L96.6756 71.39C97.4428 71.2394 97.7536 70.8999 97.8628 70.5722C97.9133 70.4105 97.9267 70.2385 97.902 70.0703C97.8898 69.9747 97.8653 69.8813 97.8292 69.7927C97.468 70.1293 96.7596 70.3271 96.3788 70.4157C96.2192 70.457 96.1184 70.4718 96.1184 70.4718Z" fill="#263238"/>
<path d="M96.3788 70.4157L96.4992 70.6932C97.2244 70.5485 97.7144 70.3448 97.8992 70.0703C97.887 69.9747 97.8625 69.8813 97.8264 69.7927C97.468 70.1293 96.7596 70.3271 96.3788 70.4157Z" fill="white"/>
<path d="M96.6756 71.3901C97.4428 71.2395 97.7536 70.9 97.8628 70.5723C97.5722 70.6356 97.2944 70.7525 97.0424 70.9177C96.8758 71.0303 96.7474 71.1957 96.6756 71.3901Z" fill="#DC5753"/>
<path d="M96.2696 67.9446C96.0054 68.5357 95.6714 69.0892 95.2756 69.592C95.5556 69.9168 96.1156 69.781 96.1156 69.781L96.2696 67.9446Z" fill="#E4873E"/>
<path d="M97.3392 67.6462L97.8824 67.8116C97.6192 68.095 97.3392 67.6462 97.3392 67.6462Z" fill="#263238"/>
<path d="M94.892 67.5046L95.4324 67.67C95.172 67.9475 94.892 67.5046 94.892 67.5046Z" fill="#263238"/>
<path d="M96.9388 63.4215C95.9784 63.7167 94.9032 65.3848 94.6988 66.0402C96.0288 66.3355 99.7024 65.187 99.7024 65.187C99.7024 65.187 102.085 66.0078 100.918 64.6585C99.75 63.3093 96.9388 63.4215 96.9388 63.4215Z" fill="#263238"/>
<path d="M101.741 69.5713C101.466 70.0221 101.033 70.3403 100.537 70.457C99.8984 70.5928 99.6184 69.5034 99.862 68.848C99.9762 68.5518 100.187 68.3085 100.457 68.1622C100.727 68.016 101.037 67.9765 101.332 68.0508C101.92 68.225 102.088 69.0045 101.741 69.5713Z" fill="#EBB373"/>
<path d="M90.6528 73.504L90.58 73.377C91.476 72.8102 92.33 70.6047 92.694 69.6629C93.0586 68.6124 93.3149 67.5236 93.4584 66.4153L93.5984 66.4419C93.4506 67.5563 93.1906 68.6509 92.8228 69.7072C92.4224 70.7524 91.588 72.9106 90.6528 73.504Z" fill="#263238"/>
<path d="M100.349 70.3981C100.345 70.4909 100.367 70.583 100.412 70.6627C100.457 70.7424 100.524 70.8061 100.604 70.8458C100.684 70.8854 100.773 70.8992 100.86 70.8855C100.947 70.8717 101.028 70.831 101.093 70.7685C101.159 70.706 101.205 70.6244 101.226 70.5342C101.247 70.444 101.243 70.3492 101.213 70.2618C101.183 70.1744 101.129 70.0984 101.058 70.0433C100.987 69.9881 100.902 69.9565 100.814 69.9523C100.756 69.9491 100.697 69.9581 100.642 69.9789C100.587 69.9996 100.537 70.0316 100.494 70.0731C100.45 70.1145 100.415 70.1646 100.391 70.2204C100.366 70.2762 100.352 70.3366 100.349 70.3981Z" fill="#616161"/>
<path opacity="0.1" d="M100.318 69.5712C100.309 69.5705 100.3 69.5678 100.292 69.5634C100.284 69.559 100.276 69.5529 100.27 69.5455C100.265 69.5381 100.26 69.5295 100.257 69.5203C100.254 69.511 100.253 69.5012 100.254 69.4915C100.264 69.3649 100.301 69.2423 100.363 69.1329C100.424 69.0235 100.508 68.9303 100.609 68.8601C100.709 68.7899 100.823 68.7447 100.943 68.7277C101.062 68.7108 101.184 68.7226 101.298 68.7623C101.316 68.769 101.33 68.7825 101.339 68.8001C101.347 68.8177 101.349 68.838 101.343 68.8568C101.34 68.8661 101.336 68.8748 101.33 68.8823C101.324 68.8898 101.316 68.8959 101.308 68.9003C101.3 68.9047 101.29 68.9073 101.281 68.9079C101.272 68.9086 101.262 68.9072 101.254 68.904C101.16 68.8711 101.061 68.8609 100.963 68.8741C100.865 68.8874 100.771 68.9237 100.689 68.9805C100.606 69.0373 100.537 69.113 100.486 69.202C100.435 69.291 100.403 69.391 100.394 69.4945C100.394 69.5049 100.393 69.5154 100.389 69.5251C100.385 69.5348 100.38 69.5436 100.373 69.5508C100.365 69.5581 100.357 69.5637 100.348 69.5672C100.338 69.5707 100.328 69.5721 100.318 69.5712Z" fill="#616161"/>
<path d="M93.4892 84.6698L90.818 83.0165L90.09 82.0333C90.09 82.0333 89.3396 81.1004 88.7348 81.0384C88.4312 81.0281 88.1296 81.0949 87.8556 81.2332C87.8556 81.2332 87.1556 81.6997 87.5756 82.4142C87.5756 82.4142 86.884 82.7892 87.3544 83.5952C87.3544 83.5952 86.6908 83.6099 87.2592 84.3421C87.4782 84.6191 87.7477 84.847 88.0516 85.0123C88.3555 85.1776 88.6878 85.277 89.0288 85.3046C89.4229 85.3438 89.8205 85.3068 90.202 85.1954L93.1504 87.2384L93.4892 84.6698Z" fill="#EBB373"/>
<path d="M97.8824 81.5728L98.364 78.3872L96.894 81.6083L97.8824 81.5728Z" fill="#616161"/>
<path d="M92.4896 81.3662L93.6908 78.7947L91.3836 81.5109L92.4896 81.3662Z" fill="#616161"/>
</svg>
