<svg width="301" height="22" viewBox="0 0 301 22" fill="none" xmlns="http://www.w3.org/2000/svg">
<mask id="mask0_21_2268" style="mask-type:alpha" maskUnits="userSpaceOnUse" x="0" y="0" width="301" height="22">
<rect width="301" height="22" rx="11" fill="#C4C4C4"/>
</mask>
<g mask="url(#mask0_21_2268)">
<path d="M45.2109 -4.6526C45.2111 -4.65263 45.2114 -4.65269 45.2116 -4.65279L45.2429 -4.66512C45.469 -4.75423 45.4401 -5.08981 45.2028 -5.15874C44.9736 -5.2253 44.9398 -5.54662 45.1542 -5.64169C45.1855 -5.65556 45.2193 -5.6629 45.2538 -5.66167C45.5642 -5.65063 45.9118 -5.55569 46.2429 -5.4781C46.893 -5.32579 46.8705 -5.46859 46.3852 -5.94303C46.176 -6.18 46.3507 -6.50354 46.6578 -6.46515C46.8298 -6.44365 47.0058 -6.41482 47.1841 -6.37886C47.7555 -6.23888 48.3159 -6.17084 48.8036 -6.18224C49.705 -6.14807 50.5787 -6.1756 51.539 -6.17506C51.6733 -6.17499 51.7516 -6.32527 51.6773 -6.4415C51.5994 -6.56346 51.6895 -6.71935 51.8302 -6.70605L52.8225 -6.61224C52.864 -6.60832 52.905 -6.599 52.9464 -6.59447C53.0802 -6.57983 53.2292 -6.6253 53.355 -6.5793C54.5659 -6.12908 55.0782 -6.37442 55.6595 -6.57784C55.929 -6.69681 56.2366 -6.68869 56.5324 -6.65182C57.9722 -6.47235 59.2935 -5.92573 60.6132 -5.63183C60.887 -5.54912 61.1496 -5.44295 61.3824 -5.32084C61.8884 -5.08346 62.4513 -4.88965 63.0195 -4.75715C63.5877 -4.62464 64.143 -4.55768 64.6349 -4.56235C65.7225 -4.56759 66.9513 -4.41058 68.2024 -4.10652C68.5744 -4.00636 68.9467 -3.9403 69.2955 -3.91252C69.4893 -3.89709 69.6734 -3.89366 69.8445 -3.90211C70.0974 -3.91462 70.3548 -3.89689 70.5947 -3.8055C70.9043 -3.68751 71.2401 -3.69127 71.5603 -3.75138C71.8245 -3.80099 72.1199 -3.82877 72.4405 -3.83378C72.9754 -3.84215 73.5693 -3.78697 74.186 -3.67157C74.8432 -3.54639 75.5107 -3.46201 76.1926 -3.32966C77.6011 -3.07664 78.972 -2.9219 80.2625 -2.87025C82.1844 -2.71718 84.0621 -2.59883 86.0009 -2.40799C87.2138 -2.31588 88.3956 -2.26521 89.5391 -2.25626C90.909 -2.22023 92.3908 -2.04581 93.913 -1.74141L-nan -nanL93.913 -1.74141C93.8408 -1.45582 93.1733 -1.54019 92.7254 -1.54985C91.2802 -1.59732 89.8011 -1.72033 88.3143 -1.81273C87.6446 -1.8488 86.9932 -1.86246 86.3641 -1.85362C85.3123 -1.86546 84.2035 -1.94156 83.0568 -2.08061C81.2452 -2.23362 79.4915 -2.30717 77.8136 -2.30051C77.7185 -2.29234 77.6292 -2.2796 77.5464 -2.26243C77.4856 -2.24982 77.4171 -2.20985 77.4412 -2.15049C77.4551 -2.11598 77.4871 -2.07916 77.534 -2.04358C77.5808 -2.008 77.6409 -1.97485 77.7087 -1.94728C77.7764 -1.91972 77.8495 -1.89867 77.9208 -1.88616C78.5872 -1.69261 79.303 -1.48473 79.9315 -1.45549C79.9558 -1.4533 79.9816 -1.44832 80.0072 -1.44088C80.0568 -1.42649 80.1047 -1.40505 80.1543 -1.39114C81.5275 -1.0063 82.6627 -1.07184 83.7391 -1.00655C85.5586 -0.82688 87.3126 -0.742958 88.9746 -0.756049C89.2258 -0.755158 89.497 -0.731803 89.7784 -0.686826C91.519 -0.504501 93.1466 -0.48411 94.585 -0.626572C95.1769 -0.662663 95.7273 -0.743686 96.3635 -0.745043C96.7553 -0.750619 97.0965 -0.802323 97.3662 -0.897061C97.76 -1.0353 98.2124 -1.19976 98.6224 -1.09201C98.6643 -1.08102 98.7061 -1.07028 98.748 -1.05978C98.9113 -1.02058 99.068 -1.01017 99.1863 -1.03068C99.3046 -1.0512 99.3757 -1.1011 99.3853 -1.17029C99.3973 -1.21788 99.3839 -1.25965 99.3521 -1.29681C99.2441 -1.42285 99.2306 -1.61261 99.3923 -1.61717C100.74 -1.66145 102.186 -1.60919 103.698 -1.46152C104.872 -1.28477 105.809 -1.42864 107.044 -1.17938C107.192 -1.13637 107.314 -1.1995 107.451 -1.21466C107.806 -1.29448 108.249 -1.31242 108.741 -1.26691C109.725 -1.17584 110.812 -1.20897 111.791 -1.06098C112.158 -1.00552 112.54 -0.930373 112.899 -0.884353C113.172 -0.849352 113.325 -0.869817 113.257 -0.601348C113.231 -0.501106 113.082 -0.620616 112.984 -0.593512C111.979 -0.315732 110.64 -0.261948 109.136 -0.440508C108.844 -0.439729 108.566 -0.425359 108.304 -0.397533C107.907 -0.358148 107.46 -0.36208 106.982 -0.409159C106.694 -0.42821 106.419 -0.431779 106.161 -0.419992C105.762 -0.40179 105.342 -0.424317 104.98 -0.263634C104.77 -0.170513 104.868 0.0900616 105.084 0.181828C105.139 0.205191 105.196 0.227645 105.253 0.249095C106.228 0.52596 107.201 0.640561 107.98 0.570352C109.335 0.449381 110.948 0.567429 112.389 0.52613C113.345 0.509708 114.362 0.555329 115.42 0.662154C115.454 0.665623 115.474 0.687573 115.466 0.721258C115.457 0.757536 115.475 0.800987 115.511 0.813391C115.619 0.85147 115.732 0.882544 115.843 0.905302C115.874 0.915755 115.84 0.840649 115.814 0.822176C115.761 0.78528 115.696 0.750856 115.625 0.721419C115.556 0.701313 115.559 0.585925 115.629 0.575799C115.735 0.560667 115.841 0.55412 115.953 0.575885C116.432 0.657847 116.89 0.692448 117.299 0.677633C117.708 0.662821 118.059 0.598885 118.333 0.489675C118.817 0.349705 119.42 0.286051 120.102 0.302828C120.617 0.287776 121.113 0.255688 121.589 0.206719C121.603 0.20524 121.607 0.216845 121.611 0.202915C121.64 0.109267 121.666 -0.0545052 121.572 -0.08258C121.45 -0.118876 121.326 -0.150353 121.204 -0.176517C120.227 -0.29592 119.248 -0.405123 118.288 -0.486756C117.935 -0.495573 117.602 -0.481897 117.298 -0.44599C116.457 -0.40417 115.514 -0.463041 114.521 -0.619171C114.512 -0.620664 114.515 -0.619105 114.506 -0.621793C114.382 -0.657703 114.349 -0.795992 114.474 -0.816192C114.813 -0.870753 115.33 -0.785365 115.669 -0.839238C115.79 -0.858346 115.91 -0.888232 116.032 -0.885025C116.132 -0.882419 116.236 -0.87997 116.32 -0.88141C116.438 -0.883447 116.424 -0.978856 116.476 -1.08521C116.502 -1.13587 116.555 -1.17646 116.633 -1.20407C116.711 -1.23168 116.811 -1.24564 116.927 -1.24493C117.043 -1.24422 117.171 -1.22886 117.303 -1.19996C118.401 -1.04365 119.436 -1.00018 120.344 -1.07221C120.688 -1.07083 121.073 -1.02449 121.415 -1.0129C121.624 -0.998944 121.815 -1.00671 121.977 -1.03577C122.802 -1.24979 123.912 -1.26543 125.141 -1.08031C125.735 -1.01376 126.29 -1.00486 126.777 -1.05407C127.124 -1.06288 127.271 -0.910706 127.517 -0.839022C127.688 -0.81451 127.694 -0.565363 127.526 -0.541631L127.462 -0.53265C127.349 -0.516765 127.294 -0.385656 127.368 -0.294882C127.596 -0.0177176 127.819 0.083209 128.206 0.105468C128.892 0.146289 129.56 0.164733 130.206 0.160682C130.683 0.157115 131.078 0.0636664 131.725 0.229645C131.839 0.256718 131.949 0.265479 132.037 0.254462C132.577 0.149412 133.195 0.102066 133.87 0.113261C134.42 0.122383 134.983 -0.0042824 135.531 0.0517764C135.945 0.0940425 136.414 0.224959 136.867 0.345241C136.911 0.357014 136.963 0.347498 136.99 0.311049C137.087 0.18086 137.013 -0.0588551 137.176 -0.0574809C137.619 -0.0537392 138.066 -0.0498124 138.52 -0.0303387C138.733 -0.0413901 138.976 -0.0224876 139.231 0.0248719C139.485 0.0722347 139.745 0.146759 139.988 0.242622C140.106 0.304562 140.249 0.351182 140.387 0.372796C140.524 0.394409 140.646 0.38937 140.727 0.358713C140.959 0.30149 141.28 0.313844 141.561 0.2919C141.852 0.269208 142.13 0.14106 142.421 0.18501C142.594 0.211183 142.774 0.266738 142.93 0.341714L-nan -nanL142.93 0.341714C142.76 0.365107 142.608 0.401943 142.478 0.451415C141.748 0.703904 143.191 1.26504 143.969 1.24963C144.476 1.23957 144.975 1.22338 145.446 1.18206C145.915 1.11601 146.488 1.13666 147.103 1.24168C147.718 1.3467 148.349 1.53193 148.926 1.77653C149.135 1.8706 149.373 1.93574 149.593 1.95904C149.783 1.97922 149.948 1.96673 150.063 1.92419C150.097 1.91165 150.129 1.88885 150.15 1.85874C150.226 1.74573 150.096 1.62376 149.964 1.58526L149.649 1.49381C149.613 1.48356 149.591 1.45085 149.6 1.41521C149.607 1.38688 149.633 1.36269 149.662 1.36217L150.465 1.34763C150.915 1.34709 151.385 1.37413 151.811 1.36643C152.437 1.3152 153.151 1.34375 153.91 1.45032C154.609 1.5596 155.297 1.6422 155.967 1.69739C156.615 1.7542 157.084 1.57309 157.701 1.54417C158.167 1.52237 158.68 1.54567 159.22 1.61316C159.343 1.6289 159.464 1.64257 159.584 1.65418C160.941 1.7856 162.368 2.48858 163.685 2.18726L163.96 2.14911C164.01 2.14208 164.061 2.1647 164.092 2.20761C164.121 2.24943 164.17 2.27207 164.22 2.26657L164.412 2.24518C164.922 2.21819 165.433 2.1912 165.965 2.18157C166.705 2.24121 167.504 2.40166 168.285 2.64726C168.433 2.69026 168.634 2.8364 168.764 2.9508C168.793 2.97569 168.828 3.01148 168.869 3.05458C169.15 3.35467 169.072 3.81597 168.782 4.09013C168.743 4.12731 168.705 4.17136 168.72 4.22505C168.723 4.23533 168.727 4.24586 168.733 4.2566C168.754 4.29813 168.795 4.34161 168.851 4.38355C168.908 4.42548 168.978 4.4647 169.058 4.49806C169.137 4.53142 169.222 4.558 169.307 4.57564C169.473 4.61366 169.637 4.63901 169.792 4.65064C170.201 4.6614 170.6 4.6621 170.99 4.65277C171.647 4.63703 172.304 4.48859 172.957 4.58714C173.724 4.70281 174.497 4.86557 175.269 4.86956C175.799 4.8723 176.36 4.90927 176.944 4.98019C177.096 4.99867 177.249 5.00265 177.401 4.99518C178.38 4.94707 179.496 5.05239 180.451 4.96309C180.663 4.9432 180.973 5.16344 181.158 5.28014C181.265 5.34546 181.379 5.40874 181.497 5.46952C181.827 5.63859 182.19 5.72062 182.554 5.7585L183.865 5.89487C184.175 5.92712 184.454 6.10342 184.682 6.32562C184.771 6.426 184.927 6.52422 185.115 6.59946C185.304 6.67471 185.511 6.72107 185.693 6.7287C186.11 6.76192 186.111 7.02253 185.693 7.01666C185.121 7.00861 184.495 6.94133 183.843 6.81548C182.668 6.63182 181.537 6.54004 180.494 6.54353C180.15 6.54214 179.697 6.55286 179.589 6.66396C179.351 6.97794 178.728 6.92831 178 6.87039C177.429 6.80699 176.907 6.8141 176.478 6.89115C176.395 6.90598 176.317 6.92332 176.242 6.94308C175.726 7.0794 175.573 7.66701 176.1 7.78556L177.296 8.04502C177.883 8.17225 178.489 8.19569 179.058 8.03158C179.521 7.92637 180.092 7.89748 180.727 7.94718C181.363 7.99688 182.045 8.12383 182.721 8.31814C183.067 8.41849 183.412 8.51885 183.663 8.47117C183.872 8.41911 184.065 8.3573 184.241 8.28614C184.259 8.27885 184.276 8.26627 184.285 8.24912C184.322 8.1837 184.388 8.11848 184.461 8.13839C184.544 8.16112 184.627 8.18716 184.708 8.2162C185.737 8.75601 186.534 8.74666 187.258 8.60665C187.454 8.56503 187.603 8.49887 187.802 8.44705C188.001 8.39524 188.071 8.32797 188.251 8.34755C189.628 8.51692 190.067 7.9831 191.164 7.9573C191.265 7.95493 191.399 7.95547 191.424 7.85662C191.449 7.75798 191.333 7.68439 191.239 7.6461C191.191 7.62686 191.141 7.60966 191.091 7.59492C190.987 7.56486 190.883 7.54604 190.787 7.5402C190.228 7.46432 189.736 7.48758 189.392 7.60602C189.191 7.6461 188.98 7.67944 188.759 7.70591C188.67 7.71661 188.58 7.69235 188.505 7.63945C188.192 7.41897 188.349 6.91446 188.724 6.92054C189.419 6.93181 190.086 6.91286 190.719 6.86367C190.942 6.81902 191.32 6.89595 191.635 6.91058L193.946 6.99061C194.279 6.99526 194.578 6.93053 194.956 6.9997C195.321 7.06648 195.699 7.30935 196.043 7.18366C196.69 6.94695 197.363 6.94653 198.047 6.84301C198.052 6.84211 198.058 6.8411 198.064 6.83997C198.298 6.7742 198.513 6.69731 198.708 6.60983C198.949 6.50147 199.216 6.44574 199.48 6.49142L199.851 6.55562C200.204 6.61648 200.483 6.95009 200.315 7.26375C200.206 7.44299 200.21 7.65816 200.326 7.89164C200.442 8.12512 200.666 8.37029 200.982 8.60714L201.829 9.37782C202.18 9.69724 202.584 9.97883 203.047 10.0235C203.27 10.0449 203.463 10.0301 203.602 9.98119C203.886 9.91173 204.186 9.84952 204.486 9.78763C205.121 9.65685 205.816 9.65697 206.232 10.181C206.24 10.1905 206.248 10.2 206.256 10.2095C206.435 10.4231 206.711 10.5118 206.974 10.5883C207.873 10.8495 209.043 11.9035 208.142 12.0992C208.128 12.1023 208.113 12.1053 208.098 12.1082C207.941 12.1351 208.09 12.5046 208.239 12.5685C208.752 12.7877 209.29 12.8951 209.799 13.0576C209.877 13.0822 209.951 13.117 210.019 13.1621C210.124 13.2314 210.221 13.3023 210.31 13.374C210.482 13.5139 210.615 13.6985 210.782 13.8458C210.979 14.0208 211.252 14.19 211.574 14.3352C212.045 14.548 212.585 14.6922 213.077 14.7366C213.902 14.8729 214.747 15.0775 215.574 15.3413C215.856 15.433 216.146 15.4999 216.425 15.5373C216.703 15.5747 216.963 15.5819 217.188 15.5583C217.988 15.5168 218.665 15.3739 219.175 15.1391C219.655 14.9493 220.295 14.8531 221.04 14.8581C221.115 14.8586 221.19 14.87 221.262 14.8925C221.937 15.1028 222.332 15.365 222.674 15.6411C222.958 15.8695 222.804 16.4044 222.449 16.4191C222.293 16.4255 222.194 16.5432 222.139 16.6905C222.096 16.8031 221.986 16.8891 221.648 16.8864C221.497 16.8852 221.405 16.8974 221.355 16.9196C221.076 17.0433 221.639 17.4204 221.917 17.5627C222.088 17.6503 222.29 17.718 222.488 17.7545L223.696 18.0068C224.124 18.1028 224.539 18.1438 224.894 18.1253C225.249 18.1068 225.531 18.0295 225.71 17.9018C225.914 17.7807 226.196 17.6987 226.539 17.6609C226.743 17.6148 226.93 17.5581 227.098 17.4915C227.44 17.3566 227.807 17.2585 228.174 17.3181L228.512 17.3727C228.979 17.4484 229.508 17.1938 229.971 17.1234C230.328 17.0693 230.784 17.0981 231.264 17.2049L232.413 17.3745C233.036 17.4646 233.422 17.4964 233.697 17.4431C234.139 17.3576 234.013 16.7527 233.623 16.5084L233.247 16.2731C233.022 16.1322 232.979 15.8142 233.157 15.6259C233.325 15.4486 233.299 15.165 233.09 15.0258C232.773 14.8134 232.4 14.6139 231.99 14.4377C231.444 14.1674 230.882 13.9056 230.307 13.6533C229.871 13.473 229.417 13.3091 228.919 13.1274C228.474 12.9653 228.069 12.7166 227.668 12.4598C227.471 12.3376 227.268 12.2173 227.058 12.0992C226.956 12.0417 226.905 11.9283 226.925 11.8135C226.958 11.6237 227.12 11.417 227.307 11.4589C227.647 11.535 227.988 11.6374 228.315 11.7621C228.779 11.9389 229.2 12.1548 229.54 12.3904C229.597 12.4322 229.667 12.4715 229.745 12.5055C229.823 12.5396 229.908 12.5677 229.993 12.5878C230.831 12.7326 231.232 13.035 231.641 13.4058C231.917 13.5954 232.273 13.7637 232.659 13.8874C233.399 14.1025 234.124 14.3788 234.832 14.6172C235.049 14.6967 235.274 14.7621 235.499 14.8108C236.239 14.9655 236.984 15.1818 237.695 15.4488C237.928 15.5166 238.151 15.6064 238.345 15.7106C238.358 15.7176 238.371 15.7246 238.384 15.7316C238.63 15.8682 238.574 16.2019 238.54 16.4802C238.536 16.5113 238.53 16.5425 238.545 16.5703C238.617 16.7021 239.052 16.9171 239.271 17.0778C239.516 17.2587 239.035 17.1734 238.871 17.1916C238.2 17.2266 238.075 17.2999 238.477 17.7013C238.611 17.8275 238.701 17.9538 238.739 18.0723C238.752 18.1134 238.759 18.1532 238.76 18.1914C238.764 18.3326 238.69 18.453 238.635 18.5808C238.407 19.1108 238.566 19.6034 238.917 20.0775C238.93 20.0947 238.941 20.1121 238.952 20.1296C238.995 20.2046 239.012 20.2942 239.068 20.3607C239.095 20.3929 239.128 20.4254 239.166 20.4577C239.249 20.5273 239.357 20.594 239.48 20.653C239.805 20.7804 240.1 20.9328 240.343 21.0983C240.586 21.2638 240.77 21.438 240.881 21.6075C240.918 21.6775 241.005 21.7519 241.127 21.8156C241.248 21.8793 241.395 21.9277 241.536 21.951C241.706 21.9796 241.857 21.9758 241.96 21.9404C241.991 21.9297 242.017 21.9163 242.037 21.9006C242.12 21.8374 242.092 21.7066 242.082 21.6005C242.074 21.5163 242.059 21.4303 242.035 21.3428C242.026 21.3097 242.023 21.2842 242.031 21.2514C242.065 21.1033 242.183 20.9135 242.332 20.9423C242.723 21.018 243.122 21.1311 243.501 21.2751C244 21.4644 244.447 21.6997 244.794 21.9555C244.918 22.0414 245.04 22.1287 245.161 22.218C245.64 22.5697 245.729 23.0177 246.206 23.3737C246.409 23.5261 246.905 23.7758 247.154 23.7913L250.522 24.0012C251.218 24.0445 251.905 24.2038 252.556 24.4727C253.474 24.8267 253.692 24.8024 254.268 24.6194C254.519 24.5082 254.802 24.4923 255.071 24.5652C255.584 24.7042 256.108 24.8098 256.519 24.7112C256.746 24.6566 257.233 24.7079 257.159 24.9326C257.152 24.9548 257.148 24.9531 257.136 24.973C256.89 25.3863 256.474 25.7377 255.902 26.0138C255.607 26.1446 255.304 26.2964 255.109 26.5552C254.877 26.863 254.874 27.2505 255.111 27.678C255.404 28.1503 255.428 28.7866 254.947 29.0253C254.681 29.1571 254.389 29.2755 254.071 29.3797C253.466 29.5606 252.968 29.8028 252.591 30.0995C252.253 30.3986 251.746 30.6234 251.099 30.761C250.593 30.8515 250.349 31.3826 250.468 31.8982C250.493 32.0021 250.523 32.1073 250.559 32.2136C250.622 32.3967 250.68 32.5868 250.796 32.7419C250.848 32.8114 250.913 32.8819 250.991 32.9523C251.155 33.1011 251.371 33.2456 251.623 33.3758C251.659 33.3942 251.665 33.3934 251.696 33.4186C251.795 33.4977 251.884 33.6393 251.881 33.7655C251.875 34.0887 251.769 34.3853 251.566 34.6474C251.404 34.8566 251.211 35.0649 250.956 35.1327C250.928 35.1404 250.898 35.1471 250.866 35.153C250.66 35.1916 250.403 35.1914 250.122 35.1522C249.529 35.0894 248.974 35.0816 248.4 35.0463C247.782 34.9964 247.237 35.0357 246.823 35.1602C246.516 35.2527 246.289 35.3896 246.155 35.5621C246.066 35.6768 246.054 35.834 245.995 35.9681C245.963 36.0321 246.004 36.1049 246.065 36.1449L246.236 36.2571C246.629 36.5147 246.539 37.1169 246.093 37.2199C245.908 37.2626 245.76 37.4342 245.901 37.5696C246.054 37.7174 246.334 37.8423 246.57 37.972C246.673 38.0288 246.675 38.1697 246.578 38.2322C246.565 38.2406 246.551 38.2472 246.536 38.2508C246.253 38.3181 245.879 38.1683 245.54 38.0805L245.323 38.0174C245.252 37.9968 245.18 38.038 245.162 38.1094C245.156 38.1317 245.146 38.1525 245.128 38.1659C244.882 38.3478 244.143 38.1217 243.848 38.2787C243.542 38.4416 243.76 38.6255 244.219 38.8025C244.538 38.934 244.88 39.0389 245.22 39.1093C245.56 39.1796 245.889 39.2136 246.183 39.2086C246.358 39.1912 246.503 39.1514 246.609 39.0918C247.228 38.8376 247.912 38.6191 248.656 38.4379C249.226 38.2752 249.94 38.206 250.747 38.2351C250.984 38.2228 251.27 38.2614 251.554 38.344C251.839 38.4266 252.103 38.5479 252.302 38.6867L-nan -nanL252.302 38.6867L252.634 38.7049C252.691 38.708 252.746 38.7252 252.793 38.7577C252.803 38.7644 252.813 38.7715 252.823 38.7788C252.898 38.8327 252.896 38.9207 252.878 39.0105C252.799 39.4073 252.994 39.8736 253.444 40.354L-nan -nanL253.444 40.354L253.045 40.3984C253.02 40.4012 252.994 40.4014 252.969 40.3999C252.947 40.3986 252.927 40.3978 252.907 40.3975C252.513 40.3918 252.442 40.7997 252.048 40.7706C251.804 40.7526 251.587 40.7614 251.469 40.8625C251.462 40.8685 251.453 40.872 251.444 40.8715L251.266 40.8633C251.249 40.8625 251.246 40.8872 251.262 40.892C251.266 40.8929 251.269 40.8927 251.272 40.8914L251.336 40.863C251.387 40.8404 251.446 40.8425 251.497 40.8686C251.66 40.9527 251.635 41.2103 251.458 41.2424C251.399 41.253 251.34 41.262 251.279 41.2689C251.143 41.2926 251.035 41.3346 250.961 41.3922C250.888 41.4498 250.85 41.5219 250.849 41.6041C250.85 41.7307 250.777 41.8372 250.637 41.9135C250.497 41.9897 250.295 42.0333 250.05 42.0399C249.927 42.0411 249.825 42.0665 249.736 42.099C249.588 42.1536 249.547 42.3708 249.656 42.4926L250.007 42.8834C250.053 42.9344 249.99 42.9837 249.939 43.0265C249.932 43.0324 249.934 43.0426 249.95 43.0591C249.97 43.0798 250.003 43.068 250.009 43.0406C250.016 43.0166 250.041 43.0043 250.064 43.0147L250.472 43.2025C250.797 43.3844 251.024 43.4285 251.216 43.2981C251.299 43.2415 251.361 43.4287 251.274 43.4796C251.2 43.5225 251.115 43.5605 251.035 43.5959C250.738 43.6854 250.87 44.1579 250.619 44.3402C250.545 44.3937 250.392 44.4316 250.147 44.4877C249.472 44.642 249.705 44.8739 249.14 44.9069C248.576 44.94 249.218 45.3345 249.596 45.4114C249.876 45.462 250.162 45.5408 250.433 45.6423C250.632 45.7167 250.82 45.802 250.99 45.8949C251.098 45.9538 251.149 46.0811 251.119 46.1993C251.083 46.3394 250.946 46.425 250.807 46.3847C250.724 46.3607 250.643 46.3341 250.562 46.3052C250.072 46.0842 249.621 45.8748 249.182 45.9371C249.106 45.9479 249.076 46.0368 249.121 46.1024C249.177 46.185 249.115 46.2937 249.018 46.2824L248.177 46.1846C247.867 46.1485 247.667 46.4177 247.901 46.6338C248.007 46.7323 248.136 46.8304 248.286 46.9251L-nan -nanL248.286 46.9251C248.227 47.06 248.19 47.2015 248.173 47.3487C248.171 47.3722 248.169 47.3974 248.155 47.4158C248.104 47.4812 247.961 47.4271 247.865 47.4378C247.476 47.4566 247.157 47.5326 246.935 47.6592C246.57 47.8682 246.67 48.402 247.064 48.5756C247.218 48.6439 247.386 48.6896 247.523 48.6853C248.399 48.7177 249.342 48.8372 250.307 49.0377C250.434 49.064 250.563 49.0869 250.69 49.0715C251.016 49.0321 251.199 48.8602 251.591 48.8537C251.991 48.8471 252.24 49.3028 251.871 49.4484C251.43 49.6223 251.292 49.9134 251.743 50.0884C251.783 50.1035 251.821 50.1187 251.859 50.1341C252.256 50.2941 252.097 50.5816 251.687 50.4691C251.594 50.4437 251.502 50.4157 251.41 50.3853C251.05 50.2654 250.715 50.1109 250.439 49.9372C250.379 49.8944 250.304 49.8549 250.221 49.8225C250.138 49.79 250.049 49.7656 249.963 49.7514C249.876 49.7373 249.796 49.7339 249.728 49.7416C249.641 49.7514 249.633 49.8498 249.699 49.9105C249.859 50.0577 250.032 50.2167 250.224 50.3675C250.467 50.5586 250.526 50.6413 250.701 50.6812C252.009 51.0612 252.631 51.7454 253.763 52.1945C254.059 52.2806 254.096 52.554 253.839 52.5231C253.594 52.4922 253.373 52.4963 253.199 52.5348C253.065 52.5647 252.963 52.6144 252.901 52.6802C252.867 52.7161 252.842 52.751 252.798 52.7745C252.582 52.892 252.535 53.2339 252.757 53.355C253.782 53.9149 254.946 54.4114 256.175 54.811C256.455 54.906 256.747 54.9639 257.008 54.9762C257.832 54.9769 258.707 55.0326 259.615 55.1423C259.937 55.1722 260.234 55.1694 260.491 55.134C261.334 55.0502 262.003 55.2336 262.614 55.7505L263.45 56.4273C263.556 56.5137 263.62 56.6198 263.54 56.7274C263.422 56.886 263.444 57.1376 263.621 57.2353L263.893 57.386C264.015 57.4538 264.155 57.4783 264.29 57.4558L269.295 56.6194C269.815 56.5326 270.353 56.677 270.774 57.0164C271.128 57.3017 271.567 57.451 272.011 57.4371L272.891 57.4096C273.002 57.4061 273.114 57.4145 273.223 57.4445C273.377 57.4872 273.518 57.5711 273.641 57.6771C273.909 57.909 274.149 58.1346 274.46 58.3588C274.841 58.6337 275.521 58.667 275.996 58.991C276.332 59.2206 276.669 59.2908 277.045 59.3807C277.348 59.453 277.619 59.7274 277.482 60.0053C277.422 60.1261 277.351 60.2515 277.263 60.3521C277.213 60.4092 277.154 60.4626 277.1 60.5174C276.982 60.6376 276.983 60.8259 276.904 60.9758C276.851 61.076 276.762 61.164 276.638 61.2368C276.093 61.5576 275.42 61.5926 274.815 61.78C273.929 62.0544 272.927 62.2587 271.825 62.3891C271.694 62.4019 271.585 62.4316 271.505 62.4762C271.372 62.551 271.379 62.7355 271.315 62.8767C271.269 62.9818 271.186 63.0754 271.071 63.1548C270.876 63.2879 270.593 63.3777 270.24 63.4178C270.097 63.4301 269.953 63.488 269.831 63.5634C269.799 63.5829 269.773 63.6052 269.754 63.6301C269.702 63.6967 269.698 63.7794 269.742 63.8702C269.786 63.961 269.876 64.0569 270.003 64.1485C270.131 64.2402 270.292 64.3246 270.471 64.3935C270.64 64.4659 270.812 64.5363 270.986 64.6045C271.143 64.6662 270.922 64.6983 271.021 64.8379C271.126 65.0139 271.151 65.1787 271.092 65.3194C270.995 65.5528 270.896 65.8587 271.079 66.04L271.902 66.854C272.047 66.998 272.229 67.0964 272.424 67.1476C273.117 67.3294 273.787 67.5939 274.352 67.9088C274.467 67.973 274.537 68.1184 274.423 68.1784C274.348 68.2181 274.239 68.2399 274.108 68.2417C273.756 68.2709 273.424 68.3277 273.045 68.3599C272.813 68.384 272.62 68.437 272.478 68.5159C272.438 68.5378 272.402 68.5617 272.371 68.5872C272.241 68.693 272.314 68.8823 272.46 68.9737L272.68 69.1114C272.843 69.2138 272.801 69.4647 272.625 69.5325C272.492 69.5839 272.478 69.7321 272.58 69.8384C272.672 69.9345 272.786 70.0306 272.918 70.1242C273.152 70.289 273.44 70.4417 273.758 70.5706C273.843 70.5972 273.93 70.6166 274.014 70.6277C274.167 70.6481 274.318 70.6091 274.471 70.5923C275.073 70.5257 275.751 70.8089 276.411 71.0785C276.92 71.2859 277.27 71.4371 277.615 71.5874C277.942 71.7293 278.29 71.8071 278.642 71.8177C278.985 71.8281 279.333 71.8902 279.633 72.0699C279.713 72.1176 279.787 72.1669 279.855 72.2175C280.158 72.4422 280.105 72.7953 279.736 72.7751C279.618 72.7687 279.499 72.7606 279.402 72.7682C278.697 72.9079 277.77 72.8781 276.774 72.6837C276.527 72.6121 276.274 72.67 276.034 72.6768C275.516 72.7047 275.018 72.7502 274.542 72.813C274.276 72.8627 274.024 72.9224 273.789 72.9919C273.712 73.0145 273.651 73.0868 273.703 73.1506C273.794 73.2622 274.021 73.362 274.163 73.449C274.256 73.5061 274.379 73.8202 274.484 73.8032C274.502 73.8003 274.514 73.8008 274.532 73.8052C275.255 73.9862 275.966 74.0755 276.584 74.0629C277.787 74.0235 279.152 74.1537 280.569 74.4427C282.097 74.7421 283.564 74.8678 284.847 74.8095C285.336 74.8061 285.882 74.8674 286.445 74.9887C287.109 75.1568 287.768 75.2625 288.38 75.2989C288.582 75.3002 288.808 75.3288 289.039 75.3825C289.269 75.4361 289.498 75.5132 289.706 75.6075L-nan -nanL289.706 75.6075C289.688 75.6789 289.489 75.7307 289.534 75.7654C289.679 75.8878 289.804 76.0114 289.923 76.1357C290.822 77.0773 292.18 78.2003 293.266 77.561C293.594 77.3678 293.586 77.1951 293.193 76.8411C293.025 76.6907 293.105 76.4517 293.319 76.5136C293.544 76.5791 293.754 76.6753 293.912 76.7853L294.662 77.2769L294.814 77.3827C295.128 77.6005 295.276 77.9929 295.184 78.3589C295.106 78.5647 295.191 78.8153 295.426 79.0754C295.568 79.2174 295.692 79.3594 295.796 79.5002C296.219 80.0633 296.341 80.5955 296.149 81.0371C295.782 81.6721 295.271 82.2564 294.622 82.7832C293.936 83.2956 293.561 83.9421 292.996 84.5006C292.707 84.7549 292.357 84.9828 291.949 85.182C291.175 85.625 290.326 86.0464 289.55 86.4996C288.773 86.9528 287.896 87.2783 287.033 87.6518C285.748 88.0951 284.36 88.478 282.875 88.7982C281.956 89.0788 281.013 89.3523 280.163 89.6748C279.159 90.0383 277.98 90.2994 276.655 90.4515C275.485 90.6336 274.439 90.9028 273.538 91.2541C273.508 91.2661 273.48 91.279 273.455 91.2929C273.353 91.348 273.296 91.4557 273.226 91.5485C273.059 91.7693 272.763 91.9391 272.36 92.0459C272.187 92.0917 272.085 92.2774 272.179 92.4362C272.273 92.5648 272.293 92.6853 272.235 92.7818C272.178 92.8783 272.046 92.9465 271.857 92.9776C271.457 93.0432 271.106 93.1426 270.813 93.2732C270.616 93.3613 270.355 93.429 270.301 93.6424C270.277 93.7347 270.309 93.8415 270.392 93.9534C270.465 94.0687 270.471 94.1747 270.407 94.2577C270.344 94.3408 270.214 94.3971 270.036 94.4193C269.577 94.5284 269.085 94.6161 268.565 94.682C267.584 94.8107 266.46 94.824 265.25 94.722C264.935 94.6955 264.612 94.7384 264.308 94.6499C263.324 94.4833 262.41 94.4575 261.677 94.5756C260.818 94.6216 259.919 94.6125 259.013 94.634C258.795 94.6316 258.58 94.632 258.368 94.6352C256.404 94.6652 254.439 95.0225 252.474 95.034C251.518 95.0663 250.613 95.1438 249.766 95.2657C248.4 95.4275 247.04 95.5689 245.694 95.7582C244.431 95.8485 243.268 96.021 242.225 96.2728C241.826 96.3866 241.102 96.2093 240.83 96.4478C240.558 96.6862 240.009 96.6581 239.565 96.7372L238.164 96.9326C237.923 96.9791 237.658 97.0085 237.374 97.0205C236.09 97.0362 235.195 97.3459 234.012 97.4169C233.978 97.4189 233.944 97.415 233.911 97.4055C233.863 97.3914 233.812 97.3896 233.764 97.4002C231.635 97.8632 229.205 98.1175 226.542 98.1556C225.549 98.2473 224.497 98.2783 223.437 98.3155C222.211 98.3584 220.877 98.1032 219.741 98.5452C219.241 98.7395 218.426 98.6121 217.782 98.644C217.138 98.676 216.508 98.7559 215.82 98.7532C215.222 98.7541 214.718 98.8409 214.352 99.0056C213.517 99.278 212.5 99.4381 211.345 99.4789C210.014 99.5405 208.746 99.6704 207.413 99.6795C207.095 99.6816 206.812 100.002 206.541 100.164C206.338 100.286 206.035 100.357 205.662 100.369C204 100.444 202.493 100.642 200.809 100.7L200.359 100.701L195.323 100.814C194.046 100.835 192.813 100.869 191.518 100.893C191.357 100.896 191.196 100.863 191.034 100.852C190.821 100.838 190.73 100.92 190.585 100.952C190.46 100.979 190.349 100.877 190.228 100.83C190.176 100.81 190.118 100.806 190.051 100.823C190.012 100.833 189.985 100.865 189.975 100.905C189.961 100.959 189.914 100.997 189.859 100.999L184.204 101.198C181.954 101.347 179.587 101.391 177.123 101.332C176.539 101.347 175.993 101.397 175.495 101.483C175.034 101.514 174.553 101.528 174.054 101.524C173.381 101.486 172.722 101.466 172.082 101.466C170.398 101.524 168.631 101.493 166.787 101.45C164.944 101.407 163.547 101.483 161.906 101.477C160.794 101.472 159.688 101.446 158.537 101.386C157.988 101.358 157.311 101.205 156.743 101.149C156.174 101.094 155.988 101.094 155.913 101.182C155.665 101.428 155.043 101.269 154.546 101.245C154.354 101.237 154.195 101.227 154.061 101.212C153.439 101.141 153.752 100.388 154.365 100.284C154.657 100.219 155.024 100.207 155.43 100.25C155.837 100.294 156.27 100.39 156.687 100.531C156.851 100.591 157.023 100.639 157.192 100.671C157.361 100.703 157.525 100.72 157.673 100.719C158.868 100.685 160.046 100.613 161.194 100.554C161.206 100.554 161.217 100.552 161.229 100.549C161.318 100.529 161.382 100.449 161.383 100.355L161.386 100.227C161.389 100.062 161.286 99.908 161.127 99.8636C161.074 99.8485 161.02 99.8347 160.966 99.8222C160.937 99.8154 160.907 99.8113 160.877 99.8094L155.133 99.4448C153.805 99.3546 152.426 99.1511 151.122 99.0681C149.818 98.9851 149.116 98.9343 148.104 98.8486C147.731 98.8058 147.351 98.7513 146.967 98.6853C146.884 98.6712 146.838 98.5788 146.845 98.4949C146.845 98.4871 146.846 98.4792 146.848 98.4715C146.871 98.3812 146.892 98.2648 146.712 98.1706C146.508 98.0321 146.235 97.9137 145.948 97.8392C145.679 97.79 145.417 97.7622 145.174 97.7568C144.096 97.7132 142.878 97.4575 141.74 97.039C141.551 96.9695 141.342 96.9958 141.185 97.1154C141.073 97.201 140.932 97.2405 140.79 97.2264C139.027 97.0514 137.237 96.8792 135.397 96.7127C135.013 96.6654 134.611 96.5746 134.219 96.4472C133.799 96.3253 133.413 96.0709 132.972 95.9317C132.699 95.8689 132.427 95.8149 132.158 95.7698C131.989 95.7415 131.947 95.549 132.111 95.5046C132.12 95.502 132.132 95.4998 132.142 95.4987C132.314 95.4805 132.439 95.4289 132.5 95.351C132.563 95.271 132.556 95.1672 132.478 95.0547C132.341 94.8617 132.281 94.6801 132.579 94.6569C132.853 94.6129 133.05 94.5177 133.145 94.3824C133.24 94.2471 133.23 94.0774 133.116 93.8933C133.066 93.7857 133.031 93.6804 133.01 93.578L-nan -nanL133.01 93.578L132.911 93.5491C132.895 93.5445 132.88 93.5361 132.868 93.525C132.563 93.2528 132.047 93.1064 131.567 92.9244C131.238 92.7999 130.917 92.641 130.572 92.5901C130.469 92.5749 130.368 92.566 130.273 92.5639C129.627 92.4969 128.999 92.4677 128.331 92.3833C128.012 92.3445 127.679 92.2737 127.351 92.1751C127.331 92.1694 127.312 92.164 127.294 92.1587C126.863 92.0327 127.156 91.5861 127.509 91.3201C127.7 91.176 127.735 90.9707 127.608 90.7389C127.402 90.4397 127.189 90.131 126.724 89.8542C126.527 89.7372 126.573 89.2578 126.796 89.2331C126.934 89.2218 127.037 89.1846 127.092 89.1265C127.147 89.0684 127.15 88.9921 127.102 88.908C127.055 88.8238 126.957 88.7357 126.824 88.6556C126.69 88.5754 126.527 88.5069 126.356 88.4593C125.523 88.1728 124.654 87.9811 123.846 87.9056C123.2 87.8739 122.614 87.8892 121.876 87.8901C121.797 87.8902 121.718 87.8788 121.642 87.8566L121.004 87.6713C120.902 87.6417 120.696 87.5484 120.727 87.4469C120.73 87.4376 120.735 87.4352 120.741 87.4276C120.751 87.4142 120.761 87.4009 120.771 87.3875C121.123 86.9296 120.936 86.2611 120.475 85.8891C120.457 85.8748 120.44 85.8605 120.423 85.8462C120.222 85.6752 120.081 85.5025 120.007 85.3389C119.958 85.2288 119.904 85.0903 119.973 84.9955C120.008 84.9471 120.071 84.9096 120.158 84.8857C120.405 84.8448 120.596 84.7665 120.716 84.657C120.924 84.4657 120.722 84.1546 120.493 83.9746L120.408 83.9081C120.218 83.7588 119.996 83.6577 119.762 83.6154C117.689 83.2406 115.654 82.9705 113.689 82.8097L112.247 82.7109C111.963 82.6914 111.587 82.4619 111.87 82.4568C112.083 82.4529 112.682 82.4954 113.1 82.5183C113.461 82.5484 113.782 82.5286 114.031 82.461C114.071 82.4502 114.108 82.4383 114.144 82.4253C114.418 82.3246 114.381 81.9854 114.172 81.7678C113.999 81.5886 113.903 81.2603 114.138 81.2074C114.185 81.197 114.241 81.192 114.309 81.1943C114.542 81.1801 114.714 81.1185 114.797 81.0194C114.862 80.9415 114.869 80.8441 114.819 80.7374C114.79 80.6752 114.755 80.6108 114.763 80.5436C114.778 80.4237 114.903 80.3716 115.023 80.3704C115.464 80.3663 115.899 80.3656 116.3 80.3384C116.514 80.328 116.694 80.2901 116.829 80.2272C116.964 80.1644 117.05 80.078 117.081 79.974C117.098 79.8724 117.058 79.7568 116.964 79.6363C116.737 79.3457 116.36 79.2364 116.002 79.1998C115.819 79.1812 115.643 79.1726 115.477 79.1742C114.963 79.1792 114.486 79.4404 113.973 79.4439C113.65 79.4462 113.28 79.3917 112.91 79.2879C112.486 79.1682 112.063 79.1156 111.717 79.1396C111.242 79.1724 110.723 79.3809 110.249 79.3124C110.104 79.2915 109.962 79.2696 109.821 79.2448C109.372 79.1606 108.948 79.1358 108.594 79.1731C108.028 79.1994 107.418 79.184 106.777 79.1273C104.932 78.9855 103.084 78.8539 101.298 78.7949C100.825 78.778 100.416 78.8235 99.9486 78.7863C99.4811 78.749 99.1113 78.8497 98.5267 78.647C98.4153 78.6155 98.3033 78.5953 98.1993 78.5879C98.0954 78.5805 98.0026 78.5862 97.928 78.6045C96.9014 78.7648 95.6976 78.7874 94.3875 78.6711C92.5932 78.6427 90.7324 78.5621 88.9355 78.5438C88.4085 78.5596 87.9104 78.6017 87.4465 78.6698C87.0935 78.7109 86.7237 78.7388 86.3392 78.7533C86.0444 78.7662 85.7626 78.7281 85.8123 78.9506C85.8621 79.1731 85.4204 79.0339 85.1659 78.9928C84.2913 78.8849 83.3975 78.7389 82.4943 78.5563C81.6044 78.3579 80.7325 78.2424 79.9307 78.2168C79.3883 78.2029 78.83 78.2516 78.1495 78.008C78.0696 77.9794 78.0148 77.9134 78.046 77.8352C78.0919 77.7206 78.0972 77.5437 77.9854 77.4885C77.4393 77.2191 76.8342 76.9858 76.2078 76.8039C75.7319 76.6657 75.2528 76.5597 74.7877 76.4892C74.3266 76.4192 73.8744 76.2728 73.4785 76.0136C73.2607 75.871 73.0262 75.7539 72.7747 75.6998C72.6692 75.6771 72.5644 75.6588 72.4615 75.6453C72.2367 75.6158 72.026 75.6095 71.8423 75.6269C71.7004 75.6357 71.5274 75.613 71.3551 75.563C71.1828 75.5129 71.0228 75.4389 70.9044 75.3544C70.7274 75.247 70.5112 75.1544 70.2829 75.0881C70.0546 75.0218 69.8243 74.9847 69.6209 74.9817C69.134 74.9312 68.6221 74.8306 68.1159 74.6866C67.7987 74.5964 67.4118 74.4721 67.3329 74.1469C67.3029 74.0234 67.3511 73.9177 67.4714 73.8428C67.6654 73.7106 67.7744 73.5422 67.7916 73.3477C67.8089 73.1532 67.7341 72.9368 67.5719 72.7115C67.4888 72.5731 67.461 72.4422 67.4902 72.3265C67.5195 72.2108 67.6051 72.1127 67.742 72.0383C68.2529 71.694 68.1162 71.501 67.2803 70.9298C67.1446 70.8345 66.9808 70.7455 66.7997 70.6684C66.6185 70.5913 66.4238 70.5277 66.2278 70.4818C66.0369 70.4431 65.847 70.4085 65.6589 70.3782C65.1396 70.2944 64.6139 70.2847 64.0915 70.2336C62.6696 70.0943 62.4614 69.8696 62.0009 69.3855C61.7793 69.1548 61.5181 68.9657 61.2247 68.8478C60.7275 68.6481 60.2025 68.479 59.6721 68.3482C58.982 68.1781 58.3 68.0771 57.6749 68.0525C57.4265 68.0506 57.1409 68.0023 56.8619 67.9149C55.9539 67.6476 55.0344 67.4626 54.1642 67.3723C53.6219 67.3214 53.0374 67.1897 52.4808 66.9931C51.9243 66.7965 51.4193 66.5433 51.0266 66.2639C50.6738 66.0122 50.2123 65.7864 49.7063 65.6177C49.1139 65.4457 49.059 65.2436 49.3898 65.0879C49.7206 64.9321 50.2746 64.7317 50.7664 64.568C50.9375 64.5124 51.0436 64.4219 51.0727 64.3066C51.1416 64.034 50.86 63.7746 50.8607 63.4911C50.8609 63.4034 50.871 63.3182 50.8911 63.2356C50.9186 63.1482 50.8996 63.0478 50.8356 62.9415C50.7717 62.8351 50.6641 62.7251 50.5202 62.619C50.3762 62.5129 50.1994 62.4131 50.0014 62.3262C49.8035 62.2394 49.589 62.1677 49.3726 62.1158C48.4594 61.8506 47.5708 61.5925 46.6395 61.3987C46.2492 61.3073 45.8594 61.1941 45.4795 61.0618C44.7018 60.7345 43.8698 60.4631 43.0319 60.2633C42.6342 60.174 42.2454 60.0178 41.9496 59.8285C41.0166 59.3187 40.157 58.7827 39.3862 58.2301C39.2004 58.0587 38.9573 57.8915 38.6722 57.739C38.387 57.5865 38.066 57.4519 37.7292 57.3437C37.7168 57.3401 37.7045 57.3363 37.6923 57.3324C37.2255 57.1799 36.7323 56.6744 36.9802 56.2565C37.1013 56.0523 37.3558 55.8981 37.7198 55.8082C38.065 55.7005 38.388 55.5753 38.6864 55.443C39.0461 55.336 39.4737 55.2717 39.9533 55.2526C40.5605 55.1912 40.4647 54.5679 39.8758 54.3792C38.8733 54.0578 37.9092 53.7723 36.9952 53.8147C36.8415 53.8219 36.6861 53.803 36.541 53.7455L36.05 53.551C35.8665 53.4783 35.7651 53.2694 35.8133 53.0786C35.8302 53.0117 35.8641 52.9602 35.9076 52.9079C36.0465 52.7411 36.1121 52.5482 36.1024 52.3365C36.095 52.175 35.9978 52.0229 36.0057 51.8619C36.0093 51.7886 36.035 51.721 36.0828 51.6608C36.1783 51.5405 36.3586 51.4546 36.6055 51.4117C38.068 50.9715 39.7592 50.6744 41.1306 50.175C41.5606 50.0812 42.064 50.0386 42.6196 50.049C43.157 50.019 43.1346 49.7935 42.516 49.5153C41.8198 49.2238 41.0675 49.0596 40.3397 49.1997C39.58 49.346 38.9624 49.5966 37.993 49.5893C37.6229 49.5865 37.2747 49.4057 37.0129 49.1313C36.7355 48.8405 36.3622 48.6588 35.9701 48.6619C35.9542 48.662 35.9384 48.6622 35.9226 48.6624L32.8917 49.0193C32.6392 49.0372 32.4427 49.0982 32.3244 49.1955C32.1143 49.3683 32.2779 49.731 32.1509 49.9744C32.1358 50.0034 32.1185 50.0316 32.099 50.0591C32.0329 50.1602 32.0752 50.2945 32.2166 50.4327C32.453 50.6638 32.2889 50.7485 32.083 50.8088C31.9407 50.8504 31.793 50.8823 31.6442 50.8655C31.5624 50.8563 31.4765 50.8389 31.3916 50.8142C31.3066 50.7895 31.2243 50.7581 31.1493 50.7218C31.0743 50.6855 31.0083 50.645 30.9549 50.6027C30.8245 50.5178 30.6987 50.4315 30.5752 50.3439C30.0906 50.0004 29.5535 49.051 29.9694 48.6492C30.0288 48.5918 30.1356 48.5314 30.156 48.45C30.1636 48.42 30.1647 48.3881 30.1593 48.3547C30.1469 48.2776 30.1001 48.1941 30.0219 48.1092C29.8201 47.89 29.724 47.6763 29.7433 47.4897C29.7615 47.3138 29.8815 47.1678 30.092 47.0646C30.1168 47.0525 30.1356 47.0304 30.1424 47.0032C30.1528 46.9623 30.1344 46.9188 30.0989 46.8954C29.7358 46.6559 29.6769 46.4319 29.6101 46.196C29.5388 45.9436 29.3327 45.7662 29.0949 45.6622L28.8642 45.5614C27.6808 45.0605 27.4395 44.9656 26.7423 44.9594C26.3306 44.9557 26.0074 44.7093 26.4152 44.664L28.47 44.3958C29.8135 44.2167 31.196 44.0927 32.6968 44.0249C34.1976 43.9572 35.8707 43.7314 37.422 43.5688C37.5004 43.5562 37.5604 43.5313 37.5969 43.4962C37.6622 43.4335 37.5955 43.332 37.517 43.2825C37.4798 43.2591 37.4392 43.2365 37.3958 43.2151C37.302 43.1689 37.1975 43.1296 37.09 43.1002C36.5963 42.9568 36.0899 42.8644 35.5638 42.7445L34.9751 42.6195C34.7185 42.5651 34.4789 42.4418 34.2814 42.2626C34.0851 42.0961 33.9509 41.8929 33.6897 41.7732C33.4745 41.684 33.2408 41.6162 33.0131 41.5771C32.7853 41.5379 32.5718 41.5287 32.3949 41.5504C31.9042 41.605 31.4603 41.6841 30.9917 41.756C30.5231 41.828 30.2649 41.9063 29.8586 41.9415C29.5875 41.9468 29.3193 41.9549 29.0543 41.9659C27.9966 42.0096 26.9432 42.1654 25.9586 42.5355C25.8644 42.5709 25.7717 42.6071 25.6805 42.6441C25.5254 42.6839 25.375 42.7274 25.2021 42.7521C24.7011 42.8236 24.1553 42.6902 23.7714 42.3394C23.6138 42.1955 23.5463 42.0525 23.581 41.9358C23.6121 41.8444 23.7003 41.772 23.8372 41.7255C23.9742 41.6791 24.1552 41.6601 24.3634 41.6703C24.9462 41.6535 25.4851 41.5969 25.9692 41.5017C26.6431 41.3292 27.4635 41.2548 28.3824 41.2829C28.6941 41.3077 28.903 41.2151 29.1756 41.1848C29.4482 41.1545 29.6791 41.0792 29.983 41.1346C30.9272 41.2775 31.3799 41.0586 31.9458 40.9164C32.1373 40.8533 32.256 40.7514 32.2887 40.6218C32.3215 40.4923 32.267 40.34 32.1314 40.182C31.8702 39.8672 31.5507 39.5506 31.178 39.2372C30.9861 39.0832 30.7403 38.9369 30.4598 38.8099C30.363 38.766 30.263 38.7249 30.1608 38.6868C29.7768 38.5437 29.2815 38.3657 29.273 37.9533C29.2695 37.7841 29.3618 37.6406 29.5415 37.5357C29.9994 37.2964 30.4053 37.053 31.4312 37.1868C31.9136 37.2378 32.3675 37.2476 32.775 37.2157C33.6789 37.1721 34.7215 37.2677 35.8047 37.4935C36.0849 37.5513 36.3603 37.5908 36.6229 37.6107C38.4954 37.7494 40.2794 37.8186 42.0686 37.8675C43.0165 37.891 43.9721 37.8838 44.9615 37.9522C47.282 38.1006 49.3943 38.0244 51.634 38.0727C52.7972 38.0973 53.8394 37.9993 54.7068 37.7836C54.7215 37.78 54.7377 37.7743 54.7515 37.7682C54.9512 37.6792 54.9151 37.4131 54.7063 37.3347C54.2591 37.1669 53.7893 37.0311 53.3216 36.9351C53.0905 36.8876 52.8628 36.8505 52.6413 36.8239C51.9257 36.738 51.2065 36.9005 50.4904 36.8197C50.0766 36.7729 49.6363 36.6682 49.2188 36.5172L-nan -nanL49.2188 36.5172L50.4327 36.4318C51.2376 36.3919 52.062 36.3795 52.8448 36.3222C54.0884 36.2236 55.2411 36.0656 56.5289 36.0017C57.5687 35.9429 58.4991 35.7927 59.291 35.5558C59.8631 35.3829 60.5165 35.2604 61.2379 35.1906C61.2425 35.1903 61.247 35.1899 61.2515 35.1896C61.7738 35.1517 61.6902 34.5418 61.1653 34.5345C59.2659 34.3905 57.4584 34.3653 55.7795 34.4593C55.2828 34.4642 54.8189 34.4996 54.3951 34.5645C53.8327 34.6507 53.2804 34.8065 52.7094 34.761C51.7325 34.7233 50.7987 34.7343 49.9194 34.7938C48.7313 34.8907 47.4112 34.8705 46.0082 34.7339C45.9436 34.7276 45.8164 34.6826 45.8001 34.6183C45.7585 34.4545 46.0739 34.4888 46.2375 34.4717C47.2593 34.3645 48.2669 34.2464 49.3118 34.1575C49.6227 34.123 49.955 34.1059 50.305 34.1065C51.3078 34.1525 52.1824 34.0654 52.8597 33.8555C53.2272 33.7416 53.6027 33.5358 53.9802 33.4584C54.0186 33.4505 54.0548 33.4417 54.0872 33.4313C54.1206 33.4206 54.1547 33.3992 54.1806 33.3756C54.3135 33.2542 54.2513 33.0434 54.0831 32.9695C53.8529 32.8682 53.6188 32.8674 53.4265 32.8672C52.6579 32.8966 51.9185 32.9524 51.2119 33.0342C50.555 33.1121 49.8278 33.1329 49.0502 33.0961C48.4762 33.0608 47.9856 33.1154 47.4065 33.1005C47.091 33.069 47.0527 32.7242 47.3636 32.6754C47.5186 32.6511 47.6827 32.6333 47.8551 32.6221C47.8843 32.6202 47.9132 32.6159 47.9416 32.6094C48.0981 32.5734 48.2656 32.5452 48.42 32.5116C48.8308 32.4222 48.7645 31.9581 48.3457 32.0047C47.9486 32.0039 47.5649 32.0168 47.1968 32.0433C46.4162 32.1013 45.5711 32.1021 44.6792 32.0456C44.2096 32.0245 43.7639 32.0309 43.3498 32.0646C42.4111 32.1095 41.5115 32.2095 40.6521 32.2556C38.8916 32.3026 37.2859 32.4713 35.5943 32.5603C35.2178 32.5823 34.8804 32.6595 34.3841 32.5263C34.1547 32.4647 34.0266 32.4279 33.9494 32.398C33.8384 32.3548 33.7302 32.2323 33.6831 32.1211C33.6199 31.9716 33.746 31.8544 33.897 31.8114C33.9898 31.785 34.1026 31.7708 34.2308 31.7701C35.743 31.6189 37.1773 31.4064 38.5247 31.1341C39.1177 31.0795 39.6372 30.9682 40.0652 30.8041C40.4047 30.6911 40.8073 30.6162 41.2606 30.582C41.9198 30.5002 42.607 30.4404 43.3195 30.4026C43.651 30.3823 43.9328 30.3217 44.1485 30.2245C44.4547 30.0865 44.3528 29.7024 44.0575 29.5241L43.8531 29.4006C43.7531 29.3402 43.6436 29.2983 43.5297 29.2801C43.4958 29.2747 43.4619 29.2695 43.4281 29.2644C43.3389 29.2512 43.2489 29.2479 43.1595 29.2526L36.0446 29.6255L35.3266 29.6359C34.6342 29.6082 34.7992 28.7844 35.4655 28.6129C36.0358 28.4662 36.5357 28.2759 36.9561 28.045C37.191 27.9159 37.1328 27.5839 36.8678 27.5216C35.5065 27.3672 34.2197 27.3262 33.0568 27.4001C32.8846 27.402 32.7112 27.4021 32.5369 27.4011C31.8702 27.3973 31.812 27.1843 32.4707 27.0985C33.7144 26.9924 34.8142 26.7732 35.7349 26.448C36.0524 26.3213 36.4495 26.2402 36.9082 26.2085C37.3672 26.1976 37.7506 26.1209 38.0251 25.985C38.2995 25.849 38.4567 25.6581 38.4829 25.4287C38.5579 25.0685 38.5543 24.6481 38.2335 24.4631C38.056 24.3608 37.8563 24.2657 37.6414 24.1822C37.1706 23.9991 36.6595 23.8838 36.204 23.8581C35.2316 23.7556 34.223 23.5878 33.2039 23.359C32.6963 23.2436 32.1985 23.1774 31.7429 23.1646C31.3411 23.1548 30.8844 23.0714 30.4425 22.9273C30.0006 22.7831 29.5977 22.5861 29.2953 22.3662C28.8871 22.0943 28.5061 21.8195 28.1252 21.5446C28.0163 21.466 27.9023 21.3815 27.7847 21.2929C27.1743 20.8332 26.466 20.5138 25.7174 20.484C25.4324 20.4964 25.0999 20.4596 24.759 20.3781C24.4181 20.2965 24.0832 20.1736 23.7937 20.0238L-nan -nanL23.7937 20.0238C23.8734 19.9545 23.958 19.8889 24.0462 19.8212C24.2089 19.6963 24.2018 19.4511 24.0569 19.2966C23.9306 19.162 23.8328 19.0278 23.7661 18.897C23.6534 18.676 23.6317 18.4692 23.7022 18.2893C23.7167 18.2318 23.6887 18.1606 23.6418 18.083C23.4552 17.7748 23.0788 17.4334 23.2651 17.1364C23.3522 16.9976 23.5475 16.9006 23.8255 16.858C24.1703 16.7794 24.4509 16.6611 24.6558 16.5079C24.7236 16.4682 24.7581 16.4137 24.7562 16.3495C24.7542 16.2853 24.7159 16.2135 24.6448 16.1405C24.5736 16.0676 24.4718 15.9959 24.3488 15.9319C24.2257 15.868 24.0853 15.8139 23.9404 15.7746C23.4964 15.6631 23.0555 15.5909 22.6429 15.562C21.9322 15.5089 21.2518 15.4755 20.6017 15.4619C19.8827 15.4414 19.0829 15.3148 18.2834 15.0951C17.5676 14.8872 16.9259 14.7009 16.5759 14.3036C16.5516 14.276 16.5262 14.2503 16.4999 14.2264C15.9539 13.7293 15.7703 13.2079 16.4815 13.1047C16.8572 13.075 17.1709 12.9969 17.4023 12.8756C17.7446 12.6961 17.5924 12.2563 17.2545 12.0478L16.5655 11.6224C16.5345 11.6033 16.5015 11.5872 16.4674 11.5754C15.8601 11.3641 15.4095 11.3808 14.9063 11.3954C14.6675 11.4023 14.6347 11.1328 14.8648 11.0738C14.9089 11.0625 14.9546 11.0382 14.9597 10.992C14.961 10.9799 14.9606 10.9673 14.9585 10.9544C14.8457 10.3523 14.6663 10.2236 13.479 9.88968L12.8126 9.69614L12.2471 9.573C11.9246 9.50276 11.5541 9.4015 11.419 9.0933C11.3659 8.9722 11.3785 8.86294 11.4554 8.77644C11.5059 8.72882 11.545 8.67686 11.5724 8.62118C11.6864 8.38938 11.3949 8.06371 11.5681 7.87473C11.655 7.77996 11.8317 7.72417 12.0675 7.71704C12.3471 7.70068 12.4567 7.3259 12.7167 7.22634C12.7681 7.20667 12.8235 7.18916 12.8828 7.17393C13.1174 7.11362 13.4071 7.09031 13.7321 7.10564C14.673 7.11793 15.558 7.07292 16.3718 6.9714C16.3818 6.97014 16.3825 6.9557 16.3726 6.95284C16.3615 6.94961 16.3643 6.93265 16.3757 6.9338C17.1966 7.01613 17.9645 7.02364 18.6449 6.95585C19.3562 6.86684 20.2691 6.92394 21.0246 6.86966C21.6397 6.88211 22.108 6.75891 22.3301 6.52621C22.5452 6.30403 23.3269 6.35588 23.9256 6.39835C24.2802 6.42583 24.6229 6.43747 24.9501 6.43314C25.3892 6.38285 25.9383 6.43026 26.5058 6.56745C26.676 6.60962 26.8438 6.63194 26.9928 6.63226C28.4354 6.68993 29.8753 6.75778 31.2984 6.78788C31.6269 6.77054 32.012 6.81024 32.4087 6.90232C32.5754 6.94229 32.7377 6.95885 32.8737 6.94976C35.1222 6.85832 37.6596 7.09163 39.864 6.96545C40.1312 6.93565 40.427 6.92946 40.743 6.94702C41.4531 7.02114 42.0698 6.97344 42.4994 6.81117C42.7312 6.72486 43.0284 6.6773 43.372 6.67153C43.7155 6.66575 44.098 6.70188 44.4949 6.77761C45.1555 6.8779 45.766 6.88877 46.262 6.80909C47.2292 6.73548 48.2463 6.70521 49.3053 6.71852C49.6298 6.7314 49.915 6.70279 50.1389 6.63492C50.4513 6.54019 50.4063 6.13599 50.0788 6.0948C49.9792 6.08227 49.8796 6.08327 49.7819 6.09055C48.7353 6.03841 47.6913 5.97606 46.6643 5.95149C45.745 5.8813 44.8629 5.85985 44.0311 5.88744C43.618 5.91856 43.1026 5.84759 42.5973 5.69001C41.978 5.49043 41.3402 5.39128 40.8128 5.4126C40.4218 5.4179 40.0091 5.40071 39.5806 5.36129C39.3063 5.31374 39.0252 5.2321 38.7661 5.12474C38.6633 5.0781 38.5513 5.03889 38.4375 5.00962C38.3237 4.98035 38.2105 4.96166 38.105 4.95474C37.9995 4.9478 37.9041 4.95278 37.825 4.96937C37.7459 4.98596 37.6848 5.01381 37.6455 5.05109C36.572 5.89476 34.9314 4.87845 33.5552 4.80375C33.2324 4.78624 32.9044 4.75442 32.5526 4.65588C32.4685 4.63612 32.3856 4.62415 32.309 4.62073C32.1735 4.61469 32.0397 4.64223 31.905 4.6525C29.8923 4.80588 27.5783 4.66791 25.4871 4.72784C25.2487 4.7369 24.9719 4.70585 24.6884 4.63822C22.8353 4.19062 21.0536 4.06355 19.6916 4.28186C19.5259 4.30152 19.3374 4.30236 19.1347 4.28433C18.2035 4.10644 17.313 4.03552 16.5375 4.07748C15.3223 4.06393 14.1538 4.07491 12.9189 4.0338C12.2444 3.98743 11.6354 4.01707 11.1293 4.1196C10.892 4.16769 10.7059 4.2566 10.4629 4.2337C10.2677 4.2153 9.99205 4.11803 9.85505 3.97181C9.79359 3.90621 9.73216 3.84231 9.66777 3.77923C9.61364 3.72621 9.56283 3.66981 9.51241 3.61313C9.36266 3.44479 9.15909 3.27619 8.91139 3.11571C8.62072 2.9274 8.27611 2.75467 7.90075 2.6092C7.25902 2.42282 7.19484 2.15237 7.64389 2.05286C8.80131 1.72366 10.2567 1.58892 11.9031 1.65853C13.2794 1.6641 14.6804 1.67685 16.0762 1.70998C16.8903 1.7384 17.7486 1.80153 18.5406 1.81259C18.8078 1.83688 19.0824 1.87268 19.3614 1.91959C19.7037 1.98762 20.036 2.02468 20.3405 2.02879C21.3183 1.97151 22.4095 2.02142 23.5621 2.17613C23.9842 2.20987 24.3896 2.22124 24.7722 2.21007C25.6772 2.16808 26.6584 2.19898 27.6897 2.30197C28.3308 2.36005 28.9523 2.39042 29.5479 2.39275C29.7583 2.3991 29.9295 2.35031 30.1322 2.38726C31.9155 2.77382 33.1783 2.49461 34.7834 2.64325C35.5635 2.6847 36.3087 2.68482 37.0087 2.64361C38.3749 2.6456 39.779 2.68798 41.2157 2.77057C43.1154 2.90627 44.8759 2.85919 46.6898 2.91521C47.0479 2.92699 47.3937 2.92498 47.7246 2.9092C49.3344 2.80492 51.0828 2.82704 52.9273 2.975C53.3461 2.99638 53.7222 2.97024 54.0322 2.89824C54.1614 2.86824 54.2778 2.83055 54.3806 2.7857C54.6359 2.67426 54.8138 2.37966 54.6137 2.17285C54.1336 1.79102 53.5327 1.626 52.9323 1.59248L43.5794 1.07029C43.1482 1.04035 42.7277 1.02424 42.32 1.02201C41.1208 1.01703 39.8848 0.972432 38.6181 0.88845C37.3663 0.80956 36.1705 0.823566 34.9578 0.799814C34.6006 0.791859 34.2339 0.773084 33.8593 0.74355C31.3272 0.509796 28.8581 0.367021 26.4695 0.316251C25.4646 0.309048 24.3789 0.201765 23.3545 0.166994C22.33 0.132223 20.929 0.119489 19.7137 0.105937L15.9511 0.108021C14.5467 0.0948897 13.2341 -0.558991 11.8809 -0.984443C11.7478 -1.02632 11.6015 -1.06919 11.4383 -1.11505C11.0406 -1.23556 10.636 -1.30748 10.2721 -1.32239C9.11792 -1.26343 7.66978 -1.50884 6.57532 -1.47635C5.91491 -1.49237 5.35453 -1.40953 4.95153 -1.2363C4.20394 -0.945755 3.07167 -0.909037 2.76196 -1.67858C2.67534 -1.89379 2.87505 -2.0452 3.34899 -2.12871C3.59691 -2.16619 3.9384 -2.1546 4.11743 -2.23399C4.22015 -2.28233 4.36048 -2.30999 4.52723 -2.31477C4.69398 -2.31954 4.88254 -2.30133 5.07813 -2.26153C5.6954 -2.15713 6.27397 -2.13258 6.75578 -2.19034C6.87421 -2.2103 6.99963 -2.22485 7.13108 -2.23397C7.95306 -2.29104 8.77366 -2.17562 9.58861 -2.28727C9.97283 -2.33991 10.2881 -2.43447 10.8882 -2.29303C10.9981 -2.26486 11.1072 -2.24795 11.2072 -2.2436C11.3071 -2.23925 11.3952 -2.24757 11.4648 -2.26792C12.1093 -2.35901 12.8784 -2.34944 13.7097 -2.23999C14.9846 -2.13228 16.1809 -2.12824 17.2568 -2.22801C17.9009 -2.3153 18.4501 -2.47011 18.8828 -2.68639C19.0008 -2.75872 19.1759 -2.8021 19.3916 -2.81236C20.4741 -2.76723 21.6496 -2.5974 22.8422 -2.31381C23.2915 -2.20018 23.7402 -2.1103 24.1787 -2.04608C25.08 -1.90343 25.9518 -1.82349 26.7681 -1.80863C27.9543 -1.80628 29.1894 -1.75139 30.4623 -1.64447C31.2478 -1.58493 32.0048 -1.56296 32.7241 -1.57879C33.4635 -1.58625 34.2529 -1.54084 35.0744 -1.44361C35.8787 -1.3656 36.589 -1.40864 37.1225 -1.56743C37.1393 -1.57243 37.1581 -1.58027 37.1737 -1.58839C37.3826 -1.6977 37.311 -1.97435 37.08 -2.03929C36.0414 -2.33124 34.9977 -2.47559 34.1091 -2.44656C33.7291 -2.47177 33.4118 -2.44772 33.0159 -2.58651C32.9975 -2.59297 32.9778 -2.58271 32.973 -2.56383C32.9705 -2.55371 32.9634 -2.54543 32.9537 -2.54208C32.8721 -2.51384 32.7548 -2.50802 32.6216 -2.52584C32.4798 -2.54481 32.3298 -2.58922 32.2002 -2.65062L-nan -nanL32.2002 -2.65062C32.2256 -2.75096 32.2502 -2.84857 32.2728 -2.93778C32.3059 -3.06892 32.4229 -3.15769 32.5569 -3.15451C33.2608 -3.13783 33.9458 -3.14176 34.609 -3.16631C35.9303 -3.24978 37.2844 -2.93849 38.6078 -2.99448C38.8132 -3.00317 39.0254 -3.00453 39.2536 -2.98889C40.1911 -2.92462 41.2237 -2.71231 42.1613 -2.64805C42.9793 -2.61278 43.7737 -2.60511 44.5399 -2.62508C44.8043 -2.65311 45.1092 -2.64654 45.4358 -2.60576C45.8949 -2.52902 46.3219 -2.51617 46.6678 -2.56867C46.8805 -2.60094 47.0573 -2.65712 47.1914 -2.73412C47.3255 -2.81105 47.3423 -2.96829 47.2417 -3.09263C47.0968 -3.27184 47.1265 -3.55926 47.3447 -3.60712C47.6421 -3.67235 48.0033 -3.69421 48.407 -3.66976L49.2834 -3.67799C49.5157 -3.67349 49.6932 -3.71954 49.7793 -3.80661C49.9496 -3.97878 49.6245 -4.19405 49.3952 -4.28507C48.0839 -4.8056 47.9342 -4.84328 46.8425 -4.46652C46.8173 -4.45781 46.7895 -4.45469 46.7627 -4.45794L45.211 -4.64634C45.2074 -4.64678 45.2072 -4.6522 45.2109 -4.6526ZM67.1154 -2.84563L66.992 -2.88147L67.1154 -2.84563ZM269.033 67.1414C268.971 67.142 268.918 67.184 268.902 67.2446L268.9 67.2546C268.917 67.187 268.985 67.148 269.052 67.1674L269.172 67.2023C269.189 67.2071 269.206 67.1974 269.21 67.1806C269.215 67.1602 269.199 67.1399 269.179 67.1401L269.033 67.1414ZM229.513 17.9655C229.51 17.9652 229.507 17.9646 229.504 17.9636C229.122 17.8418 228.736 17.7298 228.349 17.6282C228.247 17.6124 228.152 17.6088 228.071 17.6178C227.943 17.632 227.878 17.7703 227.991 17.8365C228.066 17.8801 228.17 17.9157 228.269 17.9444C228.518 18.0216 228.772 18.0706 229.006 18.0865C229.239 18.1023 229.443 18.0844 229.597 18.0346C229.633 18.0275 229.628 17.9746 229.592 17.9717L229.513 17.9655ZM31.8489 47.797C31.8492 47.7969 31.8496 47.7969 31.8499 47.797C32.1024 47.8175 32.3418 47.8209 32.5623 47.8069C33.541 47.708 34.4781 47.5641 35.4816 47.4723C36.7477 47.2394 38.2026 47.1445 39.7917 47.1913C40.4125 47.2141 40.937 47.1386 41.3039 46.9736C41.5236 46.885 41.8071 46.8332 42.1371 46.8214L46.3182 46.5538C46.3315 46.5529 46.3469 46.5506 46.3598 46.5478C46.6031 46.4939 46.5754 46.1944 46.3326 46.1239C46.3127 46.1181 46.294 46.1127 46.2765 46.1076C46.253 46.1008 46.229 46.0968 46.2048 46.0961C46.0534 46.0919 45.9131 46.0988 45.7869 46.1163C45.5747 46.1459 45.385 46.2584 45.1757 46.3032C44.9851 46.3441 44.7497 46.3545 44.4862 46.3322C44.055 46.3022 43.6345 46.2861 43.2268 46.2839C43.1224 46.2848 43.0178 46.286 42.9133 46.2875C41.6338 46.3062 40.2426 46.5486 38.962 46.4905L38.3752 46.5062C36.4569 46.6879 34.6246 46.938 32.8871 47.2553C32.5642 47.3068 32.2843 47.388 32.0553 47.4963C32.0372 47.5048 32.0206 47.5165 32.0076 47.5319C31.9425 47.6093 31.919 47.7016 31.9382 47.8035C31.9409 47.818 31.9282 47.8308 31.9142 47.8267L31.8483 47.8076C31.8427 47.8059 31.8431 47.7976 31.8489 47.797ZM117.552 81.3368C117.546 81.3351 117.547 81.3263 117.553 81.3266C118.005 81.3513 118.474 81.3995 118.955 81.4707C119.338 81.5457 119.711 81.5913 120.06 81.6055C122.017 81.6841 124.056 81.8657 126.149 82.1477C126.423 82.1904 126.686 82.2114 126.928 82.2098L128.642 82.1381C128.646 82.1378 128.65 82.1375 128.654 82.1372C129.312 82.0874 128.457 81.3966 127.812 81.2292C127.42 81.1155 127.032 81.2778 126.629 81.2938C126.199 81.3108 125.682 81.2331 125.223 81.1999C123.19 81.0692 121.092 80.8761 119.039 80.7178C118.605 80.6791 118.185 80.6595 117.782 80.6593C117.533 80.6512 117.305 80.6665 117.109 80.7045C117.051 80.7084 117.003 80.7197 116.968 80.7377C116.932 80.7557 116.91 80.78 116.903 80.809C116.896 80.8379 116.903 80.8708 116.925 80.9056C116.948 80.9403 116.984 80.9761 117.031 81.0105C117.186 81.1212 117.362 81.2276 117.555 81.3268C117.561 81.3297 117.558 81.3386 117.552 81.3368ZM132.405 2.78104L134.408 2.71688C134.648 2.71 134.852 2.63778 135.109 2.66866C136.481 2.76655 137.751 2.73928 138.865 2.58803C139.245 2.52631 139.688 2.51396 140.172 2.55168C141.654 2.66345 143.052 2.66806 144.329 2.56535C145.096 2.54618 145.817 2.48497 146.483 2.38252C146.582 2.36725 146.707 2.3495 146.732 2.25074C146.734 2.24203 146.736 2.23308 146.736 2.22392C146.74 2.13961 146.688 2.05687 146.626 1.99832C146.588 1.96233 146.538 1.92712 146.478 1.89515C146.418 1.86319 146.35 1.83521 146.279 1.81314C146.208 1.79108 146.136 1.77543 146.067 1.76732C145.173 1.60919 144.324 1.5541 143.591 1.60653C142.91 1.66926 142.177 1.68761 141.404 1.6613C140.664 1.65439 140.162 1.85892 139.248 1.70285C138.861 1.65146 138.52 1.66838 138.282 1.75078C137.803 1.88735 137.134 1.89494 136.395 1.77221C135.953 1.7101 135.531 1.68346 135.144 1.69332C134.205 1.73822 133.308 1.82806 132.438 1.91486C132.164 1.93494 131.87 1.93771 131.562 1.92311L127.207 1.75313C126.16 1.701 125.116 1.63865 124.089 1.61408C123.249 1.56073 122.468 1.57744 121.772 1.66362C121.03 1.75421 120.221 1.79098 119.36 1.77326C118.022 1.82283 116.693 1.84179 115.237 1.83512C114.309 1.83922 113.359 1.82596 112.389 1.78513C111.898 1.73258 111.481 1.77537 111.219 1.90529C111.06 2.01224 110.684 1.92511 110.373 1.90029C108.71 1.66105 107.151 1.60436 105.805 1.73417C105.633 1.75533 105.444 1.76299 105.242 1.75702C103.945 1.75256 102.601 1.72356 101.356 1.72324C101.149 1.72963 100.949 1.74306 100.758 1.76346C100.592 1.7812 100.529 1.94552 100.678 2.02771C100.804 2.0968 100.958 2.15027 101.109 2.17701C102.287 2.38172 103.424 2.48986 104.473 2.4969C106.218 2.47082 108.047 2.52945 109.939 2.67216C111.407 2.81604 112.746 2.78575 113.856 2.58354C114.724 2.43266 115.852 2.48943 117.048 2.7441C117.559 2.86572 118.056 2.91436 118.47 2.88335C118.868 2.84268 119.325 2.85255 119.813 2.91236C120.844 3.0261 121.835 3.07886 122.768 3.0696C123.679 3.02774 124.529 2.91336 125.465 2.87866C126.401 2.84396 127.827 2.86384 128.981 2.80489C130.135 2.74593 131.276 2.73799 132.405 2.78104ZM-nan -nanL49.3973 -3.18508C49.5031 -2.8697 49.8774 -2.6734 50.28 -2.58931C51.6682 -2.2159 53.0406 -2.057 54.1668 -2.13928C54.7752 -2.25405 55.5862 -2.20987 56.4404 -2.01542C57.4352 -1.81329 58.365 -1.77977 59.0659 -1.92077C59.2091 -1.94131 59.3244 -1.98095 59.4048 -2.03699C59.435 -2.05805 59.4551 -2.09795 59.4643 -2.1343C59.4852 -2.21701 59.4508 -2.30058 59.3749 -2.34081C59.3308 -2.36418 59.2834 -2.38616 59.2336 -2.40628C59.1336 -2.44672 59.0266 -2.47858 58.9208 -2.49941L54.3226 -2.86042L53.5213 -2.93986C52.0578 -3.148 50.6631 -3.23091 49.3973 -3.18508L-nan -nanZM58.5385 1.83468C58.5197 1.82921 58.5088 1.85464 58.5249 1.86617C59.1603 2.32099 59.1768 2.31611 59.5297 2.42911C61.3034 2.9181 63.0758 3.18207 64.6362 3.1896C64.8735 3.18858 65.0863 3.16498 65.2665 3.12013C65.4213 3.08161 65.6522 3.08936 65.6919 2.93234C65.7068 2.87311 65.6645 2.79982 65.5742 2.72845C65.1979 2.48925 64.779 2.33031 64.3438 2.26974C63.5332 2.15694 62.7327 2.06424 61.9452 1.99199C60.781 1.88368 59.7493 1.87943 58.5427 1.83535C58.5413 1.8353 58.5398 1.83507 58.5385 1.83468ZM118.643 78.9259C118.144 78.9741 117.924 79.6473 118.414 79.7768C118.603 79.8267 118.849 79.8658 119.213 79.9252C119.993 80.0548 120.75 80.1308 121.461 80.1511C122.33 80.1735 123.22 80.2132 124.087 80.2457C124.298 80.2683 124.477 80.2496 124.589 80.1932C124.768 80.1032 124.622 79.8574 124.446 79.7523C124.369 79.7062 124.282 79.6629 124.189 79.6237C123.976 79.534 123.74 79.4715 123.52 79.4463L123.048 79.4294C122.474 79.3941 121.878 79.3415 121.323 79.3337C120.963 79.3631 120.547 79.3404 120.106 79.2673C119.709 79.2017 119.302 79.097 118.912 78.9601C118.825 78.9297 118.733 78.9172 118.643 78.9259ZM62.684 -2.36529C62.4242 -2.34087 62.375 -2.027 62.613 -1.90879C63.4647 -1.60597 64.3661 -1.43398 65.1405 -1.42654C65.5067 -1.40778 65.8416 -1.47476 66.2144 -1.37743C66.8276 -1.25817 67.4234 -1.19001 67.9748 -1.17586C68.0495 -1.17394 68.1879 -1.1845 68.2614 -1.19599C68.3064 -1.20303 68.3514 -1.23708 68.3628 -1.28188L68.3916 -1.39595C68.4287 -1.54287 68.3474 -1.69818 68.203 -1.74468C68.0022 -1.80933 67.7975 -1.86405 67.5936 -1.9075C66.617 -2.0269 65.6574 -2.10853 64.7003 -2.20037C63.7432 -2.2922 63.4095 -2.33439 62.7836 -2.37383C62.7501 -2.37123 62.7169 -2.36838 62.684 -2.36529ZM41.5978 53.0584C41.2474 53.2862 41.2462 53.81 41.5955 54.0611L41.9762 54.3347C42.0855 54.4133 42.2095 54.4686 42.3406 54.4876C42.6786 54.5367 42.9907 54.5397 43.2424 54.4952C43.3647 54.4736 43.47 54.4413 43.5562 54.3995C43.764 54.2987 43.9698 54.0396 43.8355 53.8418C43.749 53.7146 43.5724 53.5842 43.3426 53.4779C43.1214 53.3518 42.869 53.2388 42.6008 53.1459C42.4051 53.0781 42.2042 53.022 42.0046 52.9793C41.8627 52.949 41.7176 52.9805 41.5978 53.0584ZM51.503 48.9692C51.504 48.9652 51.5014 48.9612 51.4974 48.9604C50.7235 48.8167 49.9811 48.7519 49.3185 48.77C49.2179 48.7728 49.1185 48.7873 49.019 48.8009C48.5955 48.8592 48.0576 48.8222 47.4925 48.6943C46.4486 48.4353 45.4389 48.346 44.6375 48.4389C44.4889 48.4561 44.3677 48.5952 44.223 48.6316C43.8312 48.73 44.9702 48.8101 45.3761 48.8452C46.0744 48.9054 46.7584 48.9513 47.3683 48.9757C47.8568 48.9743 48.3736 49.0033 48.9096 49.0621C49.5146 49.1364 50.0941 49.1695 50.6328 49.1608C50.8411 49.1574 51.1214 49.1339 51.3143 49.0589C51.3725 49.0363 51.4353 49.0082 51.4997 48.9734C51.5013 48.9725 51.5025 48.971 51.503 48.9692ZM139.468 1.27382C139.833 1.23886 139.869 0.786891 139.507 0.705566C139.073 0.607914 138.649 0.555753 138.267 0.552976C137.974 0.543945 137.737 0.589622 137.594 0.682782C137.362 0.832848 137.632 1.11311 137.901 1.19135C138.045 1.23314 138.185 1.27376 138.298 1.3067C138.357 1.32387 138.419 1.33245 138.479 1.33146C138.816 1.32598 139.133 1.30582 139.468 1.27382ZM215.503 15.7244C215.508 15.7077 215.499 15.6901 215.483 15.6833C215.17 15.5499 214.828 15.4477 214.492 15.388C214.147 15.3264 213.824 15.3124 213.559 15.3473C213.457 15.3586 213.483 15.4497 213.493 15.5334C213.499 15.5858 213.467 15.6409 213.492 15.6874C213.508 15.7157 213.538 15.7453 213.58 15.7731C213.621 15.8009 213.673 15.8258 213.729 15.8454C213.786 15.865 213.845 15.8784 213.9 15.8843C214.247 15.9443 214.575 15.9622 214.855 15.9363C215.128 15.911 215.346 15.8446 215.491 15.7429C215.497 15.7385 215.501 15.7319 215.503 15.7244ZM220.513 17.7065C220.516 17.6934 220.514 17.6794 220.507 17.6681C220.453 17.5915 220.353 17.5129 220.221 17.4448C219.922 17.29 219.577 17.2723 219.248 17.3082C219.147 17.3194 219.05 17.3346 218.96 17.3538C218.712 17.3913 218.89 17.6292 219.225 17.7704C219.367 17.8271 219.519 17.8712 219.668 17.8995C219.818 17.9277 219.961 17.9391 220.086 17.9329C220.211 17.9267 220.314 17.903 220.389 17.8637C220.463 17.8244 220.505 17.7706 220.513 17.7065ZM-nan -nanL75.0121 -1.38427C74.265 -1.67789 73.69 -1.60403 73.0575 -1.72204C72.4249 -1.84005 72.2691 -1.85247 72.3538 -1.66363C72.4386 -1.47479 72.8722 -1.51308 73.1437 -1.43423C73.5105 -1.3296 73.8795 -1.26952 74.2095 -1.2607C74.5395 -1.25187 74.8174 -1.29466 75.0121 -1.38427L-nan -nanZM-nan -nanL230.692 48.2968C230.346 48.2392 230.007 48.1965 229.678 48.1689C229.584 48.161 229.467 48.1713 229.444 48.2629C229.432 48.3093 229.557 48.4509 229.6 48.4736C229.685 48.5186 229.795 48.5727 229.874 48.5958C230.42 48.7433 230.447 48.5322 230.692 48.2968L-nan -nanZM-nan -nanL286.621 75.6531C286.889 75.8513 287.014 75.9861 287.228 76.0812C287.327 76.1143 287.429 76.1383 287.526 76.1514C287.586 76.1595 287.643 76.1633 287.695 76.1631C287.759 76.1627 287.831 76.1438 287.863 76.0886C287.923 75.9858 287.798 75.8742 287.692 75.8157C287.614 75.7725 287.526 75.7304 287.477 75.7265C287.181 75.6845 286.893 75.6599 286.621 75.6531L-nan -nanZM61.5011 -3.04136C61.7122 -3.00722 61.5723 -3.25761 61.3598 -3.27554C61.3539 -3.27604 61.3481 -3.2765 61.3423 -3.27694C61.1567 -3.29085 61.3168 -3.07116 61.5011 -3.04136ZM-nan -nanL71.49 -1.18095C70.9168 -1.53356 70.5804 -1.56556 70.3053 -1.52505C70.2468 -1.51484 70.2081 -1.4921 70.195 -1.46027C70.1819 -1.42844 70.1952 -1.38925 70.2329 -1.34863C70.2705 -1.30801 70.3304 -1.26817 70.4035 -1.23514C70.4767 -1.20211 70.5591 -1.17768 70.6383 -1.16555C70.9372 -1.1554 71.2223 -1.16055 71.49 -1.18095L-nan -nanZM100.799 -1.09317C100.905 -1.05955 101.017 -1.13197 100.914 -1.17334C100.899 -1.17904 100.866 -1.19103 100.853 -1.19801C100.819 -1.21519 100.781 -1.23004 100.741 -1.24151C100.724 -1.2464 100.708 -1.25061 100.691 -1.25411C100.674 -1.25759 100.585 -1.19864 100.581 -1.18208C100.579 -1.17411 100.582 -1.16192 100.59 -1.15944L100.799 -1.09317ZM121.495 83.6463C121.486 83.6412 121.475 83.6392 121.465 83.6406L121.298 83.6641C121.264 83.6689 121.262 83.7174 121.296 83.727C121.298 83.7276 121.3 83.728 121.302 83.7282L121.471 83.7394C121.523 83.7428 121.541 83.6719 121.495 83.6463ZM237.546 16.9821C237.559 16.9314 237.529 16.8776 237.478 16.865C237.43 16.853 237.387 16.8456 237.355 16.8502C237.312 16.8564 237.268 16.8939 237.258 16.9365C237.252 16.9588 237.321 17.0152 237.343 17.0216C237.378 17.0317 237.421 17.0442 237.459 17.0553C237.495 17.0656 237.53 17.045 237.539 17.0095L237.546 16.9821ZM218.355 17.5101C218.352 17.4822 218.329 17.4601 218.301 17.4599C218.258 17.4596 218.218 17.4621 218.18 17.4672C218.166 17.4692 218.125 17.5128 218.121 17.5274C218.119 17.5356 218.125 17.5385 218.134 17.5409L218.278 17.5829C218.32 17.5952 218.36 17.5611 218.356 17.5169L218.355 17.5101ZM50.64 32.047C50.6817 32.0591 50.6888 31.9878 50.6467 31.9772C50.6168 31.9697 50.5867 31.9629 50.5568 31.9571C50.5302 31.9494 50.5158 31.9811 50.5395 31.9961C50.5744 32.0182 50.6115 32.0387 50.64 32.047Z" fill="#FDDA74"/>
</g>
</svg>
