<svg width="290" height="21" viewBox="0 0 290 21" fill="none" xmlns="http://www.w3.org/2000/svg">
<mask id="mask0_21_2262" style="mask-type:alpha" maskUnits="userSpaceOnUse" x="0" y="0" width="290" height="21">
<rect width="290" height="21" fill="#C4C4C4"/>
</mask>
<g mask="url(#mask0_21_2262)">
<path d="M43.559 -4.44125L44.2678 -4.71806L42.8886 -5.11492L43.5497 -5.40542C44.2127 -5.40276 45.0717 -4.96748 45.5391 -5.19876C45.5962 -5.4227 44.8743 -5.49457 44.6901 -5.67298C44.5271 -5.85585 44.394 -6.03754 44.2925 -6.21585C44.6536 -6.21393 45.0505 -6.1708 45.4598 -6.089C46.0103 -5.95539 46.5502 -5.89044 47.0201 -5.90132C47.9808 -5.86523 48.909 -5.90123 49.9535 -5.8933L49.606 -6.43223L50.9522 -6.30615C51.0949 -6.2651 51.2649 -6.33112 51.4051 -6.28033C52.5718 -5.85058 53.0654 -6.08476 53.6255 -6.27894C53.7403 -6.32918 53.8786 -6.3667 54.0368 -6.3905C55.5931 -6.28756 56.9965 -5.68517 58.3981 -5.37593C58.6619 -5.29697 58.9149 -5.19563 59.1392 -5.07907C59.6267 -4.85248 60.169 -4.66749 60.7164 -4.541C61.2638 -4.41452 61.7989 -4.3506 62.2728 -4.35506C63.3207 -4.36007 64.5046 -4.21019 65.7099 -3.91995C66.0684 -3.82435 66.427 -3.76128 66.7631 -3.73477C67.0991 -3.70825 67.4052 -3.71886 67.6616 -3.76594L68.4766 -3.45829C68.8298 -3.58312 69.2777 -3.65162 69.7931 -3.65961C70.3086 -3.6676 70.8807 -3.61492 71.4749 -3.50477C72.1081 -3.38528 72.7512 -3.30473 73.4082 -3.1784C74.7652 -2.93688 76.086 -2.78917 77.3293 -2.73987C79.1809 -2.59376 80.99 -2.48079 82.858 -2.29863C84.0266 -2.2107 85.1652 -2.16234 86.2669 -2.1538C87.5868 -2.1194 89.0144 -1.95291 90.4809 -1.66235C90.4114 -1.38973 89.7683 -1.47027 89.3367 -1.4795C87.9444 -1.52481 86.5193 -1.64222 85.0869 -1.73043C84.4416 -1.76485 83.8141 -1.7779 83.2079 -1.76945C82.1946 -1.78075 81.1263 -1.85339 80.0214 -1.98613C78.2761 -2.13218 76.5865 -2.20239 74.9699 -2.19603C74.8432 -2.18524 74.727 -2.1661 74.6235 -2.13895C74.6018 -2.11543 74.5976 -2.08578 74.6111 -2.05283C74.6246 -2.01989 74.6554 -1.98474 74.7005 -1.95078C74.7456 -1.91682 74.8036 -1.88517 74.8688 -1.85886C74.9341 -1.83255 75.0045 -1.81246 75.0732 -1.80051C75.7153 -1.61576 76.4049 -1.41734 77.0104 -1.38942C77.0338 -1.38734 77.0587 -1.38257 77.0834 -1.37547C77.1081 -1.36837 77.1319 -1.35911 77.153 -1.34837C78.5085 -0.95834 79.623 -1.02434 80.6789 -0.960888C82.4319 -0.789385 84.1218 -0.709279 85.723 -0.721774C85.965 -0.720924 86.2263 -0.698629 86.4974 -0.655695C88.1744 -0.481659 89.7426 -0.462195 91.1284 -0.59818C91.6987 -0.632632 92.229 -0.709973 92.8419 -0.711265C93.2194 -0.71659 93.5481 -0.765943 93.808 -0.856376C94.068 -0.946806 94.2538 -1.07645 94.3545 -1.23749C94.6131 -1.15271 94.8757 -1.07714 95.1393 -1.0117C95.2966 -0.974281 95.4476 -0.964343 95.5616 -0.983922C95.6755 -1.0035 95.744 -1.05114 95.7533 -1.11719C95.8005 -1.30218 95.4413 -1.39508 95.1297 -1.4743C95.3176 -1.51397 95.5293 -1.53731 95.76 -1.54375C97.0586 -1.58602 98.4514 -1.53613 99.9083 -1.39518C101.039 -1.22646 101.942 -1.36379 103.132 -1.12586C103.275 -1.08481 103.393 -1.14507 103.524 -1.15954C103.866 -1.23573 104.293 -1.25285 104.767 -1.20941C105.24 -1.16597 105.747 -1.06328 106.243 -0.910241C106.86 -1.32835 108.193 -0.850697 109.177 -0.80777C109.481 -0.595139 109.133 -0.63252 109.118 -0.574103C109.103 -0.515685 109.118 -0.574116 108.999 -0.608329C108.016 -0.307205 106.669 -0.241545 105.148 -0.420572C104.866 -0.419832 104.598 -0.406112 104.346 -0.379552C103.964 -0.341957 103.533 -0.345713 103.072 -0.39065C102.569 -0.423652 102.107 -0.407978 101.708 -0.344382C101.478 -0.345417 101.284 -0.31356 101.143 -0.251738C101.003 -0.189919 100.92 -0.10014 100.903 0.00925303C101.056 0.0935849 101.226 0.170748 101.406 0.23768C102.346 0.501963 103.283 0.611355 104.034 0.544336C105.339 0.428864 106.893 0.541547 108.282 0.502127C109.22 0.486156 110.219 0.531645 111.259 0.637744C111.259 0.637744 111.232 0.744841 111.229 0.754577C111.352 0.80095 111.482 0.838155 111.61 0.864063C111.61 0.864063 111.61 0.864065 111.622 0.815382C111.565 0.768632 111.488 0.724656 111.399 0.688537L111.09 0.599578C111.3 0.57643 111.497 0.507508 111.716 0.549619C112.177 0.627855 112.618 0.660882 113.012 0.646743C113.406 0.632602 113.745 0.571575 114.008 0.467325C114.475 0.333721 115.056 0.272961 115.713 0.288973C116.216 0.274386 116.702 0.243035 117.166 0.19508C117.166 0.19508 117.196 0.0782558 117.416 0.0161611C117.208 -0.0604245 116.99 -0.122961 116.774 -0.168582C115.833 -0.282556 114.89 -0.386797 113.965 -0.46472C113.625 -0.473138 113.305 -0.460083 113.011 -0.425807C112.197 -0.385696 111.284 -0.442623 110.322 -0.593267C110.322 -0.593267 110.132 -0.648003 110.037 -0.675375C110.307 -0.932192 111.237 -0.675087 111.613 -0.84901C111.842 -0.845845 112.245 -0.823973 112.231 -0.86976C112.199 -0.930862 112.196 -0.987623 112.22 -1.03597C112.244 -1.08432 112.295 -1.12307 112.37 -1.14943C112.445 -1.17578 112.542 -1.18911 112.654 -1.18843C112.765 -1.18775 112.889 -1.17309 113.016 -1.14551C114.074 -0.996296 115.071 -0.954803 115.946 -1.02357C116.277 -1.02224 116.649 -0.978015 116.978 -0.966952C117.179 -0.953625 117.363 -0.961036 117.519 -0.988778C118.314 -1.19308 119.384 -1.208 120.568 -1.03129C121.14 -0.967767 121.675 -0.959271 122.144 -1.00624C122.478 -1.01465 122.62 -0.8694 122.857 -0.800975L123.867 -0.656733L122.57 -0.475993C122.848 -0.0617977 123.068 0.0747792 123.521 0.100585C124.182 0.139553 124.825 0.157157 125.447 0.153288C125.908 0.149885 126.288 0.060683 126.911 0.219119C127.021 0.24496 127.127 0.253325 127.211 0.242808C127.941 0.102153 128.82 0.0698708 129.788 0.148168C130.289 -0.115221 131.143 0.140862 131.932 0.347195C132.187 0.148794 131.725 0.057721 131.45 -0.0633356C132.111 -0.0509438 132.776 -0.0580188 133.458 -0.0290481C133.663 -0.0395969 133.897 -0.0215542 134.143 0.0236526C134.388 0.0688624 134.638 0.139997 134.872 0.231507C134.986 0.29063 135.124 0.335128 135.256 0.355761C135.389 0.376395 135.506 0.371582 135.584 0.342321C135.938 0.256023 136.504 0.335505 136.797 0.189734C136.901 0.156211 137.049 0.151529 137.216 0.176513C137.383 0.201493 137.557 0.254525 137.707 0.326094C137.542 0.348421 137.396 0.383584 137.271 0.430806C136.824 0.584203 136.988 0.840515 137.557 1.21315C138.43 1.19265 139.322 1.19847 140.131 1.12824C140.582 1.0652 141.135 1.0849 141.727 1.18515C142.319 1.2854 142.928 1.46221 143.483 1.6957C143.685 1.78548 143.914 1.84766 144.126 1.8699C144.338 1.89215 144.517 1.87281 144.627 1.81572C144.696 1.74971 144.717 1.66616 144.689 1.57232L144.118 1.4081C144.118 1.4081 144.141 1.32048 144.146 1.301L144.966 1.28628C145.4 1.28577 145.853 1.31158 146.263 1.30423C146.866 1.25533 147.554 1.28259 148.285 1.38431C148.959 1.48862 149.622 1.56746 150.267 1.62015C150.891 1.67438 151.344 1.5015 151.938 1.47389C152.387 1.45308 152.881 1.47532 153.402 1.53974C154.3 1.654 155.125 1.65421 155.801 1.54036C156.589 2.15377 156.972 2.25351 157.703 2.08775L158.047 2.04041L158.141 2.17197L158.404 2.14304C158.895 2.11727 159.387 2.09151 159.9 2.08232C160.613 2.13925 161.383 2.2924 162.135 2.52684C162.277 2.56789 162.472 2.70738 162.597 2.81659C162.722 2.9258 162.996 3.25525 163.196 3.46972C162.977 3.62629 162.735 3.776 162.561 3.95598C162.544 3.98673 162.546 4.0234 162.566 4.06303C162.587 4.10267 162.626 4.14417 162.681 4.1842C162.735 4.22423 162.803 4.26167 162.879 4.29352C162.956 4.32536 163.038 4.35073 163.12 4.36757C163.28 4.40386 163.438 4.42806 163.587 4.43916C164.322 4.4583 165.025 4.44408 165.691 4.39661C165.934 4.32965 166.267 4.32328 166.636 4.37855C167.006 4.43381 167.392 4.54752 167.732 4.70166C168.603 4.60912 169.614 4.63646 170.698 4.78177C171.843 4.69339 173.227 4.87211 174.298 4.67848C174.273 4.77584 174.383 4.94347 174.537 5.04005C174.781 5.18675 175.057 5.3227 175.354 5.44215L177.617 5.67538C177.702 5.79531 177.807 5.91671 177.933 6.03801C178.019 6.13382 178.169 6.22757 178.35 6.2994C178.532 6.37123 178.732 6.41548 178.907 6.42277C179.357 6.45831 179.735 6.37884 180.272 6.57517C179.445 6.76075 178.329 6.7361 177.124 6.50559C175.992 6.33029 174.903 6.24268 173.898 6.24601C173.566 6.24468 173.13 6.25492 173.026 6.36096C172.796 6.66068 172.196 6.61329 171.495 6.55801C170.945 6.4975 170.442 6.50428 170.029 6.57783C169.615 6.65138 169.302 6.78957 169.116 6.98105C169.068 7.16604 169.181 7.32393 169.664 7.43158L171.673 7.86322C171.969 7.80772 172.25 7.74203 172.514 7.66642C172.96 7.56598 173.51 7.53842 174.123 7.58586C174.735 7.6333 175.392 7.75448 176.044 7.93995C176.377 8.03575 176.71 8.13154 176.951 8.08602C177.163 8.03374 177.358 7.97114 177.535 7.89868C177.57 7.85013 177.585 7.79424 177.577 7.73317C177.705 7.76156 177.833 7.79848 177.957 7.84265C178.949 8.35792 179.717 8.349 180.415 8.21535C180.604 8.17562 180.748 8.11247 180.939 8.06301C181.13 8.01355 181.198 7.94934 181.371 7.96803C182.758 8.13702 183.157 7.57259 184.325 7.59526C184.382 7.57321 184.418 7.54024 184.428 7.49941C184.439 7.45858 184.424 7.41119 184.385 7.36159C184.303 7.31682 184.207 7.27831 184.107 7.24961C184.008 7.22091 183.907 7.20295 183.814 7.19738C183.277 7.12494 182.802 7.14715 182.471 7.26021C182.237 7.30641 181.989 7.34322 181.728 7.37044L180.558 6.55306C181.692 6.62799 182.764 6.6275 183.749 6.5516C183.964 6.50898 184.328 6.58241 184.631 6.59637L186.858 6.67277C187.316 6.6791 187.706 6.55097 188.344 6.84966C188.344 6.84966 188.766 6.89782 188.879 6.85704C188.991 6.81626 189.49 6.5626 189.787 6.39736C190.132 6.44447 190.611 6.5716 190.826 6.52898C191.201 6.42429 191.527 6.29008 191.796 6.12877L193.141 6.35905C193.139 6.56363 193.09 6.75609 192.994 6.93349C192.889 7.10458 192.893 7.30997 193.005 7.53284C193.116 7.75571 193.333 7.98974 193.637 8.21582L194.965 9.41318C195.182 9.49336 195.413 9.54733 195.627 9.56777C195.841 9.58821 196.028 9.57412 196.161 9.52742C196.733 9.38876 197.373 9.28037 197.944 9.14171C198.682 9.35383 198.492 9.69645 199.028 9.99697L200.764 10.4965C201.029 10.9594 201.299 11.4028 200.493 11.5577C200.333 11.5848 200.441 11.7622 200.295 11.8351C200.921 12.1824 201.609 12.2864 202.244 12.5004C202.494 12.6543 202.703 12.8171 202.861 12.9812C203.035 13.2281 203.387 13.4804 203.842 13.6835C204.296 13.8866 204.816 14.0243 205.29 14.0667C206.085 14.1967 206.899 14.392 207.696 14.6439C207.968 14.7314 208.247 14.7952 208.516 14.831C208.784 14.8667 209.035 14.8735 209.251 14.851C210.021 14.8114 210.674 14.675 211.165 14.4508C211.651 14.2606 212.306 14.1689 213.071 14.1841C214.379 14.5604 214.643 15.1275 215.434 15.627L214.067 15.683C214.017 15.8777 214.108 16.1232 213.548 16.1187C212.987 16.1142 213.271 16.3006 213.453 16.4887C213.517 16.5834 213.642 16.6807 213.807 16.7643C213.972 16.8479 214.166 16.9126 214.357 16.9474L215.521 17.1882C215.934 17.2799 216.333 17.319 216.675 17.3013C217.018 17.2837 217.289 17.2099 217.461 17.088C217.658 16.9724 217.93 16.8941 218.26 16.8581C218.681 16.7637 219.027 16.6234 219.285 16.4423L220.928 16.7061C220.998 16.5242 221.224 16.3966 221.567 16.345C221.91 16.2934 222.35 16.3208 222.812 16.4227L223.92 16.5846C225.151 16.7612 225.421 16.7031 225.782 16.1902L224.305 15.2742C224.52 15.0329 224.727 14.8208 224.934 14.6087C224.566 14.3069 224.076 14.0214 223.512 13.7813C222.986 13.5233 222.444 13.2734 221.89 13.0326C221.29 12.7866 220.655 12.5726 219.909 12.2952C219.779 12.2055 219.589 12.0465 219.348 11.8934C219.106 11.7446 218.853 11.5987 218.591 11.4563C218.641 11.2616 218.686 11.0863 218.59 10.8603C219.05 10.9324 219.524 11.0585 219.972 11.2273C220.419 11.3961 220.824 11.6023 221.151 11.8271C221.206 11.867 221.274 11.9045 221.349 11.937C221.425 11.9695 221.506 11.9963 221.588 12.0156C222.395 12.1538 222.781 12.4424 223.176 12.7964C223.442 12.9773 223.784 13.138 224.156 13.2561C224.87 13.4614 225.568 13.7251 226.25 13.9527C226.459 14.0286 226.676 14.091 226.892 14.1375C227.605 14.2852 228.323 14.4917 229.009 14.7465C229.233 14.8112 229.447 14.8969 229.635 14.9964C229.823 15.0959 229.978 15.2063 230.088 15.3183C229.918 15.4411 229.827 15.596 229.819 15.7738C229.789 15.8906 230.29 16.1288 230.527 16.3014C230.763 16.4741 230.299 16.3927 230.141 16.4101C229.495 16.4435 229.375 16.5135 229.762 16.8966C229.891 17.0171 229.977 17.1377 230.014 17.2508C230.051 17.3639 230.039 17.4672 229.977 17.5543C229.885 17.9145 229.606 18.2103 229.414 18.5626C229.712 18.7947 230.21 19.0426 230.265 19.3299C230.291 19.3937 230.346 19.4612 230.426 19.5277C230.506 19.5941 230.609 19.6578 230.728 19.7142C231.041 19.8358 231.326 19.9812 231.56 20.1392C231.794 20.2972 231.971 20.4635 232.078 20.6252C232.113 20.6921 232.198 20.7631 232.315 20.8239C232.432 20.8847 232.573 20.9309 232.709 20.9531C232.873 20.9805 233.019 20.9768 233.118 20.9431C233.217 20.9093 233.261 20.8479 233.241 20.7716C233.245 20.6282 233.223 20.4787 233.176 20.3245C233.203 20.2174 233.231 20.1103 233.123 19.9329C233.61 19.9976 234.122 20.1274 234.602 20.308C235.083 20.4886 235.514 20.7132 235.848 20.9574C236.217 21.2101 236.558 21.4753 236.968 21.7709C236.883 22.1019 236.883 22.1019 237.755 22.6872L242.379 22.9726L243.327 23.3602C244.21 23.6981 244.42 23.675 244.976 23.5003L245.349 23.3361C246.134 23.5619 247.038 23.8219 247.528 23.3988C247.688 23.6746 247.792 23.7672 247.756 23.809C247.521 24.216 247.114 24.5613 246.55 24.8313C246.407 24.8945 246.306 24.9907 246.138 25.0471C245.598 25.3649 245.473 25.856 245.788 26.4199C245.944 26.6694 246.172 26.9249 246.462 27.1783C246.037 27.5298 245.473 27.821 244.786 28.0442C244.204 28.2169 243.724 28.4481 243.36 28.7312C243.034 29.0167 242.546 29.2313 241.923 29.3627C241.607 29.4186 241.377 29.5288 241.254 29.6824C241.218 30.0983 241.302 30.5435 241.503 31.0081C241.541 31.1495 241.649 31.3023 241.818 31.4544C241.988 31.6064 242.214 31.7537 242.479 31.8847C242.479 31.8847 242.607 31.9842 242.669 32.0436C242.72 32.5472 242.528 32.991 242.107 33.3451C242.038 33.4456 241.897 33.5182 241.698 33.5551C241.5 33.5919 241.252 33.5917 240.981 33.5543C240.41 33.4943 239.875 33.4869 239.322 33.4532C238.727 33.4055 238.202 33.4431 237.803 33.562C237.404 33.6808 237.147 33.8766 237.057 34.1286C237.051 34.2 237.034 34.2683 237.005 34.3331C236.988 34.3665 236.979 34.4023 236.978 34.4402L238.248 35.2654L236.811 35.594C236.726 35.9251 237.416 36.1235 237.762 36.3693L237.548 36.5064C237.273 36.584 236.903 36.4356 236.567 36.3495L236.234 36.2537L236.194 36.4095C235.987 36.6216 235.231 36.3832 234.936 36.5387C234.641 36.6942 234.852 36.8697 235.294 37.0386C235.601 37.1642 235.931 37.2644 236.259 37.3315C236.586 37.3987 236.903 37.4311 237.186 37.4263C237.355 37.4097 237.494 37.3717 237.597 37.3148C238.194 37.0722 238.852 36.8636 239.569 36.6907C240.118 36.5353 240.806 36.4692 241.584 36.4971C241.812 36.4853 242.087 36.5221 242.361 36.601C242.635 36.6798 242.89 36.7956 243.082 36.9281L243.485 36.95C243.485 36.95 243.705 37.0866 243.674 37.1089C243.52 37.5136 243.699 38.0083 244.182 38.5197L243.762 38.566C243.161 38.5186 243.542 38.8267 243.452 38.9786C243.025 38.9499 242.471 38.8217 242.269 39.0143L241.966 39.0004L242.085 39.0346L242.229 38.9714L242.793 39.2593C242.526 39.3077 242.332 39.3669 242.096 39.393C241.965 39.4156 241.861 39.4556 241.79 39.5106C241.719 39.5656 241.682 39.6344 241.682 39.7129C241.683 39.8337 241.612 39.9354 241.478 40.0082C241.343 40.081 241.148 40.1226 240.912 40.1289C240.631 40.1316 240.47 40.2629 240.305 40.3094L241.022 41.101C241.022 41.101 240.665 40.9984 240.859 41.1378L240.884 41.0405L241.318 41.2386C241.632 41.4123 241.85 41.4544 242.035 41.33C242.22 41.2055 242.178 41.371 242.267 41.3234C242.235 41.45 242.033 41.5384 241.861 41.6142C241.661 41.6737 241.436 41.7175 241.189 41.7449C241.634 42.3015 241.656 42.3181 241.006 42.4654C240.355 42.6127 240.58 42.8341 240.036 42.8656C239.491 42.8972 240.11 43.2737 240.474 43.3472C240.744 43.3955 241.019 43.4707 241.281 43.5676C241.543 43.6645 241.785 43.7809 241.99 43.9088L241.881 44.3372C241.721 44.3017 241.56 44.2556 241.405 44.2003C240.878 43.965 240.399 43.7435 239.93 43.8803L240.153 44.2058L238.517 44.0171C238.559 44.261 238.808 44.5389 239.212 44.7921C239.151 44.9311 239.114 45.0775 239.101 45.2302C239.073 45.3373 238.912 45.2699 238.807 45.2815C238.432 45.2994 238.124 45.372 237.911 45.4928C237.698 45.6137 237.585 45.7791 237.583 45.9745C237.541 46.1401 238.117 46.4835 238.477 46.4722C239.377 46.5052 240.349 46.6325 241.343 46.8473C241.948 46.8752 242.034 46.44 243.03 46.7371C243.05 46.938 242.922 47.1008 242.666 47.2006C242.411 47.3005 242.041 47.3321 241.612 47.2907C241.856 47.737 243.205 47.8534 243.264 48.3199C242.929 48.287 242.569 48.2094 242.223 48.0949C241.876 47.9805 241.553 47.833 241.287 47.6672C241.229 47.6264 241.157 47.5887 241.077 47.5577C240.997 47.5267 240.911 47.5034 240.828 47.4899C240.745 47.4764 240.667 47.4732 240.601 47.4805C240.536 47.4879 240.485 47.5056 240.453 47.5319C240.64 47.7006 240.846 47.8956 241.08 48.078C241.314 48.2604 241.37 48.3393 241.539 48.3775C242.8 48.7401 243.399 49.3933 244.489 49.822C244.775 49.9041 244.81 50.1651 244.562 50.1356C244.327 50.1061 244.113 50.11 243.946 50.1468C243.779 50.1836 243.665 50.2519 243.616 50.344C243.433 50.4515 243.205 50.537 242.938 50.5985C244.057 51.2687 245.39 51.8609 246.813 52.3195C247.083 52.4102 247.364 52.4654 247.615 52.4772C248.41 52.4779 249.253 52.5311 250.127 52.6357C250.438 52.6642 250.724 52.6616 250.972 52.6278C251.783 52.5479 252.428 52.7229 253.017 53.2163L253.991 53.9984C253.959 54.125 253.796 54.266 253.67 54.4597L254.431 54.8773L260.241 53.9155L261.407 54.8468L263.08 54.795C263.208 54.8219 263.337 54.859 263.46 54.9045C263.798 55.1795 264.063 55.4437 264.43 55.706C264.797 55.9684 265.452 56.0003 265.909 56.3095C266.367 56.6187 266.824 56.625 267.39 56.8087C267.443 57.0481 267.388 57.2635 267.229 57.4416C267.177 57.646 266.889 57.7723 266.839 57.967C266.845 58.1639 266.738 58.3309 266.529 58.4532C266.319 58.5754 266.014 58.6489 265.64 58.667C264.593 59.086 263.331 59.3844 261.891 59.5531C261.765 59.5654 261.66 59.5937 261.583 59.6363C261.507 59.6789 261.46 59.735 261.445 59.801C261.447 59.992 261.351 60.157 261.164 60.2841C260.977 60.4111 260.704 60.4969 260.365 60.5351C260.274 60.5428 260.206 60.5668 260.168 60.6041C260.04 60.6281 259.946 60.6741 259.896 60.7377C259.846 60.8013 259.842 60.8802 259.884 60.9669C259.926 61.0536 260.013 61.1451 260.136 61.2326C260.259 61.3201 260.414 61.4006 260.587 61.4664C260.836 61.5723 261.092 61.6737 261.351 61.7701C261.336 61.8285 261.079 61.838 261.116 61.8906C261.218 62.0586 261.242 62.216 261.185 62.3503C261.129 62.4846 260.994 62.5922 260.791 62.6645L262.18 64.0255C263.023 64.214 263.849 64.5338 264.503 64.924C264.504 64.9879 264.467 65.0415 264.394 65.0793C264.322 65.1172 264.217 65.138 264.091 65.1397C263.752 65.1676 263.432 65.2218 263.067 65.2526C262.843 65.2756 262.658 65.3262 262.52 65.4014C262.383 65.4767 262.296 65.5751 262.266 65.6909L263.081 66.1973C262.82 66.3207 262.626 66.3799 262.453 66.4556C262.551 66.6148 262.719 66.7793 262.945 66.9366C263.17 67.0939 263.447 67.2397 263.754 67.3628C263.836 67.3881 263.92 67.4066 264 67.4173C264.081 67.4279 264.156 67.4304 264.223 67.4246C264.854 67.251 265.593 67.5575 266.31 67.8475C267.027 68.1376 267.417 68.3123 267.946 68.5379L268.96 68.5681C269.216 68.6749 269.445 68.8005 269.628 68.9348C269.811 69.0691 269.943 69.2084 270.013 69.3416C269.958 69.5558 269.478 69.4384 269.191 69.4605C268.512 69.5938 267.619 69.5653 266.659 69.3799C266.422 69.3114 266.178 69.3667 265.946 69.3732C265.447 69.3999 264.967 69.4433 264.509 69.5032C264.208 69.559 263.926 69.6279 263.665 69.7097C263.596 69.9823 264.691 70.1929 264.069 70.3276C264.283 70.3892 264.364 70.475 264.474 70.4439C265.179 70.621 265.873 70.7085 266.477 70.6963C267.635 70.6587 268.951 70.783 270.315 71.0588C271.788 71.3446 273.201 71.4646 274.438 71.409C274.909 71.4057 275.435 71.4642 275.977 71.5801C276.616 71.7405 277.251 71.8414 277.841 71.8762C278.036 71.8774 278.254 71.9047 278.476 71.9559C278.698 72.0071 278.918 72.0807 279.119 72.1707C279.101 72.2388 278.91 72.2883 278.953 72.3215C279.563 72.8315 279.81 73.3625 280.749 73.8835C281.391 74.0683 282.129 74.2804 282.548 74.0354C282.968 73.7905 282.818 73.58 281.982 72.9529C282.164 72.9438 282.382 72.9731 282.599 73.0356C282.817 73.0982 283.019 73.19 283.171 73.295L283.894 73.7642L284.545 74.2129C284.488 74.4368 284.443 74.612 284.396 74.797C284.322 74.9935 284.403 75.2327 284.63 75.4809C284.767 75.6165 284.886 75.7521 284.986 75.8865C285.393 76.4239 285.511 76.9319 285.327 77.3535C284.973 77.9597 284.481 78.5174 283.855 79.0202C283.194 79.5094 282.832 80.1264 282.288 80.6595C282.01 80.9023 281.673 81.1199 281.28 81.31C280.534 81.7328 279.717 82.1352 278.968 82.5677C278.22 83.0003 277.374 83.311 276.543 83.6676C275.306 84.0907 273.968 84.4561 272.537 84.7619C271.652 85.0297 270.743 85.2907 269.924 85.5986C268.957 85.9456 267.821 86.1948 266.545 86.34C265.417 86.5138 264.409 86.7708 263.541 87.1061C263.45 87.1424 263.379 87.1886 263.328 87.2432C263.172 87.5852 262.733 87.8262 262.081 87.9295C262.12 88.0296 262.171 88.1314 262.233 88.2344C262.323 88.3573 262.342 88.4722 262.287 88.5643C262.231 88.6565 262.104 88.7216 261.922 88.7513C261.4 88.836 260.966 88.9798 260.639 89.1764C260.519 89.2258 260.445 89.2976 260.423 89.3858C260.4 89.474 260.43 89.5759 260.51 89.6827C260.581 89.7927 260.586 89.8939 260.525 89.9732C260.464 90.0525 260.339 90.1062 260.167 90.1274C259.725 90.2315 259.252 90.3153 258.75 90.3782C257.683 90.5168 256.442 90.5152 255.101 90.3733C254.959 90.3322 254.815 90.3954 254.649 90.3475C253.701 90.1885 252.82 90.1639 252.114 90.2766C251.286 90.3205 250.42 90.3118 249.547 90.3323C248.286 90.3185 247.122 90.4022 246.089 90.5809C244.908 90.4082 244.244 90.7084 243.247 90.7142C242.327 90.745 241.454 90.819 240.638 90.9354C239.322 91.0898 238.012 91.2247 236.715 91.4055C235.498 91.4917 234.378 91.6563 233.373 91.8966C232.988 92.0053 232.291 91.8361 232.029 92.0637C231.767 92.2913 231.237 92.2644 230.81 92.3399L229.46 92.5265C229.228 92.5708 228.973 92.599 228.699 92.6104C227.444 92.6256 226.575 92.9295 225.411 92.9916L225.292 92.9573C223.224 93.4091 220.858 93.6571 218.263 93.6939C216.747 93.8325 215.09 93.8259 213.481 93.9274C213.098 94.1305 212.192 93.8802 211.71 94.0657C211.229 94.2512 210.443 94.1296 209.823 94.1601C209.202 94.1906 208.596 94.2669 207.933 94.2643C207.357 94.2652 206.871 94.348 206.519 94.5053C205.714 94.7653 204.734 94.9181 203.621 94.957C202.149 95.0246 200.757 95.1779 199.26 95.1442C199.281 95.3337 199.189 95.4949 198.993 95.6112C198.798 95.7276 198.505 95.7949 198.146 95.8062C196.545 95.8785 195.093 96.0669 193.471 96.1226L193.037 96.1231L188.185 96.2319C186.878 96.2529 185.618 96.2876 184.285 96.3115C183.785 96.1678 183.773 96.4151 183.428 96.368C183.331 96.2462 183.217 96.1925 183.047 96.2585L183.01 96.4046L177.473 96.5983C175.305 96.74 173.024 96.7825 170.65 96.7254C170.087 96.7398 169.562 96.7881 169.082 96.8698C168.637 96.8997 168.174 96.9128 167.694 96.9093C167.044 96.8725 166.41 96.8539 165.793 96.8537C164.171 96.9094 162.468 96.8793 160.692 96.8385C158.916 96.7977 157.57 96.8702 155.989 96.8646C154.918 96.8596 153.852 96.8351 152.744 96.7774C152.214 96.7506 151.562 96.6048 151.014 96.5516C150.466 96.4984 150.288 96.4992 150.215 96.5829C149.977 96.8173 149.377 96.6657 148.898 96.6428C147.964 96.6038 147.831 96.5238 147.577 95.9178L148.724 95.7252C149.005 95.6631 149.358 95.6521 149.75 95.6935C150.142 95.7349 150.559 95.8271 150.961 95.9614C151.119 96.0189 151.284 96.0644 151.447 96.0951C151.61 96.1259 151.768 96.1413 151.911 96.1406C153.068 96.1077 154.208 96.0388 155.32 95.9826L155.483 95.9457L155.493 95.4052C155.346 95.3522 155.193 95.3083 155.041 95.2752L149.464 94.9245C148.184 94.8384 146.855 94.6442 145.599 94.5649C144.343 94.4857 143.666 94.4372 142.692 94.3553C142.281 94.3087 141.861 94.2474 141.437 94.1719C141.461 94.1198 141.476 94.0645 141.479 94.0064C141.501 93.9188 141.531 93.8019 141.351 93.7082C141.154 93.576 140.891 93.463 140.615 93.3919C140.355 93.3449 140.103 93.3184 139.869 93.3132C138.738 93.2679 137.446 92.9824 136.269 92.5176L135.858 92.8278C134.09 92.6536 132.296 92.4822 130.449 92.3166C130.079 92.2715 129.691 92.1848 129.314 92.0631C128.91 91.9468 128.538 91.7039 128.112 91.571C127.692 91.4754 127.274 91.4008 126.867 91.3486C126.977 91.2688 127.123 91.205 127.298 91.1592C127.471 91.1431 127.597 91.0933 127.658 91.0168C127.719 90.9404 127.711 90.8413 127.637 90.734C127.505 90.5498 127.447 90.3763 127.733 90.3542C127.998 90.3122 128.187 90.2213 128.279 90.0922C128.371 89.963 128.361 89.801 128.251 89.6253C128.203 89.5226 128.169 89.4221 128.149 89.3243L128.03 89.2901C127.638 88.9264 126.855 88.7951 126.293 88.4975C126.027 88.4112 125.753 88.3615 125.512 88.3564C124.89 88.2924 124.285 88.2645 123.641 88.184C123.334 88.1469 123.013 88.0793 122.697 87.9852C122.245 87.8552 122.197 87.8416 121.935 87.3689C122.342 87.3772 122.665 87.3066 122.849 87.1691C123.033 87.0315 123.067 86.8356 122.944 86.6143C122.608 86.1309 122.253 85.6212 120.733 85.2777C121.228 85.2608 121.706 85.2271 122.162 85.177C122.295 85.1662 122.394 85.1306 122.447 85.0752C122.5 85.0197 122.504 84.9469 122.457 84.8666C122.411 84.7863 122.318 84.7022 122.189 84.6257C122.061 84.5491 121.903 84.4838 121.738 84.4383C120.936 84.1648 120.098 83.9818 119.32 83.9098C118.665 83.878 118.073 83.8958 117.308 83.895L116.404 83.635C116.419 83.5766 116.286 83.4966 116.32 83.4645C116.549 83.1648 116.803 82.8719 117.064 82.5498C116.647 82.3759 116.286 82.1659 116.022 81.944C115.758 81.722 115.602 81.497 115.571 81.2948C115.549 81.2338 115.555 81.1782 115.589 81.132C115.622 81.0857 115.683 81.05 115.767 81.0272C116.005 80.9881 116.189 80.9134 116.304 80.8088C116.419 80.7043 116.463 80.5726 116.432 80.4241L115.729 79.877C113.613 79.4867 111.535 79.2078 109.534 79.0455L107.728 78.9228C107.51 78.7765 107.577 78.7123 107.782 78.7086C107.987 78.705 108.564 78.7455 108.967 78.7674C109.315 78.7961 109.624 78.7772 109.864 78.7126C110.104 78.6481 110.267 78.5399 110.337 78.3987L109.731 77.7748C109.76 77.658 109.803 77.4925 110.132 77.5035C110.356 77.49 110.522 77.4312 110.602 77.3366C110.681 77.242 110.671 77.1171 110.571 76.982C110.556 76.8843 110.579 76.7953 110.638 76.7191C111.125 76.7128 111.609 76.7162 112.05 76.6865C112.256 76.6767 112.43 76.6405 112.559 76.5805C112.689 76.5204 112.772 76.438 112.803 76.3387C112.819 76.2418 112.78 76.1314 112.689 76.0164C112.599 75.9014 112.46 75.7851 112.282 75.6768C111.59 75.5429 110.957 75.5412 110.522 75.672C110.367 75.7746 110.118 75.8307 109.808 75.8328C109.497 75.8349 109.14 75.7829 108.783 75.6838C108.375 75.5696 107.968 75.5194 107.634 75.5422C107.301 75.5651 107.064 75.6595 106.965 75.8085C106.546 75.7506 106.174 75.7064 105.808 75.6427C105.375 75.5623 104.966 75.5387 104.625 75.5742C104.08 75.5993 103.492 75.5846 102.875 75.5305C101.097 75.3952 99.3171 75.2696 97.5957 75.2132C97.1404 75.1971 96.7464 75.2405 96.296 75.205C95.8456 75.1694 95.4893 75.2655 94.926 75.0721C94.8188 75.042 94.7108 75.0227 94.6107 75.0156C94.5106 75.0086 94.4211 75.014 94.3492 75.0315C93.3601 75.1845 92.2004 75.2061 90.9382 75.0951C89.2093 75.0679 87.4166 74.991 85.6853 74.9736C85.1776 74.9886 84.6977 75.0288 84.2508 75.0938C83.9107 75.1331 83.5544 75.1597 83.1839 75.1735C82.9 75.1858 82.6284 75.1495 82.6763 75.3618C82.7243 75.5742 82.2987 75.4413 82.0535 75.4021C81.2109 75.2991 80.3497 75.1597 79.4796 74.9855C78.6222 74.7961 77.7822 74.6859 77.0097 74.6614C76.4518 74.6472 75.8764 74.7011 75.1591 74.4111C75.1864 74.304 75.2137 74.1969 75.3699 74.0851C74.7849 73.7774 74.1175 73.5126 73.4228 73.3127C72.7281 73.1128 72.0261 72.9835 71.3748 72.9355L70.4769 72.3532C70.2558 72.2848 70.03 72.235 69.8134 72.2068C69.5968 72.1786 69.3939 72.1726 69.2169 72.1892C69.0801 72.1976 68.9134 72.176 68.7474 72.1282C68.5814 72.0804 68.4272 72.0098 68.3132 71.9292C68.1427 71.8266 67.9344 71.7382 67.7145 71.6749C67.4945 71.6116 67.2726 71.5763 67.0767 71.5733C66.4596 71.51 65.801 71.3638 65.1682 71.1496C65.004 71.0241 64.9011 70.8943 64.8722 70.7765C64.8433 70.6586 64.8897 70.5577 65.0057 70.4862C65.1926 70.36 65.2976 70.1992 65.3142 70.0136C65.3308 69.828 65.2588 69.6214 65.1025 69.4063C65.0224 69.2742 64.9956 69.1492 65.0238 69.0388C65.052 68.9283 65.1345 68.8348 65.2664 68.7637C65.7586 68.4351 65.6269 68.2509 64.8216 67.7056C64.6908 67.6147 64.533 67.5297 64.3585 67.4561C64.1839 67.3825 63.9963 67.3218 63.8075 67.2779C63.3646 67.1891 62.9278 67.123 62.505 67.0808C62.2672 67.0124 62.0233 67.0676 61.7493 67.041C60.3793 66.9081 60.1788 66.6936 59.7351 66.2315L59.4117 65.8981C58.812 65.628 58.1562 65.4037 57.4914 65.2414C56.8266 65.079 56.1694 64.9826 55.5672 64.9591C55.3279 64.9573 55.0527 64.9112 54.7839 64.8278C53.9091 64.5726 53.0231 64.3961 52.1848 64.3098C51.6623 64.2612 51.0992 64.1356 50.5629 63.9479C50.0267 63.7602 49.5402 63.5185 49.1618 63.2518C48.8219 63.0116 48.3773 62.796 47.8897 62.635C47.319 62.4708 47.2662 62.2779 47.5849 62.1292C47.9036 61.9806 48.4374 61.7893 48.9112 61.633C49.076 61.5799 49.1782 61.4935 49.2062 61.3835C49.2343 61.2734 49.1872 61.1441 49.0701 61.0099C48.995 60.7801 48.9819 60.5622 49.0313 60.3612C49.0578 60.2777 49.0395 60.1819 48.9779 60.0804C48.9162 59.9789 48.8126 59.8739 48.6739 59.7726C48.5352 59.6713 48.3649 59.576 48.1741 59.4931C47.9834 59.4103 47.7768 59.3418 47.5683 59.2923C46.6884 59.0391 45.8323 58.7928 44.9351 58.6077C44.5591 58.5205 44.1834 58.4124 43.8174 58.2861C43.0682 57.9737 42.2666 57.7147 41.4593 57.524C41.0761 57.4387 40.7015 57.2896 40.4165 57.109C39.5177 56.6223 38.6894 56.1106 37.9468 55.5832C37.7678 55.4196 37.5336 55.26 37.2589 55.1144C36.9842 54.9688 36.6749 54.8403 36.3504 54.7371C36.0888 54.6618 35.8758 54.4961 35.6742 54.3858C35.5277 54.1304 35.5121 53.8942 35.6288 53.6993C35.7454 53.5044 35.9907 53.3571 36.3414 53.2714C36.6739 53.1685 36.9852 53.0491 37.2726 52.9228C37.6192 52.8206 38.0311 52.7593 38.4932 52.741C39.0405 52.6862 39.4452 52.5295 39.6545 52.2913C38.1563 51.8602 36.7317 51.2413 35.4185 51.3859L34.4207 50.9943C34.4604 50.8386 34.4952 50.7023 34.5275 50.5757C34.7648 50.3453 34.8389 50.0547 34.7436 49.7286C34.665 49.5709 34.6721 49.4273 34.7641 49.3125C34.8562 49.1977 35.0299 49.1157 35.2678 49.0747C36.6768 48.6546 38.3062 48.3709 39.6275 47.8942C40.0418 47.8047 40.5268 47.764 41.062 47.774C41.5799 47.7453 41.5582 47.5301 40.9623 47.2645C40.6278 47.1258 40.2869 46.9928 39.9408 46.8661C38.4146 46.845 37.7929 47.4813 36.0513 47.3041L35.2441 46.4657C35.0258 46.4527 34.8139 46.4476 34.6099 46.4504L31.6896 46.7911C31.4464 46.8081 31.2571 46.8664 31.1431 46.9592C31.0292 47.0521 30.9953 47.1758 31.0451 47.3163C31.0649 47.4882 31.0247 47.6458 30.9259 47.7836C30.8622 47.8801 30.903 48.0083 31.0392 48.1402C31.3462 48.4375 30.9523 48.481 30.7035 48.5557C30.6399 48.563 30.5666 48.5622 30.4878 48.5534C30.4089 48.5446 30.3262 48.5279 30.2444 48.5044C30.1625 48.4808 30.0832 48.4508 30.011 48.4162C29.9387 48.3815 29.8751 48.3429 29.8236 48.3025C29.3853 48.0196 29.0019 47.7212 28.571 47.4091C28.8769 47.1104 28.517 46.6202 28.9943 46.3499C29.0477 46.296 29.0691 46.2302 29.0571 46.1566C29.0452 46.0831 29.0001 46.0034 28.9247 45.9223C28.7303 45.7131 28.6378 45.5091 28.6563 45.331C28.6749 45.1528 28.8039 45.0068 29.0304 44.9076L29.0577 44.8005C28.4604 44.4405 28.6187 44.1203 28.384 43.7393L27.8094 43.4903C26.3797 42.8908 26.3772 42.9005 25.1464 42.9226C24.8983 42.6944 25.2135 42.6597 25.4499 42.6337L27.4296 42.3777C28.724 42.2067 30.056 42.0884 31.5019 42.0237C32.9478 41.959 34.5598 41.7435 36.0544 41.5883C36.13 41.5763 36.1878 41.5525 36.223 41.519C36.2581 41.4855 36.2697 41.4432 36.2567 41.3957C36.1973 41.3443 36.1195 41.2948 36.0291 41.2507C35.9388 41.2066 35.8381 41.1691 35.7345 41.141C35.2589 41.0041 34.771 40.916 34.2641 40.8015L33.3193 40.6028L33.0286 40.3415C32.8394 40.1825 32.7102 39.9886 32.4585 39.8743C32.2511 39.7892 32.026 39.7245 31.8066 39.6871C31.5872 39.6497 31.3815 39.6409 31.211 39.6617C30.7383 39.7138 30.3106 39.7893 29.8591 39.8579C29.4077 39.9266 29.1589 40.0013 28.7674 40.035C27.972 40.0503 27.2034 40.0908 26.4647 40.1562C25.8426 40.3111 25.2671 40.4946 24.742 40.7056C24.4144 40.789 24.1081 40.889 23.5487 40.7803C23.2833 40.6817 23.0545 40.5523 22.9026 40.4148C22.7508 40.2774 22.6858 40.1409 22.7192 40.0295C22.7492 39.9422 22.8342 39.8732 22.9661 39.8288C23.098 39.7845 23.2725 39.7664 23.473 39.7761C24.0345 39.7601 24.5537 39.7061 25.0202 39.6152C25.6695 39.4505 26.4598 39.3795 27.3452 39.4063C27.6455 39.43 27.8467 39.3416 28.1094 39.3127C28.372 39.2837 28.5945 39.2119 28.8873 39.2648C29.797 39.4011 30.2332 39.1922 30.7783 39.0564C30.9628 38.9963 31.0772 38.899 31.1087 38.7753C31.1403 38.6516 31.0878 38.5063 30.9571 38.3554C30.7055 38.0549 30.3977 37.7527 30.0386 37.4536C29.8537 37.3066 29.6169 37.1669 29.3467 37.0457C29.0765 36.9244 28.7802 36.8248 28.4811 36.7546C28.3021 36.5706 28.2066 36.3896 28.2032 36.2281C28.1999 36.0665 28.2888 35.9295 28.4619 35.8294C28.903 35.601 29.2941 35.3687 30.2826 35.4964C30.7473 35.5451 31.1847 35.5545 31.5773 35.524C32.4481 35.4823 33.4527 35.5736 34.4962 35.7891C34.7662 35.8444 35.0315 35.882 35.2845 35.901C37.0885 36.0334 38.8074 36.0995 40.5312 36.1462C41.4444 36.1686 42.3651 36.1618 43.3184 36.227C45.5541 36.3687 47.5892 36.2959 49.7471 36.342C50.8772 36.3657 51.8888 36.2704 52.7288 36.0608C52.8923 35.9906 53.0328 35.9086 53.1486 35.8158C52.592 35.5724 51.9806 35.3797 51.373 35.2561C50.7654 35.1325 50.1819 35.0822 49.6785 35.11C49.4018 35.1781 49.044 35.1906 48.6453 35.146C48.2465 35.1013 47.8224 35.0014 47.4201 34.8573L48.5896 34.7758C49.3651 34.7376 50.1594 34.7258 50.9136 34.6711C52.1118 34.5769 53.2223 34.4262 54.4631 34.3652C55.4648 34.3091 56.3613 34.1657 57.1242 33.9395C57.6754 33.7745 58.3049 33.6575 59 33.5909C59.494 33.5554 59.494 33.5554 59.8099 33.2178C59.5593 32.9994 59.2352 32.9689 58.93 32.9646C57.1001 32.8272 55.3586 32.8031 53.7411 32.8929C52.925 32.9008 52.2009 32.9934 51.6038 33.1662C51.4576 33.2391 51.0835 33.2046 50.7832 33.1809C49.8419 33.1449 48.9423 33.1553 48.0951 33.2121C46.9237 33.3068 45.6192 33.2844 44.2321 33.1457C43.9691 32.9759 44.2718 32.9899 44.2867 32.9315C45.361 32.8226 46.4141 32.6971 47.5097 32.6048C47.8092 32.5719 48.1294 32.5556 48.4666 32.5561C49.7254 32.6134 50.7745 32.4548 51.4667 32.1026C51.5015 31.9663 51.9568 31.9823 52.158 31.8939C52.2571 31.8174 52.323 31.7273 52.3539 31.6263C52.0607 31.3747 51.7292 31.3734 51.4741 31.3731C50.7336 31.4012 50.0212 31.4544 49.3404 31.5325C48.7075 31.6069 48.0069 31.6267 47.2576 31.5916C46.7047 31.5579 46.2319 31.61 45.674 31.5958C45.3714 31.5659 45.0581 31.5178 44.7405 31.4526C45.0941 31.2773 45.5747 31.1694 46.1485 31.1366C46.5836 31.0319 47.1277 31.0004 47.1973 30.7278C46.9917 30.5328 46.7628 30.5296 46.579 30.5498C46.1963 30.5491 45.8266 30.5614 45.472 30.5866C44.72 30.6421 43.9057 30.6428 43.0464 30.5889C42.594 30.5688 42.1646 30.5748 41.7655 30.607C40.8612 30.6499 39.9945 30.7454 39.1665 30.7893C37.4703 30.8342 35.9233 30.9952 34.2935 31.0802C33.9308 31.1012 33.6057 31.1749 33.1276 31.0478C32.6495 30.9206 32.6282 30.9041 32.5718 30.8251C32.438 30.6934 32.3975 30.5657 32.4586 30.4686C32.5534 30.3778 32.7381 30.3272 32.9799 30.3259C34.4368 30.1816 35.8187 29.9788 37.1168 29.7188C37.6881 29.6667 38.1887 29.5605 38.601 29.4038C38.9281 29.2959 39.316 29.2245 39.7527 29.1918C40.3878 29.1138 41.0499 29.0566 41.7364 29.0205C42.0557 29.0012 42.3273 28.9434 42.5351 28.8506C42.7429 28.7578 42.8827 28.6319 42.9462 28.4803L42.1047 27.9769C41.9725 27.9535 41.8413 27.9332 41.7118 27.9161L34.7273 28.2788L34.0356 28.2887C33.2775 28.2587 33.0922 28.1845 32.3731 27.6013C34.0143 27.4641 35.3044 27.0643 36.115 26.4415C35.9202 26.3746 35.7204 26.3171 35.5205 26.2705C34.2089 26.1232 32.9691 26.084 31.8488 26.1546C31.1833 26.1616 30.4991 26.1424 29.8123 26.1329C30.0131 25.8458 30.7826 25.9314 31.2841 25.8667C32.4823 25.7654 33.5419 25.5562 34.429 25.2458C34.7348 25.1247 35.1175 25.0473 35.5594 25.0171C36.0016 25.0067 36.371 24.9335 36.6354 24.8037C36.8999 24.674 37.0513 24.4917 37.0766 24.2727C37.1182 24.0745 37.208 23.8902 37.3445 23.7228C37.103 23.4852 36.7194 23.2576 36.2658 23.0829C35.8122 22.9081 35.3198 22.7981 34.881 22.7735C33.9441 22.6757 32.9723 22.5156 31.9905 22.2971C31.5014 22.187 31.0218 22.1238 30.5828 22.1116C30.1958 22.1022 29.7558 22.0226 29.33 21.885C28.9042 21.7474 28.5161 21.5593 28.2247 21.3494C27.8314 21.09 27.4644 20.8276 27.0974 20.5652C26.7304 20.3028 26.3045 19.9713 25.8761 19.6494C25.4983 19.5991 25.1305 19.5668 24.7776 19.5528C24.503 19.5646 24.1826 19.5295 23.8542 19.4517C23.5258 19.3739 23.203 19.2565 22.9241 19.1136C23.0877 18.9725 23.2727 18.8481 23.4675 18.6847C23.2001 18.4689 23.0062 18.2488 22.8976 18.0379C22.789 17.827 22.7681 17.6296 22.836 17.4579C22.8757 17.3021 22.585 17.0408 22.4846 16.8342C22.3552 16.6561 22.331 16.4899 22.4149 16.3574C22.4988 16.2249 22.687 16.1323 22.9548 16.0916C23.287 16.0166 23.5573 15.9037 23.7548 15.7575C23.8201 15.7195 23.8533 15.6675 23.8515 15.6062C23.8496 15.545 23.8127 15.4764 23.7441 15.4068C23.6756 15.3371 23.5775 15.2687 23.4589 15.2077C23.3404 15.1466 23.2051 15.095 23.0655 15.0575C22.6377 14.9511 22.2129 14.8821 21.8154 14.8545C21.1306 14.8038 20.4751 14.772 19.8488 14.759C19.1561 14.7394 18.3855 14.6186 17.6153 14.4089C16.9256 14.2105 16.3073 14.0325 15.9701 13.6533C15.6329 13.2741 15.0938 13.2862 14.6792 13.0102C14.9121 12.7613 15.326 12.5884 15.8792 12.5089C16.2412 12.4806 16.5434 12.4061 16.7663 12.2903C16.9893 12.1744 17.1281 12.0198 17.1739 11.8364L15.9153 11.0666C14.9101 10.7043 14.354 10.9832 13.2679 10.8379L14.387 10.5537C14.4095 10.5256 14.4179 10.4927 14.4118 10.4564C14.3032 9.88166 14.1303 9.75876 12.9864 9.44005L12.3443 9.25531L11.3281 9.03606C11.1654 8.91828 11.0529 8.79546 11.0017 8.67987C10.9506 8.56429 10.9626 8.45999 11.0367 8.37741C11.1856 8.23854 11.2309 8.06109 11.1684 7.86139C11.0698 7.7291 11.0617 7.60715 11.1454 7.51669C11.2291 7.42623 11.3993 7.37297 11.6265 7.36618C11.8079 7.35566 11.8214 7.20277 11.92 7.1162C12.0181 6.99687 12.1858 6.90532 12.412 6.84775C12.6381 6.79018 12.9171 6.76793 13.2303 6.78256C14.1536 6.79451 15.0209 6.74972 15.8169 6.64898L15.6743 6.60793C16.5039 6.69636 17.2796 6.70709 17.9635 6.63959C18.6488 6.55462 19.5284 6.60912 20.2563 6.55731C20.8489 6.5692 21.3001 6.4516 21.5141 6.22947C21.7213 6.01739 22.4745 6.06688 23.0512 6.10743C23.3929 6.13365 23.7231 6.14476 24.0383 6.14063C24.4614 6.09263 24.9904 6.13788 25.5371 6.26884C25.7012 6.30909 25.8628 6.33039 26.0063 6.3307C27.3962 6.38575 28.7835 6.45052 30.1546 6.47925C30.4711 6.4627 30.8422 6.50059 31.2243 6.58849C31.385 6.62664 31.5413 6.64245 31.6723 6.63378C33.8387 6.54649 36.2834 6.76919 38.4072 6.64875C38.6646 6.6203 38.9496 6.61439 39.2541 6.63116C39.9382 6.70191 40.5324 6.65638 40.9463 6.50148C41.1696 6.41909 41.4559 6.3737 41.7869 6.36818C42.118 6.36266 42.4864 6.39715 42.8689 6.46945C43.5053 6.56518 44.0935 6.57555 44.5714 6.4995C45.5032 6.42922 46.4831 6.40034 47.5034 6.41304C47.816 6.42534 48.0908 6.39803 48.3066 6.33323C48.5223 6.26844 48.6731 6.1679 48.7473 6.03941C48.4967 5.82099 48.2228 5.79441 47.9626 5.81361C46.9543 5.76384 45.9484 5.70433 44.9589 5.68088C44.0732 5.61388 43.2234 5.5934 42.4219 5.61973C42.024 5.64945 41.5274 5.5817 41.0406 5.43128C40.444 5.24077 39.8294 5.14612 39.3213 5.16648C38.9446 5.17154 38.5469 5.15513 38.1341 5.1175C37.8699 5.07211 37.5991 4.99418 37.3494 4.8917C37.2503 4.84719 37.1425 4.80976 37.0328 4.78182C36.9231 4.75387 36.8141 4.73604 36.7125 4.72943C36.6109 4.72281 36.5189 4.72756 36.4427 4.7434C36.3665 4.75924 36.3076 4.78581 36.2697 4.82141C35.8875 5.11901 35.0328 4.96714 34.301 4.93422C33.2043 4.43052 32.388 4.72865 31.363 4.44415C31.2819 4.42529 31.202 4.41387 31.1283 4.41061C31.0545 4.40735 30.9884 4.41231 30.9339 4.42518C28.9502 4.59642 26.6383 4.45371 24.5556 4.51285C24.326 4.52149 24.0593 4.49185 23.7862 4.4273C22.0008 4.00005 20.2842 3.87875 18.972 4.08714C18.8123 4.1059 18.6307 4.1067 18.4354 4.0895C17.5382 3.91969 16.6803 3.85199 15.9332 3.89205C14.7623 3.87911 13.6365 3.8896 12.4468 3.85035C11.6267 3.7945 10.9073 3.85417 10.3606 4.02341C10.3432 4.09156 9.97902 4.01812 9.70006 4.01101C9.53962 3.83943 9.40052 3.68445 9.23512 3.53235C9.08726 3.34417 8.86576 3.15375 8.58572 2.97399C8.30568 2.79424 7.97366 2.62937 7.61202 2.49051C6.99373 2.3126 6.9319 2.05444 7.36454 1.95946C8.47967 1.64522 9.88187 1.51661 11.4681 1.58306C12.7941 1.58837 14.1439 1.60053 15.4887 1.63216C16.273 1.65929 17.0999 1.71955 17.863 1.73011C18.1205 1.75329 18.385 1.78746 18.6538 1.83225C18.9836 1.89718 19.3038 1.93256 19.5972 1.93648C20.5392 1.8818 21.5905 1.92944 22.701 2.07712C23.1077 2.10933 23.4983 2.12018 23.8669 2.10952C24.7388 2.06944 25.6842 2.09893 26.6778 2.19725C27.2954 2.25268 27.8942 2.28167 28.4681 2.2839C28.6707 2.28995 28.8358 2.24339 29.031 2.27865C30.7492 2.64764 31.9658 2.38112 33.5122 2.52301C34.2638 2.56257 34.9818 2.56269 35.6563 2.52335C36.9724 2.52525 38.3253 2.56571 39.7095 2.64454C41.5398 2.77408 43.2359 2.72913 44.9835 2.78261C45.3286 2.79385 45.6617 2.79194 45.9805 2.77687C47.5315 2.67734 49.216 2.69844 50.9931 2.83968C51.3966 2.86009 51.759 2.83513 52.0576 2.76641C52.3562 2.69769 52.5847 2.58666 52.7285 2.44028C52.7894 2.33982 52.75 2.20933 52.6178 2.07399C52.3985 1.90115 52.1508 1.7318 51.8788 1.56873L41.9868 1.02155C41.5713 0.992973 41.1662 0.97759 40.7734 0.975463C39.6181 0.970706 38.4272 0.92814 37.2068 0.847973C36.0008 0.772668 34.8487 0.786038 33.6803 0.763366C33.3361 0.755772 32.9828 0.737852 32.6219 0.70966C30.1824 0.486531 27.8035 0.350246 25.5022 0.301783C24.534 0.294907 23.488 0.192503 22.501 0.159312C21.5139 0.126119 20.1642 0.113966 18.9933 0.101031L15.3682 0.103018C14.6552 0.0964122 13.9609 0.116116 13.2692 0.126092C12.4297 -0.585741 12.1405 -0.75259 11.0203 -1.06446C10.6371 -1.17949 10.2473 -1.24815 9.89666 -1.26237C8.7847 -1.2061 7.38949 -1.44034 6.33503 -1.40933C5.69875 -1.42463 5.15884 -1.34555 4.77057 -1.18019C4.43353 -1.05042 4.04811 -0.947731 3.62027 -0.873679C2.44828 -1.48264 2.345 -1.87814 3.2266 -2.03204C3.46546 -2.06782 3.79447 -2.05676 3.96695 -2.13254C4.06592 -2.17869 4.20112 -2.20508 4.36178 -2.20964C4.52244 -2.2142 4.70411 -2.19682 4.89254 -2.15883C5.48726 -2.05917 6.04469 -2.03573 6.50888 -2.09087C6.94575 -2.16384 7.48124 -2.16093 8.06375 -2.0824C8.49179 -1.95924 8.86802 -2.13315 9.2382 -2.1834C9.60837 -2.23364 9.91215 -2.3239 10.4903 -2.18889C10.5962 -2.16201 10.7013 -2.14587 10.7976 -2.14172C10.8939 -2.13756 10.9788 -2.1455 11.0458 -2.16492C11.6668 -2.25188 12.4078 -2.24274 13.2087 -2.13826C14.437 -2.03545 15.5895 -2.0316 16.6262 -2.12683C17.2467 -2.21015 17.7758 -2.35792 18.1928 -2.56437C18.3064 -2.63342 18.4752 -2.67483 18.6829 -2.68461C19.7259 -2.64154 20.8585 -2.47943 22.0075 -2.20873C22.4403 -2.10026 22.8726 -2.01447 23.2951 -1.95317C24.1635 -1.817 25.0034 -1.74069 25.7899 -1.72651C26.9327 -1.72427 28.1227 -1.67187 29.349 -1.56981C30.1059 -1.51298 30.8351 -1.49201 31.5282 -1.50712C32.2405 -1.51424 33.0011 -1.47089 33.7926 -1.37808C34.5798 -1.30245 35.2735 -1.34602 35.7901 -1.50353C35.9602 -1.58841 36.0972 -1.6892 36.1986 -1.80403C35.046 -2.17765 33.8541 -2.36754 32.8626 -2.33544C32.4861 -2.36019 32.1734 -2.33521 31.7766 -2.48074L31.7641 -2.43206C31.6852 -2.40047 31.566 -2.39302 31.4294 -2.41112C31.2928 -2.42923 31.1483 -2.47162 31.0234 -2.53023C31.0706 -2.71522 31.1153 -2.89047 31.1476 -3.01704C31.903 -2.99471 32.6365 -2.99652 33.3443 -3.02248C33.9409 -3.05982 34.7508 -2.73271 35.2672 -2.85585C36.2745 -2.70187 36.9158 -2.91447 37.8191 -2.85312C38.7223 -2.79178 39.7172 -2.58912 40.6205 -2.52777C41.4087 -2.49411 42.174 -2.48679 42.9122 -2.50585C43.167 -2.53261 43.4607 -2.52633 43.7753 -2.4874C44.2176 -2.41416 44.629 -2.40189 44.9623 -2.452C45.2956 -2.50211 45.5374 -2.61259 45.6599 -2.77075C45.5445 -2.9189 45.3891 -3.10994 45.2099 -3.30783C45.5396 -3.47043 46.0404 -3.5389 46.638 -3.50304L47.4824 -3.5109C47.7061 -3.5066 47.8772 -3.55056 47.9601 -3.63368C48.0431 -3.71679 48.0317 -3.8327 47.9281 -3.95743C46.327 -4.58535 46.2681 -4.65457 45.093 -4.25069L43.5327 -4.43837L43.559 -4.44125ZM64.6626 -2.71638L64.5438 -2.75058L64.6626 -2.71638ZM259.1 64.0904L259.073 64.1975L259.103 64.0807L259.364 64.1559L259.382 64.0878L259.1 64.0904ZM221.121 17.1484C220.752 17.0316 220.378 16.9242 220.004 16.8268C219.906 16.8117 219.814 16.8083 219.736 16.8169C219.658 16.8254 219.597 16.8457 219.557 16.876C219.527 16.9928 219.736 17.0739 219.927 17.1286C220.167 17.2023 220.412 17.2491 220.637 17.2643C220.862 17.2794 221.058 17.2623 221.207 17.2148L221.422 17.1721L221.121 17.1484ZM30.6855 45.6242C30.9289 45.6439 31.1597 45.6471 31.3723 45.6337C32.3153 45.5393 33.2181 45.402 34.1849 45.3144C35.4048 45.092 36.8065 45.0015 38.3375 45.0461C38.9356 45.0679 39.4409 44.9959 39.7944 44.8383C40.0061 44.7538 40.2792 44.7043 40.5972 44.6931L44.6447 44.4364C44.8949 44.3831 45.1112 44.3084 45.2885 44.2141C44.9318 44.1114 44.694 44.043 44.5514 44.0019C44.2553 43.9904 44.0009 44.0217 43.8135 44.0927C43.6122 44.213 43.272 44.2606 42.8605 44.2261C42.445 44.1975 42.0399 44.1821 41.6471 44.18C40.9053 44.186 40.1585 44.2115 39.4142 44.2273C39.1246 44.562 38.27 44.4101 37.5381 44.3772L36.9727 44.3922C35.1246 44.5657 33.3593 44.8044 31.6852 45.1072C31.3617 45.1584 31.0829 45.2401 30.8576 45.3498C30.7727 45.4353 30.7455 45.542 30.7781 45.6614L30.6593 45.6271L30.6855 45.6242ZM113.214 77.6276C113.662 77.6504 114.129 77.6972 114.608 77.7673C114.977 77.839 115.336 77.8825 115.673 77.8961C117.558 77.9711 119.522 78.1444 121.539 78.4136C121.803 78.4544 122.056 78.4744 122.29 78.4729L123.941 78.4045C124.461 78.3661 124.471 78.3271 124.092 77.8106C123.778 77.7103 123.46 77.6189 123.141 77.5369C122.951 77.4821 122.642 77.3932 122.569 77.4769C122.128 77.7053 121.324 77.5573 120.647 77.5089C118.688 77.3841 116.667 77.1998 114.689 77.0487C114.271 77.0118 113.866 76.9931 113.478 76.9929C113.237 76.9851 113.018 76.9997 112.829 77.036C112.774 77.0397 112.727 77.0505 112.693 77.0677C112.659 77.0849 112.638 77.1081 112.631 77.1357C112.624 77.1633 112.631 77.1948 112.652 77.228C112.674 77.2611 112.709 77.2953 112.754 77.3281C112.916 77.4431 113.103 77.5533 113.309 77.6549L113.214 77.6276ZM127.566 2.65454L129.496 2.5933C129.727 2.58672 129.924 2.51779 130.171 2.54727C131.493 2.6407 132.717 2.61468 133.79 2.4703C134.156 2.41139 134.584 2.3996 135.05 2.43561C136.478 2.5423 137.824 2.54669 139.054 2.44865C139.849 2.42898 140.592 2.36289 141.274 2.25138C141.327 2.2255 141.359 2.19035 141.37 2.14835C141.381 2.10634 141.369 2.05846 141.336 2.00797C141.328 1.97608 141.304 1.94176 141.268 1.9074C141.231 1.87304 141.182 1.83944 141.125 1.80892C141.067 1.77841 141.002 1.75171 140.933 1.73064C140.865 1.70958 140.795 1.69465 140.729 1.6869C139.868 1.53596 139.05 1.48338 138.343 1.53342C137.688 1.59329 136.982 1.61081 136.237 1.5857C135.524 1.5791 135.04 1.77433 134.159 1.62536C133.786 1.57631 133.458 1.59245 133.228 1.67111C132.767 1.80147 132.123 1.80872 131.411 1.69157C130.985 1.63228 130.578 1.60685 130.205 1.61626C129.3 1.65912 128.436 1.74487 127.598 1.82773C127.334 1.8469 127.051 1.84955 126.754 1.83561L122.558 1.67336C121.55 1.62359 120.544 1.56408 119.554 1.54063C118.745 1.48969 117.992 1.50565 117.322 1.58791C116.607 1.67438 115.827 1.70949 114.998 1.69256C113.709 1.73988 112.428 1.75798 111.026 1.75162C110.132 1.75553 109.216 1.74288 108.281 1.7039C107.809 1.65373 107.407 1.69459 107.155 1.81859C107.001 1.92069 106.639 1.83752 106.339 1.81382C104.737 1.58546 103.235 1.53135 101.938 1.65526C101.772 1.67545 101.59 1.68276 101.396 1.67706C100.147 1.67281 98.8519 1.64513 97.6523 1.64483C97.3365 1.65445 97.0392 1.68087 96.7643 1.72374C96.7938 1.79369 96.8777 1.8695 96.9987 1.93545C97.1197 2.0014 97.2685 2.05244 97.4142 2.07796C98.5488 2.27337 99.6443 2.3766 100.655 2.38332C102.336 2.35842 104.098 2.41439 105.921 2.55061C107.336 2.68795 108.626 2.65903 109.695 2.46602C110.531 2.322 111.618 2.37618 112.77 2.61928C113.263 2.73537 113.742 2.7818 114.14 2.7522C114.524 2.71338 114.964 2.72279 115.435 2.77989C116.428 2.88846 117.383 2.93882 118.281 2.92999C119.159 2.89002 119.978 2.78084 120.88 2.74772C121.782 2.7146 123.155 2.73358 124.267 2.6773C125.379 2.62103 126.479 2.61345 127.566 2.65454ZM47.5921 -3.04039C47.694 -2.73935 48.0546 -2.55197 48.4425 -2.4717C49.78 -2.11527 51.1022 -1.96359 52.1873 -2.04213C52.7734 -2.15168 53.5548 -2.10951 54.3778 -1.9239C55.3362 -1.73096 56.232 -1.69897 56.9074 -1.83355C57.0728 -1.85707 57.1995 -1.90678 57.2761 -1.97827C57.291 -2.03668 57.3183 -2.14378 57.3233 -2.16325C57.2523 -2.21264 57.1653 -2.25839 57.069 -2.29699C56.9726 -2.3356 56.8695 -2.36601 56.7675 -2.38589L52.3374 -2.73049L51.5654 -2.80633C50.1553 -3.005 48.8117 -3.08414 47.5921 -3.04039ZM56.3061 1.72441C56.9975 2.21598 56.9999 2.20623 57.3542 2.3186C59.063 2.78537 60.7707 3.03734 62.2741 3.04453C62.6082 3.0431 62.8918 2.99566 63.1008 2.90616C63.2083 2.89404 63.2767 2.8555 63.2912 2.79896C63.3056 2.74242 63.2648 2.67246 63.1778 2.60434L62.628 2.25803C61.6294 2.1081 60.6453 1.98897 59.6814 1.90136C58.5591 1.7979 57.5646 1.79391 56.4012 1.75177L56.3061 1.72441ZM113.131 75.4508C113.775 76.1274 113.778 76.1177 114.857 76.2922C115.608 76.4158 116.337 76.4884 117.022 76.5078C117.859 76.5291 118.717 76.567 119.552 76.5981C119.756 76.6197 119.928 76.6018 120.036 76.5479C120.144 76.494 120.18 76.408 120.137 76.3066C120.027 76.1965 119.856 76.09 119.651 76.0044C119.445 75.9187 119.218 75.859 119.006 75.835L118.551 75.8189C117.998 75.7852 117.424 75.7349 116.889 75.7275C116.543 75.7556 116.141 75.7339 115.716 75.6642C115.291 75.5944 114.854 75.4786 114.439 75.3256L113.131 75.4508ZM59.7464 -2.15579C59.9184 -2.03862 60.1129 -1.9264 60.3249 -1.82212C61.1454 -1.53306 62.0139 -1.36889 62.76 -1.36179C63.1128 -1.34388 63.4354 -1.40781 63.7946 -1.31491C64.4388 -1.19077 65.0631 -1.12464 65.6338 -1.1201C65.6338 -1.1201 65.7939 -1.14721 65.8464 -1.153L65.9557 -1.58139C65.6855 -1.68063 65.4038 -1.76171 65.1234 -1.82089C64.1825 -1.93486 63.2579 -2.01278 62.3358 -2.10044C61.4137 -2.1881 61.0922 -2.22837 60.4892 -2.26602C60.2202 -2.24532 59.9714 -2.2084 59.7464 -2.15579ZM39.3708 51.1019L40.6021 51.9787C41.0005 52.0549 41.3728 52.0687 41.6621 52.0181C41.9515 51.9674 42.1422 51.855 42.2052 51.698C42.3066 51.6245 42.3167 51.5157 42.2335 51.3943C42.1502 51.273 41.9801 51.1485 41.7587 51.047C41.5456 50.9267 41.3023 50.8188 41.0439 50.7301C40.7856 50.6413 40.5176 50.5736 40.2567 50.5312L39.3708 51.1019ZM49.6226 46.7362C48.8172 46.5875 48.047 46.5267 47.3706 46.5585C46.9445 46.6455 46.3671 46.6177 45.7569 46.4808C44.647 46.208 43.5772 46.1325 42.773 46.2702C42.773 46.2702 42.7432 46.387 42.6069 46.4209C42.4706 46.4549 43.0112 46.5373 43.1301 46.5715C44.0021 46.6552 44.8791 46.7194 45.6372 46.7494C46.1079 46.7481 46.6057 46.7758 47.1222 46.8319C47.8328 46.9184 48.5067 46.9464 49.1176 46.9148C49.1176 46.9148 49.3539 46.8888 49.6201 46.7459L49.6226 46.7362ZM135.629 1.06596C135.244 0.900831 134.827 0.766619 134.409 0.673405C133.991 0.580192 133.582 0.530401 133.214 0.527749C132.932 0.519134 132.703 0.562733 132.565 0.651656C132.427 0.74058 132.387 0.869755 132.45 1.01875C132.736 1.10086 133.116 1.21034 133.33 1.27192C134.072 1.2659 134.705 1.18671 135.629 1.06596ZM207.635 14.9817C207.326 14.8488 206.986 14.7472 206.654 14.6884C206.321 14.6297 206.009 14.6163 205.754 14.6496C205.623 14.6641 205.712 14.8151 205.69 14.9027C205.675 14.9226 205.675 14.9473 205.69 14.9743C205.705 15.0012 205.734 15.0295 205.774 15.056C205.815 15.0825 205.864 15.1064 205.919 15.1251C205.973 15.1438 206.03 15.1566 206.083 15.1622C206.418 15.2195 206.734 15.2365 207.003 15.2118C207.272 15.1871 207.486 15.1215 207.625 15.0207L207.635 14.9817ZM212.459 16.8821C212.412 16.8036 212.31 16.7219 212.173 16.6518C212.036 16.5817 211.874 16.528 211.714 16.5005C211.433 16.4968 211.178 16.5186 210.958 16.5649C210.719 16.6007 210.891 16.8278 211.214 16.9626C211.351 17.0166 211.497 17.0588 211.641 17.0858C211.784 17.1127 211.922 17.1236 212.043 17.1177C212.163 17.1118 212.263 17.0892 212.334 17.0516C212.406 17.0141 212.447 16.9627 212.454 16.9015L212.459 16.8821ZM72.2708 -1.32144C71.551 -1.60172 70.997 -1.53121 70.3876 -1.64386C69.7782 -1.7565 69.628 -1.76835 69.7097 -1.5881C69.7913 -1.40784 70.2091 -1.4444 70.4706 -1.36913C70.8241 -1.26925 71.1796 -1.21191 71.4975 -1.20348C71.8155 -1.19506 72.0832 -1.2359 72.2708 -1.32144ZM222.261 46.1014C221.88 46.0385 221.506 45.994 221.146 45.9687C221.099 45.9948 221.069 46.0289 221.059 46.069C221.049 46.1091 221.058 46.1545 221.087 46.2024C221.087 46.2024 221.331 46.3458 221.474 46.3868C221.999 46.5276 222.025 46.3261 222.261 46.1014ZM276.147 72.2142C276.405 72.4035 276.525 72.5321 276.732 72.6229C276.826 72.6544 276.925 72.6773 277.019 72.6899C277.113 72.7025 277.2 72.7044 277.275 72.6956C277.365 72.6411 277.387 72.5576 277.334 72.4619C277.334 72.4619 277.071 72.2922 276.971 72.2843C276.686 72.2442 276.409 72.2207 276.147 72.2142ZM60.0189 -2.9239C59.4719 -3.08128 58.9487 -3.23182 58.57 -3.04817C59.4385 -2.85051 59.4386 -2.8505 60.0189 -2.9239ZM68.8774 -1.12737C68.3251 -1.46395 68.0011 -1.49449 67.7359 -1.45582C67.6796 -1.44608 67.6423 -1.42437 67.6297 -1.39398C67.6172 -1.3636 67.6299 -1.32619 67.6662 -1.28742C67.7025 -1.24865 67.7602 -1.21062 67.8307 -1.17909C67.9011 -1.14756 67.9805 -1.12424 68.0568 -1.11266C68.3448 -1.10297 68.6195 -1.10789 68.8774 -1.12737ZM97.3022 -0.985038C97.3146 -1.03372 97.3295 -1.09214 97.1868 -1.13319C97.1494 -1.15403 97.1056 -1.17196 97.0597 -1.18517C97.0138 -1.19838 96.9674 -1.20641 96.9253 -1.20845C96.9253 -1.20845 96.9103 -1.15003 96.9004 -1.11109L97.3022 -0.985038ZM117.041 79.8365L116.723 79.881L116.866 79.922L117.243 79.9468L117.041 79.8365ZM228.888 16.1224C228.769 16.0882 228.65 16.054 228.632 16.1222C228.607 16.1327 228.592 16.148 228.587 16.1666C228.582 16.1852 228.588 16.2067 228.605 16.2293C228.605 16.2293 228.772 16.2772 228.843 16.2977L228.888 16.1224ZM210.37 16.6675C210.292 16.6636 210.221 16.6682 210.162 16.681L210.148 16.7394L210.385 16.8078L210.37 16.6675ZM48.9946 30.5865C48.9027 30.551 48.8054 30.523 48.7092 30.5044L48.5903 30.4702C48.5903 30.4702 48.718 30.5697 48.7894 30.5902C48.8607 30.6107 48.9183 30.5855 48.9946 30.5865Z" fill="#FDDA74"/>
</g>
</svg>
