<svg width="239" height="21" viewBox="0 0 239 21" fill="none" xmlns="http://www.w3.org/2000/svg">
<mask id="mask0_21_2265" style="mask-type:alpha" maskUnits="userSpaceOnUse" x="0" y="0" width="239" height="21">
<rect width="239" height="21" fill="#C4C4C4"/>
</mask>
<g mask="url(#mask0_21_2265)">
<path d="M35.8986 -4.44125L36.4827 -4.71806L35.3461 -5.11492L35.891 -5.40542C36.4374 -5.40276 37.1453 -4.96748 37.5305 -5.19877C37.5776 -5.4227 36.9826 -5.49457 36.8308 -5.67298C36.6964 -5.85586 36.5868 -6.03754 36.5032 -6.21586C36.8007 -6.21393 37.1278 -6.1708 37.4651 -6.089C37.9188 -5.95539 38.3638 -5.89044 38.751 -5.90132C39.5428 -5.86523 40.3077 -5.90123 41.1686 -5.8933L40.8822 -6.43224L41.9916 -6.30616C42.1092 -6.2651 42.2493 -6.33113 42.3649 -6.28033C43.3264 -5.85058 43.7332 -6.08476 44.1948 -6.27894C44.2894 -6.32918 44.4034 -6.3667 44.5338 -6.3905C45.8164 -6.28756 46.973 -5.68518 48.1281 -5.37593C48.3455 -5.29698 48.554 -5.19563 48.7389 -5.07907C49.1406 -4.85249 49.5875 -4.66749 50.0387 -4.54101C50.4899 -4.41452 50.9308 -4.3506 51.3214 -4.35506C52.185 -4.36007 53.1607 -4.21019 54.154 -3.91995C54.4494 -3.82435 54.745 -3.76129 55.022 -3.73477C55.2989 -3.70825 55.5512 -3.71886 55.7625 -3.76594L56.4341 -3.45829C56.7253 -3.58313 57.0944 -3.65162 57.5192 -3.65961C57.9439 -3.6676 58.4155 -3.61492 58.9052 -3.50477C59.427 -3.38528 59.957 -3.30474 60.4985 -3.1784C61.6168 -2.93688 62.7053 -2.78918 63.73 -2.73987C65.256 -2.59376 66.7469 -2.48079 68.2864 -2.29863C69.2495 -2.2107 70.1878 -2.16234 71.0958 -2.1538C72.1836 -2.11941 73.3601 -1.95291 74.5688 -1.66235C74.5115 -1.38973 73.9815 -1.47027 73.6258 -1.4795C72.4783 -1.52481 71.3039 -1.64222 70.1233 -1.73043C69.5915 -1.76486 69.0743 -1.7779 68.5748 -1.76946C67.7397 -1.78076 66.8593 -1.85339 65.9487 -1.98613C64.5103 -2.13218 63.1178 -2.20239 61.7855 -2.19603C61.6811 -2.18524 61.5854 -2.1661 61.5 -2.13895C61.4822 -2.11544 61.4787 -2.08578 61.4898 -2.05284C61.5009 -2.01989 61.5263 -1.98474 61.5635 -1.95078C61.6007 -1.91682 61.6484 -1.88517 61.7022 -1.85886C61.756 -1.83255 61.814 -1.81246 61.8707 -1.80052C62.3998 -1.61577 62.9682 -1.41734 63.4672 -1.38943C63.4864 -1.38734 63.507 -1.38258 63.5273 -1.37547C63.5477 -1.36838 63.5673 -1.35912 63.5847 -1.34837C64.7018 -0.958344 65.6203 -1.02434 66.4905 -0.960888C67.9352 -0.789389 69.328 -0.709279 70.6476 -0.721774C70.847 -0.720925 71.0624 -0.698632 71.2858 -0.655696C72.6679 -0.481661 73.9603 -0.462197 75.1023 -0.598183C75.5724 -0.632635 76.0094 -0.709975 76.5145 -0.711268C76.8257 -0.716593 77.0965 -0.765945 77.3107 -0.856377C77.525 -0.946809 77.6782 -1.07645 77.7612 -1.2375C77.9743 -1.1527 78.1907 -1.07714 78.4079 -1.0117C78.5376 -0.974286 78.662 -0.964345 78.7559 -0.983926C78.8498 -1.0035 78.9063 -1.05114 78.9139 -1.11719C78.9528 -1.30218 78.6568 -1.39508 78.4 -1.4743C78.5549 -1.51397 78.7294 -1.53731 78.9194 -1.54375C79.9896 -1.58602 81.1375 -1.53613 82.3382 -1.39518C83.2704 -1.22647 84.0146 -1.36379 84.9953 -1.12587C85.1129 -1.08481 85.2097 -1.14507 85.318 -1.15954C85.6002 -1.23573 85.9517 -1.25286 86.3421 -1.20942C86.7326 -1.16598 87.1501 -1.06328 87.5585 -0.910244C88.0672 -1.32835 89.1658 -0.850698 89.9772 -0.807772C90.2271 -0.59514 89.9404 -0.632522 89.9281 -0.574104C89.9158 -0.515687 89.9281 -0.574117 89.8301 -0.608329C89.02 -0.307206 87.9101 -0.241545 86.6562 -0.420576C86.4243 -0.419833 86.2033 -0.406115 85.9954 -0.379555C85.6805 -0.34196 85.3255 -0.345715 84.9459 -0.390651C84.5311 -0.423654 84.1501 -0.40798 83.8213 -0.344386C83.6321 -0.345418 83.472 -0.313561 83.3561 -0.251741C83.2401 -0.189919 83.172 -0.10014 83.1579 0.00924964C83.2842 0.0935817 83.4243 0.170746 83.5727 0.237679C84.3473 0.501961 85.1198 0.611353 85.7381 0.544335C86.8142 0.428863 88.0948 0.541547 89.2391 0.502124C90.0126 0.486155 90.8357 0.531643 91.6929 0.637744C91.6929 0.637744 91.6703 0.744842 91.6683 0.754578C91.7697 0.800948 91.8762 0.838153 91.9819 0.864061C91.9819 0.864061 91.9819 0.864061 91.9921 0.81538C91.9451 0.768633 91.8814 0.724653 91.8084 0.688536L91.5536 0.59958C91.7268 0.576428 91.8886 0.507507 92.069 0.549615C92.4493 0.627854 92.8127 0.660882 93.1374 0.64674C93.4622 0.632602 93.7415 0.571571 93.9586 0.467326C94.3434 0.333719 94.8219 0.272957 95.3634 0.288972C95.7784 0.274386 96.1783 0.243035 96.5612 0.195079C96.5612 0.195079 96.5858 0.078253 96.7672 0.01616C96.5954 -0.0604247 96.4163 -0.122963 96.238 -0.168581C95.4626 -0.282559 94.6851 -0.386799 93.9231 -0.464721C93.6425 -0.473141 93.3786 -0.460083 93.1366 -0.425809C92.4662 -0.385699 91.713 -0.442626 90.9209 -0.593266C90.9209 -0.593266 90.7641 -0.648005 90.6857 -0.675375C90.908 -0.932193 91.6743 -0.675088 91.9844 -0.849013C92.173 -0.845846 92.5051 -0.823977 92.4937 -0.869761C92.4678 -0.930864 92.4647 -0.987624 92.4846 -1.03598C92.5045 -1.08433 92.5469 -1.12307 92.6087 -1.14943C92.6706 -1.17579 92.7503 -1.18911 92.8423 -1.18843C92.9342 -1.18776 93.0362 -1.17309 93.1406 -1.14551C94.013 -0.996296 94.8346 -0.954805 95.5553 -1.02357C95.8285 -1.02224 96.1347 -0.978017 96.4059 -0.966952C96.5719 -0.953629 96.7234 -0.961039 96.8522 -0.988777C97.5073 -1.19308 98.3889 -1.208 99.3645 -1.0313C99.836 -0.967769 100.277 -0.959274 100.664 -1.00625C100.939 -1.01465 101.055 -0.869402 101.251 -0.800975L102.084 -0.656732L101.015 -0.475995C101.243 -0.0617979 101.425 0.0747773 101.798 0.100581C102.343 0.139551 102.873 0.157156 103.386 0.153287C103.765 0.149884 104.079 0.060682 104.592 0.219116C104.683 0.244959 104.77 0.253322 104.84 0.242806C105.441 0.102149 106.165 0.0698696 106.963 0.148168C107.376 -0.115221 108.08 0.140861 108.731 0.347193C108.941 0.148792 108.56 0.0577188 108.333 -0.0633379C108.877 -0.0509455 109.426 -0.0580207 109.988 -0.0290509C110.157 -0.039599 110.35 -0.0215564 110.552 0.0236522C110.754 0.0688598 110.96 0.139998 111.153 0.231505C111.247 0.29063 111.361 0.335128 111.47 0.355761C111.579 0.376392 111.676 0.37158 111.74 0.342318C112.031 0.256021 112.498 0.335503 112.74 0.189735C112.825 0.156208 112.948 0.151529 113.085 0.176511C113.222 0.201492 113.366 0.254523 113.489 0.326091C113.354 0.34842 113.234 0.383584 113.131 0.430805C112.762 0.584203 112.897 0.840512 113.366 1.21314C114.085 1.19265 114.82 1.19847 115.487 1.12824C115.859 1.06519 116.315 1.0849 116.803 1.18515C117.291 1.2854 117.792 1.4622 118.25 1.6957C118.416 1.78548 118.605 1.84766 118.779 1.8699C118.954 1.89214 119.102 1.87281 119.193 1.81572C119.249 1.74971 119.267 1.66616 119.244 1.57232L118.773 1.4081C118.773 1.4081 118.792 1.32047 118.796 1.301L119.472 1.28628C119.83 1.28577 120.203 1.31158 120.541 1.30423C121.038 1.25533 121.605 1.28258 122.207 1.38431C122.763 1.48862 123.309 1.56746 123.841 1.62015C124.355 1.67438 124.728 1.5015 125.218 1.47389C125.588 1.45308 125.995 1.47532 126.424 1.53974C127.165 1.654 127.844 1.65421 128.401 1.54036C129.051 2.15377 129.366 2.25351 129.969 2.08775L130.253 2.0404L130.33 2.17197L130.547 2.14304C130.952 2.11727 131.357 2.09151 131.78 2.08232C132.367 2.13924 133.002 2.2924 133.621 2.52684C133.739 2.56789 133.899 2.70738 134.002 2.81659C134.106 2.9258 134.331 3.25525 134.496 3.46972C134.316 3.62628 134.116 3.776 133.973 3.95598C133.959 3.98673 133.96 4.0234 133.977 4.06303C133.994 4.10267 134.026 4.14418 134.071 4.1842C134.116 4.22423 134.172 4.26167 134.235 4.29351C134.298 4.32536 134.366 4.35073 134.433 4.36756C134.565 4.40386 134.695 4.42806 134.818 4.43916C135.424 4.4583 136.004 4.44408 136.552 4.39661C136.752 4.32965 137.027 4.32328 137.331 4.37854C137.636 4.4338 137.954 4.54752 138.234 4.70166C138.952 4.60912 139.786 4.63646 140.678 4.78177C141.623 4.69339 142.763 4.87211 143.645 4.67848C143.625 4.77584 143.716 4.94347 143.843 5.04005C144.044 5.18675 144.271 5.3227 144.516 5.44215L146.381 5.67538C146.451 5.79531 146.538 5.91671 146.641 6.03801C146.712 6.13382 146.836 6.22757 146.985 6.2994C147.135 6.37122 147.3 6.41548 147.444 6.42276C147.815 6.45831 148.126 6.37884 148.569 6.57517C147.887 6.76075 146.968 6.73609 145.975 6.50559C145.042 6.33029 144.144 6.24267 143.316 6.24601C143.043 6.24468 142.683 6.25492 142.597 6.36096C142.408 6.66067 141.913 6.61329 141.336 6.55801C140.882 6.4975 140.468 6.50428 140.127 6.57783C139.786 6.65138 139.528 6.78957 139.375 6.98105C139.336 7.16604 139.429 7.32393 139.827 7.43158L141.482 7.86321C141.726 7.80772 141.958 7.74203 142.176 7.66641C142.543 7.56598 142.997 7.53842 143.501 7.58586C144.006 7.6333 144.547 7.75448 145.084 7.93995C145.359 8.03575 145.633 8.13154 145.832 8.08603C146.007 8.03374 146.167 7.97114 146.313 7.89868C146.343 7.85012 146.354 7.79423 146.348 7.73316C146.454 7.76156 146.559 7.79848 146.661 7.84265C147.479 8.35792 148.112 8.349 148.687 8.21535C148.842 8.17562 148.961 8.11247 149.119 8.06301C149.276 8.01354 149.332 7.94934 149.475 7.96803C150.618 8.13702 150.947 7.57259 151.91 7.59526C151.957 7.57321 151.986 7.54024 151.994 7.49941C152.003 7.45858 151.991 7.41119 151.959 7.36159C151.891 7.31681 151.812 7.27831 151.73 7.24961C151.648 7.22091 151.565 7.20295 151.488 7.19737C151.045 7.12494 150.654 7.14715 150.381 7.26021C150.188 7.3064 149.984 7.34321 149.769 7.37043L148.805 6.55306C149.739 6.62799 150.622 6.6275 151.435 6.5516C151.612 6.50898 151.912 6.58241 152.162 6.59637L153.997 6.67276C154.374 6.6791 154.696 6.55096 155.222 6.84966C155.222 6.84966 155.569 6.89782 155.662 6.85703C155.755 6.81625 156.166 6.5626 156.411 6.39736C156.695 6.44447 157.089 6.5716 157.267 6.52897C157.576 6.42428 157.844 6.29008 158.066 6.12877L159.175 6.35906C159.173 6.56363 159.133 6.75608 159.054 6.93349C158.967 7.10458 158.97 7.30997 159.062 7.53284C159.155 7.75571 159.333 7.98974 159.584 8.21582L160.678 9.41318C160.857 9.49336 161.047 9.54733 161.224 9.56777C161.4 9.58821 161.554 9.57412 161.664 9.52741C162.135 9.38876 162.663 9.28037 163.134 9.14171C163.741 9.35383 163.585 9.69644 164.027 9.99697L165.457 10.4965C165.675 10.9593 165.898 11.4028 165.234 11.5577C165.102 11.5848 165.191 11.7622 165.071 11.8351C165.587 12.1824 166.154 12.2864 166.677 12.5004C166.883 12.6543 167.055 12.8171 167.186 12.9811C167.329 13.2281 167.619 13.4804 167.994 13.6835C168.368 13.8866 168.797 14.0242 169.187 14.0667C169.843 14.1967 170.513 14.392 171.17 14.6439C171.394 14.7314 171.624 14.7952 171.846 14.831C172.067 14.8667 172.273 14.8735 172.452 14.851C173.087 14.8114 173.624 14.675 174.029 14.4508C174.43 14.2606 174.97 14.1689 175.6 14.1841C176.678 14.5604 176.895 15.1275 177.548 15.627L176.421 15.683C176.38 15.8777 176.455 16.1232 175.993 16.1187C175.531 16.1142 175.765 16.3006 175.915 16.4887C175.968 16.5834 176.071 16.6807 176.206 16.7643C176.342 16.8479 176.502 16.9126 176.66 16.9474L177.619 17.1882C177.959 17.2799 178.288 17.319 178.57 17.3013C178.852 17.2837 179.076 17.2099 179.218 17.088C179.38 16.9724 179.604 16.8941 179.876 16.8581C180.223 16.7637 180.508 16.6234 180.721 16.4423L182.075 16.7061C182.133 16.5242 182.319 16.3966 182.602 16.345C182.885 16.2934 183.247 16.3208 183.628 16.4227L184.541 16.5846C185.556 16.7612 185.778 16.7031 186.075 16.1902L184.858 15.2742C185.035 15.0329 185.206 14.8208 185.377 14.6087C185.074 14.3069 184.669 14.0214 184.205 13.7813C183.771 13.5233 183.325 13.2734 182.868 13.0326C182.373 12.7866 181.85 12.5726 181.235 12.2952C181.128 12.2055 180.972 12.0465 180.773 11.8934C180.573 11.7446 180.365 11.5987 180.149 11.4563C180.19 11.2616 180.227 11.0863 180.148 10.8603C180.527 10.9324 180.918 11.0585 181.287 11.2273C181.655 11.3961 181.99 11.6023 182.259 11.8271C182.305 11.867 182.36 11.9045 182.422 11.937C182.484 11.9695 182.552 11.9963 182.619 12.0156C183.285 12.1538 183.602 12.4424 183.928 12.7964C184.147 12.9773 184.429 13.138 184.736 13.2561C185.324 13.4614 185.899 13.7251 186.461 13.9527C186.634 14.0286 186.812 14.091 186.991 14.1375C187.578 14.2852 188.17 14.4917 188.735 14.7465C188.919 14.8112 189.096 14.8969 189.251 14.9964C189.406 15.0959 189.534 15.2063 189.624 15.3183C189.484 15.4411 189.409 15.596 189.402 15.7738C189.378 15.8906 189.791 16.1288 189.986 16.3014C190.181 16.4741 189.798 16.3927 189.668 16.4101C189.135 16.4435 189.037 16.5135 189.356 16.8966C189.462 17.0171 189.533 17.1377 189.564 17.2508C189.594 17.3639 189.584 17.4672 189.533 17.5543C189.457 17.9145 189.227 18.2103 189.069 18.5626C189.314 18.7947 189.725 19.0426 189.77 19.3299C189.791 19.3937 189.837 19.4612 189.903 19.5277C189.969 19.5941 190.054 19.6578 190.152 19.7142C190.41 19.8358 190.644 19.9812 190.837 20.1392C191.03 20.2972 191.176 20.4635 191.265 20.6252C191.293 20.6921 191.363 20.7631 191.459 20.8239C191.556 20.8847 191.672 20.9309 191.785 20.9531C191.919 20.9805 192.04 20.9768 192.121 20.9431C192.203 20.9093 192.239 20.8479 192.222 20.7716C192.226 20.6282 192.208 20.4788 192.169 20.3245C192.192 20.2174 192.214 20.1103 192.125 19.9329C192.527 19.9976 192.949 20.1274 193.345 20.308C193.741 20.4886 194.096 20.7132 194.371 20.9574C194.676 21.2101 194.957 21.4753 195.294 21.7709C195.225 22.1019 195.225 22.1019 195.943 22.6871L199.754 22.9726L200.535 23.3602C201.263 23.6981 201.436 23.675 201.894 23.5003L202.202 23.3361C202.848 23.5619 203.593 23.8219 203.998 23.3988C204.129 23.6746 204.215 23.7672 204.185 23.809C203.992 24.216 203.656 24.5613 203.192 24.8313C203.073 24.8944 202.99 24.9907 202.852 25.0471C202.407 25.3649 202.303 25.856 202.563 26.4199C202.692 26.6694 202.879 26.9249 203.119 27.1783C202.768 27.5298 202.304 27.821 201.738 28.0442C201.257 28.2169 200.862 28.4481 200.562 28.7312C200.294 29.0167 199.891 29.2313 199.378 29.3627C199.118 29.4186 198.928 29.5288 198.827 29.6824C198.797 30.0983 198.866 30.5435 199.032 31.0081C199.063 31.1495 199.152 31.3023 199.292 31.4544C199.431 31.6064 199.618 31.7537 199.836 31.8847C199.836 31.8847 199.942 31.9842 199.992 32.0436C200.035 32.5472 199.877 32.991 199.529 33.3451C199.472 33.4456 199.356 33.5182 199.193 33.5551C199.029 33.5919 198.825 33.5917 198.602 33.5543C198.131 33.4943 197.69 33.4869 197.235 33.4532C196.744 33.4055 196.311 33.4431 195.983 33.562C195.654 33.6808 195.442 33.8766 195.368 34.1286C195.363 34.2 195.349 34.2683 195.325 34.3331C195.311 34.3665 195.303 34.4023 195.302 34.4402L196.349 35.2654L195.165 35.594C195.095 35.9251 195.664 36.1235 195.948 36.3693L195.772 36.5064C195.546 36.584 195.24 36.4356 194.964 36.3495L194.69 36.2537L194.657 36.4095C194.486 36.6216 193.863 36.3831 193.62 36.5387C193.377 36.6942 193.55 36.8697 193.915 37.0386C194.168 37.1642 194.44 37.2644 194.71 37.3315C194.98 37.3987 195.241 37.4311 195.474 37.4263C195.613 37.4097 195.728 37.3717 195.813 37.3148C196.304 37.0722 196.847 36.8636 197.438 36.6907C197.89 36.5353 198.457 36.4692 199.098 36.4971C199.286 36.4853 199.513 36.5221 199.739 36.601C199.965 36.6798 200.175 36.7956 200.333 36.9281L200.665 36.95C200.665 36.95 200.846 37.0866 200.821 37.1089C200.694 37.5136 200.841 38.0083 201.239 38.5197L200.893 38.566C200.398 38.5186 200.712 38.8267 200.638 38.9786C200.286 38.9499 199.83 38.8217 199.663 39.0143L199.413 39.0004L199.511 39.0346L199.63 38.9714L200.095 39.2593C199.875 39.3077 199.715 39.3669 199.52 39.393C199.413 39.4156 199.327 39.4556 199.268 39.5106C199.21 39.5656 199.18 39.6344 199.179 39.7129C199.18 39.8337 199.122 39.9354 199.011 40.0082C198.9 40.081 198.739 40.1226 198.545 40.1289C198.313 40.1315 198.18 40.2629 198.044 40.3094L198.635 41.101C198.635 41.101 198.341 40.9984 198.501 41.1378L198.522 41.0405L198.88 41.2386C199.138 41.4123 199.318 41.4544 199.471 41.33C199.623 41.2055 199.588 41.371 199.661 41.3234C199.635 41.45 199.469 41.5384 199.327 41.6142C199.162 41.6737 198.977 41.7175 198.773 41.7449C199.14 42.3015 199.158 42.3181 198.622 42.4654C198.086 42.6127 198.271 42.8341 197.822 42.8656C197.374 42.8972 197.884 43.2737 198.184 43.3472C198.406 43.3955 198.633 43.4707 198.849 43.5676C199.065 43.6645 199.264 43.7809 199.433 43.9088L199.343 44.3372C199.211 44.3017 199.079 44.2556 198.951 44.2003C198.517 43.965 198.122 43.7435 197.735 43.8803L197.919 44.2058L196.571 44.0171C196.605 44.261 196.811 44.5389 197.144 44.792C197.094 44.9311 197.063 45.0775 197.052 45.2302C197.029 45.3373 196.896 45.2699 196.81 45.2815C196.501 45.2994 196.247 45.372 196.071 45.4928C195.896 45.6137 195.803 45.7791 195.801 45.9745C195.767 46.1401 196.241 46.4835 196.538 46.4722C197.28 46.5052 198.081 46.6325 198.9 46.8473C199.399 46.8752 199.469 46.44 200.29 46.7371C200.307 46.938 200.201 47.1008 199.991 47.2006C199.78 47.3005 199.475 47.3321 199.122 47.2907C199.323 47.737 200.434 47.8533 200.483 48.3199C200.207 48.287 199.911 48.2094 199.625 48.0949C199.339 47.9805 199.073 47.833 198.854 47.6672C198.806 47.6264 198.747 47.5887 198.681 47.5577C198.614 47.5267 198.544 47.5034 198.475 47.4899C198.407 47.4764 198.343 47.4732 198.289 47.4805C198.235 47.4879 198.193 47.5056 198.167 47.5319C198.321 47.7006 198.49 47.8956 198.683 48.078C198.876 48.2604 198.923 48.3393 199.062 48.3775C200.1 48.7401 200.594 49.3933 201.493 49.822C201.728 49.9041 201.757 50.1651 201.553 50.1356C201.359 50.1061 201.183 50.11 201.045 50.1468C200.908 50.1836 200.813 50.2519 200.773 50.344C200.622 50.4515 200.435 50.537 200.215 50.5985C201.136 51.2687 202.235 51.8609 203.408 52.3195C203.63 52.4102 203.862 52.4654 204.069 52.4772C204.724 52.4779 205.419 52.531 206.139 52.6357C206.395 52.6642 206.631 52.6616 206.835 52.6278C207.504 52.5479 208.035 52.7229 208.521 53.2163L209.324 53.9984C209.297 54.125 209.163 54.266 209.059 54.4597L209.686 54.8773L214.474 53.9155L215.436 54.8468L216.814 54.795C216.92 54.8219 217.026 54.859 217.127 54.9045C217.406 55.1795 217.624 55.4437 217.927 55.706C218.229 55.9684 218.769 56.0003 219.146 56.3095C219.523 56.6187 219.9 56.625 220.366 56.8087C220.41 57.048 220.365 57.2635 220.233 57.4416C220.19 57.646 219.953 57.7723 219.913 57.9671C219.917 58.1639 219.829 58.3309 219.656 58.4532C219.484 58.5754 219.232 58.6489 218.924 58.667C218.061 59.086 217.021 59.3844 215.835 59.5531C215.73 59.5654 215.644 59.5937 215.581 59.6363C215.517 59.6789 215.479 59.735 215.467 59.801C215.469 59.992 215.389 60.157 215.235 60.2841C215.081 60.4111 214.856 60.4968 214.576 60.5351C214.502 60.5428 214.446 60.5668 214.415 60.6041C214.308 60.6281 214.231 60.6741 214.19 60.7377C214.149 60.8013 214.146 60.8802 214.18 60.9669C214.215 61.0536 214.287 61.1451 214.388 61.2326C214.489 61.3201 214.617 61.4006 214.759 61.4664C214.965 61.5723 215.176 61.6737 215.39 61.7701C215.377 61.8285 215.165 61.838 215.196 61.8906C215.28 62.0586 215.299 62.216 215.253 62.3503C215.206 62.4846 215.095 62.5922 214.928 62.6645L216.072 64.0255C216.767 64.214 217.448 64.5337 217.987 64.924C217.988 64.9879 217.957 65.0415 217.897 65.0793C217.838 65.1172 217.751 65.138 217.647 65.1397C217.368 65.1676 217.104 65.2218 216.803 65.2526C216.619 65.2756 216.466 65.3262 216.353 65.4014C216.239 65.4767 216.168 65.5751 216.143 65.6909L216.815 66.1973C216.6 66.3207 216.44 66.3799 216.298 66.4556C216.378 66.6148 216.517 66.7793 216.703 66.9366C216.888 67.0939 217.117 67.2397 217.369 67.3627C217.437 67.3881 217.506 67.4066 217.573 67.4173C217.639 67.4279 217.701 67.4304 217.756 67.4246C218.276 67.251 218.885 67.5575 219.476 67.8475C220.067 68.1376 220.388 68.3123 220.825 68.5378L221.66 68.5681C221.871 68.6749 222.06 68.8005 222.211 68.9348C222.361 69.0691 222.47 69.2084 222.528 69.3415C222.483 69.5557 222.087 69.4384 221.851 69.4605C221.291 69.5938 220.555 69.5653 219.764 69.3798C219.568 69.3114 219.367 69.3667 219.176 69.3732C218.765 69.3999 218.37 69.4433 217.992 69.5032C217.744 69.5589 217.511 69.6279 217.297 69.7097C217.239 69.9823 218.142 70.1929 217.63 70.3276C217.806 70.3892 217.872 70.475 217.963 70.4439C218.544 70.621 219.116 70.7085 219.614 70.6963C220.568 70.6587 221.652 70.783 222.777 71.0588C223.991 71.3446 225.155 71.4646 226.174 71.409C226.563 71.4057 226.996 71.4642 227.443 71.5801C227.97 71.7405 228.493 71.8414 228.979 71.8762C229.14 71.8774 229.319 71.9047 229.502 71.9559C229.685 72.0071 229.867 72.0806 230.032 72.1707C230.018 72.2388 229.86 72.2883 229.895 72.3215C230.398 72.8315 230.602 73.3625 231.376 73.8835C231.905 74.0683 232.513 74.2804 232.859 74.0354C233.205 73.7905 233.081 73.5799 232.392 72.9528C232.542 72.9438 232.722 72.9731 232.901 73.0356C233.08 73.0982 233.247 73.1899 233.372 73.295L233.968 73.7642L234.504 74.2129C234.457 74.4368 234.421 74.612 234.382 74.797C234.32 74.9935 234.388 75.2327 234.574 75.4809C234.687 75.6165 234.785 75.7521 234.868 75.8865C235.203 76.4239 235.301 76.9319 235.149 77.3535C234.857 77.9597 234.451 78.5174 233.936 79.0202C233.391 79.5094 233.093 80.1264 232.644 80.6595C232.415 80.9023 232.138 81.1199 231.813 81.31C231.199 81.7328 230.525 82.1352 229.908 82.5677C229.291 83.0003 228.595 83.311 227.91 83.6676C226.89 84.0907 225.787 84.4561 224.608 84.7618C223.879 85.0297 223.13 85.2907 222.455 85.5986C221.658 85.9456 220.722 86.1948 219.67 86.34C218.74 86.5138 217.91 86.7708 217.194 87.1061C217.119 87.1424 217.06 87.1886 217.018 87.2432C216.89 87.5852 216.529 87.8262 215.991 87.9295C216.023 88.0296 216.065 88.1314 216.116 88.2345C216.19 88.3573 216.206 88.4722 216.16 88.5643C216.115 88.6565 216.01 88.7216 215.86 88.7513C215.43 88.836 215.072 88.9798 214.803 89.1764C214.704 89.2258 214.643 89.2976 214.624 89.3858C214.606 89.474 214.63 89.5759 214.696 89.6827C214.755 89.7927 214.759 89.8939 214.709 89.9732C214.658 90.0525 214.555 90.1062 214.414 90.1274C214.049 90.2315 213.659 90.3153 213.246 90.3782C212.366 90.5168 211.343 90.5152 210.239 90.3733C210.121 90.3322 210.003 90.3954 209.866 90.3475C209.084 90.1885 208.359 90.1639 207.777 90.2766C207.094 90.3205 206.381 90.3118 205.661 90.3323C204.622 90.3185 203.663 90.4022 202.811 90.5808C201.838 90.4082 201.291 90.7084 200.469 90.7142C199.711 90.745 198.992 90.819 198.319 90.9354C197.235 91.0898 196.155 91.2247 195.086 91.4055C194.083 91.4917 193.16 91.6563 192.332 91.8966C192.014 92.0053 191.44 91.8361 191.224 92.0637C191.008 92.2913 190.572 92.2644 190.219 92.3399L189.107 92.5265C188.916 92.5708 188.705 92.599 188.479 92.6104C187.445 92.6256 186.729 92.9295 185.77 92.9916L185.672 92.9573C183.968 93.4091 182.018 93.6571 179.879 93.6939C178.63 93.8325 177.264 93.8259 175.938 93.9274C175.622 94.1305 174.875 93.8802 174.479 94.0657C174.082 94.2512 173.434 94.1296 172.923 94.1601C172.412 94.1906 171.912 94.2669 171.365 94.2643C170.891 94.2652 170.49 94.348 170.2 94.5053C169.537 94.7653 168.729 94.9181 167.812 94.957C166.599 95.0246 165.451 95.1779 164.217 95.1442C164.235 95.3337 164.159 95.4949 163.998 95.6112C163.837 95.7276 163.596 95.7949 163.3 95.8062C161.98 95.8785 160.784 96.0669 159.447 96.1226L159.089 96.1231L155.09 96.2319C154.013 96.2529 152.975 96.2876 151.876 96.3115C151.464 96.1678 151.454 96.4151 151.17 96.368C151.09 96.2462 150.996 96.1925 150.856 96.2585L150.825 96.4046L146.262 96.5983C144.475 96.74 142.596 96.7825 140.639 96.7254C140.175 96.7398 139.742 96.7881 139.347 96.8698C138.98 96.8997 138.598 96.9128 138.203 96.9093C137.668 96.8725 137.145 96.8539 136.637 96.8537C135.3 96.9094 133.896 96.8793 132.432 96.8385C130.968 96.7976 129.859 96.8702 128.556 96.8646C127.674 96.8596 126.795 96.8351 125.882 96.7774C125.446 96.7506 124.908 96.6048 124.457 96.5516C124.005 96.4984 123.858 96.4992 123.798 96.5829C123.601 96.8173 123.107 96.6657 122.713 96.6428C121.942 96.6038 121.833 96.5238 121.624 95.9178L122.569 95.7252C122.8 95.6631 123.092 95.6521 123.415 95.6935C123.738 95.7349 124.081 95.8271 124.413 95.9614C124.543 96.0189 124.679 96.0644 124.814 96.0951C124.948 96.1259 125.078 96.1413 125.195 96.1406C126.149 96.1077 127.089 96.0388 128.005 95.9826L128.139 95.9457L128.148 95.4052C128.027 95.3522 127.901 95.3083 127.775 95.2752L123.179 94.9245C122.124 94.8384 121.029 94.6442 119.994 94.5649C118.959 94.4857 118.401 94.4372 117.598 94.3553C117.259 94.3087 116.913 94.2474 116.563 94.1719C116.584 94.1198 116.595 94.0645 116.598 94.0064C116.617 93.9188 116.641 93.8019 116.493 93.7082C116.33 93.576 116.114 93.463 115.886 93.3919C115.672 93.3449 115.464 93.3183 115.271 93.3132C114.339 93.2679 113.274 92.9824 112.304 92.5176L111.965 92.8278C110.509 92.6536 109.03 92.4822 107.508 92.3166C107.203 92.2714 106.883 92.1848 106.573 92.0631C106.239 91.9468 105.933 91.7039 105.582 91.571C105.236 91.4754 104.891 91.4008 104.556 91.3486C104.647 91.2688 104.767 91.205 104.911 91.1592C105.054 91.1431 105.158 91.0933 105.208 91.0168C105.258 90.9403 105.252 90.8413 105.19 90.734C105.082 90.5497 105.034 90.3763 105.27 90.3542C105.488 90.3122 105.644 90.2213 105.72 90.0922C105.795 89.963 105.787 89.801 105.697 89.6253C105.657 89.5226 105.629 89.4221 105.613 89.3243L105.515 89.2901C105.191 88.9264 104.546 88.7951 104.083 88.4975C103.864 88.4112 103.638 88.3615 103.439 88.3564C102.927 88.2924 102.428 88.2645 101.898 88.184C101.644 88.1469 101.38 88.0793 101.119 87.9852C100.747 87.8552 100.707 87.8415 100.491 87.3689C100.827 87.3772 101.093 87.3066 101.245 87.1691C101.396 87.0315 101.424 86.8356 101.323 86.6143C101.046 86.1309 100.753 85.6212 99.5003 85.2777C99.9089 85.2607 100.302 85.2271 100.679 85.177C100.788 85.1661 100.87 85.1306 100.913 85.0752C100.957 85.0197 100.96 84.9469 100.922 84.8666C100.884 84.7863 100.807 84.7022 100.701 84.6257C100.595 84.5491 100.465 84.4837 100.329 84.4383C99.6676 84.1648 98.9775 83.9818 98.3364 83.9098C97.7961 83.878 97.3085 83.8958 96.6776 83.895L95.9328 83.635C95.9451 83.5766 95.8358 83.4966 95.8635 83.4645C96.0528 83.1648 96.2616 82.8719 96.4765 82.5498C96.1332 82.3759 95.8357 82.1659 95.6182 81.944C95.4007 81.722 95.272 81.497 95.2468 81.2948C95.2282 81.2338 95.2331 81.1782 95.261 81.132C95.2889 81.0857 95.3391 81.05 95.4082 81.0272C95.6042 80.9881 95.7556 80.9134 95.8505 80.8088C95.9455 80.7043 95.9814 80.5726 95.9557 80.4241L95.3766 79.877C93.6329 79.4866 91.9204 79.2078 90.2712 79.0455L88.7823 78.9228C88.6027 78.7765 88.6583 78.7123 88.8274 78.7086C88.9964 78.705 89.4718 78.7455 89.8037 78.7674C90.0904 78.7961 90.3451 78.7772 90.5429 78.7126C90.7408 78.648 90.8752 78.5399 90.9331 78.3987L90.4332 77.7748C90.4577 77.658 90.4925 77.4924 90.7636 77.5035C90.9489 77.49 91.0854 77.4312 91.1511 77.3366C91.2168 77.2419 91.2079 77.1171 91.1258 76.982C91.1133 76.8843 91.132 76.7953 91.181 76.7191C91.582 76.7128 91.981 76.7162 92.3449 76.6865C92.5143 76.6767 92.6574 76.6405 92.7644 76.5805C92.8714 76.5204 92.9399 76.438 92.965 76.3387C92.9781 76.2418 92.9461 76.1314 92.8716 76.0164C92.7971 75.9014 92.6821 75.7851 92.5361 75.6768C91.9658 75.5429 91.4442 75.5412 91.0856 75.672C90.9577 75.7746 90.7524 75.8307 90.4966 75.8328C90.2407 75.8349 89.9465 75.7829 89.6526 75.6838C89.3161 75.5696 88.9803 75.5194 88.7055 75.5422C88.4308 75.5651 88.2352 75.6595 88.1539 75.8085C87.8084 75.7506 87.5022 75.7064 87.2 75.6427C86.8436 75.5623 86.5067 75.5387 86.2257 75.5742C85.7761 75.5993 85.2917 75.5846 84.7833 75.5305C83.3182 75.3951 81.851 75.2696 80.4323 75.2132C80.057 75.1971 79.7324 75.2405 79.3612 75.205C78.99 75.1694 78.6963 75.2655 78.2321 75.072C78.1437 75.042 78.0547 75.0227 77.9722 75.0156C77.8897 75.0086 77.816 75.014 77.7568 75.0315C76.9416 75.1845 75.9858 75.2061 74.9456 75.0951C73.5208 75.0679 72.0434 74.991 70.6165 74.9736C70.1981 74.9886 69.8026 75.0288 69.4343 75.0938C69.1539 75.1331 68.8603 75.1597 68.555 75.1735C68.321 75.1858 68.0972 75.1495 68.1367 75.3618C68.1762 75.5742 67.8255 75.4413 67.6234 75.4021C66.929 75.2991 66.2192 75.1597 65.5021 74.9855C64.7955 74.7961 64.1032 74.6859 63.4666 74.6614C63.0068 74.6472 62.5326 74.7011 61.9415 74.4111C61.964 74.304 61.9865 74.1969 62.1152 74.0851C61.6331 73.7774 61.083 73.5126 60.5105 73.3127C59.938 73.1128 59.3594 72.9835 58.8227 72.9355L58.0826 72.3532C57.9004 72.2848 57.7144 72.235 57.5359 72.2068C57.3574 72.1786 57.1901 72.1726 57.0442 72.1892C56.9315 72.1976 56.7941 72.176 56.6573 72.1282C56.5205 72.0804 56.3935 72.0098 56.2995 71.9291C56.1589 71.8266 55.9873 71.7382 55.806 71.6749C55.6248 71.6116 55.4419 71.5762 55.2804 71.5733C54.7719 71.51 54.2291 71.3638 53.7076 71.1496C53.5722 71.024 53.4874 70.8943 53.4636 70.7765C53.4398 70.6586 53.4781 70.5577 53.5736 70.4862C53.7277 70.36 53.8142 70.1992 53.8279 70.0136C53.8416 69.828 53.7822 69.6214 53.6534 69.4063C53.5874 69.2742 53.5654 69.1492 53.5886 69.0388C53.6118 68.9283 53.6798 68.8348 53.7885 68.7637C54.1942 68.4351 54.0856 68.2508 53.4219 67.7056C53.3141 67.6147 53.1841 67.5297 53.0403 67.4561C52.8964 67.3825 52.7418 67.3218 52.5862 67.2779C52.2212 67.1891 51.8612 67.123 51.5127 67.0808C51.3167 67.0124 51.1158 67.0676 50.8899 67.041C49.7609 66.9081 49.5956 66.6936 49.2299 66.2315L48.9634 65.8981C48.4692 65.628 47.9287 65.4037 47.3808 65.2414C46.8329 65.079 46.2913 64.9826 45.7951 64.9591C45.5978 64.9573 45.371 64.9112 45.1495 64.8277C44.4285 64.5726 43.6984 64.396 43.0074 64.3098C42.5769 64.2612 42.1128 64.1355 41.6708 63.9479C41.2289 63.7602 40.8279 63.5185 40.5161 63.2518C40.236 63.0116 39.8695 62.796 39.4677 62.635C38.9974 62.4708 38.9538 62.2779 39.2165 62.1292C39.4791 61.9805 39.9191 61.7893 40.3095 61.633C40.4454 61.5799 40.5296 61.4935 40.5527 61.3835C40.5759 61.2734 40.537 61.1441 40.4405 61.0099C40.3786 60.7801 40.3678 60.5622 40.4086 60.3612C40.4304 60.2777 40.4153 60.1819 40.3645 60.0804C40.3137 59.9788 40.2283 59.8739 40.114 59.7726C39.9997 59.6713 39.8593 59.576 39.7021 59.4931C39.5449 59.4103 39.3747 59.3418 39.2028 59.2923C38.4777 59.0391 37.7722 58.7927 37.0327 58.6077C36.7228 58.5205 36.4132 58.4124 36.1116 58.2861C35.4941 57.9737 34.8335 57.7147 34.1682 57.524C33.8524 57.4387 33.5437 57.2896 33.3088 57.109C32.568 56.6223 31.8854 56.1106 31.2734 55.5832C31.1259 55.4196 30.9329 55.26 30.7065 55.1144C30.4801 54.9688 30.2251 54.8403 29.9577 54.7371C29.7421 54.6618 29.5666 54.4961 29.4005 54.3858C29.2797 54.1304 29.2668 53.8942 29.363 53.6993C29.4592 53.5044 29.6613 53.3571 29.9503 53.2714C30.2244 53.1685 30.4809 53.049 30.7178 52.9227C31.0034 52.8206 31.3429 52.7593 31.7237 52.741C32.1747 52.6862 32.5083 52.5295 32.6808 52.2913C31.4461 51.8602 30.2719 51.2413 29.1897 51.3859L28.3674 50.9943C28.4002 50.8386 28.4288 50.7023 28.4554 50.5757C28.651 50.3453 28.7121 50.0547 28.6335 49.7286C28.5687 49.5709 28.5746 49.4273 28.6504 49.3125C28.7263 49.1977 28.8695 49.1156 29.0655 49.0747C30.2267 48.6546 31.5696 48.3709 32.6585 47.8942C33 47.8047 33.3996 47.764 33.8408 47.774C34.2675 47.7453 34.2497 47.53 33.7586 47.2645C33.4829 47.1258 33.2019 46.9928 32.9167 46.8661C31.6589 46.845 31.1466 47.4812 29.7112 47.3041L29.046 46.4657C28.8661 46.4527 28.6915 46.4476 28.5233 46.4504L26.1166 46.7911C25.9162 46.8081 25.7601 46.8664 25.6662 46.9592C25.5723 47.0521 25.5444 47.1758 25.5855 47.3163C25.6018 47.4882 25.5686 47.6458 25.4872 47.7836C25.4347 47.8801 25.4683 48.0083 25.5806 48.1402C25.8336 48.4375 25.5089 48.4809 25.3039 48.5557C25.2515 48.563 25.1911 48.5622 25.1261 48.5534C25.0612 48.5446 24.993 48.5279 24.9255 48.5043C24.8581 48.4808 24.7927 48.4508 24.7332 48.4162C24.6736 48.3815 24.6212 48.3429 24.5788 48.3025C24.2175 48.0196 23.9016 47.7212 23.5465 47.4091C23.7986 47.1104 23.5019 46.6202 23.8953 46.3499C23.9393 46.2959 23.9569 46.2302 23.9471 46.1566C23.9372 46.0831 23.9001 46.0034 23.838 45.9223C23.6778 45.7131 23.6015 45.5091 23.6168 45.331C23.6321 45.1528 23.7384 45.0068 23.9251 44.9076L23.9476 44.8005C23.4553 44.4405 23.5857 44.1203 23.3924 43.7393L22.9188 43.4903C21.7405 42.8908 21.7385 42.9005 20.7241 42.9226C20.5196 42.6944 20.7794 42.6597 20.9742 42.6337L22.6058 42.3777C23.6725 42.2067 24.7703 42.0884 25.9619 42.0237C27.1536 41.959 28.4821 41.7435 29.7138 41.5883C29.7761 41.5763 29.8237 41.5525 29.8527 41.519C29.8817 41.4855 29.8912 41.4432 29.8805 41.3957C29.8315 41.3443 29.7674 41.2948 29.693 41.2507C29.6185 41.2066 29.5355 41.1691 29.4502 41.141C29.0582 41.0041 28.6561 40.916 28.2384 40.8015L27.4597 40.6028L27.2201 40.3415C27.0642 40.1825 26.9577 39.9886 26.7503 39.8743C26.5794 39.7892 26.3939 39.7245 26.213 39.6871C26.0322 39.6497 25.8627 39.6409 25.7222 39.6617C25.3326 39.7138 24.9801 39.7893 24.608 39.8579C24.236 39.9266 24.0309 40.0013 23.7083 40.035C23.0528 40.0503 22.4193 40.0908 21.8106 40.1562C21.2979 40.3111 20.8236 40.4946 20.3908 40.7056C20.1209 40.789 19.8684 40.889 19.4074 40.7803C19.1887 40.6817 19.0001 40.5523 18.8749 40.4148C18.7498 40.2774 18.6962 40.1409 18.7238 40.0295C18.7485 39.9422 18.8185 39.8732 18.9272 39.8288C19.0359 39.7845 19.1797 39.7663 19.345 39.7761C19.8078 39.7601 20.2356 39.7061 20.6201 39.6152C21.1552 39.4505 21.8066 39.3794 22.5362 39.4063C22.7837 39.43 22.9495 39.3416 23.166 39.3127C23.3824 39.2837 23.5658 39.2119 23.8071 39.2648C24.5568 39.4011 24.9163 39.1922 25.3656 39.0564C25.5176 38.9963 25.6119 38.899 25.6379 38.7753C25.6639 38.6516 25.6207 38.5063 25.5129 38.3554C25.3056 38.0549 25.0519 37.7527 24.7559 37.4536C24.6036 37.3066 24.4084 37.1669 24.1857 37.0457C23.963 36.9244 23.7188 36.8248 23.4723 36.7546C23.3248 36.5706 23.2461 36.3896 23.2433 36.2281C23.2406 36.0665 23.3139 35.9295 23.4565 35.8294C23.8201 35.601 24.1424 35.3687 24.957 35.4964C25.34 35.5451 25.7005 35.5544 26.024 35.524C26.7417 35.4823 27.5696 35.5736 28.4296 35.7891C28.6521 35.8443 28.8708 35.882 29.0793 35.901C30.5661 36.0334 31.9826 36.0995 33.4033 36.1462C34.1559 36.1686 34.9147 36.1618 35.7004 36.227C37.5428 36.3687 39.22 36.2959 40.9985 36.342C41.9299 36.3657 42.7635 36.2703 43.4558 36.0608C43.5906 35.9906 43.7064 35.9086 43.8018 35.8158C43.343 35.5724 42.8392 35.3797 42.3384 35.2561C41.8377 35.1325 41.3568 35.0822 40.9419 35.11C40.7139 35.1781 40.419 35.1906 40.0904 35.146C39.7618 35.1013 39.4122 35.0014 39.0807 34.8573L40.0445 34.7757C40.6836 34.7376 41.3383 34.7258 41.9598 34.6711C42.9473 34.5769 43.8625 34.4262 44.8851 34.3652C45.7107 34.3091 46.4495 34.1657 47.0782 33.9395C47.5325 33.7745 48.0513 33.6575 48.6241 33.5909C49.0313 33.5554 49.0313 33.5554 49.2916 33.2178C49.085 32.9994 48.818 32.9689 48.5664 32.9646C47.0583 32.8272 45.6231 32.8031 44.29 32.8929C43.6175 32.9008 43.0208 32.9934 42.5286 33.1662C42.4081 33.2391 42.0998 33.2046 41.8523 33.1809C41.0766 33.1449 40.3352 33.1553 39.637 33.2121C38.6716 33.3068 37.5965 33.2844 36.4533 33.1457C36.2366 32.9759 36.4861 32.9899 36.4984 32.9315C37.3838 32.8226 38.2516 32.6971 39.1546 32.6048C39.4014 32.5719 39.6653 32.5556 39.9431 32.5561C40.9806 32.6134 41.8452 32.4548 42.4156 32.1026C42.4443 31.9663 42.8196 31.9823 42.9854 31.8939C43.067 31.8174 43.1213 31.7273 43.1468 31.6263C42.9052 31.3747 42.632 31.3734 42.4217 31.3731C41.8114 31.4012 41.2244 31.4544 40.6633 31.5325C40.1417 31.6069 39.5643 31.6267 38.9468 31.5916C38.4911 31.5579 38.1015 31.61 37.6417 31.5958C37.3922 31.5659 37.1341 31.5178 36.8724 31.4526C37.1638 31.2773 37.5598 31.1694 38.0327 31.1366C38.3913 31.0319 38.8397 31.0004 38.897 30.7278C38.7277 30.5328 38.539 30.5296 38.3875 30.5498C38.0721 30.5491 37.7675 30.5614 37.4752 30.5866C36.8554 30.6421 36.1844 30.6428 35.4762 30.5889C35.1033 30.5688 34.7494 30.5748 34.4206 30.607C33.6753 30.6499 32.961 30.7454 32.2786 30.7893C30.8807 30.8342 29.6058 30.9952 28.2626 31.0802C27.9637 31.1012 27.6957 31.1749 27.3017 31.0478C26.9077 30.9206 26.8901 30.9041 26.8436 30.8251C26.7334 30.6934 26.7 30.5657 26.7503 30.4686C26.8285 30.3778 26.9807 30.3272 27.1799 30.3259C28.3806 30.1815 29.5195 29.9787 30.5894 29.7188C31.0602 29.6667 31.4727 29.5605 31.8126 29.4038C32.0821 29.2959 32.4018 29.2245 32.7617 29.1918C33.2851 29.1138 33.8308 29.0566 34.3965 29.0205C34.6597 29.0012 34.8835 28.9434 35.0548 28.8506C35.226 28.7578 35.3412 28.6319 35.3936 28.4803L34.7001 27.9769C34.5911 27.9535 34.483 27.9332 34.3763 27.9161L28.6201 28.2787L28.05 28.2887C27.4253 28.2587 27.2726 28.1845 26.6799 27.6013C28.0324 27.4641 29.0957 27.0643 29.7637 26.4415C29.6032 26.3746 29.4386 26.3171 29.2738 26.2705C28.1929 26.1232 27.1711 26.084 26.2478 26.1546C25.6993 26.1616 25.1354 26.1424 24.5694 26.1329C24.735 25.8458 25.3691 25.9314 25.7824 25.8667C26.7699 25.7654 27.6432 25.5562 28.3742 25.2458C28.6263 25.1247 28.9416 25.0473 29.3058 25.0171C29.6703 25.0067 29.9747 24.9335 30.1926 24.8037C30.4106 24.674 30.5354 24.4917 30.5562 24.2727C30.5905 24.0745 30.6645 23.8902 30.777 23.7228C30.578 23.4852 30.2619 23.2576 29.888 23.0829C29.5142 22.9081 29.1084 22.7981 28.7467 22.7735C27.9746 22.6757 27.1738 22.5156 26.3646 22.2971C25.9615 22.187 25.5662 22.1238 25.2045 22.1116C24.8855 22.1022 24.5228 22.0226 24.172 21.885C23.8211 21.7474 23.5012 21.5593 23.261 21.3494C22.9369 21.09 22.6344 20.8276 22.332 20.5652C22.0295 20.3028 21.6785 19.9713 21.3254 19.6494C21.0141 19.5991 20.711 19.5668 20.4201 19.5528C20.1939 19.5646 19.9298 19.5295 19.6591 19.4517C19.3885 19.3739 19.1225 19.2565 18.8926 19.1136C19.0275 18.9725 19.1799 18.8481 19.3404 18.6847C19.12 18.4689 18.9602 18.2488 18.8708 18.0379C18.7813 17.827 18.764 17.6296 18.82 17.4579C18.8528 17.3021 18.6132 17.0408 18.5304 16.8342C18.4238 16.6561 18.4038 16.4899 18.4729 16.3574C18.5421 16.2249 18.6972 16.1323 18.9179 16.0916C19.1917 16.0166 19.4145 15.9037 19.5772 15.7575C19.631 15.7195 19.6584 15.6675 19.6569 15.6062C19.6553 15.545 19.6249 15.4764 19.5684 15.4068C19.5119 15.3371 19.4311 15.2687 19.3334 15.2077C19.2357 15.1466 19.1242 15.095 19.0091 15.0575C18.6566 14.9511 18.3065 14.8821 17.9789 14.8545C17.4146 14.8038 16.8743 14.772 16.3581 14.759C15.7873 14.7394 15.1522 14.6186 14.5174 14.4089C13.949 14.2105 13.4395 14.0325 13.1616 13.6533C12.8837 13.2741 12.4394 13.2862 12.0977 13.0102C12.2896 12.7613 12.6308 12.5884 13.0866 12.5089C13.385 12.4806 13.634 12.4061 13.8178 12.2903C14.0015 12.1744 14.1159 12.0198 14.1537 11.8364L13.1164 11.0666C12.288 10.7043 11.8297 10.9832 10.9346 10.8379L11.8568 10.5537C11.8754 10.5256 11.8823 10.4927 11.8773 10.4564C11.7878 9.88166 11.6453 9.75876 10.7025 9.44005L10.1734 9.25531L9.33595 9.03606C9.20182 8.91828 9.10907 8.79546 9.06692 8.67987C9.02477 8.56428 9.03471 8.45998 9.09577 8.37741C9.21847 8.23854 9.25578 8.06108 9.20426 7.86139C9.12303 7.72909 9.11634 7.60715 9.18531 7.51669C9.25428 7.42623 9.39458 7.37297 9.58186 7.36617C9.73133 7.35565 9.74242 7.20276 9.82373 7.11619C9.90452 6.99687 10.0428 6.90531 10.2292 6.84774C10.4155 6.79018 10.6455 6.76793 10.9036 6.78256C11.6645 6.7945 12.3793 6.74972 13.0353 6.64898L12.9178 6.60793C13.6015 6.69636 14.2408 6.70708 14.8044 6.63958C15.3692 6.55461 16.094 6.60912 16.694 6.55731C17.1824 6.56919 17.5542 6.45159 17.7306 6.22947C17.9014 6.01739 18.5221 6.06688 18.9974 6.10742C19.2789 6.13365 19.5511 6.14476 19.8108 6.14063C20.1595 6.09263 20.5955 6.13788 21.0461 6.26884C21.1813 6.30909 21.3145 6.33039 21.4328 6.33069C22.5782 6.38574 23.7216 6.45051 24.8515 6.47925C25.1124 6.4627 25.4182 6.50059 25.7331 6.58848C25.8655 6.62664 25.9944 6.64244 26.1023 6.63377C27.8878 6.54649 29.9025 6.76919 31.6528 6.64874C31.865 6.6203 32.0998 6.61439 32.3508 6.63115C32.9146 6.70191 33.4043 6.65638 33.7454 6.50148C33.9294 6.41909 34.1654 6.37369 34.4382 6.36818C34.711 6.36266 35.0147 6.39715 35.3299 6.46944C35.8544 6.56517 36.3391 6.57555 36.733 6.49949C37.5009 6.42922 38.3085 6.40033 39.1493 6.41303C39.407 6.42533 39.6335 6.39802 39.8113 6.33323C39.989 6.26844 40.1133 6.1679 40.1745 6.0394C39.968 5.82099 39.7422 5.79441 39.5278 5.81361C38.6968 5.76384 37.8678 5.70433 37.0523 5.68087C36.3224 5.61388 35.6221 5.5934 34.9615 5.61973C34.6336 5.64944 34.2243 5.5817 33.8231 5.43128C33.3314 5.24077 32.8249 5.14612 32.4062 5.16648C32.0957 5.17153 31.768 5.15513 31.4278 5.11749C31.21 5.07211 30.9868 4.99418 30.781 4.8917C30.6994 4.84719 30.6105 4.80976 30.5201 4.78182C30.4297 4.75387 30.3399 4.73604 30.2561 4.72942C30.1724 4.72281 30.0966 4.72756 30.0338 4.74339C29.971 4.75923 29.9225 4.78581 29.8913 4.82141C29.5763 5.11901 28.8719 4.96713 28.2687 4.93421C27.3649 4.43052 26.6922 4.72865 25.8474 4.44415C25.7806 4.42529 25.7148 4.41386 25.654 4.4106C25.5932 4.40734 25.5387 4.41231 25.4938 4.42518C23.859 4.59641 21.9536 4.45371 20.2372 4.51284C20.0479 4.52149 19.8282 4.49185 19.6031 4.4273C18.1317 4.00004 16.7169 3.87875 15.6355 4.08714C15.5039 4.1059 15.3543 4.1067 15.1933 4.08949C14.4539 3.91969 13.7469 3.85199 13.1311 3.89204C12.1662 3.87911 11.2384 3.8896 10.2579 3.85034C9.58202 3.7945 8.98911 3.85416 8.53854 4.0234C8.52421 4.09156 8.22408 4.01812 7.99418 4.011C7.86195 3.83943 7.74732 3.68445 7.611 3.53235C7.48915 3.34417 7.3066 3.15374 7.07581 2.97399C6.84502 2.79424 6.57138 2.62936 6.27334 2.49051C5.76379 2.3126 5.71283 2.05443 6.06939 1.95946C6.98841 1.64522 8.14402 1.5166 9.45129 1.58305C10.5441 1.58836 11.6565 1.60053 12.7648 1.63215C13.4112 1.65928 14.0927 1.71955 14.7216 1.73011C14.9338 1.75329 15.1518 1.78746 15.3733 1.83224C15.6451 1.89717 15.909 1.93255 16.1508 1.93648C16.9272 1.8818 17.7936 1.92944 18.7087 2.07712C19.044 2.10932 19.3658 2.12017 19.6696 2.10952C20.3882 2.06943 21.1673 2.09893 21.9862 2.19724C22.4952 2.25268 22.9887 2.28167 23.4616 2.28389C23.6286 2.28995 23.7646 2.24338 23.9255 2.27865C25.3416 2.64764 26.3442 2.38112 27.6187 2.52301C28.2381 2.56257 28.8298 2.56268 29.3857 2.52335C30.4704 2.52525 31.5853 2.5657 32.7261 2.64454C34.2345 2.77408 35.6323 2.72913 37.0726 2.78261C37.357 2.79385 37.6315 2.79194 37.8943 2.77687C39.1725 2.67733 40.5608 2.69844 42.0253 2.83968C42.3579 2.86009 42.6565 2.83513 42.9026 2.76641C43.1488 2.69768 43.337 2.58666 43.4556 2.44028C43.5058 2.33981 43.4733 2.20933 43.3643 2.07399C43.1836 1.90114 42.9794 1.7318 42.7553 1.56873L34.6029 1.02154C34.2605 0.99297 33.9266 0.977591 33.6029 0.975461C32.6508 0.970706 31.6693 0.928135 30.6635 0.847971C29.6696 0.772668 28.7201 0.786037 27.7572 0.763363C27.4735 0.755769 27.1824 0.737849 26.885 0.709659C24.8744 0.486528 22.9139 0.350242 21.0173 0.301781C20.2194 0.294903 19.3573 0.192498 18.5439 0.159307C17.7304 0.126118 16.618 0.113965 15.6531 0.101027L12.6655 0.103015C12.0779 0.0964084 11.5057 0.116115 10.9356 0.126091C10.2438 -0.585743 10.0054 -0.752591 9.08226 -1.06446C8.76644 -1.1795 8.4452 -1.24815 8.1562 -1.26237C7.2398 -1.2061 6.08995 -1.44035 5.22093 -1.40933C4.69655 -1.42463 4.25159 -1.34556 3.9316 -1.1802C3.65383 -1.05042 3.33619 -0.947734 2.9836 -0.873684C2.01772 -1.48264 1.93259 -1.87814 2.65916 -2.03205C2.85601 -2.06783 3.12716 -2.05676 3.26931 -2.13254C3.35087 -2.17869 3.4623 -2.20508 3.5947 -2.20965C3.7271 -2.21421 3.87682 -2.19682 4.03212 -2.15883C4.52225 -2.05918 4.98165 -2.03574 5.36421 -2.09087C5.72425 -2.16384 6.16557 -2.16093 6.64563 -2.0824C6.9984 -1.95924 7.30846 -2.13315 7.61354 -2.1834C7.91862 -2.23365 8.16898 -2.32391 8.64547 -2.18889C8.73272 -2.16201 8.81935 -2.14587 8.8987 -2.14172C8.97805 -2.13756 9.04802 -2.1455 9.10324 -2.16492C9.61501 -2.25188 10.2257 -2.24274 10.8858 -2.13826C11.8981 -2.03545 12.8479 -2.0316 13.7023 -2.12683C14.2137 -2.21016 14.6497 -2.35793 14.9933 -2.56437C15.087 -2.63342 15.2261 -2.67483 15.3973 -2.68462C16.2569 -2.64154 17.1902 -2.47943 18.1372 -2.20873C18.4939 -2.10027 18.8502 -2.01447 19.1984 -1.95317C19.914 -1.817 20.6062 -1.7407 21.2544 -1.72652C22.1963 -1.72427 23.1769 -1.67188 24.1876 -1.56982C24.8114 -1.51299 25.4124 -1.49201 25.9836 -1.50712C26.5706 -1.51424 27.1975 -1.47089 27.8498 -1.37808C28.4985 -1.30245 29.0702 -1.34603 29.496 -1.50354C29.6361 -1.58842 29.7491 -1.68921 29.8326 -1.80403C28.8828 -2.17766 27.9004 -2.36754 27.0833 -2.33545C26.773 -2.36019 26.5153 -2.33521 26.1883 -2.48074L26.178 -2.43206C26.1129 -2.40048 26.0148 -2.39302 25.9022 -2.41113C25.7896 -2.42923 25.6705 -2.47162 25.5676 -2.53023C25.6065 -2.71522 25.6433 -2.89047 25.6699 -3.01704C26.2925 -2.99471 26.8969 -2.99652 27.4803 -3.02248C27.972 -3.05982 28.6394 -2.73271 29.065 -2.85585C29.8952 -2.70187 30.4237 -2.91447 31.1681 -2.85313C31.9125 -2.79178 32.7324 -2.58912 33.4769 -2.52777C34.1264 -2.49411 34.7572 -2.48679 35.3655 -2.50586C35.5755 -2.53261 35.8176 -2.52634 36.0769 -2.48741C36.4414 -2.41416 36.7805 -2.40189 37.0552 -2.452C37.3299 -2.50211 37.5291 -2.61259 37.63 -2.77075C37.535 -2.91891 37.4069 -3.10994 37.2592 -3.30783C37.5309 -3.47043 37.9436 -3.5389 38.4361 -3.50305L39.132 -3.5109C39.3164 -3.5066 39.4574 -3.55056 39.5258 -3.63368C39.5941 -3.71679 39.5847 -3.8327 39.4994 -3.95743C38.1799 -4.58535 38.1313 -4.65457 37.1628 -4.25069L35.877 -4.43837L35.8986 -4.44125ZM53.2909 -2.71638L53.193 -2.75058L53.2909 -2.71638ZM213.534 64.0904L213.512 64.1975L213.536 64.0807L213.752 64.1559L213.766 64.0878L213.534 64.0904ZM182.234 17.1484C181.93 17.0316 181.622 16.9242 181.313 16.8268C181.233 16.8117 181.157 16.8083 181.093 16.8169C181.029 16.8254 180.978 16.8457 180.945 16.876C180.921 16.9928 181.093 17.0739 181.25 17.1286C181.448 17.2023 181.65 17.2491 181.835 17.2643C182.02 17.2794 182.183 17.2623 182.305 17.2147L182.482 17.1721L182.234 17.1484ZM25.289 45.6242C25.4897 45.6439 25.6799 45.6471 25.8551 45.6337C26.6323 45.5393 27.3763 45.402 28.1731 45.3144C29.1784 45.092 30.3336 45.0015 31.5954 45.0461C32.0883 45.0679 32.5048 44.9959 32.7961 44.8383C32.9705 44.7538 33.1956 44.7043 33.4577 44.6931L36.7934 44.4364C36.9996 44.3831 37.1778 44.3084 37.324 44.2141C37.03 44.1114 36.834 44.043 36.7165 44.0019C36.4725 43.9904 36.2628 44.0217 36.1084 44.0927C35.9425 44.213 35.6621 44.2606 35.323 44.2261C34.9806 44.1975 34.6467 44.1821 34.3229 44.18C33.7116 44.186 33.0961 44.2115 32.4828 44.2273C32.2441 44.562 31.5397 44.4101 30.9366 44.3772L30.4706 44.3922C28.9475 44.5657 27.4926 44.8044 26.113 45.1072C25.8463 45.1584 25.6166 45.2401 25.4309 45.3498C25.3609 45.4353 25.3385 45.542 25.3654 45.6613L25.2674 45.6271L25.289 45.6242ZM93.304 77.6276C93.6736 77.6504 94.0583 77.6972 94.4527 77.7673C94.7565 77.839 95.053 77.8825 95.3302 77.8961C96.8837 77.9711 98.5026 78.1444 100.165 78.4136C100.382 78.4544 100.591 78.4744 100.784 78.4728L102.144 78.4045C102.573 78.3661 102.581 78.3271 102.269 77.8106C102.01 77.7103 101.748 77.6189 101.485 77.5369C101.329 77.4821 101.074 77.3932 101.014 77.4769C100.651 77.7053 99.9874 77.5573 99.4296 77.5089C97.815 77.3841 96.1498 77.1998 94.5197 77.0487C94.175 77.0118 93.8412 76.9931 93.5216 76.9929C93.3233 76.9851 93.1425 76.9997 92.9866 77.036C92.9411 77.0397 92.903 77.0505 92.8748 77.0677C92.8466 77.0849 92.829 77.1081 92.8232 77.1357C92.8174 77.1633 92.8235 77.1948 92.8411 77.228C92.8587 77.2611 92.8874 77.2953 92.9252 77.3281C93.0586 77.4431 93.2127 77.5533 93.3824 77.6549L93.304 77.6276ZM105.132 2.65454L106.723 2.59329C106.913 2.58672 107.075 2.51779 107.279 2.54727C108.368 2.6407 109.377 2.61468 110.262 2.4703C110.563 2.41138 110.915 2.3996 111.3 2.43561C112.476 2.5423 113.586 2.54669 114.6 2.44865C115.255 2.42898 115.868 2.36289 116.429 2.25138C116.473 2.22549 116.5 2.19035 116.508 2.14834C116.517 2.10634 116.508 2.05846 116.48 2.00797C116.473 1.97608 116.454 1.94176 116.424 1.9074C116.394 1.87304 116.354 1.83944 116.306 1.80892C116.259 1.77841 116.205 1.75171 116.149 1.73064C116.092 1.70958 116.035 1.69464 115.98 1.6869C115.27 1.53596 114.596 1.48337 114.014 1.53342C113.474 1.59329 112.892 1.61081 112.278 1.5857C111.69 1.5791 111.291 1.77433 110.565 1.62536C110.258 1.5763 109.987 1.59245 109.798 1.6711C109.418 1.80147 108.887 1.80872 108.301 1.69157C107.95 1.63228 107.614 1.60685 107.307 1.61626C106.561 1.65912 105.849 1.74487 105.159 1.82773C104.941 1.8469 104.708 1.84954 104.463 1.83561L101.005 1.67336C100.174 1.62359 99.3448 1.56408 98.5293 1.54062C97.8623 1.48969 97.2417 1.50564 96.6892 1.58791C96.1001 1.67438 95.4576 1.70948 94.7739 1.69256C93.7121 1.73988 92.6564 1.75798 91.5007 1.75161C90.7636 1.75553 90.009 1.74287 89.2388 1.70389C88.8492 1.65373 88.5185 1.69458 88.3102 1.81859C88.1835 1.92069 87.8854 1.83751 87.638 1.81382C86.3181 1.58545 85.0802 1.53135 84.011 1.65526C83.8744 1.67545 83.7245 1.68276 83.5646 1.67706C82.5347 1.67281 81.4676 1.64513 80.479 1.64482C80.2187 1.65445 79.9737 1.68087 79.7471 1.72374C79.7714 1.79368 79.8406 1.8695 79.9403 1.93545C80.04 2.0014 80.1626 2.05243 80.2827 2.07796C81.2178 2.27337 82.1206 2.3766 82.9533 2.38331C84.3393 2.35842 85.7912 2.41439 87.2938 2.55061C88.4597 2.68794 89.5227 2.65903 90.4039 2.46601C91.0927 2.32199 91.9888 2.37618 92.9382 2.61927C93.3444 2.73537 93.7388 2.7818 94.0672 2.7522C94.3834 2.71338 94.7461 2.72279 95.1343 2.77989C95.9526 2.88846 96.7396 2.93882 97.4799 2.92999C98.2035 2.89002 98.8786 2.78084 99.6219 2.74772C100.365 2.71459 101.497 2.73357 102.413 2.6773C103.33 2.62103 104.236 2.61344 105.132 2.65454ZM39.2224 -3.0404C39.3064 -2.73936 39.6036 -2.55198 39.9233 -2.4717C41.0256 -2.11527 42.1153 -1.96359 43.0095 -2.04213C43.4926 -2.15168 44.1365 -2.10951 44.8148 -1.92391C45.6047 -1.73097 46.3429 -1.69897 46.8995 -1.83355C47.0358 -1.85707 47.1403 -1.90679 47.2034 -1.97827C47.2157 -2.03669 47.2382 -2.14378 47.2423 -2.16325C47.1838 -2.21264 47.1121 -2.25839 47.0327 -2.297C46.9533 -2.3356 46.8683 -2.36601 46.7842 -2.38589L43.1332 -2.7305L42.497 -2.80633C41.3349 -3.005 40.2275 -3.08415 39.2224 -3.0404ZM46.404 1.7244C46.9738 2.21598 46.9758 2.20622 47.2677 2.3186C48.6761 2.78537 50.0835 3.03734 51.3224 3.04453C51.5978 3.0431 51.8315 2.99565 52.0037 2.90616C52.0923 2.89403 52.1487 2.8555 52.1606 2.79896C52.1725 2.74242 52.1389 2.67246 52.0672 2.60434L51.6141 2.25802C50.7912 2.1081 49.9801 1.98897 49.1857 1.90135C48.2608 1.7979 47.4412 1.79391 46.4823 1.75176L46.404 1.7244ZM93.2357 75.4508C93.7667 76.1274 93.7687 76.1177 94.6576 76.2922C95.2771 76.4158 95.8779 76.4884 96.4425 76.5078C97.1322 76.5291 97.8395 76.567 98.5272 76.5981C98.6951 76.6197 98.8374 76.6018 98.9265 76.5479C99.0156 76.494 99.0451 76.408 99.0092 76.3066C98.919 76.1965 98.7778 76.09 98.6087 76.0043C98.4395 75.9187 98.2523 75.859 98.0775 75.835L97.7023 75.8189C97.2465 75.7852 96.7733 75.7349 96.333 75.7275C96.0474 75.7556 95.7165 75.7339 95.3662 75.6642C95.0159 75.5944 94.6557 75.4785 94.3139 75.3256L93.2357 75.4508ZM49.2392 -2.15579C49.381 -2.03862 49.5413 -1.9264 49.716 -1.82212C50.3922 -1.53307 51.108 -1.36889 51.7229 -1.36179C52.0136 -1.34388 52.2795 -1.40782 52.5755 -1.31491C53.1065 -1.19077 53.621 -1.12464 54.0913 -1.12011C54.0913 -1.12011 54.2232 -1.14721 54.2665 -1.153L54.3566 -1.58139C54.1339 -1.68064 53.9017 -1.76171 53.6706 -1.82089C52.8952 -1.93486 52.1332 -2.01278 51.3733 -2.10044C50.6134 -2.1881 50.3484 -2.22837 49.8514 -2.26602C49.6298 -2.24533 49.4247 -2.2084 49.2392 -2.15579ZM32.447 51.1019L33.4617 51.9787C33.7901 52.0549 34.0969 52.0687 34.3354 52.018C34.5738 51.9674 34.731 51.855 34.7829 51.698C34.8664 51.6245 34.8748 51.5157 34.8062 51.3943C34.7376 51.273 34.5973 51.1485 34.4149 51.047C34.2393 50.9267 34.0388 50.8188 33.8259 50.7301C33.6129 50.6413 33.3921 50.5736 33.177 50.5312L32.447 51.1019ZM40.8959 46.7362C40.2321 46.5875 39.5974 46.5267 39.0399 46.5585C38.6888 46.6455 38.2129 46.6177 37.71 46.4808C36.7953 46.208 35.9136 46.1325 35.2509 46.2702C35.2509 46.2702 35.2263 46.387 35.114 46.4209C35.0016 46.4549 35.4471 46.5373 35.5451 46.5715C36.2638 46.6552 36.9866 46.7194 37.6114 46.7494C37.9993 46.7481 38.4096 46.7758 38.8352 46.8319C39.4208 46.9184 39.9762 46.9464 40.4797 46.9148C40.4797 46.9148 40.6744 46.8888 40.8938 46.7459L40.8959 46.7362ZM111.777 1.06596C111.46 0.900829 111.116 0.766615 110.771 0.673404C110.427 0.58019 110.09 0.530401 109.786 0.527748C109.554 0.519131 109.366 0.562733 109.252 0.651657C109.138 0.740577 109.105 0.869752 109.157 1.01875C109.392 1.10086 109.706 1.21034 109.882 1.27192C110.494 1.26589 111.015 1.18671 111.777 1.06596ZM171.12 14.9817C170.865 14.8488 170.585 14.7472 170.311 14.6884C170.037 14.6297 169.78 14.6162 169.57 14.6496C169.462 14.6641 169.535 14.8151 169.517 14.9027C169.505 14.9226 169.505 14.9473 169.517 14.9743C169.529 15.0012 169.553 15.0295 169.586 15.056C169.62 15.0825 169.661 15.1064 169.705 15.1251C169.75 15.1438 169.797 15.1566 169.841 15.1622C170.117 15.2195 170.377 15.2365 170.599 15.2118C170.821 15.1871 170.997 15.1215 171.112 15.0207L171.12 14.9817ZM175.096 16.8821C175.057 16.8036 174.973 16.7219 174.86 16.6518C174.747 16.5817 174.613 16.528 174.482 16.5005C174.25 16.4968 174.04 16.5185 173.858 16.5649C173.661 16.6007 173.803 16.8278 174.069 16.9626C174.182 17.0166 174.302 17.0588 174.421 17.0858C174.54 17.1127 174.653 17.1236 174.752 17.1177C174.852 17.1118 174.934 17.0892 174.993 17.0516C175.052 17.0141 175.086 16.9627 175.092 16.9015L175.096 16.8821ZM59.5611 -1.32145C58.9679 -1.60172 58.5113 -1.53121 58.0091 -1.64386C57.5068 -1.75651 57.3831 -1.76836 57.4504 -1.5881C57.5177 -1.40784 57.8619 -1.4444 58.0775 -1.36913C58.3688 -1.26926 58.6618 -1.21191 58.9238 -1.20348C59.1858 -1.19506 59.4065 -1.2359 59.5611 -1.32145ZM183.174 46.1014C182.86 46.0385 182.552 45.994 182.255 45.9687C182.216 45.9948 182.192 46.0289 182.183 46.069C182.175 46.1091 182.182 46.1545 182.206 46.2024C182.206 46.2024 182.407 46.3458 182.525 46.3868C182.958 46.5276 182.979 46.3261 183.174 46.1014ZM227.583 72.2142C227.796 72.4035 227.895 72.5321 228.065 72.6229C228.143 72.6544 228.224 72.6773 228.301 72.6899C228.379 72.7025 228.451 72.7044 228.512 72.6956C228.587 72.6411 228.605 72.5576 228.562 72.4619C228.562 72.4619 228.345 72.2922 228.262 72.2843C228.027 72.2442 227.799 72.2207 227.583 72.2142ZM49.4638 -2.9239C49.0131 -3.08128 48.5819 -3.23183 48.2698 -3.04817C48.9856 -2.85051 48.9856 -2.8505 49.4638 -2.9239ZM56.7645 -1.12737C56.3093 -1.46395 56.0423 -1.49449 55.8238 -1.45582C55.7773 -1.44608 55.7466 -1.42437 55.7362 -1.39398C55.7259 -1.3636 55.7364 -1.3262 55.7663 -1.28742C55.7962 -1.24865 55.8437 -1.21062 55.9018 -1.17909C55.9599 -1.14756 56.0253 -1.12424 56.0882 -1.11266C56.3256 -1.10297 56.552 -1.1079 56.7645 -1.12737ZM80.1904 -0.98504C80.2006 -1.03372 80.2129 -1.09214 80.0953 -1.13319C80.0645 -1.15403 80.0284 -1.17196 79.9906 -1.18517C79.9527 -1.19838 79.9145 -1.20641 79.8798 -1.20845C79.8798 -1.20845 79.8675 -1.15003 79.8593 -1.11109L80.1904 -0.98504ZM96.4579 79.8365L96.1961 79.881L96.3137 79.922L96.6241 79.9468L96.4579 79.8365ZM188.635 16.1224C188.537 16.0882 188.439 16.054 188.425 16.1222C188.404 16.1327 188.391 16.148 188.387 16.1666C188.383 16.1852 188.388 16.2067 188.402 16.2293C188.402 16.2293 188.539 16.2772 188.598 16.2977L188.635 16.1224ZM173.374 16.6675C173.309 16.6636 173.251 16.6682 173.203 16.681L173.191 16.7394L173.387 16.8078L173.374 16.6675ZM40.3783 30.5865C40.3026 30.551 40.2224 30.523 40.1431 30.5044L40.0451 30.4702C40.0451 30.4702 40.1504 30.5696 40.2092 30.5902C40.268 30.6107 40.3154 30.5855 40.3783 30.5865Z" fill="#FDDA74"/>
</g>
</svg>
