<svg width="23" height="28" viewBox="0 0 23 28" fill="none" xmlns="http://www.w3.org/2000/svg">
<path d="M3.16323 4.11889C4.1658 3.11345 5.35722 2.3161 6.669 1.77268C7.98077 1.22927 9.38702 0.950496 10.8069 0.952402H12.337C12.337 0.952402 19.5554 2.84211 19.5554 10.5751C19.5554 18.134 14.5581 24.8243 12.3381 27.0476H10.8092L3.16323 19.4017C1.13775 17.3745 0 14.626 0 11.7603C0 8.89459 1.13775 6.14612 3.16323 4.11889ZM10.808 16.7848C11.8007 16.7848 12.7711 16.4904 13.5965 15.9389C14.4219 15.3874 15.0651 14.6035 15.445 13.6863C15.8248 12.7692 15.9241 11.76 15.7304 10.7864C15.5366 9.8128 15.0585 8.91852 14.3565 8.21666C13.6545 7.51481 12.7601 7.0369 11.7865 6.84337C10.8128 6.64984 9.80366 6.74939 8.8866 7.12943C7.96954 7.50947 7.18578 8.15293 6.63443 8.97843C6.08309 9.80393 5.78892 10.7744 5.78915 11.7671C5.79184 13.0964 6.32181 14.3704 7.26274 15.3094C8.20367 16.2484 9.4787 16.7758 10.808 16.7758V16.7848Z" fill="white"/>
<path d="M20.1797 3.91436C19.7321 3.46721 19.2479 3.05829 18.7321 2.69187L18.7966 2.59913C19.3181 2.96945 19.8077 3.38293 20.26 3.8352L20.1797 3.91436ZM18.0559 2.24969C17.7901 2.0891 17.5142 1.93757 17.2371 1.79734L17.2869 1.69556C17.5673 1.83466 17.8455 1.98733 18.1147 2.14791L18.0559 2.24969Z" fill="#0056FB"/>
<path opacity="0.2" d="M20.1797 3.91436C19.7321 3.46721 19.2479 3.05829 18.7321 2.69187L18.7966 2.59913C19.3181 2.96945 19.8077 3.38293 20.26 3.8352L20.1797 3.91436ZM18.0559 2.24969C17.7901 2.0891 17.5142 1.93757 17.2371 1.79734L17.2869 1.69556C17.5673 1.83466 17.8455 1.98733 18.1147 2.14791L18.0559 2.24969Z" fill="black"/>
<path d="M4.69223 4.11864C6.73183 2.15494 9.46041 1.0698 12.2916 1.09643C15.1227 1.12305 17.8304 2.25933 19.8327 4.26104C21.835 6.26275 22.9721 8.97011 22.9995 11.8012C23.027 14.6324 21.9427 17.3613 19.9796 19.4015L12.3382 27.044L4.69223 19.3981C2.66724 17.3713 1.52976 14.6234 1.52976 11.7583C1.52976 8.89329 2.66724 6.14544 4.69223 4.11864ZM12.337 16.7846C13.3297 16.7846 14.3001 16.4902 15.1255 15.9387C15.9509 15.3871 16.5941 14.6032 16.974 13.6861C17.3538 12.7689 17.4531 11.7597 17.2594 10.7861C17.0656 9.81255 16.5875 8.91827 15.8855 8.21641C15.1835 7.51456 14.2891 7.03665 13.3155 6.84312C12.3418 6.64959 11.3327 6.74914 10.4156 7.12918C9.49854 7.50922 8.71478 8.15268 8.16344 8.97818C7.61209 9.80368 7.31793 10.7741 7.31815 11.7668C7.32085 13.0962 7.85081 14.3701 8.79174 15.3091C9.73267 16.2482 11.0077 16.7755 12.337 16.7755V16.7846Z" fill="#0056FB"/>
<path opacity="0.2" d="M4.69223 4.11864C6.73183 2.15494 9.46041 1.0698 12.2916 1.09643C15.1227 1.12305 17.8304 2.25933 19.8327 4.26104C21.835 6.26275 22.9721 8.97011 22.9995 11.8012C23.027 14.6324 21.9427 17.3613 19.9796 19.4015L12.3382 27.044L4.69223 19.3981C2.66724 17.3713 1.52976 14.6234 1.52976 11.7583C1.52976 8.89329 2.66724 6.14544 4.69223 4.11864ZM12.337 16.7846C13.3297 16.7846 14.3001 16.4902 15.1255 15.9387C15.9509 15.3871 16.5941 14.6032 16.974 13.6861C17.3538 12.7689 17.4531 11.7597 17.2594 10.7861C17.0656 9.81255 16.5875 8.91827 15.8855 8.21641C15.1835 7.51456 14.2891 7.03665 13.3155 6.84312C12.3418 6.64959 11.3327 6.74914 10.4156 7.12918C9.49854 7.50922 8.71478 8.15268 8.16344 8.97818C7.61209 9.80368 7.31793 10.7741 7.31815 11.7668C7.32085 13.0962 7.85081 14.3701 8.79174 15.3091C9.73267 16.2482 11.0077 16.7755 12.337 16.7755V16.7846Z" fill="black"/>
<g style="mix-blend-mode:color-dodge" opacity="0.4">
<path d="M12.3381 26.4323C12.3343 26.4323 12.3305 26.4315 12.327 26.4299C12.3235 26.4283 12.3204 26.4261 12.3178 26.4233L4.99189 19.0985C3.54012 17.6462 2.55159 15.7959 2.15128 13.7818C1.75096 11.7676 1.95685 9.68003 2.7429 7.78288C3.52895 5.88574 4.85988 4.26427 6.56739 3.12347C8.27491 1.98267 10.2823 1.37378 12.3359 1.37378C14.3894 1.37378 16.3969 1.98267 18.1044 3.12347C19.8119 4.26427 21.1428 5.88574 21.9289 7.78288C22.7149 9.68003 22.9208 11.7676 22.5205 13.7818C22.1202 15.7959 21.1316 17.6462 19.6799 19.0985L12.3574 26.4199C12.3553 26.4233 12.3525 26.4262 12.3492 26.4283C12.3459 26.4305 12.3421 26.4319 12.3381 26.4323ZM12.3381 1.42954C10.2958 1.4299 8.29941 2.03582 6.6014 3.17069C4.90339 4.30556 3.57999 5.91842 2.79854 7.80535C2.01709 9.69228 1.81268 11.7685 2.21114 13.7716C2.6096 15.7747 3.59304 17.6147 5.03713 19.0589L12.3427 26.3633L19.6448 19.0623C21.0887 17.6173 22.0719 15.7766 22.4699 13.773C22.8679 11.7693 22.6629 9.69267 21.8809 7.80548C21.0989 5.91829 19.7749 4.30531 18.0764 3.17043C16.3778 2.03555 14.3809 1.42973 12.3381 1.42954ZM12.3381 17.262C11.2504 17.262 10.1871 16.9394 9.28266 16.3351C8.37825 15.7307 7.67336 14.8717 7.25715 13.8668C6.84094 12.8618 6.7321 11.756 6.94439 10.6891C7.15668 9.62231 7.68057 8.6424 8.4498 7.87332C9.21903 7.10425 10.1991 6.58056 11.2659 6.36849C12.3328 6.15642 13.4386 6.26549 14.4435 6.6819C15.4484 7.09832 16.3072 7.80338 16.9114 8.70792C17.5155 9.61246 17.8379 10.6758 17.8376 11.7636C17.8344 13.2207 17.2535 14.6171 16.2224 15.6467C15.1913 16.6763 13.7941 17.2551 12.337 17.2563L12.3381 17.262ZM12.3381 6.32063C11.2616 6.32063 10.2093 6.63986 9.31419 7.23794C8.4191 7.83602 7.72146 8.68609 7.3095 9.68066C6.89753 10.6752 6.78975 11.7696 6.99976 12.8255C7.20978 13.8813 7.72817 14.8511 8.48939 15.6123C9.2506 16.3736 10.2204 16.892 11.2763 17.102C12.3321 17.312 13.4265 17.2042 14.4211 16.7922C15.4156 16.3803 16.2657 15.6826 16.8638 14.7875C17.4619 13.8924 17.7811 12.8401 17.7811 11.7636C17.7811 10.3193 17.2077 8.93412 16.1868 7.91244C15.166 6.89075 13.7813 6.31617 12.337 6.31498L12.3381 6.32063Z" fill="#FAFAFA"/>
</g>
</svg>
