<svg width="23" height="28" viewBox="0 0 23 28" fill="none" xmlns="http://www.w3.org/2000/svg">
<path d="M3.16323 4.11889C4.1658 3.11345 5.35722 2.3161 6.669 1.77268C7.98077 1.22927 9.38702 0.950496 10.8069 0.952402H12.337C12.337 0.952402 19.5554 2.84211 19.5554 10.5751C19.5554 18.134 14.5581 24.8243 12.3381 27.0476H10.8092L3.16323 19.4017C1.13775 17.3745 0 14.626 0 11.7603C0 8.89459 1.13775 6.14612 3.16323 4.11889ZM10.808 16.7848C11.8007 16.7848 12.7711 16.4904 13.5965 15.9389C14.4219 15.3874 15.0651 14.6035 15.445 13.6863C15.8248 12.7692 15.9241 11.76 15.7304 10.7864C15.5366 9.8128 15.0585 8.91852 14.3565 8.21666C13.6545 7.51481 12.7601 7.0369 11.7865 6.84337C10.8128 6.64984 9.80366 6.74939 8.8866 7.12943C7.96954 7.50947 7.18578 8.15293 6.63443 8.97843C6.08309 9.80393 5.78892 10.7744 5.78915 11.7671C5.79184 13.0964 6.32181 14.3704 7.26274 15.3094C8.20367 16.2484 9.4787 16.7758 10.808 16.7758V16.7848Z" fill="white"/>
<path d="M20.1798 3.91436C19.7322 3.46721 19.248 3.05829 18.7322 2.69187L18.7967 2.59913C19.3182 2.96945 19.8078 3.38293 20.2601 3.8352L20.1798 3.91436ZM18.056 2.24969C17.7902 2.0891 17.5143 1.93757 17.2372 1.79734L17.287 1.69556C17.5674 1.83466 17.8456 1.98733 18.1148 2.14791L18.056 2.24969Z" fill="#0056FB"/>
<path opacity="0.2" d="M20.1798 3.91436C19.7322 3.46721 19.248 3.05829 18.7322 2.69187L18.7967 2.59913C19.3182 2.96945 19.8078 3.38293 20.2601 3.8352L20.1798 3.91436ZM18.056 2.24969C17.7902 2.0891 17.5143 1.93757 17.2372 1.79734L17.287 1.69556C17.5674 1.83466 17.8456 1.98733 18.1148 2.14791L18.056 2.24969Z" fill="black"/>
<path d="M4.69213 4.11864C6.73173 2.15494 9.46032 1.0698 12.2915 1.09643C15.1226 1.12305 17.8303 2.25933 19.8326 4.26104C21.8349 6.26275 22.972 8.97011 22.9994 11.8012C23.0269 14.6324 21.9426 17.3613 19.9795 19.4015L12.3381 27.044L4.69213 19.3981C2.66714 17.3713 1.52966 14.6234 1.52966 11.7583C1.52966 8.89329 2.66714 6.14544 4.69213 4.11864ZM12.3369 16.7846C13.3296 16.7846 14.3 16.4902 15.1254 15.9387C15.9508 15.3871 16.594 14.6032 16.9739 13.6861C17.3537 12.7689 17.453 11.7597 17.2593 10.7861C17.0655 9.81255 16.5874 8.91827 15.8854 8.21641C15.1834 7.51456 14.289 7.03665 13.3154 6.84312C12.3417 6.64959 11.3326 6.74914 10.4155 7.12918C9.49844 7.50922 8.71468 8.15268 8.16334 8.97818C7.61199 9.80368 7.31783 10.7741 7.31805 11.7668C7.32075 13.0962 7.85071 14.3701 8.79164 15.3091C9.73257 16.2482 11.0076 16.7755 12.3369 16.7755V16.7846Z" fill="#0056FB"/>
<path opacity="0.2" d="M4.69213 4.11864C6.73173 2.15494 9.46032 1.0698 12.2915 1.09643C15.1226 1.12305 17.8303 2.25933 19.8326 4.26104C21.8349 6.26275 22.972 8.97011 22.9994 11.8012C23.0269 14.6324 21.9426 17.3613 19.9795 19.4015L12.3381 27.044L4.69213 19.3981C2.66714 17.3713 1.52966 14.6234 1.52966 11.7583C1.52966 8.89329 2.66714 6.14544 4.69213 4.11864ZM12.3369 16.7846C13.3296 16.7846 14.3 16.4902 15.1254 15.9387C15.9508 15.3871 16.594 14.6032 16.9739 13.6861C17.3537 12.7689 17.453 11.7597 17.2593 10.7861C17.0655 9.81255 16.5874 8.91827 15.8854 8.21641C15.1834 7.51456 14.289 7.03665 13.3154 6.84312C12.3417 6.64959 11.3326 6.74914 10.4155 7.12918C9.49844 7.50922 8.71468 8.15268 8.16334 8.97818C7.61199 9.80368 7.31783 10.7741 7.31805 11.7668C7.32075 13.0962 7.85071 14.3701 8.79164 15.3091C9.73257 16.2482 11.0076 16.7755 12.3369 16.7755V16.7846Z" fill="black"/>
<g style="mix-blend-mode:color-dodge" opacity="0.4">
<path d="M12.338 26.4323C12.3342 26.4323 12.3304 26.4315 12.3269 26.4299C12.3234 26.4283 12.3203 26.4261 12.3177 26.4233L4.9918 19.0985C3.54002 17.6462 2.55149 15.7959 2.15118 13.7818C1.75086 11.7676 1.95675 9.68003 2.7428 7.78288C3.52885 5.88574 4.85978 4.26427 6.56729 3.12347C8.27481 1.98267 10.2822 1.37378 12.3358 1.37378C14.3893 1.37378 16.3968 1.98267 18.1043 3.12347C19.8118 4.26427 21.1427 5.88574 21.9288 7.78288C22.7148 9.68003 22.9207 11.7676 22.5204 13.7818C22.1201 15.7959 21.1315 17.6462 19.6798 19.0985L12.3573 26.4199C12.3552 26.4233 12.3524 26.4262 12.3491 26.4283C12.3458 26.4305 12.342 26.4319 12.338 26.4323ZM12.338 1.42954C10.2957 1.4299 8.29931 2.03582 6.6013 3.17069C4.90329 4.30556 3.5799 5.91842 2.79845 7.80535C2.01699 9.69228 1.81258 11.7685 2.21104 13.7716C2.6095 15.7747 3.59294 17.6147 5.03703 19.0589L12.3426 26.3633L19.6447 19.0623C21.0886 17.6173 22.0718 15.7766 22.4698 13.773C22.8678 11.7693 22.6628 9.69267 21.8808 7.80548C21.0988 5.91829 19.7748 4.30531 18.0763 3.17043C16.3777 2.03555 14.3808 1.42973 12.338 1.42954ZM12.338 17.262C11.2503 17.262 10.187 16.9394 9.28256 16.3351C8.37815 15.7307 7.67326 14.8717 7.25705 13.8668C6.84084 12.8618 6.732 11.756 6.94429 10.6891C7.15658 9.62231 7.68047 8.6424 8.4497 7.87332C9.21894 7.10425 10.199 6.58056 11.2658 6.36849C12.3327 6.15642 13.4385 6.26549 14.4434 6.6819C15.4483 7.09832 16.3071 7.80338 16.9113 8.70792C17.5154 9.61246 17.8378 10.6758 17.8375 11.7636C17.8343 13.2207 17.2534 14.6171 16.2223 15.6467C15.1913 16.6763 13.794 17.2551 12.3369 17.2563L12.338 17.262ZM12.338 6.32063C11.2615 6.32063 10.2092 6.63986 9.31409 7.23794C8.419 7.83602 7.72136 8.68609 7.3094 9.68066C6.89744 10.6752 6.78965 11.7696 6.99966 12.8255C7.20968 13.8813 7.72807 14.8511 8.48929 15.6123C9.2505 16.3736 10.2203 16.892 11.2762 17.102C12.332 17.312 13.4264 17.2042 14.421 16.7922C15.4155 16.3803 16.2656 15.6826 16.8637 14.7875C17.4618 13.8924 17.781 12.8401 17.781 11.7636C17.781 10.3193 17.2076 8.93412 16.1867 7.91244C15.1659 6.89075 13.7812 6.31617 12.3369 6.31498L12.338 6.32063Z" fill="#FAFAFA"/>
</g>
</svg>
