<svg width="23" height="28" viewBox="0 0 23 28" fill="none" xmlns="http://www.w3.org/2000/svg">
<path d="M3.16323 4.11889C4.1658 3.11345 5.35722 2.3161 6.66899 1.77268C7.98077 1.22927 9.38702 0.950496 10.8069 0.952402H12.337C12.337 0.952402 19.5554 2.84211 19.5554 10.5751C19.5554 18.134 14.558 24.8243 12.3381 27.0476H10.8092L3.16323 19.4017C1.13775 17.3745 0 14.626 0 11.7603C0 8.89459 1.13775 6.14612 3.16323 4.11889ZM10.808 16.7848C11.8007 16.7848 12.7711 16.4904 13.5965 15.9389C14.4219 15.3874 15.0651 14.6035 15.445 13.6863C15.8248 12.7692 15.9241 11.76 15.7304 10.7864C15.5366 9.8128 15.0585 8.91852 14.3565 8.21666C13.6545 7.51481 12.7601 7.0369 11.7865 6.84337C10.8128 6.64984 9.80366 6.74939 8.8866 7.12943C7.96954 7.50947 7.18578 8.15293 6.63443 8.97843C6.08309 9.80393 5.78892 10.7744 5.78915 11.7671C5.79184 13.0964 6.32181 14.3704 7.26274 15.3094C8.20367 16.2484 9.4787 16.7758 10.808 16.7758V16.7848Z" fill="white"/>
<path d="M20.1799 3.9124C19.7324 3.46526 19.2482 3.05634 18.7324 2.68992L18.7969 2.59718C19.3184 2.9675 19.8079 3.38097 20.2602 3.83324L20.1799 3.9124ZM18.0561 2.24774C17.7904 2.08715 17.5144 1.93561 17.2374 1.79538L17.2871 1.6936C17.5676 1.8327 17.8458 1.98537 18.1149 2.14596L18.0561 2.24774Z" fill="#0056FB"/>
<path opacity="0.2" d="M20.1799 3.9124C19.7324 3.46526 19.2482 3.05634 18.7324 2.68992L18.7969 2.59718C19.3184 2.9675 19.8079 3.38097 20.2602 3.83324L20.1799 3.9124ZM18.0561 2.24774C17.7904 2.08715 17.5144 1.93561 17.2374 1.79538L17.2871 1.6936C17.5676 1.8327 17.8458 1.98537 18.1149 2.14596L18.0561 2.24774Z" fill="black"/>
<path d="M4.69262 4.12108C6.73222 2.15738 9.4608 1.07224 12.2919 1.09887C15.1231 1.1255 17.8308 2.26177 19.8331 4.26348C21.8354 6.26519 22.9725 8.97255 22.9999 11.8037C23.0274 14.6348 21.943 17.3637 19.98 19.4039L12.3385 27.0464L4.69262 19.4005C2.66763 17.3737 1.53015 14.6258 1.53015 11.7608C1.53015 8.89573 2.66763 6.14788 4.69262 4.12108ZM12.3374 16.787C13.3301 16.787 14.3005 16.4926 15.1259 15.9411C15.9513 15.3896 16.5945 14.6057 16.9744 13.6885C17.3542 12.7714 17.4535 11.7622 17.2598 10.7886C17.066 9.81499 16.5879 8.92071 15.8859 8.21886C15.1839 7.517 14.2895 7.03909 13.3159 6.84556C12.3422 6.65203 11.3331 6.75158 10.416 7.13163C9.49893 7.51167 8.71517 8.15512 8.16382 8.98062C7.61248 9.80612 7.31832 10.7766 7.31854 11.7693C7.32124 13.0986 7.8512 14.3726 8.79213 15.3116C9.73306 16.2506 11.0081 16.778 12.3374 16.778V16.787Z" fill="#0056FB"/>
<path opacity="0.2" d="M4.69262 4.12108C6.73222 2.15738 9.4608 1.07224 12.2919 1.09887C15.1231 1.1255 17.8308 2.26177 19.8331 4.26348C21.8354 6.26519 22.9725 8.97255 22.9999 11.8037C23.0274 14.6348 21.943 17.3637 19.98 19.4039L12.3385 27.0464L4.69262 19.4005C2.66763 17.3737 1.53015 14.6258 1.53015 11.7608C1.53015 8.89573 2.66763 6.14788 4.69262 4.12108ZM12.3374 16.787C13.3301 16.787 14.3005 16.4926 15.1259 15.9411C15.9513 15.3896 16.5945 14.6057 16.9744 13.6885C17.3542 12.7714 17.4535 11.7622 17.2598 10.7886C17.066 9.81499 16.5879 8.92071 15.8859 8.21886C15.1839 7.517 14.2895 7.03909 13.3159 6.84556C12.3422 6.65203 11.3331 6.75158 10.416 7.13163C9.49893 7.51167 8.71517 8.15512 8.16382 8.98062C7.61248 9.80612 7.31832 10.7766 7.31854 11.7693C7.32124 13.0986 7.8512 14.3726 8.79213 15.3116C9.73306 16.2506 11.0081 16.778 12.3374 16.778V16.787Z" fill="black"/>
<g style="mix-blend-mode:color-dodge" opacity="0.4">
<path d="M12.3388 26.4321C12.3349 26.432 12.3312 26.4312 12.3277 26.4297C12.3242 26.4281 12.321 26.4259 12.3184 26.423L4.99253 19.0983C3.54076 17.6459 2.55222 15.7957 2.15191 13.7815C1.7516 11.7674 1.95748 9.67978 2.74353 7.78264C3.52959 5.8855 4.86051 4.26402 6.56802 3.12322C8.27554 1.98243 10.283 1.37354 12.3365 1.37354C14.39 1.37354 16.3975 1.98243 18.105 3.12322C19.8125 4.26402 21.1434 5.8855 21.9295 7.78264C22.7155 9.67978 22.9214 11.7674 22.5211 13.7815C22.1208 15.7957 21.1323 17.6459 19.6805 19.0983L12.358 26.4197C12.356 26.4231 12.3532 26.4259 12.3498 26.4281C12.3465 26.4303 12.3427 26.4316 12.3388 26.4321ZM12.3388 1.4293C10.2964 1.42966 8.30004 2.03557 6.60203 3.17044C4.90402 4.30531 3.58063 5.91817 2.79918 7.8051C2.01773 9.69203 1.81331 11.7683 2.21177 13.7714C2.61023 15.7745 3.59367 17.6145 5.03776 19.0587L12.3433 26.3631L19.6454 19.0621C21.0894 17.6171 22.0725 15.7764 22.4705 13.7728C22.8685 11.7691 22.6636 9.69243 21.8815 7.80524C21.0995 5.91804 19.7756 4.30506 18.077 3.17019C16.3785 2.03531 14.3816 1.42949 12.3388 1.4293ZM12.3388 17.2617C11.251 17.2617 10.1877 16.9392 9.28329 16.3348C8.37888 15.7305 7.674 14.8715 7.25778 13.8665C6.84157 12.8616 6.73273 11.7557 6.94502 10.6889C7.15731 9.62207 7.6812 8.64215 8.45043 7.87308C9.21967 7.104 10.1997 6.58032 11.2666 6.36824C12.3334 6.15617 13.4392 6.26524 14.4441 6.68166C15.449 7.09808 16.3078 7.80314 16.912 8.70768C17.5162 9.61222 17.8385 10.6756 17.8383 11.7633C17.835 13.2205 17.2541 14.6169 16.2231 15.6465C15.192 16.676 13.7948 17.2549 12.3376 17.2561L12.3388 17.2617ZM12.3388 6.32039C11.2623 6.32039 10.2099 6.63961 9.31483 7.23769C8.41973 7.83577 7.7221 8.68584 7.31013 9.68042C6.89817 10.675 6.79038 11.7694 7.0004 12.8252C7.21041 13.881 7.72881 14.8509 8.49002 15.6121C9.25123 16.3733 10.2211 16.8917 11.2769 17.1017C12.3327 17.3117 13.4271 17.204 14.4217 16.792C15.4163 16.38 16.2663 15.6824 16.8644 14.7873C17.4625 13.8922 17.7817 12.8399 17.7817 11.7633C17.7817 10.3191 17.2083 8.93388 16.1875 7.91219C15.1666 6.89051 13.7819 6.31593 12.3376 6.31473L12.3388 6.32039Z" fill="#FAFAFA"/>
</g>
</svg>
