<svg width="94" height="18" viewBox="0 0 94 18" fill="none" xmlns="http://www.w3.org/2000/svg">
<path d="M7.41967 2.51783C7.7819 1.75871 8.86246 1.75871 9.2247 2.51783L10.4833 5.15547C10.6291 5.46098 10.9195 5.672 11.2551 5.71624L14.1526 6.09818C14.9865 6.2081 15.3204 7.23578 14.7104 7.81487L12.5908 9.82696C12.3453 10.06 12.2344 10.4014 12.296 10.7343L12.8281 13.608C12.9813 14.4351 12.1071 15.0702 11.3678 14.669L8.7992 13.2749C8.50168 13.1134 8.14268 13.1134 7.84517 13.2749L5.27655 14.669C4.5373 15.0702 3.66311 14.435 3.81625 13.608L4.34838 10.7343C4.41001 10.4014 4.29907 10.06 4.05357 9.82696L1.93395 7.81486C1.32392 7.23578 1.65783 6.2081 2.49174 6.09818L5.38922 5.71624C5.72482 5.672 6.01527 5.46098 6.16105 5.15547L7.41967 2.51783Z" fill="#FFB932"/>
<path d="M26.7107 2.51759C27.0729 1.75846 28.1535 1.75847 28.5157 2.51759L29.7743 5.15523C29.9201 5.46074 30.2106 5.67175 30.5462 5.71599L33.4436 6.09794C34.2775 6.20786 34.6115 7.23553 34.0014 7.81462L31.8818 9.82672C31.6363 10.0598 31.5254 10.4012 31.587 10.7341L32.1191 13.6077C32.2723 14.4348 31.3981 15.0699 30.6588 14.6687L28.0902 13.2746C27.7927 13.1131 27.4337 13.1131 27.1362 13.2746L24.5676 14.6687C23.8283 15.0699 22.9541 14.4348 23.1073 13.6077L23.6394 10.7341C23.701 10.4012 23.5901 10.0598 23.3446 9.82672L21.225 7.81462C20.6149 7.23553 20.9489 6.20786 21.7828 6.09794L24.6802 5.71599C25.0158 5.67175 25.3063 5.46074 25.4521 5.15523L26.7107 2.51759Z" fill="#FFB932"/>
<path d="M46.0018 2.51759C46.364 1.75846 47.4446 1.75847 47.8068 2.51759L49.0654 5.15523C49.2112 5.46074 49.5016 5.67175 49.8372 5.71599L52.7347 6.09794C53.5686 6.20786 53.9025 7.23553 53.2925 7.81462L51.1729 9.82672C50.9274 10.0598 50.8164 10.4012 50.8781 10.7341L51.4102 13.6077C51.5633 14.4348 50.6892 15.0699 49.9499 14.6687L47.3813 13.2746C47.0838 13.1131 46.7248 13.1131 46.4273 13.2746L43.8586 14.6687C43.1194 15.0699 42.2452 14.4348 42.3983 13.6077L42.9305 10.7341C42.9921 10.4012 42.8812 10.0598 42.6357 9.82672L40.516 7.81462C39.906 7.23553 40.2399 6.20786 41.0738 6.09794L43.9713 5.71599C44.3069 5.67175 44.5974 5.46074 44.7431 5.15523L46.0018 2.51759Z" fill="#FFB932"/>
<path d="M65.2928 2.51759C65.655 1.75846 66.7356 1.75847 67.0978 2.51759L68.3564 5.15523C68.5022 5.46074 68.7926 5.67175 69.1283 5.71599L72.0257 6.09794C72.8596 6.20786 73.1935 7.23553 72.5835 7.81462L70.4639 9.82672C70.2184 10.0598 70.1075 10.4012 70.1691 10.7341L70.7012 13.6077C70.8544 14.4348 69.9802 15.0699 69.2409 14.6687L66.6723 13.2746C66.3748 13.1131 66.0158 13.1131 65.7183 13.2746L63.1497 14.6687C62.4104 15.0699 61.5362 14.4348 61.6894 13.6077L62.2215 10.7341C62.2831 10.4012 62.1722 10.0598 61.9267 9.82672L59.8071 7.81462C59.197 7.23553 59.5309 6.20786 60.3648 6.09794L63.2623 5.71599C63.5979 5.67175 63.8884 5.46074 64.0342 5.15523L65.2928 2.51759Z" fill="#FFB932"/>
<path d="M84.5839 2.51759C84.9461 1.75846 86.0266 1.75847 86.3889 2.51759L87.6475 5.15523C87.7933 5.46074 88.0837 5.67175 88.4193 5.71599L91.3168 6.09794C92.1507 6.20786 92.4846 7.23553 91.8746 7.81462L89.755 9.82672C89.5095 10.0598 89.3985 10.4012 89.4602 10.7341L89.9923 13.6077C90.1454 14.4348 89.2712 15.0699 88.532 14.6687L85.9634 13.2746C85.6659 13.1131 85.3069 13.1131 85.0094 13.2746L82.4407 14.6687C81.7015 15.0699 80.8273 14.4348 80.9804 13.6077L81.5126 10.7341C81.5742 10.4012 81.4633 10.0598 81.2178 9.82672L79.0981 7.81462C78.4881 7.23553 78.822 6.20786 79.6559 6.09794L82.5534 5.71599C82.889 5.67175 83.1795 5.46074 83.3252 5.15523L84.5839 2.51759Z" fill="#FFB932"/>
</svg>
