<svg width="214" height="170" viewBox="0 0 214 170" fill="none" xmlns="http://www.w3.org/2000/svg">
<path d="M75.1521 160.956C110.395 160.956 138.965 143.193 138.965 121.281C138.965 99.3696 110.395 81.6067 75.1521 81.6067C39.9091 81.6067 11.339 99.3696 11.339 121.281C11.339 143.193 39.9091 160.956 75.1521 160.956Z" fill="#F5F5F5"/>
<path d="M39.1873 118.439C46.4574 118.439 52.3509 114.591 52.3509 109.844C52.3509 105.097 46.4574 101.249 39.1873 101.249C31.9172 101.249 26.0237 105.097 26.0237 109.844C26.0237 114.591 31.9172 118.439 39.1873 118.439Z" fill="#E6E6E6"/>
<path d="M107.179 148.427C115.882 148.427 122.937 143.819 122.937 138.135C122.937 132.451 115.882 127.843 107.179 127.843C98.476 127.843 91.421 132.451 91.421 138.135C91.421 143.819 98.476 148.427 107.179 148.427Z" fill="#E6E6E6"/>
<path d="M42.9208 103.421L51.9391 109.324C52.1585 109.449 52.401 109.515 52.647 109.515C52.893 109.515 53.1355 109.449 53.3549 109.324L66.1759 100.953C66.5667 100.698 66.5667 100.273 66.1759 100.028L57.1576 94.1256C56.9382 93.9999 56.6957 93.9343 56.4497 93.9343C56.2037 93.9343 55.9612 93.9999 55.7418 94.1256L42.9238 102.496C42.53 102.751 42.53 103.166 42.9208 103.421Z" fill="#E6E6E6"/>
<path d="M59.2589 70.7881V54.6789L60.2088 54.0601V70.1659L59.2589 70.7881Z" fill="#455A64"/>
<path d="M58.309 54.0601V71.4069L59.2589 70.7881V54.6789L58.309 54.0601Z" fill="#263238"/>
<path d="M53.5834 74.494L52.6335 73.8854L58.33 70.1658L59.2589 70.788L53.5834 74.494Z" fill="#37474F"/>
<path d="M52.6335 75.1162V59.007L53.5834 58.3882V74.494L52.6335 75.1162Z" fill="#455A64"/>
<path d="M51.6866 58.3882V75.735L52.6335 75.1162V59.007L51.6866 58.3882Z" fill="#37474F"/>
<path d="M59.0184 52.7679C58.8993 52.7016 58.7661 52.6741 58.6339 52.6885C58.5017 52.703 58.3757 52.7587 58.2699 52.8495L52.6966 56.4875C52.4077 56.6919 52.1656 56.9706 51.9901 57.3009C51.8146 57.6312 51.7106 58.0037 51.6866 58.3881V59.6291L52.6365 60.2479L60.2088 55.2737V54.0395C60.2206 53.9173 60.2044 53.7937 60.1617 53.6805C60.1191 53.5674 60.0515 53.4686 59.9653 53.3935C59.803 53.2677 59.1777 52.8801 59.0184 52.7679Z" fill="#1355BC"/>
<path d="M52.6335 59.007C52.6585 58.6225 52.7633 58.2501 52.9393 57.9199C53.1153 57.5897 53.3576 57.311 53.6465 57.1064L59.2198 53.4684C59.7789 53.1046 60.2269 53.3596 60.2208 54.0396V55.2738L52.6365 60.248C52.6365 60.248 52.6335 59.6938 52.6335 59.007Z" fill="#1355BC"/>
<path opacity="0.2" d="M52.6335 59.007C52.6585 58.6225 52.7633 58.2501 52.9393 57.9199C53.1153 57.5897 53.3576 57.311 53.6465 57.1064L59.2198 53.4684C59.7789 53.1046 60.2269 53.3596 60.2208 54.0396V55.2738L52.6365 60.248C52.6365 60.248 52.6335 59.6938 52.6335 59.007Z" fill="black"/>
<path opacity="0.4" d="M52.9221 57.9564C52.7423 58.2708 52.6386 58.6331 52.6215 59.007V60.248L51.6746 59.6292V58.3848C51.6874 58.0136 51.7859 57.6526 51.9601 57.3376L52.9221 57.9564Z" fill="black"/>
<path d="M68.2922 72.1581L63.1277 68.7955C63.0254 68.7115 62.9052 68.66 62.7794 68.6463C62.6536 68.6326 62.5269 68.6571 62.4123 68.7173L50.0242 76.8127L57.0735 108.643L69.4405 100.582C69.5443 100.501 69.627 100.389 69.6799 100.26C69.7328 100.13 69.7539 99.9864 69.7411 99.8443V74.9665C69.7113 74.4026 69.5646 73.8546 69.3129 73.3667C69.0612 72.8789 68.7115 72.4648 68.2922 72.1581Z" fill="#1355BC"/>
<path opacity="0.2" d="M68.2922 72.1581L63.1277 68.7955C63.0254 68.7115 62.9052 68.66 62.7794 68.6463C62.6536 68.6326 62.5269 68.6571 62.4123 68.7173L50.0242 76.8127L57.0735 108.643L69.4405 100.582C69.5443 100.501 69.627 100.389 69.6799 100.26C69.7328 100.13 69.7539 99.9864 69.7411 99.8443V74.9665C69.7113 74.4026 69.5646 73.8546 69.3129 73.3667C69.0612 72.8789 68.7115 72.4648 68.2922 72.1581Z" fill="black"/>
<path d="M50.8028 104.927L56.3731 108.565C56.9292 108.926 57.3861 108.63 57.3861 107.902V83.0247C57.3582 82.4627 57.2139 81.9161 56.9648 81.4288C56.7157 80.9416 56.3689 80.5274 55.9522 80.2197L50.8028 76.8401C50.2437 76.4797 49.7897 76.7755 49.7897 77.5201V102.945C49.8101 103.342 49.9123 103.728 50.0882 104.072C50.2641 104.417 50.5088 104.709 50.8028 104.927Z" fill="#1355BC"/>
<path opacity="0.4" d="M50.8028 104.927L56.3731 108.565C56.9292 108.926 57.3861 108.63 57.3861 107.902V83.0247C57.3582 82.4627 57.2139 81.9161 56.9648 81.4288C56.7157 80.9416 56.3689 80.5274 55.9522 80.2197L50.8028 76.8401C50.2437 76.4797 49.7897 76.7755 49.7897 77.5201V102.945C49.8101 103.342 49.9123 103.728 50.0882 104.072C50.2641 104.417 50.5088 104.709 50.8028 104.927Z" fill="black"/>
<path d="M54.6806 106.08C54.6473 105.37 54.4667 104.678 54.1534 104.062C53.84 103.445 53.4028 102.92 52.877 102.53C52.3539 102.19 51.882 102.173 51.5513 102.425L50.3278 103.214L52.907 108.222L54.1095 107.437C54.4702 107.222 54.6806 106.76 54.6806 106.08Z" fill="#455A64"/>
<path d="M51.5997 103.36C52.1259 103.75 52.5634 104.276 52.8768 104.893C53.1901 105.51 53.3705 106.202 53.4034 106.913C53.4034 108.219 52.5917 108.749 51.5997 108.096C51.0735 107.706 50.636 107.181 50.3227 106.563C50.0093 105.946 49.8289 105.254 49.7961 104.543C49.787 103.248 50.5987 102.717 51.5997 103.36Z" fill="#37474F"/>
<path d="M51.5994 104.836C51.8014 104.984 51.9693 105.185 52.0895 105.422C52.2097 105.658 52.2787 105.923 52.2908 106.196C52.2908 106.692 51.9902 106.896 51.5994 106.648C51.3982 106.498 51.2309 106.297 51.1113 106.061C50.9917 105.825 50.9231 105.56 50.911 105.288C50.911 104.788 51.2176 104.587 51.5994 104.836Z" fill="#263238"/>
<path d="M55.4832 107.984L56.4632 108.633C56.5596 108.697 56.669 108.73 56.7804 108.73C56.8918 108.73 57.0012 108.697 57.0975 108.633L58.6787 107.613V106.352C58.6789 106.307 58.6685 106.263 58.6487 106.224C58.6288 106.185 58.6002 106.152 58.5657 106.13C58.5312 106.107 58.492 106.096 58.4522 106.096C58.4124 106.096 58.3733 106.108 58.339 106.131L57.3801 106.76L55.8229 105.74C55.7886 105.717 55.7496 105.705 55.7098 105.705C55.6699 105.705 55.6308 105.716 55.5963 105.739C55.5618 105.761 55.5331 105.794 55.5133 105.833C55.4934 105.872 55.4831 105.916 55.4832 105.961V107.984Z" fill="#37474F"/>
<path d="M57.3831 107.902V106.76L55.8259 105.74C55.7916 105.717 55.7526 105.705 55.7128 105.705C55.673 105.705 55.6338 105.716 55.5993 105.739C55.5648 105.761 55.5361 105.794 55.5163 105.833C55.4964 105.872 55.4861 105.916 55.4863 105.961V108.001L56.367 108.579C56.4547 108.644 56.5531 108.689 56.6564 108.711C56.7596 108.732 56.8657 108.73 56.9683 108.705C57.0053 108.692 57.0415 108.676 57.0765 108.657C57.1834 108.575 57.2684 108.461 57.3224 108.328C57.3764 108.195 57.3974 108.048 57.3831 107.902Z" fill="#263238"/>
<path d="M69.4405 100.582C69.5444 100.501 69.627 100.389 69.6799 100.26C69.7328 100.13 69.7539 99.9864 69.7411 99.8442V98.6882L68.7281 99.3512C68.641 99.4081 68.5688 99.4898 68.5187 99.5883C68.4685 99.6868 68.4422 99.7986 68.4425 99.9122V101.242L69.4405 100.582Z" fill="#37474F"/>
<path d="M57.3831 90.6271C62.6047 83.7387 66.6118 81.4471 69.7231 82.5657V81.3281C66.6118 80.2231 62.6047 82.4977 57.3831 89.3861V90.6271Z" fill="#1355BC"/>
<path opacity="0.3" d="M69.1158 73.0422L56.7729 81.1036C56.5567 80.7463 56.276 80.445 55.9492 80.2196L50.8028 76.84C50.7068 76.7639 50.5962 76.715 50.4801 76.6972C50.364 76.6795 50.2458 76.6935 50.1354 76.738L62.4273 68.7038C62.5421 68.6443 62.6687 68.6201 62.7943 68.6339C62.92 68.6476 63.0402 68.6987 63.1428 68.782L68.2952 72.1446C68.6215 72.3752 68.9011 72.6811 69.1158 73.0422Z" fill="#1355BC"/>
<path d="M64.0296 71.7704C63.8456 71.6647 63.6422 71.6096 63.4359 71.6096C63.2295 71.6096 63.0261 71.6647 62.8422 71.7704L62.2409 72.158V72.379L63.4283 73.1542L64.0296 72.7666C64.0978 72.7323 64.1566 72.6779 64.2 72.6092C64.2433 72.5404 64.2696 72.4598 64.2761 72.3756V72.158C64.2691 72.0745 64.2426 71.9946 64.1993 71.9264C64.1559 71.8583 64.0974 71.8045 64.0296 71.7704Z" fill="#263238"/>
<path d="M62.2259 72.158L62.8271 71.7704C63.0111 71.6647 63.2145 71.6096 63.4208 71.6096C63.6271 71.6096 63.8306 71.6647 64.0145 71.7704C64.0867 71.7973 64.1495 71.8492 64.1941 71.9188C64.2386 71.9884 64.2626 72.0721 64.2626 72.158C64.2626 72.244 64.2386 72.3277 64.1941 72.3973C64.1495 72.4669 64.0867 72.5188 64.0145 72.5456L63.4133 72.9332L62.2259 72.158Z" fill="#455A64"/>
<path d="M63.4223 71.8794V72.9334L62.2349 72.1582V71.1042L63.4223 71.8794Z" fill="#37474F"/>
<path d="M57.4823 75.7724L63.4223 71.8794L62.2349 71.1042L56.2949 74.9802L57.4823 75.7724Z" fill="#455A64"/>
<path d="M56.2949 76.0376V74.9802L57.4823 75.7724V76.8128L56.2949 76.0376Z" fill="#37474F"/>
<path d="M57.4793 76.8128L56.2769 76.0376L55.6756 76.4252C55.6088 76.4594 55.5511 76.5129 55.5084 76.5804C55.4656 76.6478 55.4393 76.7268 55.4321 76.8094V77.0372C55.4393 77.1198 55.4656 77.1988 55.5084 77.2662C55.5511 77.3336 55.6088 77.3872 55.6756 77.4214C55.8596 77.5271 56.063 77.5822 56.2693 77.5822C56.4757 77.5822 56.6791 77.5271 56.863 77.4214L57.4643 77.0338L57.4793 76.8128Z" fill="#263238"/>
<path d="M56.2949 76.0376L55.6937 76.4252C55.6215 76.452 55.5587 76.5039 55.5141 76.5735C55.4696 76.6431 55.4456 76.7269 55.4456 76.8128C55.4456 76.8987 55.4696 76.9825 55.5141 77.0521C55.5587 77.1217 55.6215 77.1736 55.6937 77.2004C55.8796 77.3089 56.0857 77.3656 56.2949 77.3656C56.5041 77.3656 56.7102 77.3089 56.8961 77.2004L57.4973 76.8128L56.2949 76.0376Z" fill="#455A64"/>
<path d="M57.6756 75.6431V76.9079L57.4793 77.0337V75.7723L57.6756 75.6431Z" fill="#263238"/>
<path d="M63.4232 71.8794V73.151L63.2239 73.2802V72.0052L63.4232 71.8794Z" fill="#263238"/>
<path d="M57.4793 76.0376L63.4223 72.1446V71.8794L57.4793 75.7724V76.0376Z" fill="#263238"/>
<path d="M63.2269 73.2801V72.2737L62.4574 72.7769L63.2269 73.2801Z" fill="#37474F"/>
<path d="M101.987 25.4321L89.2536 18.6321L89.8789 18.2581L101.942 20.5259L103.298 19.7201C103.441 19.6462 103.597 19.6117 103.754 19.6194C103.91 19.6271 104.063 19.6767 104.2 19.7643C104.443 19.9377 104.44 20.1995 104.2 20.3491L103.367 20.8455L108.036 21.9505L101.987 25.4321Z" fill="#0084D8"/>
<path opacity="0.4" d="M101.987 25.4321L89.2536 18.6321L89.8789 18.2581L101.942 20.5259L103.298 19.7201C103.441 19.6462 103.597 19.6117 103.754 19.6194C103.91 19.6271 104.063 19.6767 104.2 19.7643C104.443 19.9377 104.44 20.1995 104.2 20.3491L103.367 20.8455L108.036 21.9505L101.987 25.4321Z" fill="black"/>
<path d="M106.451 20.6788C110.462 18.1084 114.745 15.4938 118.298 16.5988C120.736 17.3672 116.925 20.8522 110.555 24.6738L104.912 27.7746C99.2639 30.6442 93.4591 33.116 93.4591 33.116L93.7206 37.536L93.1585 37.876L90.6244 34.68C90.6244 34.68 89.2085 35.445 88.4179 34.884C87.6273 34.323 88.9229 33.4662 88.9229 33.4662L84.2815 31.5384L84.8467 31.1984L91.5713 31.7594C91.5713 31.7594 95.861 28.22 100.749 24.82C100.749 24.82 102.444 23.2492 106.451 20.6788Z" fill="#0084D8"/>
<path d="M113.75 27.0028L112.391 27.812L115.851 36.873L115.226 37.247L104.491 27.047L110.717 23.46L112.034 26.86L112.866 26.3636C113.009 26.2889 113.165 26.254 113.322 26.2617C113.479 26.2693 113.632 26.3194 113.768 26.4078C114.006 26.5914 114 26.86 113.75 27.0028Z" fill="#0084D8"/>
<path opacity="0.4" d="M113.75 27.0028L112.391 27.812L115.851 36.873L115.226 37.247L104.491 27.047L110.717 23.46L112.034 26.86L112.866 26.3636C113.009 26.2889 113.165 26.254 113.322 26.2617C113.479 26.2693 113.632 26.3194 113.768 26.4078C114.006 26.5914 114 26.86 113.75 27.0028Z" fill="black"/>
<path d="M42.9629 43.6288C42.5932 42.1872 41.8266 41.276 37.6933 41.089C33.5599 40.902 29.5769 41.6432 28.3143 43.5812C27.4606 44.9004 26.6399 48.2664 27.4756 48.5146C28.3113 48.7628 40.8497 48.3718 42.1513 47.5252C43.4529 46.6786 42.9629 43.6288 42.9629 43.6288Z" fill="#3563E9"/>
<path d="M32.4657 44.3258C32.1476 44.0376 31.7732 43.8394 31.3738 43.7478C30.9743 43.6561 30.5613 43.6736 30.169 43.7988C28.8885 44.2578 27.8514 45.5192 27.4846 48.8716C27.1179 52.224 27.2261 62.5328 27.9145 64.6C28.6029 66.6672 31.131 67.626 34.1701 67.354C37.2093 67.082 41.8567 66.2558 43.3116 64.6C44.7666 62.9442 43.495 46.7874 42.5661 44.1422L32.4657 44.3258Z" fill="#3563E9"/>
<path opacity="0.2" d="M32.4657 44.3258C32.1476 44.0376 31.7732 43.8394 31.3738 43.7478C30.9743 43.6561 30.5613 43.6736 30.169 43.7988C28.8885 44.2578 27.8514 45.5192 27.4846 48.8716C27.1179 52.224 27.2261 62.5328 27.9145 64.6C28.6029 66.6672 31.131 67.626 34.1701 67.354C37.2093 67.082 41.8567 66.2558 43.3116 64.6C44.7666 62.9442 43.495 46.7874 42.5661 44.1422L32.4657 44.3258Z" fill="black"/>
<path d="M30.8274 92.4017C30.8815 89.4029 31.6811 87.1759 31.7292 86.3429C31.7292 86.3429 31.5338 68.4929 31.5338 65.6029L44.989 64.9841C44.989 64.9841 44.8027 82.8783 44.8027 85.3569C44.8027 87.8355 44.475 98.3857 44.1263 103.241L44.0872 104.836L41.0811 105.893C41.1248 104.987 41.1248 104.079 41.0811 103.173C41.024 100.909 39.6743 93.0613 39.548 91.0689C39.3857 88.4917 39.7494 87.4479 39.7043 85.7275C39.6593 84.0071 38.7785 72.7157 38.7785 72.7157C38.7785 72.7157 37.0951 83.7861 36.6742 87.5465C36.1932 91.8543 34.6511 103.142 34.6481 105.767C34.6481 106.236 34.6481 106.787 34.6481 107.372C34.6481 108.793 34.615 109.167 34.8165 109.715C35.1682 110.677 32.1591 111.282 32.0178 110.599L31.6961 107.777V107.695V105.907C31.6991 103.231 30.7462 96.7537 30.8274 92.4017Z" fill="#FFA8A7"/>
<path d="M49.9791 109.286C50.0592 109.562 50.0441 109.862 49.9371 110.126C49.8318 110.371 48.6986 111.095 47.1655 110.979C46.0299 110.887 44.9365 110.456 43.997 109.728C43.4139 109.29 42.7946 109.208 42.0461 109.157C41.2976 109.106 40.2935 108.681 40.1252 108.28C40.0397 107.921 40.0491 107.541 40.1523 107.188L49.9791 109.286Z" fill="#37474F"/>
<path d="M43.7956 103.877L43.9189 103.85C43.9854 103.834 44.0538 103.834 44.1203 103.85C44.1945 103.877 44.2603 103.927 44.3097 103.996C44.4596 104.207 44.5905 104.435 44.7005 104.676C45.0221 105.267 45.6955 105.76 46.432 106.206C46.931 106.512 47.421 106.746 47.935 107.012C48.4491 107.277 49.1615 107.443 49.5763 107.756C50.1775 108.215 50.2527 109.364 49.5763 109.82C48.9751 110.214 47.43 110.639 45.7977 110.116C44.8959 109.83 43.9249 108.756 42.7585 108.654C42.019 108.589 40.6152 108.355 40.1402 107.715C39.9629 107.433 40.1974 106.539 40.3927 105.767C40.6032 104.924 40.8557 103.601 41.1022 103.676C41.1022 103.843 41.0842 103.884 41.1803 103.996C41.2765 104.108 41.3938 104.169 41.481 104.268C41.6549 104.463 41.7946 104.694 41.8928 104.948C41.9325 105.06 42.0074 105.152 42.1032 105.206C42.2265 105.257 42.3196 105.169 42.4309 105.114C42.5695 105.043 42.7262 105.03 42.8728 105.077C42.8587 104.909 42.8325 104.743 42.7946 104.581C42.7826 104.528 42.7826 104.473 42.7946 104.421C42.8148 104.371 42.8485 104.329 42.8908 104.302C43.163 104.09 43.4712 103.946 43.7956 103.877Z" fill="#455A64"/>
<path d="M37.7354 114.196C37.8187 114.502 37.806 114.831 37.6993 115.127C37.5911 115.318 36.9778 115.913 35.8626 116.001C34.7984 116.089 33.8485 115.926 33.2232 115.477C32.598 115.029 32.2944 114.532 32.2372 113.849C32.1801 113.165 32.2372 112.489 31.9547 111.972C31.6721 111.455 31.2633 110.935 31.1701 110.673C31.0602 110.216 31.0602 109.733 31.1701 109.276L37.7354 114.196Z" fill="#37474F"/>
<path d="M34.8225 108.208C34.8305 108.468 34.872 108.724 34.9457 108.97C35.1074 109.502 35.3265 110.009 35.598 110.479C35.7314 110.725 35.8801 110.959 36.0429 111.18C36.3646 111.615 36.7644 111.969 37.1041 112.383C37.4666 112.777 37.6989 113.299 37.7624 113.862C37.8075 114.808 36.8997 115.127 36.2023 115.267C35.448 115.417 34.6733 115.374 33.9357 115.141C33.5481 115.026 33.198 114.787 32.9272 114.453C32.6564 114.119 32.4763 113.704 32.4086 113.257C32.3695 112.995 32.3845 112.727 32.3575 112.465C32.2654 111.862 32.0422 111.294 31.7082 110.813C31.515 110.532 31.3478 110.231 31.2092 109.912C30.9927 109.327 31.1671 108.671 31.3054 108.089C31.4256 107.586 31.5609 107.018 31.7202 107.069C31.7202 107.328 31.7202 107.355 31.8825 107.532C32.093 107.756 32.102 108.093 32.3214 108.29C32.2504 108.07 32.199 107.842 32.1681 107.61C32.154 107.518 32.17 107.424 32.2132 107.345C32.2876 107.271 32.376 107.217 32.4717 107.188C32.801 107.063 33.1403 106.976 33.4848 106.926C33.8123 106.867 34.1462 106.867 34.4738 106.926C34.5708 106.948 34.6587 107.005 34.7233 107.09C34.7815 107.184 34.812 107.297 34.8105 107.413C34.8255 107.566 34.8165 107.957 34.8225 108.208Z" fill="#455A64"/>
<path d="M35.7093 110.677C35.4087 110.415 34.7022 110.411 34.3205 110.456C33.9333 110.494 33.5611 110.643 33.2383 110.887C33.1904 110.925 33.1323 110.943 33.074 110.937C33.0158 110.932 32.9612 110.903 32.9196 110.857C32.8951 110.83 32.876 110.798 32.8638 110.762C32.8515 110.727 32.8463 110.688 32.8486 110.65C32.8509 110.612 32.8606 110.574 32.877 110.541C32.8935 110.507 32.9162 110.478 32.9437 110.456C33.2944 110.162 33.711 109.985 34.1461 109.946C35.084 109.871 35.3485 110.051 35.3485 110.051C35.3485 110.051 35.8025 110.364 35.7093 110.677Z" fill="#F5F5F5"/>
<path d="M36.4247 111.646C36.0339 111.384 35.2674 111.421 34.8886 111.465C34.5075 111.509 34.1434 111.666 33.8335 111.921C33.7856 111.959 33.7275 111.977 33.6692 111.971C33.611 111.966 33.5563 111.937 33.5148 111.89C33.4903 111.864 33.4712 111.832 33.4589 111.796C33.4467 111.76 33.4415 111.722 33.4438 111.684C33.4461 111.645 33.4558 111.608 33.4722 111.574C33.4886 111.541 33.5114 111.512 33.5389 111.489C33.8999 111.178 34.3311 110.987 34.7834 110.939C35.7213 110.864 35.9648 111.081 35.9648 111.081C36.0744 111.13 36.1727 111.206 36.2525 111.303C36.3322 111.401 36.3911 111.518 36.4247 111.646Z" fill="#F5F5F5"/>
<path d="M33.7884 108.932C34.1828 108.852 34.589 108.89 34.9667 109.041C35.1321 109.147 35.2403 109.442 35.1351 109.517C34.8041 109.368 34.4462 109.312 34.092 109.354C33.7398 109.393 33.3962 109.5 33.0759 109.67C32.9978 109.711 32.9016 109.765 32.8174 109.82C32.7914 109.835 32.7629 109.844 32.7337 109.847C32.7044 109.85 32.675 109.846 32.6471 109.836C32.6191 109.826 32.5932 109.81 32.5709 109.788C32.5485 109.767 32.5301 109.741 32.5168 109.711C32.4945 109.658 32.4905 109.598 32.5055 109.542C32.5205 109.486 32.5535 109.438 32.5979 109.408C32.9601 109.155 33.366 108.993 33.7884 108.932Z" fill="#F5F5F5"/>
<path d="M45.7406 105.74C45.6864 105.625 45.6077 105.526 45.5117 105.454C45.4157 105.382 45.3053 105.337 45.1905 105.325C44.8538 105.254 44.2586 105.536 43.8888 105.883C43.8536 105.915 43.8258 105.956 43.8081 106.003C43.7903 106.05 43.783 106.102 43.7869 106.153C43.7907 106.204 43.8056 106.253 43.8302 106.296C43.8548 106.339 43.8883 106.375 43.9279 106.399C43.9778 106.43 44.0349 106.443 44.0914 106.435C44.1479 106.428 44.201 106.401 44.2435 106.359C44.6527 105.941 45.1895 105.719 45.7406 105.74Z" fill="#F5F5F5"/>
<path d="M46.7837 106.42C46.7107 106.303 46.6138 106.207 46.5013 106.142C46.3888 106.076 46.264 106.042 46.1374 106.042C45.6172 106.068 45.1174 106.278 44.7095 106.644C44.6761 106.676 44.65 106.716 44.6333 106.762C44.6167 106.807 44.61 106.857 44.6138 106.906C44.6177 106.955 44.6319 107.002 44.6554 107.044C44.6788 107.085 44.7108 107.12 44.7485 107.144C44.796 107.173 44.8503 107.185 44.904 107.179C44.9578 107.172 45.0084 107.147 45.0492 107.107C45.2735 106.851 45.5462 106.657 45.8466 106.538C46.1471 106.419 46.4675 106.379 46.7837 106.42Z" fill="#F5F5F5"/>
<path d="M47.938 107.011C47.8542 106.903 47.7505 106.817 47.6343 106.758C47.518 106.699 47.3919 106.67 47.2646 106.671C46.7641 106.705 46.2862 106.919 45.8999 107.28C45.8664 107.311 45.8401 107.352 45.8232 107.397C45.8063 107.442 45.7993 107.492 45.8028 107.541C45.8064 107.59 45.8203 107.637 45.8435 107.679C45.8667 107.72 45.8984 107.755 45.936 107.78C45.9834 107.809 46.0377 107.821 46.0914 107.815C46.1452 107.808 46.1958 107.783 46.2366 107.742C46.45 107.479 46.715 107.275 47.0105 107.148C47.306 107.021 47.6236 106.975 47.938 107.011Z" fill="#F5F5F5"/>
<path d="M45.0041 64.9773C45.0041 64.9773 45.1844 77.5845 45.2055 79.7979C45.2265 82.0113 45.2055 86.2579 45.2055 88.4305C45.2055 88.4305 44.7095 89.3757 41.8808 89.3723C39.052 89.3689 38.6432 88.4849 38.6432 88.4849L38.2254 78.2849L37.4468 88.8725C36.8745 89.3129 36.2285 89.6161 35.5487 89.7635C34.8688 89.9108 34.1695 89.8992 33.4938 89.7293C31.1641 89.1615 30.8214 88.3693 30.8214 88.3693L31.2783 65.0079L45.0041 64.9773Z" fill="#3563E9"/>
<path opacity="0.6" d="M45.0041 64.9773C45.0041 64.9773 45.1844 77.5845 45.2055 79.7979C45.2265 82.0113 45.2055 86.2579 45.2055 88.4305C45.2055 88.4305 44.7095 89.3757 41.8808 89.3723C39.052 89.3689 38.6432 88.4849 38.6432 88.4849L38.2254 78.2849L37.4468 88.8725C36.8745 89.3129 36.2285 89.6161 35.5487 89.7635C34.8688 89.9108 34.1695 89.8992 33.4938 89.7293C31.1641 89.1615 30.8214 88.3693 30.8214 88.3693L31.2783 65.0079L45.0041 64.9773Z" fill="white"/>
<path opacity="0.1" d="M38.2253 78.2917L38.6402 74.0111C38.6402 74.0111 40.5821 73.4773 41.8807 72.3723C41.4612 72.946 40.9628 73.4396 40.4048 73.8343C39.6172 74.3341 39.2414 74.5415 39.2414 74.5415L38.6732 78.6827L38.574 86.7543L38.2253 78.2917Z" fill="black"/>
<path d="M31.1069 67.1601C32.9557 68.6833 41.3276 70.3697 45.2115 67.1601C45.2115 67.1601 45.1213 54.8861 44.8177 48.3887C44.8026 48.0929 44.7846 47.8073 44.7606 47.5285C44.7606 47.4367 44.7395 47.3449 44.7305 47.2531C44.6867 46.8644 44.6204 46.4794 44.5321 46.1005C44.5321 46.0393 44.502 45.9781 44.484 45.9135C44.4449 45.7741 44.4058 45.6347 44.3577 45.5021C44.3307 45.4307 44.3036 45.3559 44.2736 45.2879C44.2435 45.2199 44.2225 45.1587 44.1924 45.0941C44.1935 45.0828 44.1935 45.0714 44.1924 45.0601C44.1623 44.9955 44.1293 44.9343 44.0992 44.8765C44.0692 44.8187 44.0301 44.7439 43.988 44.6793C43.9459 44.6147 43.9128 44.5569 43.8768 44.5025C43.8329 44.4382 43.7857 44.3769 43.7355 44.3189C43.6915 44.259 43.6443 44.2022 43.5942 44.1489L43.492 44.0435C43.4607 44.0082 43.4265 43.9763 43.3898 43.9483C43.3456 43.9048 43.2994 43.864 43.2515 43.8259C43.097 43.6971 42.933 43.5834 42.7615 43.4859L42.6172 43.4111H42.5811L42.4068 43.3363C42.3086 43.2935 42.2082 43.2571 42.1062 43.2275L41.7815 43.1323H41.3667H41.0661H40.7354C39.2835 43.2071 37.1973 43.4723 35.5259 43.7137L35.1952 43.7647L34.8946 43.8021C33.7463 43.9721 32.8925 44.1149 32.7633 44.1421H32.7452C32.3695 44.2475 32.0208 44.3495 31.7412 44.4447C30.9717 44.6997 31.5428 44.4821 31.3745 45.3219C30.8785 47.7869 31.4556 56.7527 31.4556 56.7527L31.1069 67.1601Z" fill="#F5F5F5"/>
<path d="M58.3331 31.9601C56.5294 30.6783 56.1536 31.4603 56.337 33.3201C56.4236 34.0999 56.4125 34.8897 56.3039 35.6661C56.1816 35.3015 56.0146 34.9582 55.8079 34.6461C55.7059 34.4739 55.5501 34.3516 55.3717 34.3036C55.1934 34.2557 55.0056 34.2857 54.846 34.3877C54.7167 34.4931 54.9723 34.8331 55.0925 35.5403C55.2458 36.4515 55.0925 37.0159 55.4713 37.9203C55.6104 38.2637 55.636 38.6521 55.5434 39.0151C55.0925 40.8613 53.9021 43.3909 52.5824 46.0361C50.4782 45.3765 48.3949 44.5435 46.1765 43.8363C42.7525 42.7449 41.6673 43.0815 40.8196 44.1083L42.0401 48.0285L53.0093 51.0001C53.869 51.2653 55.0023 50.9423 55.4141 50.0549C56.6166 47.5253 57.5184 44.1457 58.1888 41.5311C58.5946 39.9773 58.9343 38.5595 59.1507 37.5803C59.9052 34.1803 59.4573 32.7523 58.3331 31.9601Z" fill="#FFA8A7"/>
<path d="M41.045 43.1254C42.3497 42.9588 43.4229 42.7854 45.4249 43.3702C47.427 43.955 52.4712 45.8114 52.4712 45.8114L55.0534 40.5754C56.0004 41.2467 57.1197 41.5377 58.2308 41.4016C57.7607 43.646 57.1878 45.8613 56.5143 48.0384C55.6576 50.551 55.2127 51.3058 54.5784 51.52C53.9441 51.7342 43.973 49.14 43.973 49.14L41.045 43.1254Z" fill="#37474F"/>
<path d="M31.1069 67.1601C32.9557 68.6833 41.3276 70.3697 45.2115 67.1601C45.2115 67.1601 45.1213 54.8861 44.8177 48.3887C44.8026 48.0929 44.7846 47.8073 44.7606 47.5285C44.7606 47.4367 44.7395 47.3449 44.7305 47.2531C44.6867 46.8644 44.6204 46.4794 44.5321 46.1005C44.5321 46.0393 44.502 45.9781 44.484 45.9135C44.4449 45.7741 44.4058 45.6347 44.3577 45.5021C44.3307 45.4307 44.3036 45.3559 44.2736 45.2879C44.2435 45.2199 44.2225 45.1587 44.1924 45.0941C44.1935 45.0828 44.1935 45.0714 44.1924 45.0601C44.1623 44.9955 44.1293 44.9343 44.0992 44.8765C44.0692 44.8187 44.0301 44.7439 43.988 44.6793C43.9459 44.6147 43.9128 44.5569 43.8768 44.5025C43.8329 44.4382 43.7857 44.3769 43.7355 44.3189C43.6915 44.259 43.6443 44.2022 43.5942 44.1489L43.492 44.0435C43.4607 44.0082 43.4265 43.9763 43.3898 43.9483C43.3456 43.9048 43.2994 43.864 43.2515 43.8259C43.097 43.6971 42.933 43.5834 42.7615 43.4859L42.6172 43.4111H42.5811L42.4068 43.3363C42.3086 43.2935 42.2082 43.2571 42.1062 43.2275L41.7815 43.1323H41.3667H41.0661H40.7354C39.2835 43.2071 37.1973 43.4723 35.5259 43.7137L35.1952 43.7647L34.8946 43.8021C33.7463 43.9721 32.8925 44.1149 32.7633 44.1421H32.7452C32.3695 44.2475 32.0208 44.3495 31.7412 44.4447C30.9717 44.6997 31.5428 44.4821 31.3745 45.3219C30.8785 47.7869 31.4556 56.7527 31.4556 56.7527L31.1069 67.1601Z" fill="#455A64"/>
<path d="M27.3824 58.8199C28.4466 46.9199 29.4145 44.6521 32.4567 44.3257C33.4577 45.4171 33.4306 48.5383 32.5679 50.4117C32.5679 50.4117 31.2753 55.4063 30.8214 59.6257C30.5658 62.0057 30.0278 66.9187 30.2502 68.9145C30.2931 69.2687 30.4492 69.5929 30.6891 69.8257C31.3264 70.4547 31.3835 71.0191 31.8254 71.7467C32.1741 72.3179 32.5108 72.5049 32.4266 72.6511C32.3214 72.8102 32.167 72.9185 31.9942 72.9545C31.8215 72.9904 31.6431 72.9513 31.4947 72.8449C31.207 72.6598 30.943 72.431 30.7101 72.1649C30.8797 72.8935 31.1387 73.5916 31.4797 74.2389C32.2763 75.7961 32.2011 76.6495 30.1931 76.3061C28.9335 76.0919 28.0558 75.0311 27.5537 71.7297C27.3695 70.5118 27.2421 69.2839 27.172 68.0509C27.0342 64.9723 27.1046 61.8863 27.3824 58.8199Z" fill="#FFA8A7"/>
<path d="M32.7423 44.1421C32.7423 44.1421 31.0107 44.3291 30.3644 44.7949C29.3604 45.5191 28.8975 46.9845 28.4135 49.3611C27.9295 51.7377 27.0547 56.3073 26.8593 58.1637C26.664 60.0201 26.9105 65.5383 26.9105 65.5383C27.4535 65.8689 28.0573 66.0512 28.6738 66.0707C29.2902 66.0902 29.9022 65.9463 30.4606 65.6505C30.4606 65.6505 30.9356 60.3703 31.1069 58.8199C31.2452 57.5891 32.0869 53.4309 32.5529 52.1899C32.5529 52.1899 34.0559 47.3177 32.7423 44.1421Z" fill="#37474F"/>
<path d="M37.1372 33.422C37.1395 34.246 37.3578 35.0507 37.7643 35.7345C38.1709 36.4182 38.7474 36.9504 39.4213 37.2637C40.0951 37.577 40.8359 37.6574 41.5501 37.4948C42.2643 37.3321 42.9198 36.9337 43.4339 36.3499C43.948 35.766 44.2976 35.023 44.4385 34.2145C44.5794 33.4061 44.5053 32.5686 44.2255 31.8077C43.9458 31.0469 43.4729 30.3969 42.8667 29.9399C42.2605 29.4829 41.5481 29.2393 40.8196 29.24C40.3346 29.2395 39.8544 29.3475 39.4064 29.5577C38.9585 29.7679 38.5517 30.0762 38.2095 30.4649C37.8673 30.8535 37.5964 31.3149 37.4123 31.8224C37.2283 32.3299 37.1348 32.8735 37.1372 33.422Z" fill="#263238"/>
<path d="M34.4527 36.3799C34.4527 36.3799 35.0539 39.5521 35.2884 40.0757C35.4467 40.4004 35.7093 40.6439 36.0219 40.7557L35.9798 38.5219L34.4527 36.3799Z" fill="#263238"/>
<path d="M35.2012 31.8375C34.9918 31.8115 34.7799 31.8396 34.5815 31.9197C34.3832 31.9998 34.2034 32.1298 34.0559 32.2999C33.5659 32.8711 33.8395 34.6493 34.4527 36.3799L35.577 36.5261L35.2012 31.8375Z" fill="#263238"/>
<path d="M35.9137 36.5331C35.6882 36.6827 35.3666 36.1931 35.087 35.8531C34.8074 35.5131 33.9026 35.0745 33.4487 36.1557C32.9948 37.2369 33.8485 38.7091 34.5639 38.9607C35.7964 39.3993 35.9798 38.5051 35.9798 38.5051L36.064 43.6289C37.3536 46.2707 41.7184 44.9175 40.0831 43.1665V41.8677C40.6315 41.968 41.1878 42.0011 41.7425 41.9663C42.6443 41.8065 43.2185 40.9973 43.492 39.8889C43.9339 38.1073 44.0932 36.6691 43.7265 33.1671C43.3177 29.3251 39.3677 29.2877 37.2364 30.7871C35.105 32.2865 35.9137 36.5331 35.9137 36.5331Z" fill="#FFA8A7"/>
<path d="M35.3876 29.7398C36.1344 29.3777 36.9149 29.112 37.7143 28.9476C39.4368 28.526 41.1923 28.135 42.7645 27.2476C42.9471 27.1112 43.1621 27.0412 43.3808 27.047C43.7956 27.1082 43.982 27.676 43.982 28.1486C43.9969 28.5869 43.9461 29.0249 43.8317 29.444C43.9569 29.3083 44.1244 29.234 44.2977 29.2372C44.4711 29.2404 44.6363 29.3208 44.7576 29.461C44.8737 29.6078 44.9583 29.783 45.0047 29.9729C45.0511 30.1628 45.0581 30.3623 45.0251 30.5558C44.9533 30.9893 44.7893 31.3965 44.5474 31.7425C44.3055 32.0884 43.9928 32.3625 43.6363 32.5414C42.9202 32.8912 42.1466 33.0651 41.3667 33.0514C40.2799 33.0863 39.1928 32.9928 38.1231 32.7726C37.8665 32.7025 37.6014 32.6806 37.3385 32.708C37.2045 32.7226 37.077 32.7798 36.9705 32.8731C36.8641 32.9664 36.7833 33.0918 36.7373 33.235C36.6201 33.7212 36.5029 37.0192 35.9046 37.0328C35.7904 37.0328 35.3666 36.2032 35.09 35.9074C34.7413 35.5368 34.3926 32.7114 34.3295 32.1878C34.3233 32.1476 34.3077 32.11 34.2844 32.079C33.8906 31.4568 34.3505 30.4096 34.8345 30.0696C35.0125 29.9464 35.1972 29.8363 35.3876 29.7398Z" fill="#263238"/>
<path d="M40.0801 41.8777C40.0801 41.8777 38.057 41.4187 37.3506 40.9937C36.9347 40.7486 36.5941 40.367 36.3736 39.8989C36.4799 40.367 36.668 40.8063 36.9267 41.1909C37.4438 41.9355 40.0801 42.4863 40.0801 42.4863V41.8777Z" fill="#F28F8F"/>
<path d="M39.5931 35.9584C39.5902 36.0484 39.5639 36.1354 39.5175 36.2086C39.4712 36.2818 39.4068 36.338 39.3324 36.3702C39.2581 36.4023 39.177 36.409 39.0993 36.3894C39.0216 36.3698 38.9507 36.3248 38.8954 36.26C38.8402 36.1952 38.803 36.1134 38.7885 36.0249C38.774 35.9364 38.7829 35.845 38.814 35.7621C38.8451 35.6792 38.8971 35.6085 38.9635 35.5588C39.0298 35.509 39.1077 35.4825 39.1873 35.4824C39.2416 35.4833 39.2953 35.4963 39.3451 35.5208C39.395 35.5452 39.4401 35.5806 39.4778 35.6248C39.5155 35.6691 39.5452 35.7214 39.5649 35.7786C39.5847 35.8359 39.5943 35.897 39.5931 35.9584Z" fill="#263238"/>
<path d="M39.1632 34.2278L38.2975 34.7718C38.2346 34.6374 38.2204 34.4806 38.258 34.3346C38.2956 34.1886 38.382 34.065 38.4989 33.9898C38.5561 33.9547 38.6189 33.933 38.6837 33.9261C38.7484 33.9191 38.8138 33.9269 38.8758 33.9491C38.9378 33.9714 38.9952 34.0075 39.0446 34.0554C39.094 34.1032 39.1343 34.1619 39.1632 34.2278Z" fill="#263238"/>
<path d="M39.8967 39.1272L40.8196 39.5182C40.7991 39.588 40.7663 39.6523 40.7233 39.7074C40.6803 39.7626 40.6279 39.8073 40.5693 39.8391C40.5107 39.8708 40.447 39.8889 40.382 39.8921C40.3171 39.8954 40.2522 39.8839 40.1913 39.8582C40.0685 39.8026 39.9693 39.6957 39.9145 39.5595C39.8596 39.4233 39.8532 39.2685 39.8967 39.1272Z" fill="#F28F8F"/>
<path d="M43.2064 34.612L42.4158 33.932C42.4531 33.8716 42.5008 33.8204 42.5561 33.7815C42.6114 33.7426 42.6731 33.7168 42.7375 33.7057C42.8019 33.6946 42.8675 33.6984 42.9306 33.7168C42.9936 33.7352 43.0527 33.768 43.1042 33.813C43.207 33.9072 43.2745 34.0418 43.2935 34.1899C43.3124 34.338 43.2813 34.4887 43.2064 34.612Z" fill="#263238"/>
<path d="M42.9629 35.8291C42.9641 35.8906 42.9546 35.9517 42.9348 36.0089C42.915 36.0662 42.8854 36.1184 42.8477 36.1627C42.8099 36.2069 42.7648 36.2423 42.715 36.2667C42.6651 36.2912 42.6115 36.3042 42.5571 36.3051C42.4473 36.3015 42.3432 36.2492 42.2673 36.1595C42.1913 36.0698 42.1497 35.9499 42.1513 35.8257C42.1513 35.7654 42.1618 35.7057 42.1822 35.65C42.2026 35.5944 42.2325 35.5438 42.2702 35.5011C42.3078 35.4585 42.3526 35.4247 42.4018 35.4016C42.451 35.3786 42.5038 35.3667 42.5571 35.3667C42.6104 35.3667 42.6632 35.3786 42.7124 35.4016C42.7616 35.4247 42.8064 35.4585 42.8441 35.5011C42.8818 35.5438 42.9116 35.5944 42.932 35.65C42.9524 35.7057 42.9629 35.7654 42.9629 35.8257V35.8291Z" fill="#263238"/>
<path d="M40.8978 35.394L41.033 38.1514L42.3046 37.6618L40.8978 35.394Z" fill="#F28F8F"/>
<path d="M33.3194 44.0469C33.3194 44.0469 34.2663 46.3793 33.8034 50.6395C33.3405 54.8997 31.3985 58.7349 31.3985 58.7349L31.3174 61.2679C31.3174 61.2679 33.581 59.4557 35.0419 55.1105C36.5029 50.7653 36.1061 46.2093 35.5199 43.7171C35.1544 43.5843 34.7674 43.545 34.3869 43.6021C34.0063 43.6591 33.6417 43.8111 33.3194 44.0469Z" fill="#3563E9"/>
<path opacity="0.4" d="M33.3194 44.0469C33.3194 44.0469 34.2663 46.3793 33.8034 50.6395C33.3405 54.8997 31.3985 58.7349 31.3985 58.7349L31.3174 61.2679C31.3174 61.2679 33.581 59.4557 35.0419 55.1105C36.5029 50.7653 36.1061 46.2093 35.5199 43.7171C35.1544 43.5843 34.7674 43.545 34.3869 43.6021C34.0063 43.6591 33.6417 43.8111 33.3194 44.0469Z" fill="black"/>
<path d="M40.3446 43.1595C41.6733 43.9959 45.2145 47.5795 45.1153 59.3401C45.1153 59.3401 46.7265 55.1751 45.7165 49.6161C44.9169 45.2505 43.5341 43.6083 42.5661 43.0201C42.5571 43.0201 40.8827 42.4523 40.3446 43.1595Z" fill="#3563E9"/>
<path opacity="0.4" d="M40.3446 43.1595C41.6733 43.9959 45.2145 47.5795 45.1153 59.3401C45.1153 59.3401 46.7265 55.1751 45.7165 49.6161C44.9169 45.2505 43.5341 43.6083 42.5661 43.0201C42.5571 43.0201 40.8827 42.4523 40.3446 43.1595Z" fill="black"/>
<path d="M207.642 144.816L58.438 148.77V119.907H209.075L207.642 144.816Z" fill="#263238"/>
<path d="M52.6982 127.314V141.951C52.6981 143.479 53.1309 144.967 53.9331 146.196C54.7353 147.426 55.8647 148.332 57.1556 148.783L58.2083 149.145C58.8579 149.376 59.5365 149.484 60.2171 149.466L67.1827 149.283C66.441 146.35 66.3034 143.264 66.7805 140.261C67.2576 137.258 68.3367 134.419 69.9349 131.962C71.5332 129.504 73.6081 127.493 76.0004 126.084C78.3927 124.675 81.0387 123.904 83.7353 123.831C86.4319 123.759 89.1073 124.386 91.5563 125.665C94.0052 126.943 96.1624 128.84 97.8624 131.209C99.5624 133.577 100.76 136.355 101.363 139.329C101.966 142.302 101.959 145.393 101.341 148.362L172.246 146.456C172.132 145.519 172.076 144.575 172.079 143.629C172.061 140.987 172.507 138.367 173.391 135.921C174.275 133.476 175.58 131.253 177.229 129.382C178.878 127.51 180.839 126.028 182.998 125.02C185.158 124.012 187.473 123.499 189.809 123.511C192.145 123.522 194.455 124.058 196.607 125.087C198.759 126.116 200.708 127.617 202.343 129.505C203.978 131.392 205.265 133.628 206.13 136.082C206.996 138.536 207.422 141.16 207.384 143.802C207.384 144.191 207.358 144.576 207.358 144.958C207.449 144.916 207.548 144.874 207.642 144.823L210.065 143.597C211.236 142.999 212.229 142.031 212.926 140.81C213.624 139.589 213.994 138.167 213.995 136.713V106.9C213.995 105.525 213.663 104.175 213.034 102.998C212.405 101.82 211.504 100.859 210.428 100.219L192.204 89.3786C192.04 89.2799 191.905 89.1298 191.816 88.9464C191.726 88.763 191.685 88.5542 191.697 88.345C191.71 88.1358 191.776 87.9352 191.887 87.7673C191.998 87.5994 192.149 87.4713 192.323 87.3986L194.553 86.4936C194.665 86.4511 194.76 86.367 194.824 86.2551C194.887 86.1433 194.916 86.0103 194.904 85.8779C194.892 85.7456 194.841 85.6217 194.758 85.5266C194.676 85.4314 194.568 85.3707 194.451 85.3544C185.792 83.9873 152.112 79.0067 134.408 81.4553C113.979 84.2825 94.4012 104.327 94.4012 104.327C79.3634 103.685 65.3441 109.609 59.3063 112.577C58.3419 113.053 57.4762 113.751 56.7647 114.628C56.0533 115.505 55.5118 116.54 55.1752 117.667L53.1068 124.592C52.8429 125.469 52.7049 126.388 52.6982 127.314Z" fill="#D1D1D1"/>
<path d="M172.266 146.45C172.161 145.57 172.11 144.683 172.113 143.796C172.113 143.343 172.113 142.897 172.15 142.451L159.328 136.517C158.577 136.173 157.767 136.024 156.959 136.081L112.356 139.393C111.627 139.441 110.915 139.66 110.265 140.035L101.792 144.964C101.733 146.103 101.588 147.234 101.361 148.346L172.266 146.45Z" fill="#263238"/>
<path d="M214 136.707V135.946L206.748 138.456C207.171 140.195 207.385 141.992 207.383 143.796C207.383 144.184 207.358 144.569 207.358 144.951C207.449 144.91 207.548 144.868 207.642 144.816L210.07 143.591C211.241 142.992 212.235 142.025 212.932 140.804C213.629 139.583 214 138.16 214 136.707Z" fill="#263238"/>
<path d="M54.7579 147.207C55.4505 147.93 56.2775 148.469 57.1781 148.783L58.2308 149.145C58.8804 149.376 59.559 149.484 60.2396 149.466L67.2081 149.283C66.9562 148.287 66.774 147.27 66.6633 146.241L54.7579 147.207Z" fill="#263238"/>
<path d="M189.778 121.955C187.04 121.951 184.332 122.608 181.835 123.879C179.339 125.151 177.11 127.009 175.297 129.331C173.485 131.652 172.129 134.383 171.322 137.343C170.515 140.302 170.274 143.422 170.615 146.495L172.289 146.45C171.953 143.733 172.116 140.967 172.767 138.324C173.418 135.681 174.544 133.219 176.075 131.09C177.605 128.961 179.506 127.212 181.661 125.951C183.815 124.691 186.176 123.946 188.596 123.763C191.016 123.58 193.444 123.963 195.728 124.889C198.011 125.814 200.101 127.262 201.868 129.142C203.635 131.021 205.04 133.293 205.997 135.814C206.953 138.335 207.439 141.053 207.426 143.796C207.426 144.184 207.398 144.569 207.398 144.951C207.491 144.91 207.588 144.868 207.681 144.816L209.075 144.101V143.78C209.069 137.989 207.033 132.436 203.412 128.341C199.791 124.246 194.881 121.944 189.761 121.939L189.778 121.955Z" fill="#263238"/>
<path d="M84.1811 121.954C81.2286 121.953 78.3151 122.718 75.6648 124.19C73.0144 125.661 70.6977 127.801 68.8927 130.444C67.0878 133.086 65.8426 136.162 65.253 139.434C64.6634 142.706 64.745 146.088 65.4916 149.319L67.194 149.277C66.4523 146.344 66.3147 143.257 66.7918 140.255C67.2689 137.252 68.348 134.413 69.9462 131.955C71.5445 129.498 73.6194 127.487 76.0117 126.078C78.404 124.668 81.05 123.897 83.7466 123.825C86.4432 123.752 89.1186 124.379 91.5675 125.658C94.0165 126.937 96.1737 128.834 97.8737 131.202C99.5737 133.571 100.771 136.349 101.374 139.322C101.977 142.296 101.97 145.386 101.353 148.356L103.055 148.308C103.649 145.127 103.608 141.836 102.935 138.675C102.261 135.514 100.972 132.564 99.1612 130.038C97.3507 127.513 95.0645 125.477 92.4694 124.078C89.8743 122.679 87.0359 121.954 84.1612 121.954H84.1811Z" fill="#263238"/>
<path d="M100.987 105.161C100.818 105.331 100.69 105.547 100.615 105.789C100.541 106.03 100.522 106.289 100.561 106.541C100.6 106.793 100.695 107.03 100.838 107.229C100.98 107.428 101.165 107.582 101.375 107.677L108.752 110.013C109.402 110.222 110.083 110.28 110.753 110.183L165.4 102.526C166.771 102.311 168.022 101.526 168.909 100.325L176.079 90.8772C176.323 90.5517 176.472 90.1496 176.508 89.7251C176.607 88.65 176.011 87.6809 175.177 87.5589C162.091 85.5982 145.544 83.8139 135.097 85.258C121.398 87.145 107.612 98.7813 100.987 105.161Z" fill="#D1D1D1"/>
<path opacity="0.8" d="M101.233 105.161C101.064 105.331 100.937 105.547 100.862 105.789C100.788 106.03 100.769 106.289 100.808 106.541C100.847 106.793 100.942 107.03 101.085 107.229C101.227 107.428 101.412 107.582 101.622 107.677L108.999 110.013C109.644 110.22 110.32 110.278 110.985 110.183L124.914 109.105L164.412 106.044C165.743 105.851 167.797 103.088 169.253 100.845L176.312 90.8772C176.557 90.5528 176.708 90.1503 176.743 89.7251C176.84 88.65 176.244 87.6809 175.412 87.5589C162.324 85.5982 145.779 83.8139 135.332 85.258C121.645 87.145 107.859 98.7813 101.233 105.161Z" fill="white"/>
<g opacity="0.3">
<path d="M136.933 111.05C136.768 110.98 136.633 110.841 136.558 110.661C136.482 110.482 136.471 110.276 136.527 110.087C136.603 109.848 136.741 109.639 136.922 109.488C137.104 109.338 137.321 109.251 137.546 109.24L144.049 108.919C144.136 108.914 144.224 108.928 144.307 108.961C144.476 109.03 144.614 109.173 144.691 109.356C144.768 109.54 144.778 109.751 144.718 109.943C144.642 110.183 144.503 110.393 144.321 110.543C144.138 110.694 143.92 110.78 143.694 110.79L137.191 111.095C137.103 111.098 137.016 111.083 136.933 111.05Z" fill="black"/>
</g>
<path d="M185.3 89.9722C185.024 90.2502 184.857 90.6409 184.835 91.0585C184.813 91.4761 184.939 91.8864 185.184 92.1993L186.725 94.0959C186.903 94.3079 187.129 94.4619 187.377 94.542L206.271 100.469C206.6 100.569 206.938 100.62 207.278 100.62H211.032C210.836 100.476 210.638 100.338 210.428 100.212L192.204 89.3624C191.983 89.2383 191.815 89.0203 191.736 88.7562C191.657 88.4921 191.675 88.2035 191.784 87.9536L185.865 89.6288C185.656 89.6919 185.462 89.8095 185.3 89.9722Z" fill="#D1D1D1"/>
<path d="M67.651 115.359L61.2046 114.564L57.5019 116.277C57.1175 116.455 56.7753 116.732 56.5028 117.087C56.2303 117.441 56.0351 117.863 55.9328 118.318C55.811 118.851 55.8793 119.417 56.1229 119.894L56.1882 120.019C56.3905 120.414 56.692 120.731 57.0542 120.931C57.4165 121.131 57.8232 121.205 58.2226 121.142L61.9395 120.565C62.3017 120.507 62.6452 120.347 62.9382 120.099L67.2254 116.431L67.651 115.359Z" fill="white"/>
<path d="M94.4294 104.311L95.4565 104.632C95.8494 104.758 96.2637 104.774 96.6631 104.676C97.0624 104.579 97.4344 104.372 97.7462 104.073C103.722 98.3577 114.109 89.5871 125.317 85.5019C125.367 85.4835 125.409 85.4447 125.436 85.3928C125.462 85.3378 125.468 85.2733 125.453 85.2132C125.437 85.1531 125.402 85.1023 125.353 85.0719L123.96 84.2632C107.79 90.6108 94.4294 104.311 94.4294 104.311Z" fill="#D1D1D1"/>
<path opacity="0.8" d="M94.4294 104.311L95.4565 104.632C95.8494 104.758 96.2637 104.774 96.6631 104.676C97.0624 104.579 97.4344 104.372 97.7462 104.073C103.722 98.3577 114.109 89.5871 125.317 85.5019C125.367 85.4835 125.409 85.4447 125.436 85.3928C125.462 85.3378 125.468 85.2733 125.453 85.2132C125.437 85.1531 125.402 85.1023 125.353 85.0719L123.96 84.2632C107.79 90.6108 94.4294 104.311 94.4294 104.311Z" fill="white"/>
<path opacity="0.2" d="M155.693 112.028L101.367 116.431L102.388 124.011C102.701 126.333 103.461 128.548 104.616 130.5L109.155 138.176L155.526 131.084L177.447 112.038L155.693 112.028Z" fill="white"/>
<path d="M189.761 160.429C197.884 160.429 204.47 152.98 204.47 143.792C204.47 134.605 197.884 127.156 189.761 127.156C181.637 127.156 175.052 134.605 175.052 143.792C175.052 152.98 181.637 160.429 189.761 160.429Z" fill="#263238"/>
<path opacity="0.4" d="M189.761 153.991C194.741 153.991 198.778 149.425 198.778 143.792C198.778 138.16 194.741 133.594 189.761 133.594C184.781 133.594 180.744 138.16 180.744 143.792C180.744 149.425 184.781 153.991 189.761 153.991Z" fill="white"/>
<g opacity="0.3">
<path d="M189.764 134.621H189.761C189.363 134.621 189.04 134.986 189.04 135.436V140.664C189.04 141.114 189.363 141.479 189.761 141.479H189.764C190.162 141.479 190.484 141.114 190.484 140.664V135.436C190.484 134.986 190.162 134.621 189.764 134.621Z" fill="white"/>
</g>
<g opacity="0.3">
<path d="M189.764 146.113H189.761C189.363 146.113 189.04 146.478 189.04 146.928V152.155C189.04 152.606 189.363 152.971 189.761 152.971H189.764C190.162 152.971 190.484 152.606 190.484 152.155V146.928C190.484 146.478 190.162 146.113 189.764 146.113Z" fill="white"/>
</g>
<g opacity="0.3">
<path d="M192.516 142.939C192.433 142.991 192.341 143.024 192.247 143.036C192.153 143.048 192.057 143.039 191.966 143.009C191.875 142.98 191.79 142.93 191.715 142.863C191.641 142.795 191.58 142.712 191.534 142.618C191.439 142.431 191.414 142.209 191.463 142.001C191.513 141.793 191.633 141.616 191.798 141.508L195.799 138.879C195.965 138.771 196.163 138.742 196.349 138.799C196.534 138.855 196.693 138.993 196.789 139.181C196.883 139.369 196.908 139.591 196.858 139.8C196.808 140.009 196.688 140.187 196.522 140.295L192.524 142.92L192.516 142.939Z" fill="white"/>
</g>
<g opacity="0.3">
<path d="M183.717 148.661C183.552 148.768 183.356 148.797 183.172 148.741C182.988 148.685 182.831 148.549 182.736 148.362C182.687 148.269 182.655 148.165 182.642 148.058C182.629 147.95 182.636 147.841 182.661 147.736C182.686 147.632 182.729 147.534 182.788 147.448C182.848 147.363 182.921 147.292 183.005 147.239L187.006 144.611C187.088 144.557 187.178 144.521 187.272 144.507C187.366 144.493 187.461 144.499 187.552 144.527C187.644 144.554 187.73 144.602 187.805 144.667C187.88 144.732 187.943 144.813 187.99 144.906C188.038 144.999 188.07 145.101 188.082 145.208C188.095 145.314 188.089 145.422 188.065 145.526C188.041 145.63 187.999 145.727 187.941 145.812C187.883 145.897 187.811 145.969 187.729 146.023L183.726 148.651L183.717 148.661Z" fill="white"/>
</g>
<g opacity="0.3">
<path d="M195.799 148.683L191.801 146.055C191.635 145.946 191.514 145.767 191.464 145.557C191.415 145.347 191.441 145.123 191.537 144.935C191.635 144.749 191.793 144.613 191.979 144.558C192.164 144.504 192.361 144.534 192.527 144.643L196.525 147.268C196.69 147.376 196.811 147.554 196.861 147.763C196.911 147.971 196.886 148.194 196.792 148.382C196.744 148.475 196.681 148.558 196.605 148.623C196.529 148.689 196.443 148.738 196.35 148.766C196.258 148.794 196.162 148.801 196.067 148.787C195.973 148.773 195.881 148.737 195.799 148.683Z" fill="white"/>
</g>
<g opacity="0.3">
<path d="M187.985 142.637C187.937 142.73 187.874 142.811 187.799 142.876C187.724 142.941 187.638 142.989 187.547 143.016C187.455 143.044 187.36 143.051 187.266 143.036C187.172 143.022 187.082 142.986 187 142.932L183.005 140.307C182.923 140.254 182.851 140.183 182.794 140.098C182.736 140.014 182.694 139.917 182.669 139.814C182.645 139.711 182.639 139.603 182.651 139.497C182.663 139.391 182.694 139.289 182.741 139.197C182.837 139.01 182.995 138.874 183.179 138.818C183.364 138.762 183.56 138.791 183.726 138.898L187.729 141.527C187.811 141.58 187.883 141.652 187.94 141.737C187.997 141.822 188.039 141.919 188.063 142.023C188.087 142.126 188.093 142.234 188.08 142.34C188.067 142.446 188.035 142.548 187.987 142.64L187.985 142.637Z" fill="white"/>
</g>
<path d="M188.552 143.789C188.552 143.61 188.584 143.432 188.644 143.267C188.705 143.101 188.794 142.95 188.907 142.824C189.019 142.697 189.152 142.597 189.299 142.528C189.445 142.46 189.602 142.425 189.761 142.425C190.001 142.425 190.235 142.506 190.434 142.656C190.633 142.807 190.789 143.021 190.88 143.271C190.972 143.522 190.996 143.797 190.949 144.063C190.903 144.329 190.787 144.573 190.618 144.765C190.448 144.956 190.232 145.087 189.997 145.14C189.762 145.193 189.519 145.165 189.297 145.062C189.076 144.958 188.887 144.782 188.754 144.557C188.621 144.332 188.55 144.067 188.55 143.796L188.552 143.789Z" fill="#263238"/>
<path d="M84.1812 160.432C92.3046 160.432 98.8899 152.984 98.8899 143.796C98.8899 134.608 92.3046 127.16 84.1812 127.16C76.0578 127.16 69.4725 134.608 69.4725 143.796C69.4725 152.984 76.0578 160.432 84.1812 160.432Z" fill="#263238"/>
<path opacity="0.4" d="M84.1811 153.994C89.1611 153.994 93.1981 149.428 93.1981 143.796C93.1981 138.163 89.1611 133.597 84.1811 133.597C79.2011 133.597 75.1641 138.163 75.1641 143.796C75.1641 149.428 79.2011 153.994 84.1811 153.994Z" fill="white"/>
<g opacity="0.3">
<path d="M84.1812 134.621H84.1784C83.7804 134.621 83.4577 134.986 83.4577 135.436V140.664C83.4577 141.114 83.7804 141.479 84.1784 141.479H84.1812C84.5792 141.479 84.9019 141.114 84.9019 140.664V135.436C84.9019 134.986 84.5792 134.621 84.1812 134.621Z" fill="white"/>
</g>
<g opacity="0.3">
<path d="M84.1812 146.113H84.1784C83.7804 146.113 83.4577 146.478 83.4577 146.928V152.155C83.4577 152.606 83.7804 152.971 84.1784 152.971H84.1812C84.5792 152.971 84.9019 152.606 84.9019 152.155V146.928C84.9019 146.478 84.5792 146.113 84.1812 146.113Z" fill="white"/>
</g>
<g opacity="0.3">
<path d="M86.9305 142.939C86.8481 142.991 86.7575 143.024 86.6637 143.036C86.57 143.048 86.4752 143.038 86.3846 143.009C86.2941 142.979 86.2097 142.929 86.1363 142.862C86.063 142.795 86.0021 142.712 85.9573 142.618C85.9094 142.526 85.878 142.424 85.8651 142.318C85.8521 142.212 85.8578 142.104 85.8818 142.001C85.9058 141.897 85.9476 141.8 86.0049 141.715C86.0621 141.63 86.1337 141.558 86.2155 141.504L90.2247 138.895C90.3068 138.842 90.3974 138.807 90.4914 138.794C90.5854 138.78 90.6808 138.787 90.7722 138.815C90.8637 138.843 90.9494 138.892 91.0243 138.957C91.0993 139.023 91.1621 139.104 91.2092 139.197C91.2564 139.29 91.287 139.392 91.2991 139.499C91.3113 139.605 91.3048 139.713 91.28 139.816C91.2552 139.92 91.2127 140.017 91.1548 140.102C91.0969 140.186 91.0247 140.257 90.9425 140.311L86.9447 142.936L86.9305 142.939Z" fill="white"/>
</g>
<g opacity="0.3">
<path d="M77.1532 148.362C77.106 148.27 77.0753 148.168 77.063 148.062C77.0507 147.956 77.0569 147.848 77.0815 147.745C77.106 147.642 77.1482 147.545 77.2058 147.461C77.2634 147.376 77.3352 147.305 77.4171 147.252L81.4177 144.624C81.4999 144.569 81.5907 144.534 81.6849 144.52C81.7792 144.505 81.875 144.512 81.967 144.539C82.0589 144.567 82.1452 144.614 82.2209 144.679C82.2966 144.745 82.3601 144.826 82.408 144.919C82.5034 145.107 82.529 145.33 82.479 145.54C82.429 145.749 82.3075 145.928 82.1413 146.036L78.1435 148.664C78.061 148.718 77.9699 148.753 77.8754 148.767C77.7809 148.781 77.6849 148.774 77.5929 148.746C77.5009 148.718 77.4147 148.67 77.3393 148.604C77.2638 148.538 77.2006 148.456 77.1532 148.362Z" fill="white"/>
</g>
<g opacity="0.3">
<path d="M91.2034 148.385C91.1078 148.571 90.9509 148.707 90.767 148.763C90.583 148.819 90.3869 148.79 90.2217 148.683L86.2154 146.055C86.0504 145.945 85.9306 145.765 85.8823 145.555C85.8339 145.345 85.8608 145.122 85.9572 144.935C86.0047 144.842 86.0679 144.761 86.1431 144.697C86.2184 144.632 86.3043 144.585 86.3958 144.557C86.4873 144.53 86.5826 144.524 86.6763 144.539C86.77 144.553 86.8602 144.589 86.9417 144.643L90.9395 147.268C91.1043 147.376 91.2246 147.553 91.274 147.762C91.3235 147.97 91.2981 148.191 91.2034 148.378V148.385Z" fill="white"/>
</g>
<g opacity="0.3">
<path d="M82.4023 142.644C82.3545 142.736 82.2912 142.817 82.2158 142.881C82.1404 142.946 82.0545 142.993 81.963 143.02C81.8716 143.046 81.7763 143.052 81.6827 143.038C81.5892 143.023 81.4991 142.987 81.4177 142.933L77.4171 140.308C77.3352 140.254 77.2634 140.183 77.2058 140.099C77.1482 140.014 77.106 139.918 77.0815 139.814C77.0569 139.711 77.0507 139.604 77.063 139.498C77.0753 139.392 77.106 139.29 77.1532 139.197C77.2494 139.009 77.4076 138.872 77.5932 138.815C77.7788 138.758 77.9767 138.787 78.1435 138.896L82.1413 141.524C82.3062 141.633 82.4266 141.811 82.476 142.019C82.5254 142.228 82.5 142.45 82.4051 142.637L82.4023 142.644Z" fill="white"/>
</g>
<path d="M84.1811 142.425C84.4208 142.425 84.655 142.506 84.8542 142.656C85.0535 142.807 85.2088 143.021 85.3005 143.271C85.3922 143.522 85.4161 143.797 85.3694 144.063C85.3227 144.329 85.2073 144.573 85.0378 144.765C84.8684 144.956 84.6525 145.087 84.4175 145.14C84.1825 145.193 83.9389 145.165 83.7175 145.062C83.4961 144.958 83.3069 144.782 83.1738 144.557C83.0407 144.332 82.9696 144.067 82.9696 143.796C82.9704 143.433 83.0982 143.084 83.3253 142.828C83.5523 142.571 83.8601 142.426 84.1811 142.425Z" fill="#263238"/>
<path opacity="0.3" d="M212.457 112.414C212.573 112.373 212.681 112.306 212.775 112.218C212.869 112.13 212.946 112.021 213.003 111.899C213.06 111.777 213.094 111.643 213.105 111.506C213.116 111.368 213.103 111.23 213.067 111.098C212.896 107.594 212.238 104.478 210.34 102.334C210.279 102.105 210.15 101.906 209.975 101.772C209.8 101.637 209.589 101.574 209.378 101.593L198.171 102.79C198 102.81 197.838 102.883 197.702 103.001C197.566 103.12 197.462 103.278 197.401 103.459C197.34 103.64 197.324 103.837 197.356 104.028C197.388 104.218 197.465 104.395 197.581 104.539L200.79 108.454C200.901 108.589 201.042 108.688 201.198 108.743L211.929 112.42C212.102 112.474 212.285 112.472 212.457 112.414Z" fill="black"/>
<path d="M100.572 105.957C100.492 106.305 100.529 106.674 100.678 106.991C100.827 107.309 101.076 107.551 101.375 107.671L108.752 110.007C109.383 110.237 110.049 110.313 110.707 110.232L113.088 110.023L110.937 96.856C105.884 100.611 105.546 100.784 101.006 105.155C100.787 105.36 100.634 105.642 100.572 105.957Z" fill="#263238"/>
<path d="M148.586 84.8247L143.955 107.661L150.013 107.167L152.776 85.0397C151.365 84.9456 149.968 84.8739 148.586 84.8247Z" fill="#263238"/>
<path d="M167.803 102.899L176.315 90.8772C176.566 90.5496 176.72 90.141 176.755 89.7091C176.851 88.634 176.252 87.6649 175.418 87.5493C173.676 87.2798 171.82 87.0231 169.968 86.7695" fill="#263238"/>
<path d="M107.274 108.277C106.924 108.282 106.577 108.209 106.252 108.062C105.927 107.915 105.63 107.697 105.38 107.421C105.13 107.144 104.93 106.814 104.792 106.45C104.655 106.086 104.582 105.695 104.579 105.299C104.572 104.611 104.772 103.942 105.147 103.4C105.522 102.859 106.049 102.478 106.641 102.321L110.194 101.381L111.099 108.12L107.345 108.284L107.274 108.277Z" fill="#D1D1D1"/>
<path opacity="0.3" d="M110.058 108.162L111.099 108.114L110.194 101.381L109.181 101.65L110.058 108.162Z" fill="black"/>
<path opacity="0.6" d="M145.269 137.031H145.255C145.246 137.029 145.237 137.025 145.229 137.019C145.222 137.013 145.215 137.006 145.21 136.997C145.205 136.989 145.202 136.979 145.2 136.969C145.198 136.958 145.199 136.948 145.201 136.938C145.24 136.729 149.122 116.117 149.618 113.306C149.808 112.231 149.879 110.167 149.823 107.173C149.823 107.152 149.83 107.131 149.843 107.116C149.857 107.101 149.875 107.093 149.894 107.093C149.912 107.093 149.93 107.101 149.943 107.115C149.956 107.129 149.964 107.149 149.964 107.17C150.021 110.177 149.965 112.25 149.757 113.338C149.261 116.149 145.377 136.764 145.34 136.97C145.335 136.987 145.326 137.003 145.313 137.014C145.3 137.025 145.285 137.031 145.269 137.031Z" fill="black"/>
<path opacity="0.6" d="M110.27 140.124C110.259 140.124 110.247 140.121 110.237 140.115C110.226 140.109 110.217 140.1 110.211 140.089C110.162 140.006 105.152 131.62 103.43 128.109C101.662 124.499 100.516 107.199 100.467 106.464C100.467 106.443 100.473 106.422 100.485 106.406C100.497 106.39 100.514 106.38 100.533 106.377C100.542 106.376 100.552 106.378 100.561 106.381C100.57 106.385 100.578 106.39 100.585 106.397C100.593 106.404 100.598 106.413 100.602 106.423C100.607 106.433 100.609 106.443 100.609 106.454C100.609 106.631 101.801 124.451 103.554 128.032C105.257 131.534 110.279 139.906 110.33 139.999C110.335 140.008 110.339 140.018 110.341 140.028C110.343 140.039 110.343 140.05 110.341 140.06C110.339 140.071 110.335 140.081 110.33 140.089C110.325 140.098 110.318 140.106 110.31 140.112C110.298 140.121 110.284 140.125 110.27 140.124Z" fill="black"/>
<path opacity="0.6" d="M61.2044 114.644C61.1905 114.644 61.1768 114.64 61.1651 114.631C61.1534 114.623 61.1444 114.61 61.1391 114.596C61.1325 114.576 61.1329 114.553 61.1403 114.534C61.1477 114.514 61.1615 114.498 61.1789 114.49C65.0206 112.712 77.3516 109.355 80.2287 108.839C83.869 108.177 96.3078 104.705 96.4326 104.667C96.4514 104.662 96.4712 104.665 96.4876 104.677C96.5041 104.688 96.5159 104.706 96.5206 104.728C96.5227 104.738 96.523 104.749 96.5214 104.759C96.5198 104.77 96.5164 104.78 96.5114 104.788C96.5064 104.797 96.4999 104.805 96.4922 104.811C96.4845 104.817 96.4758 104.822 96.4667 104.824C96.3419 104.859 83.8973 108.331 80.2514 108.996C77.4424 109.506 64.978 112.904 61.2413 114.641L61.2044 114.644Z" fill="black"/>
<path opacity="0.8" d="M185.3 89.9722C185.024 90.2502 184.857 90.6409 184.835 91.0585C184.813 91.4761 184.939 91.8864 185.184 92.1993L186.725 94.0959C186.903 94.3079 187.129 94.4619 187.377 94.542L206.271 100.469C206.6 100.569 206.938 100.62 207.278 100.62H211.032C210.836 100.476 210.638 100.338 210.428 100.212L192.204 89.3624C191.983 89.2383 191.815 89.0203 191.736 88.7562C191.657 88.4921 191.675 88.2035 191.784 87.9536L185.865 89.6288C185.656 89.6919 185.462 89.8095 185.3 89.9722Z" fill="white"/>
<path d="M138.241 102.953C138.241 102.953 138 101.201 138.865 98.1395L138.723 98.056C138.842 97.6292 138.97 97.2345 139.086 96.8911L135.296 99.3814C135.358 100.37 134.998 102.27 134.793 103.065C134.793 103.065 134.286 104.51 135.999 104.625C137.253 104.699 138.241 102.953 138.241 102.953Z" fill="#B97964"/>
<path opacity="0.2" d="M135.199 100.755L137.358 100.273C137.146 101.021 136.533 101.9 135.037 101.926C135.119 101.541 135.173 101.15 135.199 100.755Z" fill="black"/>
<path d="M139.168 94.8309C138.851 97.4977 138.72 99.0028 137.435 100.286C135.503 102.186 132.719 100.758 132.328 98.0401C131.973 95.5851 132.549 91.6218 134.938 90.7874C135.465 90.6006 136.026 90.5674 136.567 90.6909C137.109 90.8144 137.614 91.0906 138.036 91.4939C138.458 91.8973 138.783 92.4146 138.981 92.998C139.179 93.5814 139.243 94.2119 139.168 94.8309Z" fill="#B97964"/>
<path d="M139.673 91.6346C139.444 90.1327 136.175 89.8503 135.213 90.5306C135.068 90.6301 136.935 91.8913 136.822 91.8303L137.71 92.2636C137.852 92.2379 138.119 92.4465 138.229 92.9535C138.229 92.9535 137.863 97.0516 138.817 98.3224C139.668 97.9341 139.824 96.3103 140.147 95.3636C140.627 93.9676 141.228 91.8753 139.673 91.6346Z" fill="#263238"/>
<path d="M139.96 97.1416C139.849 97.4522 139.684 97.7345 139.475 97.9721C139.266 98.2096 139.017 98.3975 138.743 98.5247C138.011 98.8649 137.801 97.9695 137.923 97.1319C138.031 96.3778 138.286 95.4664 139.058 95.4857C139.83 95.5049 140.227 96.3682 139.96 97.1416Z" fill="#B97964"/>
<path d="M135.73 95.3282C135.713 95.6009 135.571 95.8127 135.412 95.7967C135.253 95.7806 135.128 95.5496 135.157 95.2736C135.185 94.9976 135.315 94.789 135.474 94.8051C135.633 94.8211 135.747 95.0522 135.73 95.3282Z" fill="#263238"/>
<path d="M133.352 95.187C133.335 95.4598 133.193 95.6716 133.034 95.6556C132.875 95.6395 132.75 95.4085 132.779 95.1325C132.807 94.8565 132.941 94.6479 133.097 94.664C133.253 94.68 133.369 94.9303 133.352 95.187Z" fill="#263238"/>
<path d="M134.132 95.0972C134.132 95.0972 133.281 96.3808 132.997 96.9328C133.312 97.305 133.905 97.1927 133.905 97.1927L134.132 95.0972Z" fill="#A24E3F"/>
<path d="M136.405 94.0832C136.386 94.0908 136.365 94.0924 136.345 94.0879C136.325 94.0834 136.307 94.0729 136.292 94.0575C136.188 93.9459 136.063 93.8631 135.926 93.8158C135.789 93.7684 135.644 93.7578 135.503 93.7847C135.473 93.7926 135.443 93.7873 135.417 93.7699C135.391 93.7526 135.372 93.7245 135.364 93.6916C135.36 93.6754 135.359 93.6585 135.361 93.6419C135.363 93.6252 135.368 93.6093 135.376 93.5949C135.384 93.5805 135.394 93.568 135.406 93.5582C135.418 93.5483 135.432 93.5413 135.446 93.5376C135.623 93.4974 135.806 93.5055 135.98 93.5613C136.153 93.6171 136.313 93.719 136.445 93.8585C136.466 93.8825 136.477 93.9148 136.477 93.9484C136.477 93.982 136.466 94.0142 136.445 94.0382C136.435 94.0571 136.422 94.0727 136.405 94.0832Z" fill="#263238"/>
<path d="M134.734 98.255H134.634C134.606 98.2518 134.58 98.2363 134.561 98.2118C134.543 98.1873 134.534 98.1556 134.535 98.1235C134.539 98.092 134.553 98.0632 134.574 98.0429C134.596 98.0227 134.623 98.0125 134.651 98.0143C134.829 98.0185 135.006 97.9817 135.171 97.9061C135.336 97.8305 135.485 97.7177 135.61 97.5747C135.62 97.5633 135.632 97.5543 135.645 97.5482C135.658 97.542 135.672 97.5388 135.686 97.5388C135.7 97.5388 135.714 97.542 135.726 97.5482C135.739 97.5543 135.751 97.5633 135.761 97.5747C135.779 97.5995 135.787 97.6312 135.784 97.663C135.782 97.6948 135.768 97.7242 135.747 97.7448C135.475 98.0479 135.115 98.2292 134.734 98.255Z" fill="#263238"/>
<path opacity="0.2" d="M138.334 97.1508C138.325 97.1493 138.316 97.1457 138.308 97.1401C138.3 97.1345 138.293 97.1271 138.288 97.1183C138.283 97.1096 138.279 97.0997 138.277 97.0893C138.275 97.0789 138.276 97.0681 138.278 97.0578C138.319 96.8139 138.417 96.5868 138.561 96.3999C138.68 96.2363 138.844 96.1231 139.027 96.079C139.125 96.0571 139.228 96.0692 139.32 96.1138C139.413 96.1585 139.492 96.2335 139.546 96.3293C139.555 96.3476 139.558 96.3694 139.553 96.3898C139.548 96.4102 139.537 96.4277 139.52 96.4384C139.512 96.4435 139.503 96.4467 139.494 96.4478C139.485 96.449 139.475 96.448 139.466 96.445C139.457 96.4421 139.449 96.4371 139.442 96.4305C139.434 96.4238 139.428 96.4156 139.424 96.4063C139.384 96.3311 139.324 96.2719 139.253 96.2374C139.182 96.2028 139.102 96.1945 139.027 96.2138C138.875 96.2544 138.74 96.3517 138.644 96.4898C138.517 96.6558 138.431 96.8576 138.397 97.0738C138.396 97.0928 138.389 97.1107 138.378 97.1248C138.366 97.1388 138.351 97.148 138.334 97.1508Z" fill="black"/>
<path d="M132.376 93.9451C132.355 93.9373 132.336 93.9228 132.322 93.9034C132.311 93.8914 132.303 93.8772 132.297 93.8615C132.291 93.8458 132.288 93.8289 132.288 93.8119C132.288 93.7949 132.291 93.778 132.297 93.7623C132.303 93.7466 132.311 93.7324 132.322 93.7204C132.457 93.5866 132.618 93.4909 132.792 93.4413C132.966 93.3916 133.149 93.3894 133.324 93.4348C133.352 93.4452 133.376 93.4677 133.39 93.4976C133.405 93.5275 133.408 93.5625 133.4 93.5953C133.397 93.6117 133.39 93.6271 133.381 93.6405C133.372 93.6539 133.361 93.665 133.347 93.6731C133.334 93.6813 133.32 93.6863 133.305 93.6878C133.29 93.6893 133.275 93.6873 133.261 93.6819C133.122 93.6462 132.977 93.6492 132.839 93.6905C132.702 93.7319 132.575 93.8104 132.47 93.9194C132.456 93.9308 132.441 93.939 132.425 93.9434C132.409 93.9478 132.392 93.9484 132.376 93.9451Z" fill="#263238"/>
<path d="M140.235 90.5113C140.088 89.8984 139.407 89.7251 138.876 89.8149C138.939 89.08 138.113 88.6051 137.583 88.5922C137.312 88.5527 137.037 88.6319 136.816 88.8137C136.859 88.8137 136.666 88.4414 136.533 88.2842C136.308 88.0011 136.014 87.8006 135.688 87.7085C135.362 87.6164 135.018 87.637 134.703 87.7675C134.387 87.9197 134.115 88.1697 133.919 88.4887C133.722 88.8077 133.61 89.1828 133.593 89.571C133.512 89.4718 133.414 89.3917 133.305 89.3355C133.196 89.2793 133.078 89.2481 132.958 89.2436C132.838 89.2391 132.719 89.2615 132.607 89.3094C132.495 89.3574 132.392 89.4299 132.305 89.5229C132.14 89.7349 132.049 90.0076 132.049 90.2899C132.049 90.5722 132.14 90.8448 132.305 91.0569C132.201 91.0638 132.099 91.0939 132.006 91.1453C131.912 91.1967 131.828 91.2685 131.759 91.3565C131.619 91.5344 131.548 91.7677 131.56 92.0052C131.573 92.2426 131.668 92.4648 131.825 92.6228C131.983 92.7807 132.189 92.8616 132.399 92.8476C132.399 93.3899 132.416 94.0702 132.413 94.6158L133.151 92.6614C133.485 92.5459 133.556 92.3822 133.644 91.9779C133.863 92.5042 134.243 92.4849 134.737 92.4946C134.988 92.4924 135.234 92.4115 135.448 92.2608C135.661 92.1101 135.833 91.8956 135.945 91.6409C136.048 91.9163 136.214 92.1551 136.427 92.3319C136.64 92.5088 136.891 92.6171 137.154 92.6454C137.418 92.6493 137.674 92.541 137.871 92.342C138.068 92.1429 138.192 91.8676 138.218 91.5703C138.358 91.8315 138.576 92.0276 138.832 92.1235C139.089 92.2193 139.367 92.2087 139.617 92.0934C139.862 91.9459 140.055 91.7099 140.168 91.4231C140.28 91.1363 140.304 90.8153 140.235 90.5113Z" fill="#263238"/>
<path d="M134.575 102.536L125.524 105.957L117.199 105.476L116.879 108.409C116.879 108.409 119.364 108.999 121.787 109.372L129.573 108.768C132.169 108.072 134.731 107.225 134.731 107.225L134.575 102.536Z" fill="#B97964"/>
<path d="M132.665 108.681L133.599 102.549L137.12 101.856C137.276 101.83 140.136 101.563 140.996 105.113L141.189 107.937L132.665 108.681Z" fill="#263238"/>
<path d="M135.528 108.39C135.332 108.39 129.726 109.002 129.726 109.002L128.713 104.471C130.308 103.727 131.94 103.084 133.599 102.546C136.206 101.75 138.652 101.503 139.214 102.867C140.283 105.492 135.528 108.39 135.528 108.39Z" fill="#263238"/>
<path d="M114.467 104.134C114.308 104.243 112.421 106.451 112.421 106.451L112.787 109.182L115.159 106.413L114.467 104.134Z" fill="#263238"/>
<path d="M117.307 109.837C117.105 109.948 116.873 109.965 116.661 109.884C116.448 109.803 116.272 109.63 116.172 109.403L112.407 100.781C112.308 100.553 112.293 100.29 112.365 100.05C112.437 99.8092 112.589 99.6106 112.79 99.4969C112.991 99.3854 113.224 99.3684 113.436 99.4495C113.649 99.5306 113.824 99.7033 113.925 99.9301L117.687 108.556C117.785 108.783 117.8 109.045 117.729 109.285C117.658 109.524 117.506 109.722 117.307 109.837Z" fill="#263238"/>
<path d="M120.017 105.71L116.918 105.242L116.022 104.016C116.022 104.016 114.447 103.855 114.109 104.173C113.772 104.491 113.431 105.501 113.431 105.501C113.431 105.501 113.023 106.329 113.715 106.766C113.715 106.766 113.269 107.504 114.064 108.024C114.064 108.024 113.479 108.396 114.319 108.788C114.641 108.932 114.985 109.002 115.33 108.995C115.676 108.987 116.017 108.901 116.334 108.743C116.797 108.614 117.277 108.573 117.752 108.621L120.57 109.182L120.017 105.71Z" fill="#B97964"/>
<path d="M167.803 81.0219C165.102 80.5983 161.722 80.2582 158.289 80.0592C158.274 80.062 158.258 80.0611 158.243 80.0563C158.228 80.0516 158.214 80.0432 158.202 80.0318C158.19 80.0203 158.181 80.0061 158.174 79.99C158.167 79.974 158.164 79.9565 158.164 79.9388C158.164 79.9212 158.167 79.9037 158.174 79.8876C158.181 79.8716 158.19 79.8574 158.202 79.8459C158.214 79.8345 158.228 79.8261 158.243 79.8213C158.258 79.8166 158.274 79.8156 158.289 79.8185C161.731 80.011 165.116 80.3512 167.823 80.7812C167.848 80.7875 167.87 80.8037 167.886 80.8271C167.901 80.8505 167.909 80.8793 167.907 80.9085C167.906 80.9377 167.895 80.9651 167.877 80.986C167.858 81.0068 167.834 81.0195 167.809 81.0219H167.803Z" fill="#407BFF"/>
<path d="M170.541 81.343L168.867 81.1505C168.853 81.1493 168.84 81.145 168.827 81.1379C168.815 81.1307 168.804 81.1209 168.795 81.109C168.786 81.0971 168.779 81.0832 168.775 81.0683C168.771 81.0534 168.769 81.0377 168.77 81.0221C168.771 81.006 168.775 80.9903 168.781 80.9759C168.787 80.9615 168.796 80.9487 168.807 80.9385C168.818 80.9282 168.831 80.9206 168.845 80.9162C168.858 80.9118 168.873 80.9108 168.887 80.913C169.437 80.974 169.996 81.0349 170.561 81.1023C170.589 81.1056 170.615 81.1212 170.633 81.1458C170.651 81.1704 170.66 81.2021 170.657 81.2339C170.654 81.2654 170.64 81.2942 170.618 81.3144C170.597 81.3347 170.569 81.3449 170.541 81.343Z" fill="#407BFF"/>
</svg>
