<svg width="1268" height="1225" viewBox="0 0 1268 1225" fill="none" xmlns="http://www.w3.org/2000/svg">
<path opacity="0.1" fill-rule="evenodd" clip-rule="evenodd" d="M1337.39 522.473C1306.86 666.915 1366.75 841.103 1265.46 948.502C1159.53 1060.81 967.035 1129.88 828.223 1062.32C684.736 992.484 736 758.836 630.232 639.342C529.538 525.581 308.299 549.256 249.938 408.988C191.722 269.07 263.943 99.1778 355.122 -21.8695C440.522 -135.245 582.673 -188.608 721.685 -217.292C838.508 -241.397 958.319 -217.109 1067.4 -168.841C1159.14 -128.247 1220.57 -47.97 1282.57 30.898C1339.08 102.795 1399.45 175.588 1409.59 266.475C1419.66 356.801 1356.18 433.551 1337.39 522.473Z" fill="#A6CEF2"/>
</svg>
