<svg width="31" height="30" viewBox="0 0 31 30" fill="none" xmlns="http://www.w3.org/2000/svg">
<path d="M11.8627 2.5C8.58767 2.5 5.92517 5.1625 5.92517 8.4375C5.92517 11.65 8.43767 14.25 11.7127 14.3625C11.8127 14.35 11.9127 14.35 11.9877 14.3625C12.0127 14.3625 12.0252 14.3625 12.0502 14.3625C12.0627 14.3625 12.0627 14.3625 12.0752 14.3625C15.2752 14.25 17.7877 11.65 17.8002 8.4375C17.8002 5.1625 15.1377 2.5 11.8627 2.5Z" fill="#90A3BF"/>
<path d="M18.2127 17.6876C14.7252 15.3626 9.03767 15.3626 5.52517 17.6876C3.93767 18.7501 3.06267 20.1876 3.06267 21.7251C3.06267 23.2626 3.93767 24.6876 5.51267 25.7376C7.26267 26.9126 9.56267 27.5001 11.8627 27.5001C14.1627 27.5001 16.4627 26.9126 18.2127 25.7376C19.7877 24.6751 20.6627 23.2501 20.6627 21.7001C20.6502 20.1626 19.7877 18.7376 18.2127 17.6876Z" fill="#90A3BF"/>
<path d="M25.6002 9.17488C25.8002 11.5999 24.0752 13.7249 21.6877 14.0124C21.6752 14.0124 21.6752 14.0124 21.6627 14.0124H21.6252C21.5502 14.0124 21.4752 14.0124 21.4127 14.0374C20.2002 14.0999 19.0877 13.7124 18.2502 12.9999C19.5377 11.8499 20.2752 10.1249 20.1252 8.24988C20.0377 7.23738 19.6877 6.31238 19.1627 5.52488C19.6377 5.28738 20.1877 5.13738 20.7502 5.08738C23.2002 4.87488 25.3877 6.69988 25.6002 9.17488Z" fill="#90A3BF"/>
<path d="M28.1002 20.7375C28.0002 21.95 27.2252 23 25.9252 23.7125C24.6752 24.4 23.1002 24.725 21.5377 24.6875C22.4377 23.875 22.9627 22.8625 23.0627 21.7875C23.1877 20.2375 22.4502 18.75 20.9752 17.5625C20.1377 16.9 19.1627 16.375 18.1002 15.9875C20.8627 15.1875 24.3377 15.725 26.4752 17.45C27.6252 18.375 28.2127 19.5375 28.1002 20.7375Z" fill="#90A3BF"/>
</svg>
