<svg width="17" height="18" viewBox="0 0 17 18" fill="none" xmlns="http://www.w3.org/2000/svg">
<path d="M7.55172 3.25613L7.96025 1.72916L8.36878 0.20166L9.00787 1.6953L9.6475 3.18841L10.5533 1.95984L11.4591 0.730756L11.2726 2.41222C11.0952 4.00956 11.1403 4.05612 12.1688 3.33814C13.6712 2.29 14.2168 2.39476 13.5655 3.60587C12.7521 5.11961 12.8685 5.28363 14.4766 4.89421C15.9359 4.54078 15.9364 4.54184 14.9255 5.67781C14.3262 6.35135 14.1637 6.84234 14.527 6.8815C15.0997 6.9434 15.6363 7.05715 16.6016 7.32117C16.821 7.38149 16.2828 7.74815 15.4062 8.13651L13.8125 8.84285L15.4062 9.52433L17 10.2053L15.1566 10.4042L13.3131 10.6037L14.6174 11.583C16.2122 12.7814 15.7962 13.3867 13.8778 12.6603L12.4674 12.1259L13.2866 13.7037C14.1668 15.3994 13.6122 15.8439 12.4164 14.401C11.7635 13.6132 11.6583 13.71 11.4059 15.3269L11.1244 17.1327L10.2319 15.5454C9.50354 14.2502 9.33406 14.1529 9.31015 15.0163C9.29368 15.5983 9.05251 16.4317 8.7736 16.8682C8.37623 17.4899 8.18922 17.2819 7.91137 15.9084L7.5565 14.1544L6.57102 15.6439L5.58503 17.1327L5.58184 15.3312C5.57812 13.5613 5.55953 13.5465 4.51243 14.4904C3.19652 15.6761 2.62278 15.2391 3.45684 13.6867C4.05024 12.5825 3.99819 12.546 2.30457 12.8714L0.53125 13.2121L2.08303 11.9058L3.63482 10.5994L1.8174 10.4026L0 10.2053L1.59375 9.50581L3.1875 8.80581L1.72337 8.29418C0.0940249 7.7254 0.248088 6.81536 1.97306 6.81536C3.07221 6.81536 3.07328 6.80054 2.07453 5.68045C1.06462 4.54765 1.06569 4.54554 2.52344 4.81326C4.15969 5.11326 4.20909 5.04765 3.43453 3.60587C2.86662 2.54926 3.61834 2.09371 4.25 3.11169C4.87528 4.11961 5.57813 3.6339 5.58981 2.18577L5.6015 0.730756L6.57688 1.9937L7.55172 3.25613Z" fill="white"/>
</svg>
